<svg width="32" height="32" viewBox="0 0 32 32" fill="none" xmlns="http://www.w3.org/2000/svg">
<path d="M11.3553 0.124796C11.701 0.0566043 13.0082 -0.201134 14.4608 0.314552C16.1907 0.928712 16.8344 2.15496 16.9716 2.43506L17.0158 2.52617C17.2521 3.02248 17.3534 3.47948 17.4074 3.85785C17.4587 4.21717 17.479 4.60269 17.489 4.96559C17.4996 5.34672 17.5006 5.79776 17.4914 6.22596V6.22596C17.4773 6.88258 18.2572 7.27191 18.7517 6.83974C18.849 6.75473 18.9416 6.67371 19.0291 6.59693C20.0472 5.7039 20.383 4.76035 21.3128 3.88676C21.4742 3.74274 21.9208 3.41137 22.2147 3.2359C23.8101 2.48299 25.7045 2.52062 27.2481 3.39336C28.1401 3.89772 28.8559 4.73034 29.1253 5.71906V5.71906C29.2341 6.19951 29.2031 6.58474 29.1969 6.6696C29.186 6.81916 29.1667 6.93724 29.1557 6.99896C29.1189 7.20651 29.0677 7.36885 29.0644 7.37987C29.0486 7.43184 29.0346 7.47355 29.026 7.49848C29.0026 7.56652 28.9713 7.65276 28.9324 7.75323C28.915 7.80157 28.8921 7.86502 28.8626 7.9475V7.9475C28.4196 9.18631 29.5005 10.344 30.7299 10.8125C34.4289 12.2219 28.8713 18.9457 28.8713 18.9457C28.6532 19.2154 28.3946 19.5519 28.0895 19.9714C26.4914 22.1683 24.2157 25.769 22.9156 27.7322C22.331 28.615 21.8683 29.2757 21.4851 29.7031C21.3853 29.8145 21.1672 30.0515 20.8548 30.2956C20.7006 30.416 20.398 30.6382 19.9641 30.8436C19.5787 31.0261 18.6613 31.4017 17.413 31.3284C15.9123 31.2404 14.7477 30.5602 14.0602 29.7669C13.4943 29.1138 13.3226 28.4812 13.263 28.2193V28.2193C13.2433 28.1324 13.1113 28.1195 13.0811 28.2033C13.0064 28.4102 12.9368 28.6012 12.8703 28.7755C12.781 29.0096 12.6771 29.2657 12.5585 29.5047C12.5017 29.619 12.4024 29.8099 12.2585 30.0229C12.2063 30.1002 11.7932 30.751 10.9332 31.2741C10.4405 31.5738 9.39156 32.0784 7.94299 31.9897C6.38645 31.8944 5.33703 31.18 4.78785 30.6263C3.94482 29.7763 3.7979 28.8534 3.78876 28.81C3.70001 28.3887 3.71086 28.012 3.71108 27.9846L3.71159 27.9411C3.71878 27.4933 3.78102 27.0894 3.82439 26.8281C3.92992 26.1924 4.07724 25.4261 4.70836 23.0433C4.73969 22.925 4.64723 22.8102 4.52485 22.8102V22.8102C2.02584 22.8102 0 21.1023 0 18.9955C9.55278e-07 18.7449 0.0431411 18.2566 0.0808798 17.8457C0.487375 13.4203 2.52525 9.3344 4.61997 5.63162C5.66163 3.7903 6.62363 2.57969 7.92409 1.64228C9.08833 0.80306 10.3232 0.32836 11.3553 0.124796Z" fill="#0264D4"/>
</svg>
