<svg width="256" height="256" viewBox="0 0 256 256" xmlns="http://www.w3.org/2000/svg">
<path d="M173.66 122.34C174.404 123.083 174.994 123.965 175.396 124.936C175.799 125.908 176.006 126.949 176.006 128C176.006 129.051 175.799 130.092 175.396 131.064C174.994 132.035 174.404 132.917 173.66 133.66L141.66 165.66C140.159 167.161 138.123 168.004 136 168.004C133.877 168.004 131.841 167.161 130.34 165.66C128.839 164.159 127.996 162.123 127.996 160C127.996 157.877 128.839 155.841 130.34 154.34L148.69 136H88C85.8783 136 83.8434 135.157 82.3431 133.657C80.8429 132.157 80 130.122 80 128C80 125.878 80.8429 123.843 82.3431 122.343C83.8434 120.843 85.8783 120 88 120H148.69L130.34 101.66C128.839 100.159 127.996 98.1229 127.996 96C127.996 93.8771 128.839 91.8411 130.34 90.34C131.841 88.8389 133.877 87.9955 136 87.9955C138.123 87.9955 140.159 88.8389 141.66 90.34L173.66 122.34Z" fill="currentColor" />
</svg>