<svg class="footer-divider" xmlns="http://www.w3.org/2000/svg" width="1136" height="37" fill="none"><path d="M332.926.034c13.749-.09 16.12.01 18.071.142 1.895.128 3.387.283 4.574.559 1.146.265 2.238.695 2.937 1.532.369.44.621.993.657 1.616a2.82 2.82 0 0 1-.472 1.702c-.327.504-.804.899-1.251 1.204-.467.32-1.013.616-1.588.894-1.146.554-2.54 1.093-3.909 1.602-2.155.802-5.622 1.625-9.794 2.466-4.2.847-9.214 1.73-14.515 2.64-3.34.574-8.31 1.26-33.49 4.407-25.196 3.15-70.644 8.712-95.712 11.825-1.396.174-2.736.344-4.024.505a2871.144 2871.144 0 0 1 54.208-4.35c40.151-2.851 95.512-6.008 192.972-9.586 97.455-3.58 235.337-7.485 308.929-9.622 73.609-2.136 78.717-2.384 83.419-2.658a581.95 581.95 0 0 0 14.828-1.038l1.524-.139a148.454 148.454 0 0 1 .898-.077l.056-.003h.052l.059.001c.028.002.105.009.153.015.113.021.602.228.917.504.363.995-.25 2.19-.518 2.348a2.777 2.777 0 0 1-.26.09 3.34 3.34 0 0 1-.081.017c-.049.01-.089.014-.09.014l-.052.006c-.548.052-1.363.126-2.422.215-.922.084-2.187.199-3.914.359-6.051.56-17.78 1.657-40.393 3.797-45.226 4.278-133.959 12.71-181.198 17.244a11987.037 11987.037 0 0 0-38.491 3.737c6.697-.315 14.982-.715 25.223-1.227 51.244-2.56 152.034-7.828 222.088-11.015 70.061-3.187 106.341-4.133 139.534-4.62 33.189-.487 62.189-.488 88.789-.15 26.59.336 49.9 1.01 73.91 1.705.82.023 1.47.714 1.45 1.543-.02.827-.71 1.48-1.54 1.456-24-.695-47.29-1.368-73.86-1.705-26.57-.336-55.54-.336-88.705.15-33.157.488-69.405 1.432-139.443 4.618-70.045 3.186-170.817 8.454-222.073 11.016-25.625 1.28-39.015 1.879-45.946 2.134-3.458.128-5.33.171-6.314.17-.46-.002-.818-.011-1.061-.047a1.875 1.875 0 0 1-.328-.076 1.515 1.515 0 0 1-.479-2.623c.176-.142.347-.213.388-.23l.346-.131c.382-.13.861-.255 1.389-.379a62.312 62.312 0 0 1 2.752-.565c2.182-.405 5.061-.869 8.453-1.355 3.31-.474 6.418-.86 53.633-5.392 42.577-4.087 118.858-11.34 166.616-15.864-10.268.307-23.104.687-39.222 1.155-73.598 2.136-211.465 6.041-308.906 9.62-97.437 3.578-152.763 6.732-192.871 9.58-40.113 2.85-64.267 5.317-76.972 6.42-6.344.55-9.847.765-11.767.803-.938.02-1.588-.001-2.026-.07a2.234 2.234 0 0 1-.859-.3 1.62 1.62 0 0 1-.603-.685 1.578 1.578 0 0 1-.101-1.032c.117-.492.427-.785.577-.91.172-.143.35-.24.48-.303.263-.129.569-.231.856-.315.587-.171 1.361-.34 2.19-.505 3.624-.722 8.902-1.68 37.462-5.227 25.083-3.115 70.51-8.674 95.71-11.825 25.217-3.152 30.1-3.827 33.355-4.386 5.3-.91 10.276-1.788 14.43-2.625 4.183-.844 7.436-1.628 9.343-2.337 1.369-.51 2.645-1.006 3.652-1.492a9.545 9.545 0 0 0 1.201-.67c.133-.091.232-.171.305-.237-.175-.108-.519-.267-1.165-.417-.935-.216-2.221-.361-4.101-.488-1.822-.123-4.083-.225-17.851-.135-13.752.09-38.205.362-64.12.98-25.91.618-52.477 1.554-91.039 3.81-38.574 2.256-87.874 5.569-114.78 7.764-32.218 2.628-40.882 3.688-46.89 4.854-5.827 1.13-9.676 1.88-11.274 2.456a40.59 40.59 0 0 0-2.057.79 7.87 7.87 0 0 0-.35.158 1.486 1.486 0 0 1-.939.334c-.774 0-1.411-.59-1.488-1.347L0 22.68c0-.597.344-.968.394-1.025.108-.12.214-.199.266-.237a2.62 2.62 0 0 1 .31-.19c.172-.092.393-.194.642-.3a43.657 43.657 0 0 1 2.219-.854c1.88-.677 6.062-1.481 11.717-2.578 6.202-1.203 15.043-2.273 47.215-4.898 26.938-2.198 76.263-5.513 114.849-7.77 38.599-2.258 65.201-3.194 91.142-3.813 25.936-.619 50.406-.89 64.172-.98ZM2.971 22.918c.002-.014.005-.029.006-.044-.001.015-.004.03-.006.044Zm.014-.106ZM851.127 3.664h-.002.013-.011Z"/></svg>