<svg width="511" height="469" viewBox="0 0 511 469" fill="none" xmlns="http://www.w3.org/2000/svg"><path d="M116.348 103.24C116.682 98.8226 117.947 93.3509 119.78 87.9642C120.701 85.2543 122.223 83.0749 124.282 80.3076C127.396 76.1226 132.087 71.9899 142.614 64.7344C150.515 59.2893 164.011 51.6629 173.973 46.198C183.935 40.7332 190.058 38.0184 196.763 35.5592C203.467 33.1 210.568 30.9785 219.78 29.1216C228.991 27.2646 240.099 25.7365 252.171 24.9672C264.244 24.198 276.946 24.2339 289.524 25.493C302.101 26.752 314.17 29.233 324.386 31.9539C334.601 34.6747 342.598 37.5603 352.38 42.0761C362.162 46.5919 373.487 52.6506 382.993 58.4011C392.499 64.1516 399.842 69.4103 407.339 75.5307C414.837 81.6511 422.267 88.4739 429.305 95.6787C436.344 102.884 442.767 110.264 449.018 118.174C455.269 126.084 461.153 134.3 466.679 143.099C472.204 151.898 477.193 161.031 480.657 167.902C486.161 178.822 489.381 188.245 492.561 197.808C495.777 207.477 498.099 217.742 500.172 227.805C502.236 237.819 503.251 248.538 504.118 261.617C505.28 279.155 504.488 294.719 503.744 305.425C502.991 316.268 501.07 326.927 498.985 337.447C496.847 348.235 493.589 357.754 490.235 366.322C486.729 375.279 481.917 383.47 476.925 391.496C471.888 399.594 465.703 406.458 459.229 413.405C452.46 420.669 445.09 426.325 435.58 432.652C429.636 436.606 421.191 441.235 412.079 445.578C402.967 449.921 393.385 453.625 380.626 457.025C367.868 460.425 352.224 463.409 333.296 465.243C314.368 467.078 292.63 467.671 271.072 466.075C249.515 464.48 228.796 460.677 210.27 456.085C191.743 451.492 176.038 446.224 163.437 441.394C150.837 436.563 141.817 432.329 133.01 427.532C124.202 422.735 115.881 417.504 109.764 413.253C99.8395 406.358 92.6625 399.147 85.9107 392.059C79.7256 385.566 74.4568 377.415 69.179 368.957C63.8927 360.485 59.5414 350.736 55.5442 340.995C51.6231 331.44 48.9903 320.74 46.7477 310.318C44.6614 300.622 44.4216 290.177 44.2093 279.4C43.9908 268.304 45.1387 256.777 46.8368 245.084C48.5785 233.092 51.7504 220.771 56.2395 205.362C58.918 196.168 63.2147 184.748 68.1359 172.918C73.0572 161.089 78.6786 149.34 85.092 137.611C91.5055 125.882 98.5405 114.528 105.988 103.879C113.436 93.2305 121.083 83.6301 127.211 76.4012C133.339 69.1722 137.715 64.6057 144.654 58.2935C151.593 51.9814 160.962 44.0619 168.382 38.2787C175.801 32.4955 180.987 29.0886 188.483 25.1492C195.978 21.2098 205.627 16.841 215.609 13.1836C225.59 9.52627 235.613 6.71265 243.215 4.94859C250.817 3.18453 255.694 2.55529 262.924 2.23113C270.155 1.90698 279.589 1.90698 286.792 2.33846C293.995 2.76994 298.679 3.6329 303.433 4.75614C308.186 5.87938 312.867 7.23675 319.843 9.92261C326.82 12.6085 335.95 16.5817 342.994 19.9364C350.038 23.2912 354.719 25.907 361.204 30.2794C367.69 34.6518 375.838 40.7016 383.958 47.5126C392.078 54.3237 399.923 61.7128 407.644 69.987C415.365 78.2611 422.725 87.1963 429.435 96.3029C436.146 105.41 441.986 114.417 446.28 121.371C453.3 132.741 457.954 142.463 462.072 151.942C466.013 161.015 468.763 170.828 470.983 180.088C472.949 188.286 473.171 196.749 473.38 205.167C473.594 213.75 472.722 222.498 471.274 231.188C469.799 240.042 467.056 248.972 463.143 260.049C460.807 266.66 457.118 274.731 452.98 283.197C448.842 291.663 444.202 300.14 439.024 308.678C433.846 317.216 428.27 325.558 422.51 333.464C416.751 341.371 410.978 348.589 402.85 357.508C394.723 366.427 384.417 376.827 375.274 385.196C366.131 393.566 358.463 399.588 350.287 405.271C342.11 410.953 333.657 416.113 322.192 421.787C310.726 427.461 296.504 433.493 284.526 437.773C272.548 442.054 263.245 444.4 253.55 446.139C243.855 447.878 234.05 448.938 224.011 449.467C213.971 449.995 203.994 449.959 191.862 448.7C179.73 447.441 165.747 444.96 151.452 441.332C137.158 437.703 122.977 433.001 111.499 428.463C100.02 423.924 91.6746 419.69 83.3235 414.677C74.9723 409.664 66.8689 404.001 59.0351 397.672C51.2013 391.344 43.8828 384.521 38.7196 379.285C30.5779 371.028 25.3274 363.319 20.3614 355.765C15.5958 348.516 11.9529 340.385 8.82503 332.55C5.84023 325.073 4.1822 316.634 2.86326 308.494C1.65402 301.031 1.96981 293.232 2.2968 285.267C2.63628 276.998 4.78265 268.692 6.97331 260.269C9.23629 251.567 12.9381 242.81 18.1175 231.471C21.2517 224.61 26.1034 216.258 31.6951 207.288C37.2868 198.318 43.6479 189.176 52.8175 177.684C61.9871 166.192 73.7724 152.627 86.7287 139.298C99.685 125.968 113.455 113.284 125.809 102.925C138.162 92.5662 148.682 84.9164 159.135 78.2788C169.588 71.6412 179.656 66.2477 190.287 61.5006C200.918 56.7535 211.807 52.8163 223.071 49.6463C234.335 46.4764 245.644 44.1932 256.709 42.8507C267.774 41.5081 278.253 41.1755 286.383 41.2199C294.514 41.2643 299.979 41.6958 308.262 43.3249C316.545 44.954 327.48 47.7676 335.934 50.3407C344.388 52.9138 350.03 55.1611 357.806 59.0155C365.582 62.87 375.32 68.2635 384.815 74.5028C394.309 80.7421 403.263 87.6638 409.803 93.0678C416.342 98.4718 420.197 102.148 424.013 106.128C431.601 114.04 437.963 122.315 443.284 130.035C448.608 137.758 453.061 146.788 457.19 155.754C461.205 164.471 463.965 174.071 466.413 183.481C468.844 192.823 469.827 202.133 470.377 213.024C471.169 228.698 469.903 242.689 468.53 252C467.152 261.342 464.717 270.708 462.151 279.963C460.893 284.498 459.452 288.525 456.882 294.929C454.311 301.332 450.584 309.944 446.279 318.533C441.973 327.123 437.203 335.429 433.263 341.793C429.324 348.157 426.362 352.328 421.72 357.888C417.079 363.448 410.85 370.271 403.895 376.946C396.94 383.62 389.449 389.939 381.298 395.959C373.147 401.979 364.562 407.507 355.828 412.225C347.093 416.942 338.467 420.682 329.208 423.867C319.949 427.052 310.317 429.569 300.237 431.432C290.157 433.295 279.92 434.427 269.864 434.975C259.808 435.522 250.241 435.45 237.853 434.074C225.465 432.697 210.544 430.019 198.043 426.949C185.543 423.879 175.915 420.499 166.184 416.259C156.454 412.019 146.912 407.021 137.444 401.318C127.975 395.615 118.869 389.358 110.05 382.445C101.232 375.532 92.9761 368.152 84.9756 360.031C76.9752 351.91 69.4799 343.271 63.9195 336.484C58.3591 329.696 54.9608 325.022 50.3028 317.701C45.6449 310.381 39.8303 300.555 35.822 293.256C29.5294 281.796 25.913 272.103 22.4958 262.484C19.1484 253.062 16.944 242.922 15.0462 232.985C13.1995 223.317 12.6484 212.96 12.2767 202.732C11.9283 193.148 12.8349 183.331 14.2266 173.146C15.6343 162.843 18.4388 152.731 21.4121 142.636C24.4006 132.489 28.9515 122.776 33.7019 112.965C36.0607 108.093 38.6453 103.818 43.148 97.1988C47.6506 90.5795 54.0774 81.8421 59.2518 75.3363C64.4261 68.8306 68.1532 64.8214 74.353 59.0166C80.5528 53.2118 89.1124 45.7328 95.6689 40.4732C102.225 35.2135 106.52 32.3999 111.138 29.692C115.756 26.9841 120.568 24.4671 128.395 21.2333C136.222 17.9995 146.918 14.1252 158.202 11.0866C169.486 8.04795 181.033 5.96246 195.401 5.00498C209.769 4.04749 226.609 4.28121 244.215 6.53654C261.822 8.79188 279.685 13.0617 297.284 18.9334C314.884 24.8052 331.678 32.1493 348.499 41.2318C365.32 50.3143 381.658 60.9125 394.628 70.3589C407.598 79.8053 416.704 87.7787 425.644 96.5741C434.584 105.369 443.082 114.745 449.288 121.989C455.494 129.232 459.152 134.059 462.833 139.279C466.515 144.498 470.111 149.964 473.369 155.26C476.626 160.557 479.437 165.519 483.26 173.406C487.083 181.292 491.833 191.954 495.129 200.03C500.423 213.003 503.091 223.626 505.365 233.824C507.634 243.994 508.43 253.896 508.859 262.951C509.305 272.345 508.632 282.076 507.675 291.731C506.71 301.461 504.352 311.059 501.84 320.8C499.246 330.858 495.666 339.931 492.011 348.304C488.258 356.904 483.457 364.686 478.508 372.309C473.468 380.073 467.491 386.702 461.302 393.264C458.117 396.642 454.679 399.763 449.431 404.032C444.183 408.301 437.189 413.533 429.403 418.511C421.617 423.49 413.251 428.056 404.116 432.297C394.982 436.537 385.334 440.312 372.89 443.7C360.447 447.088 345.502 449.973 327.413 451.59C309.323 453.207 288.543 453.467 270.431 452.361C252.319 451.255 237.505 448.774 220.517 444.282C203.529 439.79 184.815 433.363 170.751 427.769C156.687 422.175 147.84 417.608 139.167 412.393C130.494 407.177 122.263 401.451 114.721 395.472C107.18 389.493 100.576 383.434 94.0819 376.524C87.5878 369.614 81.4034 362.036 76.845 355.997C69.3315 346.044 64.1 336.615 59.1807 327.416C54.6739 318.988 51.3432 309.629 48.2241 300.192C45.1536 290.901 43.3321 280.939 41.9474 271.184C40.5928 261.64 40.7007 251.477 40.9945 241.493C41.2708 232.106 43.6566 222.889 46.2653 213.289C48.9819 203.291 53.2184 193.824 57.7938 184.368C62.5235 174.593 68.6781 165.404 76.8972 154.122C81.8276 147.355 88.8188 139.371 96.4817 131.219C104.145 123.068 112.4 115.22 118.897 109.407C125.393 103.593 129.88 100.051 134.719 96.5369C139.558 93.0224 144.612 89.6425 151.934 85.5372C159.255 81.4318 168.69 76.7035 178.767 72.5598C188.844 68.416 199.277 65.0001 210.218 62.3505C221.159 59.7009 232.291 57.921 243.133 56.9187C253.975 55.9164 264.191 55.7456 274.802 56.6195C285.413 57.4934 296.109 59.417 304.288 61.3339C312.467 63.2508 317.805 65.1026 323.353 67.3644C328.902 69.6263 334.498 72.2422 342.327 76.8483C350.156 81.4544 360.047 87.9716 367.647 93.3515C375.247 98.7314 380.256 102.777 387.554 109.611C394.852 116.446 404.286 125.947 411.456 133.687C418.626 141.427 423.245 147.117 427.442 152.682C431.64 158.247 435.277 163.515 438.915 169.191C442.554 174.866 446.083 180.79 449.449 186.903C456.073 198.933 461.579 211.673 466.243 224.191C470.733 236.237 473.272 249.336 475.129 261.612C476.793 272.613 475.774 283.614 474.618 294.208C473.459 304.832 469.278 314.455 465.001 323.876C460.608 333.555 454.025 341.944 447.2 350.533C440.551 358.902 432.528 365.66 424.058 372.771C419.748 376.389 415.243 379.541 410.536 382.683C405.829 385.825 401.013 388.737 384.819 395.685C368.626 402.633 341.201 413.528 312.945 424.753" stroke="white" stroke-width="4" stroke-linecap="round" stroke-linejoin="round"/></svg>