<svg width="135" height="75" viewBox="0 0 135 75" fill="none" xmlns="http://www.w3.org/2000/svg"><path d="M24.4374 27.56C20.4433 29.4787 17.622 31.0014 15.3046 32.3971C11.2272 35.0239 8.64375 36.8807 7.34098 38.1563C6.03338 39.4366 4.77665 40.7237 3.92571 41.9934C3.10875 43.2124 2.33984 44.5242 1.99665 45.8932C1.66923 47.1992 1.50378 49.1035 1.91677 51.2151C2.20649 52.6965 2.48905 53.8338 3.19426 54.9124C3.96503 56.0913 5.3467 57.9057 8.57615 60.5601C10.5036 62.1444 13.1671 64.1299 14.8895 65.3294C16.6119 66.5289 17.3479 66.9401 18.5297 67.4722C21.2039 68.6764 23.5449 69.6683 25.3324 70.196C27.0845 70.7131 28.7828 71.2348 31.2919 71.6566C35.0336 72.2855 38.3756 72.7822 40.724 72.9468C43.0555 73.1103 46.5129 73.3445 50.6292 73.234C53.7893 73.1492 59.0616 72.794 66.0026 72.0409C69.1538 71.699 71.5892 71.3905 73.5049 71.0761C76.8164 70.5327 80.9086 69.7738 86.4359 68.3809C89.4687 67.6166 92.9095 66.7067 95.1844 65.9924C98.6922 64.8909 101.078 64.0784 103.654 62.9194C107.286 61.2848 111.294 59.4108 114.235 57.64C116.452 56.3053 119.065 54.6722 121.39 52.7169C123.069 51.3042 124.854 49.545 126.613 47.1177C127.522 45.8635 128.325 44.5547 129.24 42.7146C130.156 40.8744 131.155 38.5727 131.764 36.7793C132.374 34.9859 132.586 33.7387 132.605 31.9169C132.624 30.0951 132.454 27.7692 132.093 25.7353C131.732 23.7014 131.197 22.0108 130.472 20.4141C129.747 18.8173 128.859 17.3588 127.955 16.1528C127.051 14.9469 126.216 14.0056 125.158 13.1387C123.085 11.4397 120.976 9.78837 118.117 8.44701C115.154 7.05682 112.876 6.05976 110.844 5.46661C108.081 4.65986 105.767 4.01156 104.093 3.71792C102.272 3.39856 99.5752 2.93004 95.9536 2.67848C92.4276 2.43356 89.8531 2.25017 88.1076 2.33714C83.4942 2.56703 76.748 3.06196 72.4554 3.85685C69.5229 4.39987 64.5595 5.35777 58.1142 7.07424C54.66 7.99416 50.9508 9.09429 48.1255 10.0054C45.3001 10.9165 43.3811 11.6004 41.4663 12.4101C37.5618 14.0612 33.356 15.9288 30.1632 17.9845C27.5415 19.6726 25.7415 20.9048 25.0829 21.8631C24.4592 22.7707 24.0994 23.5748 24.2901 24.2395C24.6202 25.3897 25.0335 26.0539 25.1693 26.2955L24.4374 27.56ZM24.4374 27.56C28.4315 25.6413 33.513 23.3729 38.7484 21.0356" stroke="white" stroke-opacity="0.7" stroke-width="3" stroke-linecap="round" stroke-linejoin="round"/></svg>