<svg width="1820" height="341" viewBox="0 0 1820 341" fill="none" xmlns="http://www.w3.org/2000/svg">
<path d="M267.524 96.2561L265.772 97.2205L267.524 96.2561ZM310.903 49.8806L309.661 51.4482L310.903 49.8806ZM567.793 151.016L569.762 150.666L567.793 151.016ZM569.331 68.7634L567.589 67.7804L569.331 68.7634ZM937.176 139.855L935.459 140.88L935.459 140.88L937.176 139.855ZM899.293 46.0623L897.319 46.3823L897.319 46.3823L899.293 46.0623ZM1047.44 55.3322L1048.41 53.5856L1048.41 53.5856L1047.44 55.3322ZM1408.48 242.491L1410.01 243.78L1410.01 243.78L1408.48 242.491ZM1392.25 168.49L1390.35 169.104L1392.25 168.49ZM1394.37 82.3968L1392.6 81.4612L1392.6 81.4612L1394.37 82.3968ZM1418.43 62.4679L1419.49 64.1672L1419.49 64.1672L1418.43 62.4679ZM1434.23 56.461L1434.74 58.3934L1434.74 58.3934L1434.23 56.461ZM1481.06 50.5445L1481.18 52.5413L1481.06 50.5445ZM1609.07 58.0567L1608.84 60.0434L1609.07 58.0567ZM1.97217 127.904L0.88934 129.586C89.8769 186.89 149.172 220.335 211.698 253.28L212.63 251.511L213.562 249.741C151.132 216.847 91.9377 183.46 3.055 126.223L1.97217 127.904ZM212.63 251.511L211.698 253.28C274.195 286.209 338.156 317.644 371.681 332.46L372.489 330.63L373.298 328.801C339.892 314.038 276.022 282.651 213.562 249.741L212.63 251.511ZM372.489 330.63L371.681 332.46C380.014 336.143 386.522 338.821 391.113 339.936C393.379 340.486 395.467 340.733 397.168 340.332C398.061 340.122 398.908 339.719 399.596 339.038C400.286 338.354 400.7 337.504 400.905 336.59C401.295 334.857 400.973 332.737 400.291 330.401C399.591 328.004 398.421 325.096 396.828 321.652C393.641 314.762 388.638 305.482 381.929 293.429L380.181 294.402L378.434 295.375C385.15 307.44 390.082 316.596 393.198 323.332C394.757 326.701 395.832 329.403 396.451 331.523C397.088 333.703 397.161 335.007 397.003 335.712C396.934 336.017 396.838 336.14 396.781 336.196C396.721 336.256 396.583 336.36 396.251 336.439C395.502 336.615 394.179 336.564 392.057 336.049C387.874 335.033 381.697 332.513 373.298 328.801L372.489 330.63ZM380.181 294.402L381.929 293.429C354.993 245.042 300.312 151.676 269.276 95.2917L267.524 96.2561L265.772 97.2205C296.72 153.447 351.666 247.29 378.434 295.375L380.181 294.402ZM310.903 49.8806L309.661 51.4482C379.084 106.456 509.584 213.986 576.253 267.812L577.509 266.256L578.766 264.7C512.169 210.932 381.576 103.327 312.145 48.313L310.903 49.8806ZM577.509 266.256L576.253 267.812C592.913 281.263 605.344 291.16 614.469 298.178C623.559 305.168 629.463 309.376 633.021 311.377C633.919 311.882 634.721 312.278 635.423 312.543C636.076 312.789 636.855 313.008 637.627 312.94C638.045 312.904 638.536 312.776 638.991 312.455C639.462 312.124 639.766 311.676 639.935 311.217C640.234 310.402 640.107 309.569 639.98 309.022C639.708 307.848 639.025 306.367 638.211 304.798C637.372 303.181 636.288 301.276 635.098 299.204L633.364 300.2L631.629 301.196C632.825 303.278 633.866 305.11 634.661 306.641C635.48 308.22 635.938 309.297 636.083 309.923C636.164 310.276 636.064 310.153 636.18 309.837C636.257 309.627 636.417 309.376 636.687 309.186C636.942 309.006 637.176 308.964 637.278 308.955C637.418 308.943 637.324 308.985 636.836 308.801C636.397 308.635 635.79 308.345 634.981 307.891C631.713 306.053 626.029 302.021 616.908 295.007C607.823 288.02 595.422 278.148 578.766 264.7L577.509 266.256ZM633.364 300.2L635.098 299.204C625.532 282.541 607.781 252.725 594.738 225.399L592.933 226.26L591.128 227.122C604.255 254.624 622.114 284.621 631.629 301.196L633.364 300.2ZM592.933 226.26L594.738 225.399C581.719 198.122 573.957 174.278 569.762 150.666L567.793 151.016L565.824 151.366C570.09 175.384 577.978 199.571 591.128 227.122L592.933 226.26ZM567.793 151.016L569.762 150.666C565.647 127.5 564.929 109.074 565.78 95.5028C566.635 81.8472 569.066 73.3017 571.073 69.7465L569.331 68.7634L567.589 67.7804C565.133 72.1331 562.655 81.4106 561.787 95.2526C560.915 109.179 561.66 127.925 565.824 151.366L567.793 151.016ZM569.331 68.7634L571.073 69.7465C573.16 66.0492 575.611 62.9093 579.529 60.7489L578.563 58.9975L577.598 57.2461C572.776 59.9048 569.866 63.747 567.589 67.7804L569.331 68.7634ZM578.563 58.9975L579.529 60.7489C583.479 58.5707 589.235 57.3897 596.424 57.5912L596.48 55.592L596.536 53.5927C588.927 53.3795 582.387 54.6051 577.598 57.2461L578.563 58.9975ZM596.48 55.592L596.424 57.5912C603.569 57.7914 611.833 59.392 622.103 62.7872L622.731 60.8883L623.359 58.9893C612.852 55.5159 604.189 53.8072 596.536 53.5927L596.48 55.592ZM622.731 60.8883L622.103 62.7872C632.216 66.1305 644.07 71.1532 704.064 109.566L705.142 107.882L706.221 106.197C646.282 67.82 634.022 62.5147 623.359 58.9893L622.731 60.8883ZM705.142 107.882L704.064 109.566C764.015 147.951 871.504 219.406 929.238 257.524L930.34 255.855L931.442 254.186C873.736 216.086 766.203 144.602 706.221 106.197L705.142 107.882ZM930.34 255.855L929.238 257.524C958.093 276.575 973.712 286.762 982.804 292.456C991.902 298.153 994.564 299.417 997.479 300.564L998.211 298.703L998.944 296.842C996.378 295.832 993.965 294.726 984.927 289.066C975.883 283.402 960.306 273.243 931.442 254.186L930.34 255.855ZM998.211 298.703L997.479 300.564C1003 302.737 1009.56 304.57 1014.75 303.87L1014.48 301.888L1014.22 299.906C1010.12 300.459 1004.38 298.984 998.944 296.842L998.211 298.703ZM1014.48 301.888L1014.75 303.87C1017.45 303.506 1019.74 302.447 1021.55 300.752C1023.34 299.067 1024.54 296.846 1025.22 294.298L1023.28 293.784L1021.35 293.27C1020.83 295.241 1019.95 296.759 1018.8 297.839C1017.67 298.91 1016.16 299.643 1014.22 299.906L1014.48 301.888ZM1023.28 293.784L1025.22 294.298C1025.96 291.525 1026 288.461 1023.79 282.508C1021.61 276.646 1017.17 267.765 1008.74 253.238L1007.01 254.241L1005.28 255.244C1013.69 269.75 1017.99 278.38 1020.04 283.901C1022.06 289.332 1021.82 291.523 1021.35 293.27L1023.28 293.784ZM1007.01 254.241L1008.74 253.238C991.922 224.235 958.798 172.162 938.894 138.83L937.176 139.855L935.459 140.88C955.519 174.473 988.428 226.183 1005.28 255.244L1007.01 254.241ZM937.176 139.855L938.894 138.83C911.121 92.321 904.732 67.1183 901.267 45.7422L899.293 46.0623L897.319 46.3823C900.87 68.2922 907.446 93.97 935.459 140.88L937.176 139.855ZM1047.44 55.3322L1046.47 57.0788C1115.89 95.8134 1239.65 167.081 1307.47 205.395L1308.45 203.654L1309.44 201.912C1241.68 163.638 1117.84 92.3179 1048.41 53.5856L1047.44 55.3322ZM1308.45 203.654L1307.47 205.395C1341.36 224.539 1360.35 234.92 1371.8 240.654C1383.26 246.392 1387.32 247.562 1391.3 248.159L1391.59 246.182L1391.89 244.204C1388.54 243.701 1384.93 242.754 1373.59 237.077C1362.25 231.395 1343.34 221.062 1309.44 201.912L1308.45 203.654ZM1391.59 246.182L1391.3 248.159C1395.12 248.733 1398.79 248.769 1401.99 248.12C1405.19 247.472 1408.05 246.11 1410.01 243.78L1408.48 242.491L1406.95 241.202C1405.74 242.635 1403.82 243.669 1401.2 244.2C1398.58 244.731 1395.4 244.73 1391.89 244.204L1391.59 246.182ZM1408.48 242.491L1410.01 243.78C1412.53 240.789 1413.26 236.607 1413.03 231.86C1412.8 227.078 1411.56 221.364 1409.74 214.948C1406.13 202.18 1399.96 185.885 1394.16 167.876L1392.25 168.49L1390.35 169.104C1396.26 187.445 1402.29 203.312 1405.9 216.038C1407.69 222.369 1408.82 227.734 1409.04 232.055C1409.25 236.411 1408.51 239.354 1406.95 241.202L1408.48 242.491ZM1392.25 168.49L1394.16 167.876C1380.17 124.522 1388 98.701 1396.14 83.3323L1394.37 82.3968L1392.6 81.4612C1383.97 97.7772 1376.03 124.716 1390.35 169.104L1392.25 168.49ZM1394.37 82.3968L1396.14 83.3323C1397.9 80.0063 1401.23 76.7289 1405.48 73.4719C1409.72 70.2345 1414.66 67.1616 1419.49 64.1672L1418.43 62.4679L1417.38 60.7687C1412.59 63.7408 1407.47 66.9174 1403.05 70.2953C1398.67 73.6535 1394.77 77.3573 1392.6 81.4612L1394.37 82.3968ZM1418.43 62.4679L1419.49 64.1672C1423.69 61.557 1428.95 59.9393 1434.74 58.3934L1434.23 56.461L1433.71 54.5287C1427.93 56.0715 1422.14 57.8111 1417.38 60.7687L1418.43 62.4679ZM1434.23 56.461L1434.74 58.3934C1446.2 55.3366 1460.66 53.7172 1481.18 52.5413L1481.06 50.5445L1480.95 48.5478C1460.39 49.726 1445.58 51.36 1433.71 54.5287L1434.23 56.461ZM1481.06 50.5445L1481.18 52.5413C1511.63 50.7956 1541.9 52.3077 1608.84 60.0434L1609.07 58.0567L1609.3 56.0699C1542.31 48.3279 1511.76 46.7818 1480.95 48.5478L1481.06 50.5445ZM1609.07 58.0567L1608.84 60.0434C1664.73 66.5015 1762.65 81.8305 1819.02 89.8161L1819.3 87.8358L1819.58 85.8556C1763.33 77.8872 1665.25 62.5353 1609.3 56.0699L1609.07 58.0567ZM267.524 96.2561L269.276 95.2917C260.51 79.3662 250.848 62.2118 243.261 46.979C239.469 39.366 236.217 32.2733 233.864 26.0891C231.497 19.8654 230.103 14.7195 229.91 10.9492C229.714 7.12502 230.741 5.51766 232.244 4.90877C233.151 4.54123 234.526 4.38404 236.558 4.69975C238.578 5.01364 241.112 5.77392 244.229 7.08474C256.771 12.3579 277.537 25.9946 309.661 51.4482L310.903 49.8806L312.145 48.313C280.034 22.8698 258.884 8.90698 245.78 3.3974C242.486 2.01253 239.624 1.12816 237.172 0.747173C234.732 0.368024 232.557 0.465751 230.741 1.20166C226.798 2.79966 225.691 6.79328 225.915 11.1541C226.141 15.5688 227.722 21.192 230.126 27.5113C232.545 33.8701 235.862 41.0944 239.681 48.7622C247.315 64.0911 257.038 81.3538 265.772 97.2205L267.524 96.2561ZM899.293 46.0623L901.267 45.7422C898.146 26.4874 902.018 16.2186 909.412 11.3737C917.06 6.36236 929.352 6.4698 944.696 10.3092C975.191 17.9395 1015.14 39.6043 1046.47 57.0788L1047.44 55.3322L1048.41 53.5856C1017.22 36.1825 976.778 14.2135 945.667 6.42888C930.209 2.56085 916.396 2.01551 907.22 8.02795C897.79 14.2068 894.118 26.6384 897.319 46.3823L899.293 46.0623Z" fill="#FFC294"/>
</svg>
