<svg width="1087" height="655" viewBox="0 0 1087 655" fill="none" xmlns="http://www.w3.org/2000/svg"><path d="M102.589 195.397C102.615 189.189 104.715 181.232 108.207 173.215C109.964 169.183 113.27 165.696 117.778 161.229C124.596 154.474 135.251 147.299 159.52 133.987C177.733 123.998 209.144 109.248 232.36 98.5873C255.576 87.9269 269.959 82.2651 285.799 76.775C301.64 71.2849 318.502 66.138 340.536 60.6982C362.57 55.2585 389.265 49.6818 418.438 44.8529C447.612 40.024 478.455 36.1117 509.214 33.9285C539.974 31.7453 569.715 31.4097 594.999 31.9837C620.283 32.5576 640.21 34.0513 664.76 37.2413C689.311 40.4313 717.881 45.2724 741.98 50.2549C766.079 55.2374 784.841 60.2148 804.13 66.335C823.419 72.4552 842.668 79.5673 861.036 87.3294C879.403 95.0915 896.307 103.288 912.887 112.27C929.468 121.253 945.213 130.772 960.19 141.21C975.168 151.647 988.901 162.713 998.53 171.13C1013.83 184.505 1023.32 196.523 1032.74 208.749C1042.27 221.109 1049.73 234.572 1056.55 247.832C1063.33 261.03 1067.7 275.526 1072.13 293.333C1078.07 317.209 1078.91 338.967 1079 353.995C1079.1 369.216 1076.33 384.546 1073.13 399.736C1069.86 415.314 1063.64 429.486 1057.02 442.373C1050.1 455.846 1039.87 468.668 1029.17 481.318C1018.38 494.081 1004.59 505.496 990.103 517.117C974.959 529.268 958.071 539.383 936.105 551.094C922.377 558.413 902.698 567.445 881.347 576.289C859.996 585.134 837.389 593.242 807.018 601.921C776.647 610.6 739.197 619.604 693.57 628.043C647.943 636.482 595.274 644.082 542.653 648.601C490.032 653.12 439.056 654.328 393.264 653.759C347.471 653.19 308.406 650.809 276.957 648.063C245.507 645.317 222.857 642.279 200.624 638.397C178.39 634.514 157.259 629.879 141.653 625.913C116.334 619.479 97.6295 611.751 79.9789 604.061C63.8101 597.017 49.5712 587.395 35.2559 577.351C20.9178 567.292 8.62248 555.175 -2.81126 542.959C-14.0276 530.976 -22.3194 517.01 -29.6146 503.305C-36.4014 490.555 -38.8384 476.194 -41.2673 461.366C-43.7682 446.098 -43.0282 429.809 -40.982 413.12C-38.8831 396.001 -33.3701 377.985 -25.2078 355.288C-20.3375 341.744 -11.934 324.622 -2.08687 306.737C7.76026 288.853 19.3216 270.861 32.8092 252.65C46.2968 234.439 61.3603 216.554 77.5509 199.513C93.7414 182.472 110.603 166.819 124.196 154.916C137.789 143.014 147.603 135.338 163.328 124.449C179.054 113.561 200.394 99.6933 217.379 89.3862C234.365 79.0792 246.35 72.753 263.849 64.9703C281.347 57.1876 303.996 48.1401 327.58 39.9718C351.164 31.8036 374.996 24.7887 393.139 19.9794C411.281 15.1702 423.011 12.7791 440.507 10.0758C458.003 7.37254 480.908 4.42961 498.471 2.77928C516.034 1.12896 527.561 0.860414 539.301 0.930101C551.04 0.999788 562.644 1.41584 580.059 2.95177C597.473 4.48769 620.346 7.13089 638.043 9.57022C655.74 12.0096 667.567 14.1649 684.089 18.185C700.61 22.205 721.468 28.0244 742.391 34.905C763.314 41.7856 783.671 49.551 803.885 58.5781C824.099 67.6053 843.553 77.6588 861.463 88.1515C879.373 98.6441 895.148 109.271 906.809 117.544C925.871 131.068 938.897 143.052 950.576 154.868C961.755 166.179 970.176 178.883 977.209 190.988C983.437 201.706 985.478 213.333 987.482 224.902C989.525 236.698 988.961 249.06 986.989 261.523C984.98 274.22 979.906 287.417 972.373 303.947C967.877 313.812 960.352 326.117 951.809 339.109C943.266 352.101 933.508 365.264 922.453 378.679C911.398 392.094 899.342 405.362 886.763 418.086C874.185 430.81 861.45 442.587 843.302 457.449C825.155 472.31 801.981 489.899 781.27 504.318C760.559 518.737 743.012 529.452 724.171 539.856C705.329 550.261 685.724 560.028 658.896 571.446C632.068 582.865 598.611 595.637 570.29 605.289C541.97 614.941 519.8 621.086 496.572 626.513C473.343 631.941 449.728 636.465 425.448 640.327C401.169 644.189 376.94 647.251 347.263 649.295C317.586 651.339 283.196 652.272 247.849 651.716C212.501 651.159 177.238 649.085 148.565 646.392C119.893 643.7 98.8789 640.451 77.7141 636.128C56.5494 631.805 35.8704 626.506 15.728 620.203C-4.41449 613.899 -23.3939 606.753 -36.8588 601.126C-58.091 592.254 -72.207 583.238 -85.6045 574.347C-98.4617 565.815 -108.75 555.712 -117.735 545.86C-126.309 536.458 -131.833 525.311 -136.48 514.473C-140.741 504.536 -141.359 493.658 -141.98 482.548C-142.624 471.014 -138.888 458.864 -135.065 446.54C-131.116 433.808 -123.684 420.55 -113.123 403.263C-106.732 392.802 -96.4365 379.747 -84.454 365.605C-72.4715 351.463 -58.6515 336.844 -38.4303 318.101C-18.2092 299.359 7.99424 276.935 37.0822 254.471C66.1702 232.007 97.3486 210.182 125.501 192.012C153.653 173.842 177.834 159.988 202.033 147.554C226.232 135.119 249.716 124.525 274.683 114.648C299.65 104.771 325.388 95.9328 352.172 88.0382C378.956 80.1436 406.005 73.4606 432.63 68.1537C459.255 62.8468 484.636 59.1187 504.383 56.6439C524.131 54.1691 537.476 53.0607 557.874 52.7286C578.272 52.3965 605.318 52.8744 626.3 53.7936C647.281 54.7128 661.378 56.0588 680.94 58.9605C700.503 61.8621 725.105 66.2786 749.262 71.9404C773.419 77.6021 796.387 84.3754 813.224 89.8042C830.061 95.233 840.072 99.112 850.044 103.422C869.87 111.99 886.785 121.442 901.074 130.452C915.37 139.465 927.784 150.556 939.402 161.66C950.696 172.455 959.102 184.862 966.717 197.104C974.277 209.257 978.316 221.817 981.586 236.698C986.291 258.114 985.703 277.844 984.022 291.141C982.335 304.484 978.088 318.187 973.5 331.778C971.252 338.439 968.47 344.454 963.367 354.106C958.263 363.758 950.743 376.822 941.816 390.036C932.889 403.25 922.781 416.218 914.348 426.243C905.915 436.267 899.462 442.956 889.182 452.088C878.902 461.22 864.989 472.593 849.29 483.987C833.591 495.381 816.526 506.452 797.805 517.314C779.085 528.176 759.226 538.494 738.858 547.739C718.489 556.983 698.213 564.842 676.299 572.132C654.385 579.422 631.447 585.905 607.306 591.624C583.164 597.343 558.515 602.101 534.197 605.995C509.88 609.888 486.642 612.773 456.322 614.735C426.001 616.697 389.301 617.649 358.408 617.305C327.514 616.961 303.54 615.293 279.163 612.468C254.786 609.643 230.733 605.712 206.733 600.783C182.734 595.855 159.515 590.048 136.877 583.244C114.24 576.441 92.887 568.816 72.0216 560.087C51.1562 551.359 31.4255 541.758 16.7209 534.111C2.01632 526.465 -7.06413 521.065 -19.6725 512.4C-32.2809 503.735 -48.1421 491.97 -59.1696 483.132C-76.4814 469.256 -86.9824 456.987 -96.9867 444.76C-106.787 432.782 -113.939 419.455 -120.311 406.314C-126.511 393.528 -129.688 379.386 -132.407 365.366C-134.954 352.228 -134.496 338.377 -132.926 323.867C-131.338 309.188 -126.325 294.339 -120.899 279.459C-115.445 264.503 -106.122 249.659 -96.3311 234.617C-91.4695 227.148 -85.9535 220.434 -76.1976 209.881C-66.4416 199.329 -52.3901 185.248 -40.9832 174.643C-29.5762 164.037 -21.2396 157.334 -7.21866 147.377C6.80229 137.421 26.2549 124.414 41.2388 115.1C56.2227 105.786 66.1484 100.557 76.8793 95.3744C87.6102 90.1914 98.8455 85.2118 117.274 78.301C135.702 71.3902 160.982 62.6992 187.837 54.9799C214.692 47.2607 242.355 40.7766 277.068 34.9715C311.781 29.1664 352.705 24.2367 395.85 21.8619C438.995 19.4871 483.121 19.8165 526.891 22.4421C570.661 25.0676 612.738 29.9792 655.188 37.285C697.638 44.5909 739.186 54.1421 772.351 63.1522C805.516 72.1622 829.04 80.3417 852.306 89.7089C875.572 99.0762 897.868 109.383 914.221 117.459C930.575 125.534 940.311 131.065 950.177 137.13C960.042 143.195 969.742 149.627 978.591 155.931C987.441 162.235 995.146 168.216 1005.83 177.924C1016.51 187.632 1029.94 200.884 1039.37 211.019C1054.53 227.297 1062.89 241.146 1070.22 254.531C1077.54 267.88 1081.23 281.316 1083.88 293.698C1086.63 306.542 1086.72 320.2 1086.11 333.843C1085.5 347.592 1081.48 361.592 1077.11 375.838C1072.6 390.548 1065.52 404.204 1058.13 416.917C1050.55 429.973 1040.27 442.226 1029.61 454.305C1018.75 466.607 1005.42 477.634 991.56 488.634C984.425 494.296 976.633 499.682 964.651 507.219C952.669 514.756 936.618 524.168 918.599 533.478C900.58 542.787 881.079 551.708 859.656 560.417C838.233 569.126 815.479 577.354 785.871 585.917C756.264 594.481 720.492 603.13 676.863 611.007C633.233 618.885 582.829 625.727 538.661 629.847C494.492 633.968 458.087 635.16 416.046 634.251C374.005 633.342 327.432 630.296 292.294 626.951C257.157 623.607 234.867 620.055 212.885 615.552C190.902 611.049 169.903 605.703 150.531 599.791C131.159 593.88 114.051 587.567 97.0583 580.042C80.0652 572.517 63.7053 563.973 51.5662 557.049C31.5576 545.636 17.1825 534.237 3.6059 523.057C-8.83211 512.815 -18.5802 500.92 -27.8283 488.849C-36.9326 476.967 -43.1238 463.766 -48.2177 450.716C-53.2012 437.948 -54.7438 423.868 -55.8033 409.978C-56.7995 396.918 -52.6438 383.436 -48.0152 369.354C-43.1951 354.689 -34.5912 340.283 -25.1621 325.787C-15.4152 310.802 -2.105 296.182 15.846 278.027C26.6141 267.136 42.1694 253.921 59.3258 240.264C76.4822 226.608 95.1312 213.187 109.871 203.126C124.611 193.065 134.876 186.77 145.999 180.403C157.123 174.037 168.794 167.789 185.839 159.831C202.884 151.874 224.95 142.396 248.679 133.526C272.408 124.656 297.131 116.68 323.223 109.606C349.314 102.531 376.024 96.5988 402.169 91.8315C428.314 87.0643 453.084 83.6417 479 81.5398C504.916 79.4378 531.226 78.76 551.424 78.858C571.621 78.956 584.909 79.8502 598.781 81.2457C612.652 82.6411 626.705 84.5107 646.529 88.4348C666.353 92.3588 691.523 98.2808 710.93 103.346C730.336 108.41 743.215 112.439 762.146 119.608C781.078 126.778 805.671 136.967 824.452 145.427C843.232 153.888 855.456 160.311 866.636 166.694C877.815 173.076 887.579 179.222 897.42 185.931C907.261 192.64 916.883 199.726 926.139 207.124C944.356 221.684 959.986 237.576 973.533 253.421C986.571 268.67 995.063 285.981 1001.75 302.369C1007.74 317.053 1007.22 332.575 1006.3 347.577C1005.37 362.623 996.928 377.227 988.218 391.581C979.271 406.328 964.78 419.975 949.736 433.975C935.078 447.615 916.8 459.458 897.5 471.928C887.68 478.273 877.301 484.034 866.432 489.845C855.562 495.655 844.387 501.183 806.306 515.836C768.226 530.49 703.578 554.102 636.972 578.429" stroke="#1274FD" stroke-linecap="round" stroke-linejoin="round"/></svg>