<svg width="902" height="51" viewBox="0 0 902 51" fill="none" xmlns="http://www.w3.org/2000/svg">
<path d="M1.09878 24.4861C0.749238 24.6761 0.4896 24.9971 0.377076 25.3787C0.264546 25.7602 0.308349 26.1711 0.498756 26.5208C0.689164 26.8705 1.01055 27.1303 1.39213 27.2428C1.77371 27.3553 2.18422 27.3114 2.53345 27.1209C2.53345 27.1209 2.53345 27.1209 2.53345 27.1209C4.89563 25.7988 7.2294 24.7125 9.73981 23.7629C13.901 22.1916 18.2057 20.8032 22.5016 19.5712L22.4597 19.5824C33.6683 16.6452 45.3671 16.0336 57.0564 15.6974C63.8285 15.5338 70.5295 15.554 77.3389 15.6771C119.18 16.5236 161.016 19.4982 202.7 23.7641C253.814 29.0628 304.78 36.2311 355.751 42.9149C371.343 44.7477 386.663 47.3793 402.643 47.5062C407.261 47.2903 412.096 46.7994 416.543 44.9457C418.26 44.2492 419.989 43.3358 421.434 41.9815C423.493 40.3258 424.28 37.3244 424.358 34.9827C424.862 28.6053 424.492 21.4242 426.026 16.0617C426.568 15.0745 427.404 14.2493 428.41 13.6194C429.894 12.6416 431.48 12.2221 433.273 12.1809C449.038 12.0787 464.662 16.5479 480.138 20.4135C508.464 27.9129 536.724 35.864 565.005 43.6226C573.301 45.7591 581.133 48.4746 589.921 49.7754C593.584 49.8176 597.32 50.6861 601.366 49.057C602.75 48.3945 603.885 47.0964 604.304 45.5898C604.749 44.0338 604.833 42.2519 604.083 40.6259C596.393 29.2501 583.238 21.4055 582.185 8.32165C582.225 7.21739 582.725 6.04013 583.493 5.54228C584.453 4.89479 586.236 5.06098 587.863 5.20406C602.454 6.6811 616.715 11.1139 630.992 14.969C664.398 24.3645 697.789 34.1125 731.332 43.1016C742.92 45.9009 754.178 49.8843 766.479 50.0968C768.749 49.8194 771.256 50.0491 773.387 47.8245C774.031 46.9817 774.002 45.7952 773.714 44.9859C773.433 44.1416 772.991 43.4511 772.523 42.8081C769.259 38.7826 765.03 36.3958 761.075 33.5739C747.82 24.1971 732.668 15.923 721.417 5.42851C721.091 4.50039 721.458 3.39426 722.268 2.90522C723.301 2.27856 724.981 2.41648 726.528 2.49947C729.958 2.69776 733.375 3.31127 736.796 3.93299C758.248 8.41201 779.299 14.9983 800.486 20.9891C815.765 25.4127 831.065 29.9027 846.332 34.4031C864.543 39.7728 882.741 45.1732 900.932 50.5977C901.075 50.6403 901.229 50.6244 901.36 50.5535C901.491 50.4827 901.589 50.3627 901.632 50.2199C901.674 50.0771 901.659 49.9231 901.588 49.7918C901.517 49.6606 901.397 49.5627 901.254 49.5199C901.254 49.5199 901.254 49.5199 901.254 49.5199C883.071 44.0651 864.881 38.6345 846.678 33.2344C831.417 28.7085 816.123 24.1929 800.848 19.7431C779.644 13.7117 758.689 7.10711 737.053 2.55055C733.617 1.92087 730.154 1.29045 726.618 1.07903C725.03 1.03213 723.313 0.6987 721.513 1.68978C720.108 2.53959 719.53 4.38964 720.053 5.87963C732.406 17.9146 746.833 25.2096 760.221 34.8295C764.12 37.5981 768.452 40.1741 771.28 43.7215C772.107 44.8198 772.722 46.2114 772.131 46.9162C771.098 48.1342 768.497 48.3834 766.38 48.539C754.822 48.3415 743.23 44.3509 731.748 41.5363C698.256 32.5018 664.878 22.6981 631.478 13.245C617.166 9.36019 602.966 4.89452 588.042 3.34829C586.349 3.25669 584.48 2.79991 582.464 3.97781C580.953 5.02619 580.398 6.67452 580.307 8.24402C581.614 23.129 595.437 30.9911 602.318 41.4451C602.807 42.4895 602.787 43.817 602.428 45.0457C602.147 46.0302 601.442 46.8434 600.502 47.2985C597.603 48.5335 593.659 47.9047 590.01 47.7999C582.032 46.6011 573.715 43.8097 565.54 41.6754C537.28 33.8726 509.035 25.8753 480.69 18.321C465.131 14.4223 449.608 9.8816 433.213 9.93841C431.181 9.95599 428.926 10.5596 427.212 11.7114C425.948 12.4987 424.801 13.6016 424.049 14.9689C421.935 22.1189 422.669 28.279 422.07 34.8488C421.935 37.0728 421.476 38.9546 419.862 40.2985C418.707 41.3798 417.245 42.1703 415.676 42.8027C411.578 44.5033 407.092 44.968 402.534 45.1743C387.191 45.0322 371.561 42.3805 356.061 40.5231C305.13 33.7594 254.146 26.5025 202.976 21.1127C161.233 16.7717 119.35 13.7231 77.3938 12.8048C70.5535 12.67 63.8156 12.6383 56.9878 12.792C45.2155 13.1131 33.3088 13.702 21.7376 16.7075L21.6957 16.7186C17.2967 17.9732 12.9766 19.3572 8.67498 20.9726C6.09268 21.9401 3.4837 23.1527 1.09878 24.4861Z" fill="#0052AF"/>
</svg>
