<svg width="59" height="62" viewBox="0 0 59 62" fill="none" xmlns="http://www.w3.org/2000/svg">
<path d="M29.2003 59.004C45.3272 59.004 58.4006 45.9305 58.4006 29.8037C58.4006 13.6768 45.3272 0.603394 29.2003 0.603394C13.0734 0.603394 0 13.6768 0 29.8037C0 45.9305 13.0734 59.004 29.2003 59.004Z" fill="white" fill-opacity="0.1"/>
<path d="M20.7229 39.0146C28.5041 39.0146 34.8121 32.7067 34.8121 24.9254C34.8121 17.1442 28.5041 10.8363 20.7229 10.8363C12.9417 10.8363 6.63379 17.1442 6.63379 24.9254C6.63379 32.7067 12.9417 39.0146 20.7229 39.0146Z" fill="white"/>
<path d="M48.7986 6.13721C48.7986 7.33068 48.3245 8.47527 47.4806 9.31919C46.6367 10.1631 45.4921 10.6372 44.2986 10.6372C43.1051 10.6372 41.9605 10.1631 41.1166 9.31919C40.2727 8.47527 39.7986 7.33068 39.7986 6.13721C39.7986 4.94373 40.2727 3.79914 41.1166 2.95523C41.9605 2.11131 43.1051 1.63721 44.2986 1.63721C45.4921 1.63721 46.6367 2.11131 47.4806 2.95523C48.3245 3.79914 48.7986 4.94373 48.7986 6.13721Z" fill="white" fill-opacity="0.6"/>
<path fill-rule="evenodd" clip-rule="evenodd" d="M40.174 61.3947C40.185 61.121 40.1923 60.8417 40.1923 60.5607C40.1923 49.8424 31.5015 41.1534 20.7832 41.1534C10.0649 41.1534 1.37598 49.8424 1.37598 60.5607C1.37598 61.0286 1.76249 61.3965 2.23036 61.3965L40.174 61.3947Z" fill="white"/>
</svg>
