<svg width="481" height="401" viewBox="0 0 481 401" fill="none" xmlns="http://www.w3.org/2000/svg">
<path d="M480.674 354.332C480.674 365.774 473.461 375.975 462.672 379.788L411.429 397.901C408.592 398.904 405.607 399.426 402.598 399.444L283.53 400.179L280.915 400.161L118.407 399.751C115.695 399.744 113.06 398.88 110.864 397.288C108.728 395.741 105.854 393.668 103.069 391.693C99.8437 389.406 95.4119 392.256 94.6755 396.141V396.141C94.1519 398.904 91.9601 399.74 89.1484 399.74L64.0342 399.74C50.7797 399.74 40.3711 388.321 41.9063 375.156C42.2184 372.479 42.5366 369.877 42.8468 367.529C43.5729 362.032 41.0428 356.367 36.6484 352.986V352.986C30.1948 348.022 24.6711 342.269 20.0937 335.702C10.69 322.212 7.27846 306.902 5.24996 295.799C3.02243 283.606 2.60557 271.751 3.29799 260.249C3.39735 258.598 3.21764 256.942 2.75582 255.355V255.355C-0.747538 243.311 -0.245934 231.793 0.666952 223.405C1.72228 213.709 5.64349 205.887 8.94137 200.512C12.1927 195.213 16.1123 190.329 18.6357 187.144C19.6576 185.854 20.7148 184.596 21.8032 183.37C23.6594 181.278 25.3028 179 26.5645 176.504C28.7308 172.219 31.0572 167.744 33.5045 163.105C35.9063 158.553 35.8688 153.191 35.2743 148.079V148.079V148.079C34.2333 139.125 33.1496 129.412 27.9504 122.048C21.6819 113.17 17.2294 104.488 13.8574 97.8008C6.80326 83.8117 4.52553 70.4761 3.41989 60.5762C2.67975 53.9488 2.81785 47.0104 4.15817 40.3409C5.83816 31.9815 9.52408 24.599 15.2372 18.2666C15.6691 17.7879 16.1805 17.0664 16.7383 16.1847C22.3862 7.25645 31.4504 0.773104 42.0151 0.773104L175.5 0.773103C175.5 0.773103 182.152 0.970939 188.182 1.49777C192.284 1.85618 198.177 -0.567474 202.145 0.532826V0.532826C203.419 0.885879 203.568 0.773101 204.889 0.773101L360.634 0.773104C366.456 0.773104 372.122 2.64768 376.749 6.182C384.623 12.1952 397.059 21.8646 403.792 27.9864C419.419 42.1943 429.37 58.1261 436.146 70.9288C439.703 77.6483 442.121 84.554 443.797 91.2519C446.038 100.211 451.569 108.172 459.627 112.683C462.587 114.341 465.474 116.017 468.114 117.582C476.018 122.268 480.674 130.85 480.674 140.039L480.674 354.332ZM78.5636 71.066C83.7712 62.0457 77.7425 49.4667 67.9843 53.1084V53.1084V53.1084C63.9491 54.6144 61.5243 58.761 62.5217 62.951C63.2615 66.0588 64.255 68.9281 65.6454 71.6856C67.9177 76.1916 70.045 80.226 72.2368 83.8519C72.2846 83.9309 72.4005 83.9193 72.4335 83.833V83.833C74.1669 79.2997 76.2697 75.0394 78.5636 71.066ZM83.6077 214.902C83.6624 214.691 83.6393 214.465 83.5456 214.267V214.267C83.1963 213.532 82.1336 213.56 81.8287 214.315C80.0559 218.704 78.4216 222.776 76.9382 226.562C76.6076 227.406 77.5051 228.203 78.3066 227.779V227.779V227.779C79.7218 227.032 80.7788 225.742 81.1853 224.194C82.0422 220.93 82.8504 217.828 83.6077 214.902ZM156.537 203.415C156.803 202.485 156.223 201.427 155.389 200.938V200.938C153.835 200.028 152.12 201.347 152.313 203.138V203.138C152.425 204.171 152.541 205.193 152.66 206.204C152.754 207.001 153.482 207.563 154.276 207.453V207.453C154.775 207.384 155.207 207.06 155.399 206.595C155.889 205.412 156.262 204.375 156.537 203.415ZM348.116 298.501C348.144 298.142 348.16 297.519 348.082 296.473V296.473C348.029 295.756 347.461 295.197 346.749 295.103C341.556 294.423 336.432 293.515 331.396 292.427C329.704 292.061 327.978 291.874 326.247 291.895C318.061 291.998 309.457 292.044 300.648 292.101C284.436 292.204 270.01 290.228 257.019 287.264C255.244 286.859 253.465 287.945 253.012 289.709V289.709C250.562 299.247 245.828 306.87 241.668 312.473C238.354 316.936 234.563 321.184 231.501 324.556C230.87 325.25 231.067 326.356 231.909 326.771V326.771C245.602 333.513 258.5 339.426 271.288 343.136C275.694 344.414 280.379 344.246 284.741 342.828C294.51 339.651 303.34 336.012 311.152 331.742C322.968 325.284 331.279 319.713 336.834 313.723C345.282 304.612 347.524 300.786 348.025 299.075C348.052 298.984 348.091 298.826 348.116 298.501ZM256.675 132.644C260.019 131.522 261.989 127.777 260.158 124.762C259.722 124.043 259.274 123.431 258.804 122.888C254.196 117.568 248.662 111.668 242.641 105.651C242.05 105.061 241.056 105.189 240.699 105.944V105.944C240.315 106.759 240.069 107.443 239.931 107.938C239.34 110.046 238.693 113.458 238.294 117.942C237.388 128.102 247.004 135.888 256.675 132.644V132.644V132.644ZM291.236 24.4703C296.235 25.8467 298.691 20.2755 293.623 19.1856V19.1856C284.61 17.2476 278.668 16.7359 274.746 17.1143V17.1143C272.837 17.2985 272.743 19.6684 274.604 20.1297C280.556 21.6047 286.088 23.0527 291.236 24.4703ZM374.908 156.223C375.741 153.475 375.03 150.589 372.458 151.863V151.863C370.323 152.921 367.237 152.617 365.2 153.854C355.309 159.86 343.741 160.002 332.029 165.41C329.236 166.7 326.371 167.981 323.449 169.25C323.085 169.408 322.822 169.731 322.738 170.119V170.119C322.576 170.865 323.119 171.585 323.883 171.615C330.117 171.858 336.621 171.907 344.152 171.775C348.536 171.699 352.813 171.634 356.986 171.575C362.546 171.496 367.997 169.311 371.279 164.822V164.822C373.593 161.659 374.086 158.935 374.908 156.223ZM447.906 302.547C450.571 298.617 446.485 293.496 441.856 294.549C430.32 297.173 418.11 298.051 406.789 298.249V298.249C406.426 298.255 406.134 298.548 406.129 298.911C406.051 303.93 405.415 309.481 403.684 315.386C400.357 326.742 393.73 336.431 387.438 344.048C387.17 344.372 387.494 344.845 387.891 344.705V344.705C400.785 340.168 412.247 334.869 421.698 327.556C433.884 318.126 442.344 310.749 447.906 302.547V302.547Z" fill="black"/>
</svg>
