<svg width="1090" height="1093" viewBox="0 0 1090 1093" fill="none" xmlns="http://www.w3.org/2000/svg">
<path fill-rule="evenodd" clip-rule="evenodd" d="M733.104 0.514859C752.547 -0.744538 773.746 0.192572 794.022 4.59562C1045.99 59.6723 1079.43 308.225 1060.36 495.945C1059.6 502.412 1058.6 508.808 1057.39 515.133C1069.6 557.124 1077.08 598.528 1084.56 638.072C1092.41 681.848 1090.72 724.952 1086.04 764.845C1075.4 853.289 985.189 958.856 924.392 1027.33C881.042 1076.3 800.726 1084.54 734.927 1080.08C725.409 1083.8 715.552 1086.46 706.065 1088.81C643.785 1104.36 459.865 1026.72 419.288 975.577C407.061 990.299 393.682 1004.23 379.259 1017.48C336.09 1057.39 208.996 1125.94 147.068 1074.28C54.2365 995.669 97.4537 790.627 130.398 691.969C30.3635 638.161 -18.1914 560.937 6.23716 456.962C41.3892 328.125 211.944 174.339 365.794 165.958C393.763 110.003 432.095 36.5163 508.068 23.0655C522.888 20.3481 537.837 19.7321 552.897 21.4783C567.964 23.1543 583.153 27.994 595.582 34.3652C596.544 34.864 597.495 35.3683 598.435 35.8772C620.659 25.8674 644.022 17.7837 667.426 11.0088C689.329 4.63089 711.565 1.8505 733.104 0.514859Z" fill="black"/>
</svg>
