<svg width="148" height="89" viewBox="0 0 148 89" fill="none" xmlns="http://www.w3.org/2000/svg">
<path fill-rule="evenodd" clip-rule="evenodd" d="M147.456 6.93409L135.5 0.323318H0.749023C0.749023 0.323318 1.4054 21.7903 9.52998 28.8428C18.5357 35.8129 28.9268 39.7332 39.4317 43.6965C39.9219 43.8814 40.4124 44.0665 40.903 44.252C38.6992 47.1675 38.2531 50.5313 38.069 54.0439C38.3154 58.5393 40.1754 62.4766 43.1169 65.8281C47.4405 70.5127 52.5376 74.4737 57.5836 78.395C58.5207 79.1233 59.4561 79.8502 60.3845 80.5801C60.1577 81.3955 59.9313 82.2109 59.7048 83.0264C59.4783 83.8418 59.2518 84.6573 59.0251 85.4727C59.108 85.4373 63.5632 88.419 63.5632 88.419H104.34C104.204 88.1978 104.064 88.0211 103.919 87.793C104.479 88.029 105.595 88.4429 105.595 88.4429H122.211C122.211 88.4429 127.131 85.3824 128.816 83.043C136.083 83.462 147.456 75.7451 147.456 75.7451V6.93409Z" fill="#1E1E1E"/>
</svg>
