<svg width="447" height="518" viewBox="0 0 447 518" fill="none" xmlns="http://www.w3.org/2000/svg">
<rect x="4.11999" y="89.2321" width="432.761" height="432.761" rx="216.38" transform="rotate(-11.3424 4.11999 89.2321)" stroke="#FE6659" style="stroke:#FE6659;stroke:color(display-p3 0.9961 0.4000 0.3490);stroke-opacity:1;" stroke-width="7"/>
<path d="M211.263 293.601C204.068 295.044 197.462 298.589 192.281 303.786C187.101 308.984 183.577 315.601 182.157 322.801C180.737 330.001 181.484 337.46 184.303 344.236C187.123 351.011 191.888 356.799 197.996 360.866C204.105 364.933 211.282 367.098 218.621 367.086C225.959 367.074 233.13 364.886 239.225 360.799C245.32 356.712 250.067 350.91 252.864 344.125C255.661 337.341 256.384 329.879 254.941 322.684C253.005 313.035 247.316 304.551 239.125 299.096C230.934 293.642 220.912 291.666 211.263 293.601ZM222.615 350.192C218.618 350.994 214.472 350.593 210.703 349.039C206.934 347.484 203.71 344.847 201.44 341.461C199.169 338.075 197.954 334.091 197.947 330.014C197.94 325.937 199.143 321.95 201.403 318.556C203.662 315.163 206.877 312.516 210.641 310.949C214.406 309.383 218.55 308.968 222.55 309.757C226.55 310.546 230.226 312.503 233.113 315.382C236.001 318.26 237.97 321.93 238.772 325.927C239.304 328.581 239.309 331.314 238.785 333.97C238.261 336.626 237.219 339.153 235.719 341.406C234.219 343.659 232.289 345.595 230.041 347.102C227.792 348.61 225.269 349.66 222.615 350.192ZM167.992 254.282L179.587 236.882L162.179 225.299C160.357 224.087 159.092 222.2 158.662 220.055C158.232 217.909 158.671 215.681 159.884 213.86C161.097 212.038 162.983 210.773 165.128 210.343C167.274 209.913 169.502 210.352 171.323 211.565L188.724 223.16L200.306 205.751C201.519 203.93 203.405 202.665 205.551 202.235C207.696 201.805 209.925 202.244 211.746 203.457C213.567 204.669 214.832 206.556 215.262 208.701C215.693 210.847 215.253 213.075 214.04 214.896L202.446 232.297L219.854 243.879C221.675 245.092 222.94 246.978 223.371 249.124C223.801 251.269 223.361 253.497 222.149 255.319C220.936 257.14 219.05 258.405 216.904 258.835C214.759 259.265 212.53 258.826 210.709 257.613L193.309 246.019L181.726 263.427C180.514 265.248 178.627 266.513 176.482 266.943C174.337 267.374 172.108 266.934 170.287 265.722C168.466 264.509 167.201 262.622 166.77 260.477C166.34 258.332 166.78 256.103 167.992 254.282ZM376.75 313.325C377.652 313.925 378.427 314.697 379.03 315.597C379.633 316.497 380.054 317.507 380.267 318.569C380.48 319.631 380.481 320.725 380.272 321.788C380.062 322.851 379.645 323.862 379.045 324.764C378.444 325.666 377.672 326.441 376.772 327.044C375.872 327.647 374.862 328.068 373.8 328.281C372.738 328.494 371.644 328.495 370.581 328.286C369.518 328.076 368.507 327.659 367.605 327.059L350.205 315.464L338.622 332.872C337.41 334.694 335.523 335.959 333.378 336.389C331.233 336.819 329.004 336.38 327.183 335.167C325.362 333.954 324.097 332.068 323.666 329.922C323.236 327.777 323.676 325.549 324.888 323.728L336.483 306.327L319.075 294.745C317.253 293.532 315.988 291.645 315.558 289.5C315.128 287.355 315.567 285.126 316.78 283.305C317.993 281.484 319.879 280.219 322.024 279.789C324.17 279.358 326.398 279.798 328.219 281.01L345.62 292.605L357.202 275.197C358.415 273.376 360.301 272.111 362.447 271.68C364.592 271.25 366.821 271.689 368.642 272.902C370.463 274.115 371.728 276.001 372.158 278.147C372.589 280.292 372.149 282.52 370.936 284.342L359.342 301.742L376.75 313.325ZM312.939 232.03C311.22 255.848 295.79 279.232 275.43 288.887C274.821 289.175 274.179 289.389 273.518 289.523C271.546 289.915 269.499 289.573 267.762 288.561C266.024 287.549 264.716 285.937 264.084 284.028C263.452 282.119 263.539 280.045 264.329 278.196C265.119 276.347 266.557 274.851 268.373 273.988C283.376 266.868 295.211 248.726 296.51 230.836C297.403 218.568 293.886 200.877 272.138 186.423L269.277 184.527L273.471 205.435C273.901 207.579 273.462 209.806 272.25 211.627C271.038 213.447 269.152 214.711 267.008 215.141C264.864 215.571 262.637 215.132 260.816 213.92C258.996 212.708 257.732 210.822 257.302 208.678L249.194 168.256C248.763 166.112 249.203 163.885 250.415 162.064C251.627 160.244 253.512 158.98 255.656 158.55L296.079 150.442C298.223 150.011 300.45 150.451 302.27 151.663C304.091 152.875 305.355 154.76 305.785 156.904C306.215 159.048 305.776 161.276 304.564 163.096C303.352 164.916 301.466 166.18 299.322 166.61L278.414 170.804L281.263 172.693C303.395 187.438 314.643 208.508 312.939 232.03Z" fill="#FE6659" style="fill:#FE6659;fill:color(display-p3 0.9961 0.4000 0.3490);fill-opacity:1;"/>
</svg>
