<svg width="1061" height="653" viewBox="0 0 1061 653" fill="none" xmlns="http://www.w3.org/2000/svg">
<path d="M178.981 253.868L177.006 253.553L177.006 253.553L178.981 253.868ZM194.541 216.394L192.801 215.409L194.541 216.394ZM243.877 151.272L242.369 149.959L243.877 151.272ZM308.698 95.2734L307.49 93.6788L308.698 95.2734ZM386.198 47.5869L385.279 45.8104L386.198 47.5869ZM444.403 23.8027L443.748 21.9129L444.403 23.8027ZM507.445 8.11478L507.82 10.0792L507.445 8.11478ZM576.853 2.66608L576.838 0.666134L576.853 2.66608ZM649.959 10.1355L650.311 8.16662L650.311 8.16662L649.959 10.1355ZM724.533 30.3879L723.913 32.2894L723.913 32.2894L724.533 30.3879ZM801.466 63.2989L800.579 65.0914L801.466 63.2989ZM871.448 106.519L872.607 104.89L871.448 106.519ZM930.147 158.287L928.728 159.696L930.147 158.287ZM992.196 245.042L993.9 243.997L992.196 245.042ZM1013.71 311.411L1011.74 311.739L1013.71 311.411ZM1012.22 372.501L1014.2 372.803L1012.22 372.501ZM991.847 428.405L990.06 427.506L991.847 428.405ZM955.938 473.242L957.378 474.63L955.938 473.242ZM905.378 513.761L906.525 515.399L905.378 513.761ZM837.33 552.1L836.457 550.301L837.33 552.1ZM252.019 649.566L252.107 647.568L252.019 649.566ZM177.077 635.366L177.695 633.464L177.695 633.464L177.077 635.366ZM124.483 608.119L125.581 606.448L125.581 606.448L124.483 608.119ZM80.4839 566.009L78.9523 567.295L80.4839 566.009ZM36.8489 497.559L38.6096 496.61L36.8489 497.559ZM13.8389 438.279L15.7475 437.681L13.8389 438.279ZM3.2898 378.463L5.28417 378.312L3.2898 378.463ZM9.18258 320.024L11.1386 320.441L9.18258 320.024ZM33.6988 261.957L31.9472 260.991L33.6988 261.957ZM77.7851 208.744L76.4127 207.289L77.7851 208.744ZM169.34 147.863L168.336 146.133L169.34 147.863ZM258.625 113.323L258.055 111.406L258.625 113.323ZM349.116 98.3353L349.32 100.325L349.32 100.325L349.116 98.3353ZM711.035 151.541L711.777 149.684L711.777 149.684L711.035 151.541ZM806.324 198.377L805.342 200.119L806.324 198.377ZM888.659 256.85L887.376 258.384L888.659 256.85ZM951.737 322.105L950.206 323.392L951.737 322.105ZM989.011 381.944L987.209 382.81L989.011 381.944ZM996.892 408.895L998.866 408.575L996.892 408.895ZM993.11 453.052L995.044 453.561L993.11 453.052ZM970.935 492.51L969.354 491.285L969.354 491.285L970.935 492.51ZM928.773 529.148L929.949 530.765L928.773 529.148ZM865.43 561.115L864.699 559.253L865.43 561.115ZM365.05 610.324L364.77 612.304L365.05 610.324ZM279.259 588.077L278.589 589.962L278.589 589.962L279.259 588.077ZM182.143 540.894L181.08 542.588L182.143 540.894ZM126.443 497.974L125.127 499.479L126.443 497.974ZM82.9525 448.287L81.3448 449.476L82.9525 448.287ZM55.5839 396.666L57.4614 395.976L55.5839 396.666ZM50.2832 344.135L52.2823 344.196L52.2823 344.196L50.2832 344.135ZM64.6809 287.927L62.8195 287.196L64.6809 287.927ZM98.8429 232.094L97.2725 230.855L98.8429 232.094ZM158.495 177.344L159.719 178.926L158.495 177.344ZM218.071 137.831L219.109 139.54L218.071 137.831ZM311.205 95.6407L310.565 93.7458L310.565 93.7458L311.205 95.6407ZM787.574 91.0617L788.046 89.118L787.574 91.0617ZM866.442 118.265L865.603 120.081L866.442 118.265ZM920.704 151.26L921.873 149.637L920.704 151.26ZM961.363 192.078L962.922 190.825L961.363 192.078ZM984.727 235.167L986.604 234.477L984.727 235.167ZM987.445 277.96L989.433 278.182L989.433 278.182L987.445 277.96ZM971.317 318.793L973.064 319.768L973.064 319.768L971.317 318.793ZM939.436 359.73L940.892 361.101L939.436 359.73ZM885.671 402.494L884.531 400.85L885.671 402.494ZM240.88 530.114L241.215 528.142L241.215 528.142L240.88 530.114ZM140.903 502.598L141.671 500.751L141.671 500.751L140.903 502.598ZM94.394 473.443L93.1498 475.009L93.1498 475.009L94.394 473.443ZM61.5108 436.602L59.8694 437.745L61.5108 436.602ZM41.604 395.388L39.7054 396.017L41.604 395.388ZM34.2005 349.347L32.2054 349.486L34.2005 349.347ZM45.1327 275.555L43.1843 275.104L43.1843 275.104L45.1327 275.555ZM69.523 216.418L71.2781 217.377L71.2781 217.377L69.523 216.418ZM110.17 166.377L111.582 167.794L110.17 166.377ZM164.678 128.218L163.652 126.501L164.678 128.218ZM231.789 99.2922L232.426 101.188L232.426 101.188L231.789 99.2922ZM314.907 82.2274L314.64 80.2453L314.907 82.2274ZM402.896 81.5846L402.795 83.582L402.795 83.582L402.896 81.5846ZM496.179 94.595L496.562 92.632L496.179 94.595ZM597.081 124.044L596.412 125.929L596.412 125.929L597.081 124.044ZM687.181 169.254L686.171 170.981L687.181 169.254ZM767.619 228.145L766.329 229.673L767.619 228.145ZM829.481 295.733L831.059 294.505L829.481 295.733ZM864.299 361.034L866.169 360.324L864.299 361.034ZM870.514 419.197L872.508 419.358L872.508 419.358L870.514 419.197ZM850.579 466.442L848.897 465.36L850.579 466.442ZM807.411 505.644L808.592 507.259L807.411 505.644ZM244.053 564.296L243.431 566.197L244.053 564.296ZM148.827 523.462L147.853 525.209L147.853 525.209L148.827 523.462ZM97.6641 486.262L98.9664 484.744L97.6641 486.262ZM57.8323 441.335L59.4581 440.17L57.8323 441.335ZM32.5177 393.366L30.6556 394.096L32.5177 393.366ZM24.5838 341.405L26.5827 341.339L24.5838 341.405ZM33.4011 286.953L31.4856 286.378L31.4856 286.378L33.4011 286.953ZM60.0731 231.448L61.7819 232.488L60.0731 231.448ZM106.638 178.578L105.27 177.119L105.27 177.119L106.638 178.578ZM170.774 132.568L169.744 130.854L170.774 132.568ZM437.516 49.6814L437.818 51.6584L437.516 49.6814ZM543.619 42.7566L543.614 40.7567L543.614 40.7567L543.619 42.7566ZM745.186 73.4405L744.676 75.3746L744.676 75.3746L745.186 73.4405ZM847.719 112.183L848.558 110.367L848.558 110.367L847.719 112.183ZM934.129 162.968L933.008 164.624L933.008 164.624L934.129 162.968ZM1006.38 225.454L1004.96 226.858L1006.38 225.454ZM1047.04 282.84L1045.3 283.817L1047.04 282.84ZM1057.84 335.077L1055.85 334.865L1055.85 334.865L1057.84 335.077ZM1040.66 379L1038.95 377.97L1038.95 377.97L1040.66 379ZM1004.25 417.391L1002.92 415.898L1004.25 417.391ZM952.634 453.119L953.661 454.835L952.634 453.119ZM877.911 484.135L878.519 486.041L878.519 486.041L877.911 484.135ZM361.831 487.032L361.426 488.991L361.426 488.991L361.831 487.032ZM262.226 458.276L262.931 456.405L262.226 458.276ZM186.826 420.505L187.844 418.783L187.844 418.783L186.826 420.505ZM130.767 373.995L129.324 375.38L130.767 373.995ZM99.736 325.813L97.9054 326.619L99.736 325.813ZM94.368 276.537L92.3704 276.438L94.368 276.537ZM108.883 225.433L110.726 226.21L110.726 226.21L108.883 225.433ZM142.343 179.094L140.914 177.695L140.914 177.695L142.343 179.094ZM193.072 142.598L192.048 140.881L193.072 142.598ZM262.086 115.125L261.54 113.201L261.54 113.201L262.086 115.125ZM344.871 103.295L344.784 101.297L344.871 103.295ZM424.357 108.927L424.727 106.962L424.681 106.953L424.635 106.947L424.357 108.927ZM497.474 128.154L498.177 126.281L498.152 126.272L498.127 126.264L497.474 128.154ZM175.833 315.59L177.831 315.495C176.972 297.325 177.356 276.733 180.956 254.183L178.981 253.868L177.006 253.553C173.353 276.436 172.967 297.312 173.836 315.684L175.833 315.59ZM178.981 253.868L180.956 254.183C182.89 242.068 188.571 231.004 196.282 217.379L194.541 216.394L192.801 215.409C185.104 229.01 179.066 240.644 177.006 253.553L178.981 253.868ZM194.541 216.394L196.282 217.379C207.744 197.126 226.656 174.085 245.385 152.586L243.877 151.272L242.369 149.959C223.647 171.45 204.485 194.763 192.801 215.409L194.541 216.394ZM243.877 151.272L245.385 152.586C259.586 136.286 280.486 119.14 309.905 96.868L308.698 95.2734L307.49 93.6788C278.085 115.941 256.874 133.309 242.369 149.959L243.877 151.272ZM308.698 95.2734L309.905 96.868C341.103 73.2483 368.586 58.947 387.116 49.3634L386.198 47.5869L385.279 45.8104C366.709 55.4141 338.974 69.8431 307.49 93.6788L308.698 95.2734ZM386.198 47.5869L387.116 49.3634C406.28 39.4523 426.096 32.2636 445.058 25.6924L444.403 23.8027L443.748 21.9129C424.771 28.4892 404.719 35.7564 385.279 45.8104L386.198 47.5869ZM444.403 23.8027L445.058 25.6924C464.518 18.949 485.817 14.2851 507.82 10.0792L507.445 8.11478L507.069 6.15034C485.027 10.3637 463.493 15.0706 443.748 21.9129L444.403 23.8027ZM507.445 8.11478L507.82 10.0792C529.813 5.87536 552.883 4.83719 576.867 4.66603L576.853 2.66608L576.838 0.666134C552.785 0.837781 529.425 1.87709 507.069 6.15034L507.445 8.11478ZM576.853 2.66608L576.867 4.66603C602.062 4.48624 626.502 7.97779 649.607 12.1043L649.959 10.1355L650.311 8.16662C627.128 4.02635 602.403 0.483702 576.838 0.666134L576.853 2.66608ZM649.959 10.1355L649.607 12.1043C673.627 16.3943 698.452 23.9886 723.913 32.2894L724.533 30.3879L725.153 28.4864C699.682 20.1825 674.628 12.5096 650.311 8.16662L649.959 10.1355ZM724.533 30.3879L723.913 32.2894C749.649 40.6795 775.023 52.4431 800.579 65.0914L801.466 63.2989L802.354 61.5065C776.761 48.8403 751.175 36.9698 725.153 28.4864L724.533 30.3879ZM801.466 63.2989L800.579 65.0914C826.644 77.991 849.552 93.3995 870.289 108.149L871.448 106.519L872.607 104.89C851.819 90.1036 828.706 74.5486 802.354 61.5065L801.466 63.2989ZM871.448 106.519L870.289 108.149C891.376 123.148 910.46 141.294 928.728 159.696L930.147 158.287L931.566 156.878C913.264 138.441 893.984 120.094 872.607 104.89L871.448 106.519ZM930.147 158.287L928.728 159.696C946.765 177.866 968.024 209.471 990.491 246.088L992.196 245.042L993.9 243.997C971.454 207.412 949.976 175.422 931.566 156.878L930.147 158.287ZM992.196 245.042L990.491 246.088C1005.06 269.831 1008.31 291.081 1011.74 311.739L1013.71 311.411L1015.69 311.083C1012.26 290.452 1008.92 268.481 993.9 243.997L992.196 245.042ZM1013.71 311.411L1011.74 311.739C1015.11 332.04 1013.24 352.553 1010.24 372.199L1012.22 372.501L1014.2 372.803C1017.22 353.034 1019.17 332.018 1015.69 311.083L1013.71 311.411ZM1012.22 372.501L1010.24 372.199C1007.31 391.415 998.947 409.834 990.06 427.506L991.847 428.405L993.634 429.303C1002.53 411.604 1011.16 392.696 1014.2 372.803L1012.22 372.501ZM991.847 428.405L990.06 427.506C981.841 443.852 968.398 457.435 954.498 471.854L955.938 473.242L957.378 474.63C971.147 460.346 985.085 446.304 993.634 429.303L991.847 428.405ZM955.938 473.242L954.498 471.854C940.479 486.398 922.954 499.007 904.23 512.123L905.378 513.761L906.525 515.399C925.217 502.306 943.052 489.492 957.378 474.63L955.938 473.242ZM905.378 513.761L904.23 512.123C884.783 525.746 861.423 538.179 836.457 550.301L837.33 552.1L838.204 553.899C863.224 541.751 886.813 529.208 906.525 515.399L905.378 513.761ZM837.33 552.1L836.457 550.301C824.29 556.208 812.04 560.43 763.502 572.492L763.984 574.433L764.467 576.374C812.974 564.32 825.61 560.013 838.204 553.899L837.33 552.1ZM763.984 574.433L763.502 572.492C715.008 584.544 630.655 603.886 552.711 617.959L553.066 619.927L553.422 621.896C631.475 607.803 715.917 588.44 764.467 576.374L763.984 574.433ZM553.066 619.927L552.711 617.959C474.778 632.03 405.799 640.249 354.93 644.43L355.094 646.423L355.258 648.417C406.25 644.225 475.357 635.99 553.422 621.896L553.066 619.927ZM355.094 646.423L354.93 644.43C304.074 648.611 273.433 648.506 252.107 647.568L252.019 649.566L251.931 651.564C273.444 652.51 304.254 652.61 355.258 648.417L355.094 646.423ZM252.019 649.566L252.107 647.568C219.671 646.141 198.012 640.066 177.695 633.464L177.077 635.366L176.459 637.268C196.961 643.93 219 650.115 251.931 651.564L252.019 649.566ZM177.077 635.366L177.695 633.464C158.211 627.133 141.296 616.765 125.581 606.448L124.483 608.119L123.386 609.791C139.139 620.134 156.432 630.761 176.459 637.268L177.077 635.366ZM124.483 608.119L125.581 606.448C110.302 596.416 97.1321 582.724 82.0155 564.723L80.4839 566.009L78.9523 567.295C94.1302 585.37 107.603 599.43 123.386 609.791L124.483 608.119ZM80.4839 566.009L82.0155 564.723C61.5504 540.352 48.3393 514.671 38.6096 496.61L36.8489 497.559L35.0881 498.508C44.7769 516.492 58.1761 542.554 78.9523 567.295L80.4839 566.009ZM36.8489 497.559L38.6096 496.61C28.8336 478.464 22.1798 458.22 15.7475 437.681L13.8389 438.279L11.9303 438.877C18.3568 459.397 25.1082 479.983 35.0881 498.508L36.8489 497.559ZM13.8389 438.279L15.7475 437.681C9.2955 417.08 6.68246 396.902 5.28417 378.312L3.2898 378.463L1.29544 378.613C2.70476 397.349 5.34977 417.865 11.9303 438.877L13.8389 438.279ZM3.2898 378.463L5.28417 378.312C3.86974 359.508 6.96957 339.997 11.1386 320.441L9.18258 320.024L7.22654 319.607C3.04055 339.242 -0.163619 359.215 1.29544 378.613L3.2898 378.463ZM9.18258 320.024L11.1386 320.441C15.2944 300.948 24.8258 282.198 35.4503 262.922L33.6988 261.957L31.9472 260.991C21.3235 280.265 11.5183 299.476 7.22654 319.607L9.18258 320.024ZM33.6988 261.957L35.4503 262.922C46.5479 242.789 62.5661 225.852 79.1576 210.199L77.7851 208.744L76.4127 207.289C59.7447 223.014 43.354 240.297 31.9472 260.991L33.6988 261.957ZM77.7851 208.744L79.1576 210.199C96.3988 193.933 129.479 173.31 170.344 149.593L169.34 147.863L168.336 146.133C127.57 169.793 94.0549 190.645 76.4127 207.289L77.7851 208.744ZM169.34 147.863L170.344 149.593C200.178 132.277 229.496 124.074 259.196 115.24L258.625 113.323L258.055 111.406C228.453 120.211 198.656 128.536 168.336 146.133L169.34 147.863ZM258.625 113.323L259.196 115.24C287.317 106.875 317.571 103.572 349.32 100.325L349.116 98.3353L348.913 96.3457C317.215 99.5873 286.592 102.918 258.055 111.406L258.625 113.323ZM349.116 98.3353L349.32 100.325C365.348 98.6857 381.562 98.089 407.044 98.5078L407.076 96.5081L407.109 94.5084C381.529 94.0879 365.147 94.6854 348.913 96.3457L349.116 98.3353ZM407.076 96.5081L407.044 98.5078C432.528 98.9268 466.782 100.65 493.955 102.796L494.112 100.802L494.27 98.808C467.024 96.6566 432.687 94.9288 407.109 94.5084L407.076 96.5081ZM494.112 100.802L493.955 102.796C521.093 104.939 540.096 107.448 566.401 112.815L566.8 110.855L567.2 108.896C540.716 103.492 521.55 100.962 494.27 98.808L494.112 100.802ZM566.8 110.855L566.401 112.815C592.742 118.19 625.821 126.353 651.302 133.554L651.846 131.629L652.39 129.704C626.824 122.48 593.648 114.292 567.2 108.896L566.8 110.855ZM651.846 131.629L651.302 133.554C676.757 140.747 693.606 146.727 710.292 153.398L711.035 151.541L711.777 149.684C694.963 142.962 677.981 136.937 652.39 129.704L651.846 131.629ZM711.035 151.541L710.292 153.398C743.275 166.585 774.704 182.85 805.342 200.119L806.324 198.377L807.307 196.635C776.592 179.323 744.992 162.963 711.777 149.684L711.035 151.541ZM806.324 198.377L805.342 200.119C836.495 217.678 863.439 238.356 887.376 258.384L888.659 256.85L889.943 255.317C865.919 235.215 838.762 214.365 807.307 196.635L806.324 198.377ZM888.659 256.85L887.376 258.384C911.481 278.554 931.928 301.659 950.206 323.392L951.737 322.105L953.267 320.817C934.958 299.047 914.327 275.72 889.943 255.317L888.659 256.85ZM951.737 322.105L950.206 323.392C967.071 343.444 978.27 364.203 987.209 382.81L989.011 381.944L990.814 381.078C981.815 362.345 970.445 341.242 953.267 320.817L951.737 322.105ZM989.011 381.944L987.209 382.81C991.491 391.725 993.575 400.931 994.918 409.215L996.892 408.895L998.866 408.575C997.497 400.126 995.336 390.491 990.814 381.078L989.011 381.944ZM996.892 408.895L994.918 409.215C997.36 424.279 994.848 438.602 991.176 452.542L993.11 453.052L995.044 453.561C998.765 439.438 1001.44 424.467 998.866 408.575L996.892 408.895ZM993.11 453.052L991.176 452.542C987.55 466.305 979.031 478.806 969.354 491.285L970.935 492.51L972.515 493.736C982.221 481.219 991.195 468.169 995.044 453.561L993.11 453.052ZM970.935 492.51L969.354 491.285C959.3 504.252 944.084 515.541 927.597 527.53L928.773 529.148L929.949 530.765C946.332 518.852 962.048 507.235 972.515 493.736L970.935 492.51ZM928.773 529.148L927.597 527.53C911.654 539.123 892.518 548.339 864.699 559.253L865.43 561.115L866.16 562.977C894.075 552.026 913.589 542.661 929.949 530.765L928.773 529.148ZM865.43 561.115L864.699 559.253C847.398 566.041 822.651 573.387 795.105 580.649L795.615 582.583L796.124 584.517C823.699 577.248 848.632 569.854 866.16 562.977L865.43 561.115ZM795.615 582.583L795.105 580.649C767.614 587.896 737.959 594.289 700.188 599.914L700.482 601.892L700.777 603.87C738.695 598.224 768.494 591.801 796.124 584.517L795.615 582.583ZM700.482 601.892L700.188 599.914C662.407 605.54 617.406 610.203 571.254 612.803L571.366 614.8L571.479 616.797C617.745 614.19 662.868 609.515 700.777 603.87L700.482 601.892ZM571.366 614.8L571.254 612.803C525.101 615.404 479.169 615.8 443.475 614.689L443.413 616.688L443.351 618.687C479.164 619.802 525.213 619.404 571.479 616.797L571.366 614.8ZM443.413 616.688L443.475 614.689C407.799 613.579 383.75 610.952 365.331 608.344L365.05 610.324L364.77 612.304C383.325 614.931 407.52 617.572 443.351 618.687L443.413 616.688ZM365.05 610.324L365.331 608.344C334.777 604.019 310.359 597.013 279.929 586.193L279.259 588.077L278.589 589.962C309.17 600.835 333.862 607.929 364.77 612.304L365.05 610.324ZM279.259 588.077L279.929 586.193C236.795 570.856 203.052 551.661 183.207 539.2L182.143 540.894L181.08 542.588C201.082 555.148 235.095 574.496 278.589 589.962L279.259 588.077ZM182.143 540.894L183.207 539.2C163.307 526.705 145.098 511.63 127.76 496.468L126.443 497.974L125.127 499.479C142.502 514.674 160.904 529.919 181.08 542.588L182.143 540.894ZM126.443 497.974L127.76 496.468C110.901 481.726 97.3424 464.369 84.5601 447.097L82.9525 448.287L81.3448 449.476C94.1474 466.776 107.921 484.433 125.127 499.479L126.443 497.974ZM82.9525 448.287L84.5601 447.097C71.7299 429.76 63.3327 411.965 57.4614 395.976L55.5839 396.666L53.7065 397.355C59.6717 413.599 68.2315 431.757 81.3448 449.476L82.9525 448.287ZM55.5839 396.666L57.4614 395.976C51.6643 380.19 51.7306 362.332 52.2823 344.196L50.2832 344.135L48.2842 344.074C47.7346 362.141 47.6067 380.745 53.7065 397.355L55.5839 396.666ZM50.2832 344.135L52.2823 344.196C52.8308 326.164 59.0164 307.812 66.5424 288.659L64.6809 287.927L62.8195 287.196C55.2848 306.371 48.8556 325.289 48.2842 344.074L50.2832 344.135ZM64.6809 287.927L66.5424 288.659C74.4436 268.551 86.9375 250.421 100.413 233.332L98.8429 232.094L97.2725 230.855C83.7138 248.049 70.9349 266.543 62.8195 287.196L64.6809 287.927ZM98.8429 232.094L100.413 233.332C114.501 215.467 133.342 199.334 159.719 178.926L158.495 177.344L157.272 175.762C130.871 196.188 111.688 212.575 97.2725 230.855L98.8429 232.094ZM158.495 177.344L159.719 178.926C175.933 166.382 199.677 151.349 219.109 139.54L218.071 137.831L217.032 136.122C197.595 147.933 173.681 163.067 157.272 175.762L158.495 177.344ZM218.071 137.831L219.109 139.54C252.486 119.259 282.395 107.476 311.844 97.5357L311.205 95.6407L310.565 93.7458C280.962 103.737 250.753 115.632 217.032 136.122L218.071 137.831ZM311.205 95.6407L311.844 97.5357C326.904 92.4526 342.699 88.314 367.197 83.1186L366.783 81.1621L366.368 79.2056C341.787 84.4185 325.827 88.5944 310.565 93.7458L311.205 95.6407ZM366.783 81.1621L367.197 83.1186C391.686 77.9251 424.43 72.0889 459.062 68.3264L458.846 66.3381L458.63 64.3498C423.837 68.1298 390.958 73.9907 366.368 79.2056L366.783 81.1621ZM458.846 66.3381L459.062 68.3264C493.677 64.5656 529.197 63.0522 571.09 64.6194L571.165 62.6208L571.24 60.6222C529.153 59.0478 493.438 60.568 458.63 64.3498L458.846 66.3381ZM571.165 62.6208L571.09 64.6194C613 66.1871 660.215 70.8838 698.761 76.3289L699.041 74.3486L699.32 72.3682C660.665 66.9076 613.311 62.1959 571.24 60.6222L571.165 62.6208ZM699.041 74.3486L698.761 76.3289C737.29 81.7715 765.71 87.8173 787.103 93.0053L787.574 91.0617L788.046 89.118C766.543 83.9033 737.994 77.8313 699.32 72.3682L699.041 74.3486ZM787.574 91.0617L787.103 93.0053C822.164 101.508 845.782 110.924 865.603 120.081L866.442 118.265L867.281 116.45C847.263 107.202 823.398 97.6912 788.046 89.118L787.574 91.0617ZM866.442 118.265L865.603 120.081C885.336 129.197 903.094 141.045 919.535 152.883L920.704 151.26L921.873 149.637C905.367 137.753 887.364 125.727 867.281 116.45L866.442 118.265ZM920.704 151.26L919.535 152.883C935.418 164.319 948.175 178.853 959.803 193.33L961.363 192.078L962.922 190.825C951.241 176.284 938.21 161.4 921.873 149.637L920.704 151.26ZM961.363 192.078L959.803 193.33C971.002 207.272 977.827 222.195 982.85 235.857L984.727 235.167L986.604 234.477C981.504 220.605 974.498 205.237 962.922 190.825L961.363 192.078ZM984.727 235.167L982.85 235.857C987.795 249.309 987 263.908 985.458 277.739L987.445 277.96L989.433 278.182C990.98 264.305 991.899 248.88 986.604 234.477L984.727 235.167ZM987.445 277.96L985.458 277.739C983.954 291.227 977.191 304.164 969.571 317.819L971.317 318.793L973.064 319.768C980.638 306.195 987.827 292.587 989.433 278.182L987.445 277.96ZM971.317 318.793L969.571 317.819C961.44 332.389 950.055 345.539 937.98 358.359L939.436 359.73L940.892 361.101C953.007 348.238 964.68 334.792 973.064 319.768L971.317 318.793ZM939.436 359.73L937.98 358.359C925.196 371.933 908.343 384.346 884.531 400.85L885.671 402.494L886.81 404.138C910.594 387.653 927.781 375.022 940.892 361.101L939.436 359.73ZM885.671 402.494L884.531 400.85C869.856 411.022 848.814 423.606 831.484 433.4L832.468 435.141L833.452 436.882C850.819 427.067 871.985 414.413 886.81 404.138L885.671 402.494ZM832.468 435.141L831.484 433.4C814.242 443.144 801.151 449.36 773.772 459.52L774.468 461.395L775.164 463.27C802.708 453.049 815.997 446.748 833.452 436.882L832.468 435.141ZM774.468 461.395L773.772 459.52C746.36 469.692 705.084 483.607 659.37 496.156L659.9 498.085L660.429 500.013C706.267 487.43 747.654 473.479 775.164 463.27L774.468 461.395ZM659.9 498.085L659.37 496.156C613.656 508.706 564.752 519.47 524.451 526.463L524.793 528.434L525.135 530.404C565.562 523.389 614.591 512.597 660.429 500.013L659.9 498.085ZM524.793 528.434L524.451 526.463C484.173 533.452 453.977 536.346 422.87 537.827L422.966 539.825L423.061 541.823C454.323 540.334 484.684 537.423 525.135 530.404L524.793 528.434ZM422.966 539.825L422.87 537.827C391.75 539.309 360.644 539.288 329.441 537.63L329.335 539.627L329.229 541.624C360.571 543.29 391.812 543.311 423.061 541.823L422.966 539.825ZM329.335 539.627L329.441 537.63C298.236 535.971 267.885 532.677 241.215 528.142L240.88 530.114L240.544 532.086C267.384 536.649 297.888 539.958 329.229 541.624L329.335 539.627ZM240.88 530.114L241.215 528.142C192.108 519.794 160.2 508.455 141.671 500.751L140.903 502.598L140.135 504.444C158.916 512.253 191.113 523.682 240.544 532.086L240.88 530.114ZM140.903 502.598L141.671 500.751C124.049 493.424 109.274 482.71 95.6381 471.877L94.394 473.443L93.1498 475.009C106.859 485.9 121.986 496.898 140.135 504.444L140.903 502.598ZM94.394 473.443L95.6381 471.877C81.9992 461.041 71.8432 447.942 63.1521 435.459L61.5108 436.602L59.8694 437.745C68.6315 450.329 79.052 463.808 93.1498 475.009L94.394 473.443ZM61.5108 436.602L63.1521 435.459C54.4695 422.988 48.2306 409.038 43.5027 394.759L41.604 395.388L39.7054 396.017C44.5151 410.542 50.9051 424.869 59.8694 437.745L61.5108 436.602ZM41.604 395.388L43.5027 394.759C38.8098 380.587 37.3139 365.187 36.1956 349.207L34.2005 349.347L32.2054 349.486C33.3237 365.468 34.8388 381.32 39.7054 396.017L41.604 395.388ZM34.2005 349.347L36.1956 349.207C35.0461 332.78 39.921 306.935 47.0812 276.006L45.1327 275.555L43.1843 275.104C36.0556 305.897 31.0063 332.351 32.2054 349.486L34.2005 349.347ZM45.1327 275.555L47.0812 276.006C52.4091 252.992 61.6207 235.052 71.2781 217.377L69.523 216.418L67.7679 215.459C58.0801 233.189 48.642 251.529 43.1843 275.104L45.1327 275.555ZM69.523 216.418L71.2781 217.377C80.941 199.693 95.7204 183.587 111.582 167.794L110.17 166.377L108.759 164.96C92.8703 180.78 77.7283 197.231 67.7679 215.459L69.523 216.418ZM110.17 166.377L111.582 167.794C126.66 152.781 145.91 141.763 165.704 129.934L164.678 128.218L163.652 126.501C144.015 138.235 124.265 149.521 108.759 164.96L110.17 166.377ZM164.678 128.218L165.704 129.934C185.615 118.036 208.4 109.274 232.426 101.188L231.789 99.2922L231.151 97.3966C207.059 105.505 183.943 114.376 163.652 126.501L164.678 128.218ZM231.789 99.2922L232.426 101.188C257.102 92.883 285.503 88.2082 315.174 84.2095L314.907 82.2274L314.64 80.2453C284.95 84.2466 256.218 88.96 231.151 97.3966L231.789 99.2922ZM314.907 82.2274L315.174 84.2095C343.442 80.3999 372.666 82.0548 402.795 83.582L402.896 81.5846L402.998 79.5872C372.966 78.0648 343.347 76.3766 314.64 80.2453L314.907 82.2274ZM402.896 81.5846L402.795 83.582C433.101 85.1183 464.128 90.3829 495.796 96.5581L496.179 94.595L496.562 92.632C464.858 86.4499 433.601 81.1385 402.998 79.5872L402.896 81.5846ZM496.179 94.595L495.796 96.5581C528.105 102.858 562.198 113.793 596.412 125.929L597.081 124.044L597.749 122.159C563.489 110.007 529.171 98.9905 496.562 92.632L496.179 94.595ZM597.081 124.044L596.412 125.929C627.835 137.075 656.72 153.766 686.171 170.981L687.181 169.254L688.19 167.528C658.779 150.336 629.581 133.45 597.749 122.159L597.081 124.044ZM687.181 169.254L686.171 170.981C715.602 188.184 741.964 209.108 766.329 229.673L767.619 228.145L768.909 226.616C744.495 206.011 717.924 184.907 688.19 167.528L687.181 169.254ZM767.619 228.145L766.329 229.673C789.746 249.437 809.572 273.404 827.902 296.961L829.481 295.733L831.059 294.505C812.702 270.913 792.664 246.666 768.909 226.616L767.619 228.145ZM829.481 295.733L827.902 296.961C844.176 317.875 854.307 340.368 862.429 361.744L864.299 361.034L866.169 360.324C857.989 338.799 847.69 315.878 831.059 294.505L829.481 295.733ZM864.299 361.034L862.429 361.744C869.925 381.471 869.957 401.343 868.521 419.035L870.514 419.197L872.508 419.358C873.961 401.457 873.979 380.879 866.169 360.324L864.299 361.034ZM870.514 419.197L868.521 419.035C867.181 435.541 858.297 450.745 848.897 465.36L850.579 466.442L852.261 467.524C861.63 452.958 871.078 436.982 872.508 419.358L870.514 419.197ZM850.579 466.442L848.897 465.36C840.143 478.97 825.958 489.611 806.231 504.029L807.411 505.644L808.592 507.259C828.157 492.958 843.026 481.882 852.261 467.524L850.579 466.442ZM807.411 505.644L806.231 504.029C794.232 512.8 776.693 523.154 756.66 532.961L757.54 534.757L758.419 536.554C778.592 526.678 796.348 516.207 808.592 507.259L807.411 505.644ZM757.54 534.757L756.66 532.961C736.684 542.741 714.484 551.235 685.083 559.345L685.615 561.273L686.146 563.201C715.754 555.034 738.191 546.457 758.419 536.554L757.54 534.757ZM685.615 561.273L685.083 559.345C655.67 567.457 619.735 574.923 581.253 580.754L581.552 582.732L581.852 584.709C620.458 578.86 656.551 571.364 686.146 563.201L685.615 561.273ZM581.552 582.732L581.253 580.754C542.771 586.585 502.85 590.551 470.904 592.374L471.018 594.371L471.132 596.367C503.201 594.538 543.245 590.559 581.852 584.709L581.552 582.732ZM471.018 594.371L470.904 592.374C438.983 594.195 416.252 593.754 392.41 591.951L392.259 593.945L392.108 595.94C416.13 597.756 439.038 598.198 471.132 596.367L471.018 594.371ZM392.259 593.945L392.41 591.951C368.553 590.146 344.282 586.991 319.033 581.963L318.642 583.925L318.251 585.886C343.671 590.948 368.103 594.124 392.108 595.94L392.259 593.945ZM318.642 583.925L319.033 581.963C293.781 576.935 268.278 570.127 244.676 562.396L244.053 564.296L243.431 566.197C267.177 573.975 292.834 580.825 318.251 585.886L318.642 583.925ZM244.053 564.296L244.676 562.396C199.65 547.647 168.882 532.354 149.801 521.715L148.827 523.462L147.853 525.209C167.127 535.955 198.129 551.358 243.431 566.197L244.053 564.296ZM148.827 523.462L149.801 521.715C131.29 511.395 114.831 498.356 98.9664 484.744L97.6641 486.262L96.3617 487.78C112.288 501.444 128.988 514.691 147.853 525.209L148.827 523.462ZM97.6641 486.262L98.9664 484.744C82.8799 470.942 70.2294 455.202 59.4581 440.17L57.8323 441.335L56.2066 442.5C67.0641 457.652 79.9291 473.681 96.3617 487.78L97.6641 486.262ZM57.8323 441.335L59.4581 440.17C48.7409 425.213 40.7491 408.886 34.3797 392.636L32.5177 393.366L30.6556 394.096C37.1039 410.547 45.2393 427.194 56.2066 442.5L57.8323 441.335ZM32.5177 393.366L34.3797 392.636C28.1469 376.735 27.1745 359.176 26.5827 341.339L24.5838 341.405L22.5849 341.471C23.175 359.258 24.1393 377.471 30.6556 394.096L32.5177 393.366ZM24.5838 341.405L26.5827 341.339C25.974 322.994 30.0805 304.963 35.3166 287.528L33.4011 286.953L31.4856 286.378C26.2092 303.946 21.9545 322.473 22.5849 341.471L24.5838 341.405ZM33.4011 286.953L35.3166 287.528C40.8093 269.239 50.5498 250.953 61.7819 232.488L60.0731 231.448L58.3644 230.409C47.0831 248.956 37.1279 267.59 31.4856 286.378L33.4011 286.953ZM60.0731 231.448L61.7819 232.488C73.1689 213.767 89.7682 197.143 108.006 180.037L106.638 178.578L105.27 177.119C87.0331 194.224 70.064 211.175 58.3644 230.409L60.0731 231.448ZM106.638 178.578L108.006 180.037C127.295 161.945 149.673 147.585 171.804 134.283L170.774 132.568L169.744 130.854C147.576 144.178 124.887 158.719 105.27 177.119L106.638 178.578ZM170.774 132.568L171.804 134.283C183.104 127.491 195.285 121.372 216.023 112.543L215.24 110.703L214.457 108.862C193.618 117.734 181.256 123.934 169.744 130.854L170.774 132.568ZM215.24 110.703L216.023 112.543C236.765 103.712 265.791 92.6045 288.864 84.667L288.213 82.7758L287.563 80.8845C264.407 88.8504 235.293 99.992 214.457 108.862L215.24 110.703ZM288.213 82.7758L288.864 84.667C311.895 76.7441 328.093 72.3238 353.426 66.9773L353.013 65.0204L352.6 63.0635C327.119 68.4413 310.761 72.904 287.563 80.8845L288.213 82.7758ZM353.013 65.0204L353.426 66.9773C378.795 61.6231 412.799 55.4816 437.818 51.6584L437.516 49.6814L437.214 47.7043C412.123 51.5384 378.045 57.6933 352.6 63.0635L353.013 65.0204ZM437.516 49.6814L437.818 51.6584C477.628 45.5752 509.775 44.8445 543.625 44.7566L543.619 42.7566L543.614 40.7567C509.7 40.8447 477.319 41.576 437.214 47.7043L437.516 49.6814ZM543.619 42.7566L543.625 44.7566C560.787 44.7121 578.067 45.7883 595.711 47.2319L595.874 45.2385L596.037 43.2452C578.352 41.7982 560.943 40.7117 543.614 40.7567L543.619 42.7566ZM595.874 45.2385L595.711 47.2319C613.308 48.6717 630.697 50.727 657.253 55.7293L657.624 53.7639L657.994 51.7985C631.295 46.7694 613.768 44.6959 596.037 43.2452L595.874 45.2385ZM657.624 53.7639L657.253 55.7293C683.837 60.7367 719.06 68.6308 744.676 75.3746L745.186 73.4405L745.695 71.5064C719.981 64.7372 684.666 56.8225 657.994 51.7985L657.624 53.7639ZM745.186 73.4405L744.676 75.3746C785.528 86.129 815.973 99.7245 846.881 113.998L847.719 112.183L848.558 110.367C817.608 96.0739 786.901 82.3542 745.695 71.5064L745.186 73.4405ZM847.719 112.183L846.881 113.998C877.613 128.191 905.938 146.299 933.008 164.624L934.129 162.968L935.25 161.312C908.14 142.96 879.596 124.7 848.558 110.367L847.719 112.183ZM934.129 162.968L933.008 164.624C959.874 182.811 983.71 205.307 1004.96 226.858L1006.38 225.454L1007.8 224.05C986.506 202.445 962.449 179.724 935.25 161.312L934.129 162.968ZM1006.38 225.454L1004.96 226.858C1023.03 245.193 1034.88 265.198 1045.3 283.817L1047.04 282.84L1048.79 281.863C1038.34 263.2 1026.28 242.792 1007.8 224.05L1006.38 225.454ZM1047.04 282.84L1045.3 283.817C1050.25 292.658 1052.85 301.845 1054.62 310.565L1056.58 310.169L1058.54 309.773C1056.73 300.848 1054.02 291.211 1048.79 281.863L1047.04 282.84ZM1056.58 310.169L1054.62 310.565C1056.36 319.19 1056.66 327.204 1055.85 334.865L1057.84 335.077L1059.83 335.288C1060.69 327.218 1060.36 318.793 1058.54 309.773L1056.58 310.169ZM1057.84 335.077L1055.85 334.865C1054.27 349.721 1047.36 363.975 1038.95 377.97L1040.66 379L1042.37 380.03C1050.86 365.915 1058.15 351.043 1059.83 335.288L1057.84 335.077ZM1040.66 379L1038.95 377.97C1030.76 391.585 1017.34 403.051 1002.92 415.898L1004.25 417.391L1005.58 418.884C1019.81 406.209 1033.8 394.29 1042.37 380.03L1040.66 379ZM1004.25 417.391L1002.92 415.898C988.179 429.038 970.375 440.172 951.607 451.402L952.634 453.119L953.661 454.835C972.423 443.608 990.526 432.304 1005.58 418.884L1004.25 417.391ZM952.634 453.119L951.607 451.402C932.319 462.944 909.02 472.121 877.304 482.23L877.911 484.135L878.519 486.041C910.323 475.904 933.972 466.616 953.661 454.835L952.634 453.119ZM877.911 484.135L877.304 482.23C858.33 488.277 832.51 493.783 803.785 498.851L804.132 500.82L804.48 502.79C833.243 497.716 859.28 492.172 878.519 486.041L877.911 484.135ZM804.132 500.82L803.785 498.851C775.113 503.909 744.21 507.713 710.582 510.326L710.737 512.32L710.892 514.314C744.629 511.693 775.662 507.874 804.48 502.79L804.132 500.82ZM710.737 512.32L710.582 510.326C676.963 512.939 641.579 514.244 598.361 512.734L598.291 514.733L598.221 516.732C641.609 518.248 677.145 516.937 710.892 514.314L710.737 512.32ZM598.291 514.733L598.361 512.734C555.128 511.223 505.116 506.855 462.852 501.596L462.605 503.581L462.358 505.565C504.718 510.837 554.849 515.216 598.221 516.732L598.291 514.733ZM462.605 503.581L462.852 501.596C420.602 496.338 387.621 490.323 362.236 485.074L361.831 487.032L361.426 488.991C386.898 494.258 419.985 500.292 462.358 505.565L462.605 503.581ZM361.831 487.032L362.236 485.074C319.934 476.327 289.568 466.429 262.931 456.405L262.226 458.276L261.522 460.148C288.317 470.232 318.884 480.194 361.426 488.991L361.831 487.032ZM262.226 458.276L262.931 456.405C236.143 446.324 211.176 432.585 187.844 418.783L186.826 420.505L185.808 422.226C209.195 436.061 234.401 449.942 261.522 460.148L262.226 458.276ZM186.826 420.505L187.844 418.783C165.597 405.623 147.798 388.848 132.209 372.61L130.767 373.995L129.324 375.38C145 391.708 163.095 408.79 185.808 422.226L186.826 420.505ZM130.767 373.995L132.209 372.61C117.222 356.999 108.139 339.941 101.567 325.008L99.736 325.813L97.9054 326.619C104.572 341.767 113.882 359.296 129.324 375.38L130.767 373.995ZM99.736 325.813L101.567 325.008C95.1664 310.465 95.525 293.556 96.3655 276.636L94.368 276.537L92.3704 276.438C91.5352 293.251 91.071 311.09 97.9054 326.619L99.736 325.813ZM94.368 276.537L96.3655 276.636C97.2022 259.794 103.575 243.16 110.726 226.21L108.883 225.433L107.041 224.656C99.9004 241.58 93.2462 258.808 92.3704 276.438L94.368 276.537ZM108.883 225.433L110.726 226.21C118.164 208.579 130.702 193.832 143.771 180.494L142.343 179.094L140.914 177.695C127.751 191.129 114.779 206.312 107.041 224.656L108.883 225.433ZM142.343 179.094L143.771 180.494C157.307 166.68 175.126 155.628 194.096 144.316L193.072 142.598L192.048 140.881C173.126 152.163 154.866 163.457 140.914 177.695L142.343 179.094ZM193.072 142.598L194.096 144.316C213.644 132.661 236.892 124.359 262.632 117.049L262.086 115.125L261.54 113.201C235.686 120.543 212.043 128.958 192.048 140.881L193.072 142.598ZM262.086 115.125L262.632 117.049C290.272 109.199 318.562 106.445 344.958 105.293L344.871 103.295L344.784 101.297C318.256 102.455 289.613 105.228 261.54 113.201L262.086 115.125ZM344.871 103.295L344.958 105.293C371.393 104.138 398.021 107.245 424.079 110.908L424.357 108.927L424.635 106.947C398.552 103.281 371.612 100.125 344.784 101.297L344.871 103.295ZM424.357 108.927L423.986 110.893C449.4 115.683 473.669 122.039 496.82 130.044L497.474 128.154L498.127 126.264C474.778 118.19 450.319 111.786 424.727 106.962L424.357 108.927ZM497.474 128.154L496.771 130.027C508.489 134.424 520.168 139.508 532.259 144.773L533.058 142.939L533.856 141.105C521.783 135.849 510.008 130.721 498.177 126.281L497.474 128.154Z" fill="#FFC294"/>
</svg>
