<svg width="976" height="755" viewBox="0 0 976 755" fill="none" xmlns="http://www.w3.org/2000/svg">
<path d="M9.64775 341.213L11.6357 340.993L9.64775 341.213ZM8.84697 303.707L6.84914 303.614L6.84914 303.614L8.84697 303.707ZM18.4303 273.768L20.219 274.662L18.4303 273.768ZM40.1701 242.747L41.7138 244.018L41.7138 244.018L40.1701 242.747ZM110.989 183.518L109.799 181.911L109.799 181.911L110.989 183.518ZM420.993 42.1366L420.528 40.1915L420.993 42.1366ZM513.435 29.047L513.566 31.0427L513.435 29.047ZM596.254 32.4256L596.007 34.4103L596.254 32.4256ZM675.483 55.5197L674.772 57.3891L675.483 55.5197ZM751.857 98.1782L752.98 96.5233L752.98 96.5233L751.857 98.1782ZM818.274 156.808L819.729 155.436L819.729 155.436L818.274 156.808ZM873.082 230.951L874.769 229.876L874.769 229.876L873.082 230.951ZM913.866 319.125L915.744 318.435L913.866 319.125ZM932.494 410.817L930.502 411L932.494 410.817ZM928.499 494.052L930.48 494.325L928.499 494.052ZM902.939 568.563L901.121 567.728L902.939 568.563ZM862.013 630.571L863.542 631.861L863.542 631.861L862.013 630.571ZM806.683 679.843L807.888 681.44L807.888 681.44L806.683 679.843ZM737.273 717.104L736.501 715.259L736.501 715.259L737.273 717.104ZM640.986 737.337L641.185 739.327L641.185 739.327L640.986 737.337ZM187.958 675.855L187.281 677.736L187.281 677.736L187.958 675.855ZM114.758 640.302L113.683 641.989L113.683 641.989L114.758 640.302ZM66.0775 597.478L67.5318 596.105L66.0775 597.478ZM30.0747 543.604L28.3123 544.55L28.3123 544.55L30.0747 543.604ZM8.53973 480.404L6.5867 480.835L8.53973 480.404ZM2.00216 381.871L0.0021847 381.881L2.00216 381.871ZM16.3103 303.48L18.2326 304.032L16.3103 303.48ZM55.6422 212.377L53.9022 211.391L53.9022 211.391L55.6422 212.377ZM104.038 150.54L105.487 151.919L104.038 150.54ZM169.989 105.07L169.109 103.274L169.109 103.274L169.989 105.07ZM252.115 81.015L251.741 79.0503L252.115 81.015ZM352.757 76.9654L352.681 78.964L352.757 76.9654ZM910.727 423.736L909.1 424.899L909.1 424.899L910.727 423.736ZM955.563 500.411L957.367 499.548L957.367 499.548L955.563 500.411ZM971.997 562.48L973.978 562.201L971.997 562.48ZM969.963 618.145L967.989 617.825L969.963 618.145ZM946.583 662.284L944.993 661.071L946.583 662.284ZM905.303 694.583L904.3 692.852L905.303 694.583ZM843.724 715.13L843.277 713.18L843.724 715.13ZM755.814 723.028L755.755 721.029L755.814 723.028ZM206.791 599.555L207.644 597.746L206.791 599.555ZM134.425 553.277L135.721 551.754L135.721 551.754L134.425 553.277ZM90.6758 502.022L89.0269 503.154L89.0269 503.154L90.6758 502.022ZM61.566 440.592L59.687 441.277L61.566 440.592ZM49.4685 377.334L51.4634 377.191L49.4685 377.334ZM54.2131 319.004L56.1776 319.379L54.2131 319.004ZM76.0456 259.074L77.8648 259.905L76.0456 259.074ZM113.293 200.655L111.73 199.408L111.73 199.408L113.293 200.655ZM166.457 152.647L167.643 154.257L166.457 152.647ZM233.582 119.972L232.898 118.093L233.582 119.972ZM315.597 102.931L315.38 100.943L315.597 102.931ZM415.373 104.369L415.222 106.364L415.373 104.369ZM763.149 234.308L764.173 232.589L764.173 232.589L763.149 234.308ZM834.638 286.277L833.328 287.788L834.638 286.277ZM867.569 329.066L865.829 330.052L867.569 329.066ZM877.686 372.904L879.684 372.824L877.686 372.904ZM866.849 419.668L868.697 420.433L868.697 420.433L866.849 419.668ZM832.993 464.128L834.427 465.521L832.993 464.128ZM777.644 505.802L776.563 504.119L777.644 505.802ZM692.161 545.103L692.863 546.976L692.161 545.103ZM270.353 611.81L270.28 613.809L270.353 611.81ZM188.477 600.565L188.913 598.613L188.477 600.565ZM140.296 579.629L139.269 581.345L139.269 581.345L140.296 579.629ZM107.806 548.378L109.392 547.16L109.392 547.16L107.806 548.378ZM89.4118 506.591L87.4957 507.164L89.4118 506.591ZM86.0083 461.559L88.0079 461.597L86.0083 461.559ZM94.3515 413.551L92.4309 412.994L92.4309 412.994L94.3515 413.551ZM135.054 328.769L136.807 329.731L135.054 328.769ZM242.779 173.451L241.268 172.141L242.779 173.451ZM305.42 114.172L306.667 115.735L306.667 115.735L305.42 114.172ZM379.247 73.8422L378.498 71.9877L379.247 73.8422ZM462.232 59.4873L462.281 61.4867L462.232 59.4873ZM547.541 68.1497L547.165 70.114L547.165 70.114L547.541 68.1497ZM630.48 93.4505L629.768 95.3192L630.48 93.4505ZM706.672 133.17L707.746 131.483L706.672 133.17ZM774.08 188.732L775.458 187.283L774.08 188.732ZM834.648 261.151L833.03 262.326L834.648 261.151ZM882.883 347.102L884.704 346.276L882.883 347.102ZM912.713 439.614L910.772 440.095L912.713 439.614ZM924.617 532.042L926.615 531.935L924.617 532.042ZM916.234 610.825L914.31 610.277L916.234 610.825ZM882.536 668.601L880.987 667.336L882.536 668.601ZM826.353 711.694L825.326 709.978L825.326 709.978L826.353 711.694ZM754.253 738.844L754.747 740.782L754.253 738.844ZM293.317 691.572L294.04 689.707L293.317 691.572ZM213.844 653.664L214.841 651.93L213.844 653.664ZM156.91 612.802L158.19 611.266L158.19 611.266L156.91 612.802ZM112.142 564.231L113.718 563L112.142 564.231ZM78.8367 504.849L80.6663 504.041L80.6663 504.041L78.8367 504.849ZM55.2251 431.915L53.2909 432.424L55.2251 431.915ZM42.6149 352.315L40.6233 352.498L42.6149 352.315ZM43.1772 277.407L41.1835 277.248L43.1772 277.407ZM59.5656 204.169L57.6465 203.605L59.5656 204.169ZM92.2204 127.762L93.997 128.681L92.2204 127.762ZM142.087 60.7812L140.671 59.3688L140.671 59.3688L142.087 60.7812ZM210.454 20.5794L211.201 22.4345L210.454 20.5794ZM298.803 5.06799L298.935 7.06362L298.803 5.06799ZM398.399 13.9516L397.986 15.9085L398.399 13.9516ZM499.973 47.0743L500.696 45.2097L499.973 47.0743ZM737.605 214.591L739.094 213.255L737.605 214.591ZM804.622 303.899L806.3 302.812L806.3 302.812L804.622 303.899ZM845.572 391.087L843.685 391.749L845.572 391.087ZM853.226 457.172L851.227 457.114L853.226 457.172ZM838.045 511.362L836.243 510.493L836.243 510.493L838.045 511.362ZM800.42 555.675L801.754 557.165L800.42 555.675ZM746.74 584.926L747.51 586.772L746.74 584.926ZM668.248 603.408L668.537 605.387L668.248 603.408ZM420.465 595.571L420.823 593.604L420.465 595.571ZM327.933 569.292L327.244 571.169L327.933 569.292ZM265.675 537.239L264.635 538.947L264.635 538.947L265.675 537.239ZM185.733 462.772L187.304 461.534L185.733 462.772ZM151.705 360.116L153.666 359.719L151.705 360.116ZM150.088 268.808L148.091 268.708L150.088 268.808ZM170.315 175.202L168.413 174.584L168.413 174.584L170.315 175.202ZM199.241 113.003L200.99 113.974L199.241 113.003ZM240.923 64.3345L239.587 62.8462L240.923 64.3345ZM299.009 33.9944L298.361 32.102L298.361 32.102L299.009 33.9944ZM371.788 26.6109L371.769 28.6108L371.788 26.6109ZM447.974 43.4L448.627 41.5096L447.974 43.4ZM527.684 83.6777L528.725 81.9699L527.684 83.6777ZM604.257 143.284L605.579 141.782L605.579 141.782L604.257 143.284ZM668.073 215.987L669.653 214.761L668.073 215.987ZM722.354 302.168L720.601 303.13L720.601 303.13L722.354 302.168ZM760.649 394.541L762.547 393.909L760.649 394.541ZM774.991 478.084L772.998 478.255L774.991 478.084ZM769.955 555.051L767.987 554.695L769.955 555.051ZM741.814 614.469L743.462 615.602L741.814 614.469ZM696.44 650.612L697.466 652.328L697.466 652.328L696.44 650.612ZM637.302 673.343L637.853 675.266L637.853 675.266L637.302 673.343ZM560.033 684.983L559.879 682.989L560.033 684.983ZM362.353 663.877L362.819 661.932L362.353 663.877ZM268.524 631.981L267.725 633.815L268.524 631.981ZM195.867 590.167L196.985 588.509L195.867 590.167ZM141.76 543.859L140.354 545.281L140.354 545.281L141.76 543.859ZM105.37 493.682L107.132 492.736L105.37 493.682ZM84.9511 434.637L86.8884 434.14L84.9511 434.637ZM74.9625 358.817L72.9664 358.941L74.9625 358.817ZM88.3911 223.617L90.34 224.066L88.3911 223.617ZM116.326 139.216L118.176 139.976L118.176 139.976L116.326 139.216ZM159.34 66.9724L160.919 68.1998L160.919 68.1998L159.34 66.9724ZM221.956 18.8077L222.891 20.5756L222.891 20.5756L221.956 18.8077ZM305.63 2.27791L305.735 4.27515L305.63 2.27791ZM404.412 16.6298L403.849 18.5488L404.412 16.6298ZM800.425 395.213L802.279 394.462L800.425 395.213ZM828.828 499.977L830.802 499.659L828.828 499.977ZM768.004 627.357L768.967 629.11L768.967 629.11L768.004 627.357ZM684.868 648.985L685.021 650.979L685.058 650.977L685.095 650.972L684.868 648.985ZM12.548 417.408L14.5438 417.537C15.0394 409.852 16.2106 382.402 11.6357 340.993L9.64775 341.213L7.65984 341.433C12.2057 382.578 11.0349 409.793 10.5521 417.279L12.548 417.408ZM9.64775 341.213L11.6357 340.993C10.3935 329.751 10.1691 318.295 10.8448 303.8L8.84697 303.707L6.84914 303.614C6.16657 318.255 6.38886 329.929 7.65984 341.433L9.64775 341.213ZM8.84697 303.707L10.8448 303.8C11.3595 292.76 15.635 283.827 20.219 274.662L18.4303 273.768L16.6416 272.873C12.0698 282.013 7.4076 291.635 6.84914 303.614L8.84697 303.707ZM18.4303 273.768L20.219 274.662C25.0737 264.957 32.6712 254.996 41.7138 244.018L40.1701 242.747L38.6264 241.475C29.5777 252.46 21.7176 262.725 16.6416 272.873L18.4303 273.768ZM40.1701 242.747L41.7138 244.018C51.3612 232.307 73.1683 213.989 112.178 185.126L110.989 183.518L109.799 181.911C70.8653 210.717 48.6408 229.318 38.6264 241.475L40.1701 242.747ZM110.989 183.518L112.178 185.126C134.632 168.513 165.144 150.957 199.534 132.456L198.586 130.695L197.639 128.934C163.237 147.44 132.504 165.112 109.799 181.911L110.989 183.518ZM198.586 130.695L199.534 132.456C233.877 113.981 271.676 95.9855 297.247 84.4222L296.423 82.5999L295.599 80.7776C269.974 92.365 232.087 110.401 197.639 128.934L198.586 130.695ZM296.423 82.5999L297.247 84.4222C322.783 72.875 334.909 68.3186 354.442 62.3375L353.857 60.4251L353.271 58.5128C333.546 64.5526 321.259 69.1741 295.599 80.7776L296.423 82.5999ZM353.857 60.4251L354.442 62.3375C374.032 56.3391 400.673 49.0571 421.459 44.0816L420.993 42.1366L420.528 40.1915C399.661 45.1865 372.939 52.4903 353.271 58.5128L353.857 60.4251ZM420.993 42.1366L421.459 44.0816C456.094 35.791 484.858 32.9349 513.566 31.0427L513.435 29.047L513.303 27.0513C484.487 28.9507 455.472 31.8268 420.528 40.1915L420.993 42.1366ZM513.435 29.047L513.566 31.0427C542.811 29.1151 570.523 31.2424 596.007 34.4103L596.254 32.4256L596.501 30.4409C570.889 27.2571 542.899 25.1006 513.303 27.0513L513.435 29.047ZM596.254 32.4256L596.007 34.4103C622.151 37.6602 648.294 47.3186 674.772 57.3891L675.483 55.5197L676.194 53.6503C649.778 43.6035 623.197 33.7594 596.501 30.4409L596.254 32.4256ZM675.483 55.5197L674.772 57.3891C701.354 67.4985 726.117 83.1298 750.734 99.8332L751.857 98.1782L752.98 96.5233C728.334 79.7996 703.243 63.9374 676.194 53.6503L675.483 55.5197ZM751.857 98.1782L750.734 99.8332C776.065 117.021 797.457 137.656 816.819 158.181L818.274 156.808L819.729 155.436C800.288 134.828 778.664 113.951 752.98 96.5233L751.857 98.1782ZM818.274 156.808L816.819 158.181C836.969 179.54 854.359 205.294 871.395 232.026L873.082 230.951L874.769 229.876C857.721 203.126 840.159 177.092 819.729 155.436L818.274 156.808ZM873.082 230.951L871.395 232.026C888.574 258.981 900.755 289.208 911.989 319.814L913.866 319.125L915.744 318.435C904.496 287.792 892.194 257.219 874.769 229.876L873.082 230.951ZM913.866 319.125L911.989 319.814C923.453 351.046 927.88 382.424 930.502 411L932.494 410.817L934.485 410.634C931.852 381.936 927.386 350.153 915.744 318.435L913.866 319.125ZM932.494 410.817L930.502 411C933.114 439.46 930.157 467.408 926.518 493.778L928.499 494.052L930.48 494.325C934.127 467.9 937.141 439.574 934.485 410.634L932.494 410.817ZM928.499 494.052L926.518 493.778C922.95 519.628 912.097 543.836 901.121 567.728L902.939 568.563L904.756 569.398C915.701 545.572 926.82 520.847 930.48 494.325L928.499 494.052ZM902.939 568.563L901.121 567.728C890.056 591.814 875.187 611.855 860.485 629.281L862.013 630.571L863.542 631.861C878.355 614.303 893.478 593.948 904.756 569.398L902.939 568.563ZM862.013 630.571L860.485 629.281C845.409 647.15 825.976 662.782 805.479 678.246L806.683 679.843L807.888 681.44C828.402 665.963 848.153 650.101 863.542 631.861L862.013 630.571ZM806.683 679.843L805.479 678.246C784.994 693.702 761.227 704.909 736.501 715.259L737.273 717.104L738.046 718.949C762.837 708.571 786.987 697.209 807.888 681.44L806.683 679.843ZM737.273 717.104L736.501 715.259C710.708 726.057 683.231 731.101 640.786 735.347L640.986 737.337L641.185 739.327C683.733 735.07 711.691 729.982 738.046 718.949L737.273 717.104ZM640.986 737.337L640.786 735.347C611.422 738.285 565.655 739.187 524.089 738.481L524.055 740.48L524.021 742.48C565.642 743.187 611.59 742.288 641.185 739.327L640.986 737.337ZM524.055 740.48L524.089 738.481C482.595 737.776 446.672 734.509 404.173 727.553L403.85 729.527L403.527 731.5C446.211 738.487 482.327 741.772 524.021 742.48L524.055 740.48ZM403.85 729.527L404.173 727.553C361.652 720.593 313.641 710.038 275.127 700.14L274.629 702.077L274.131 704.014C312.737 713.935 360.867 724.517 403.527 731.5L403.85 729.527ZM274.629 702.077L275.127 700.14C236.627 690.246 209.094 681.333 188.635 673.973L187.958 675.855L187.281 677.736C207.858 685.139 235.51 694.089 274.131 704.014L274.629 702.077ZM187.958 675.855L188.635 673.973C155.33 661.99 133.72 650.018 115.833 638.616L114.758 640.302L113.683 641.989C131.781 653.525 153.657 665.639 187.281 677.736L187.958 675.855ZM114.758 640.302L115.833 638.616C97.9856 627.238 82.4759 611.934 67.5318 596.105L66.0775 597.478L64.6232 598.851C79.5958 614.711 95.3902 630.328 113.683 641.989L114.758 640.302ZM66.0775 597.478L67.5318 596.105C52.7975 580.498 42.0754 561.743 31.8371 542.659L30.0747 543.604L28.3123 544.55C38.5553 563.642 49.4898 582.821 64.6232 598.851L66.0775 597.478ZM30.0747 543.604L31.8371 542.659C21.2084 522.847 15.1879 501.256 10.4928 479.974L8.53973 480.404L6.5867 480.835C11.3068 502.23 17.4213 524.249 28.3123 544.55L30.0747 543.604ZM8.53973 480.404L10.4928 479.974C5.57752 457.694 4.20106 422.457 4.00214 381.861L2.00216 381.871L0.0021847 381.881C0.200789 422.412 1.56499 458.073 6.5867 480.835L8.53973 480.404ZM2.00216 381.871L4.00214 381.861C3.86633 354.145 10.2135 331.951 18.2326 304.032L16.3103 303.48L14.388 302.928C6.38354 330.796 -0.13682 353.512 0.0021847 381.881L2.00216 381.871ZM16.3103 303.48L18.2326 304.032C29.0581 266.342 45.1259 234.992 57.3823 213.363L55.6422 212.377L53.9022 211.391C41.5713 233.152 25.3363 264.81 14.388 302.928L16.3103 303.48ZM55.6422 212.377L57.3823 213.363C69.8678 191.33 86.9792 171.354 105.487 151.919L104.038 150.54L102.59 149.161C84.0146 168.667 66.6327 188.925 53.9022 211.391L55.6422 212.377ZM104.038 150.54L105.487 151.919C124.521 131.931 147.861 118.147 170.87 106.865L169.989 105.07L169.109 103.274C145.935 114.637 122.104 128.669 102.59 149.161L104.038 150.54ZM169.989 105.07L170.87 106.865C194.626 95.2168 222.603 88.6739 252.489 82.9797L252.115 81.015L251.741 79.0503C221.825 84.7501 193.386 91.3698 169.109 103.274L169.989 105.07ZM252.115 81.015L252.489 82.9797C283.55 77.0618 317.328 77.6117 352.681 78.964L352.757 76.9654L352.834 74.9669C317.499 73.6153 283.301 73.0372 251.741 79.0503L252.115 81.015ZM352.757 76.9654L352.681 78.964C370.857 79.6593 389.765 82.9847 408.208 86.7911L408.612 84.8323L409.017 82.8736C390.528 79.0579 371.355 75.6754 352.834 74.9669L352.757 76.9654ZM408.612 84.8323L408.208 86.7911C426.584 90.5835 443.786 95.3979 461.97 101.348L462.592 99.4473L463.214 97.5465C444.922 91.5611 427.572 86.7032 409.017 82.8736L408.612 84.8323ZM462.592 99.4473L461.97 101.348C480.156 107.299 498.787 114.234 517.987 122.104L518.745 120.253L519.504 118.402C500.228 110.502 481.505 103.532 463.214 97.5465L462.592 99.4473ZM518.745 120.253L517.987 122.104C537.184 129.972 556.374 138.559 575.82 148.17L576.706 146.377L577.592 144.584C558.057 134.929 538.782 126.304 519.504 118.402L518.745 120.253ZM576.706 146.377L575.82 148.17C595.248 157.772 614.354 168.136 642.958 186.158L644.025 184.466L645.091 182.774C616.372 164.68 597.146 154.248 577.592 144.584L576.706 146.377ZM644.025 184.466L642.958 186.158C671.584 204.193 709.123 229.569 735.935 249.093L737.112 247.477L738.29 245.86C711.401 226.28 673.788 200.854 645.091 182.774L644.025 184.466ZM737.112 247.477L735.935 249.093C762.703 268.585 777.616 281.455 799.11 302.506L800.51 301.077L801.909 299.649C780.282 278.467 765.222 265.471 738.29 245.86L737.112 247.477ZM800.51 301.077L799.11 302.506C820.641 323.593 848.293 352.471 868.139 374.548L869.627 373.211L871.114 371.874C851.211 349.734 823.5 320.795 801.909 299.649L800.51 301.077ZM869.627 373.211L868.139 374.548C887.967 396.604 899.149 410.977 909.1 424.899L910.727 423.736L912.354 422.572C902.311 408.523 891.035 394.034 871.114 371.874L869.627 373.211ZM910.727 423.736L909.1 424.899C928.068 451.432 942.448 477.623 953.758 501.274L955.563 500.411L957.367 499.548C945.983 475.744 931.49 449.34 912.354 422.572L910.727 423.736ZM955.563 500.411L953.758 501.274C963.509 521.662 967.169 542.531 970.017 562.759L971.997 562.48L973.978 562.201C971.123 541.919 967.4 520.527 957.367 499.548L955.563 500.411ZM971.997 562.48L970.017 562.759C972.748 582.161 970.737 600.883 967.989 617.825L969.963 618.145L971.937 618.465C974.706 601.396 976.793 582.203 973.978 562.201L971.997 562.48ZM969.963 618.145L967.989 617.825C965.443 633.516 955.426 647.396 944.993 661.071L946.583 662.284L948.173 663.497C958.522 649.932 969.207 635.293 971.937 618.465L969.963 618.145ZM946.583 662.284L944.993 661.071C935.165 673.952 920.537 683.445 904.3 692.852L905.303 694.583L906.306 696.313C922.54 686.907 937.812 677.076 948.173 663.497L946.583 662.284ZM905.303 694.583L904.3 692.852C887.364 702.665 866.079 707.958 843.277 713.18L843.724 715.13L844.17 717.079C866.884 711.877 888.764 706.477 906.306 696.313L905.303 694.583ZM843.724 715.13L843.277 713.18C820.025 718.505 793.062 719.939 755.755 721.029L755.814 723.028L755.872 725.027C793.134 723.939 820.479 722.505 844.17 717.079L843.724 715.13ZM755.814 723.028L755.755 721.029C733.118 721.69 702.581 720.317 649.354 713.637L649.105 715.621L648.856 717.606C702.193 724.3 732.953 725.696 755.872 725.027L755.814 723.028ZM649.105 715.621L649.354 713.637C596.131 706.957 521.198 694.437 456.596 679.847L456.156 681.798L455.715 683.749C520.455 698.37 595.516 710.911 648.856 717.606L649.105 715.621ZM456.156 681.798L456.596 679.847C392.015 665.262 340.017 648.984 298.799 634.466L298.134 636.352L297.47 638.239C338.806 652.799 390.955 669.123 455.715 683.749L456.156 681.798ZM298.134 636.352L298.799 634.466C257.58 619.947 228.738 607.689 207.644 597.746L206.791 599.555L205.939 601.364C227.165 611.37 256.133 623.679 297.47 638.239L298.134 636.352ZM206.791 599.555L207.644 597.746C173.58 581.69 152.687 566.191 135.721 551.754L134.425 553.277L133.129 554.8C150.311 569.421 171.498 585.13 205.939 601.364L206.791 599.555ZM134.425 553.277L135.721 551.754C118.809 537.362 105.036 519.41 92.3247 500.89L90.6758 502.022L89.0269 503.154C101.796 521.758 115.808 540.06 133.129 554.8L134.425 553.277ZM90.6758 502.022L92.3247 500.89C79.7217 482.529 71.2866 461.407 63.4449 439.906L61.566 440.592L59.687 441.277C67.5361 462.798 76.1133 484.34 89.0269 503.154L90.6758 502.022ZM61.566 440.592L63.4449 439.906C55.4764 418.058 52.8399 396.429 51.4634 377.191L49.4685 377.334L47.4736 377.477C48.8595 396.847 51.5294 418.91 59.687 441.277L61.566 440.592ZM49.4685 377.334L51.4634 377.191C50.1031 358.18 52.467 338.789 56.1776 319.379L54.2131 319.004L52.2487 318.628C48.5101 338.185 46.0776 357.966 47.4736 377.477L49.4685 377.334ZM54.2131 319.004L56.1776 319.379C59.9076 299.867 68.4819 280.449 77.8648 259.905L76.0456 259.074L74.2263 258.243C64.8697 278.73 56.0829 298.571 52.2487 318.628L54.2131 319.004ZM76.0456 259.074L77.8648 259.905C87.6951 238.38 101.014 219.251 114.857 201.903L113.293 200.655L111.73 199.408C97.7837 216.886 84.2462 236.303 74.2263 258.243L76.0456 259.074ZM113.293 200.655L114.857 201.903C129.189 183.94 148.057 168.692 167.643 154.257L166.457 152.647L165.27 151.037C145.635 165.508 126.408 181.012 111.73 199.408L113.293 200.655ZM166.457 152.647L167.643 154.257C186.904 140.062 209.888 130.724 234.266 121.851L233.582 119.972L232.898 118.093C208.5 126.973 185.034 136.471 165.27 151.037L166.457 152.647ZM233.582 119.972L234.266 121.851C260.149 112.431 287.849 107.971 315.814 104.919L315.597 102.931L315.38 100.943C287.313 104.006 259.235 108.507 232.898 118.093L233.582 119.972ZM315.597 102.931L315.814 104.919C346.016 101.624 379.699 103.663 415.222 106.364L415.373 104.369L415.525 102.375C380.036 99.677 346.001 97.602 315.38 100.943L315.597 102.931ZM415.373 104.369L415.222 106.364C433.169 107.728 451.162 111.484 479.504 118.613L479.992 116.674L480.48 114.734C452.107 107.598 433.835 103.767 415.525 102.375L415.373 104.369ZM479.992 116.674L479.504 118.613C507.811 125.733 545.724 136.685 581.68 149.565L582.354 147.682L583.029 145.799C546.928 132.868 508.888 121.88 480.48 114.734L479.992 116.674ZM582.354 147.682L581.68 149.565C617.623 162.44 650.48 176.917 681.763 192.39L682.649 190.597L683.536 188.804C652.142 173.276 619.142 158.736 583.029 145.799L582.354 147.682ZM682.649 190.597L681.763 192.39C713.049 207.865 741.752 223.893 762.126 236.026L763.149 234.308L764.173 232.589C743.721 220.41 714.926 204.331 683.536 188.804L682.649 190.597ZM763.149 234.308L762.126 236.026C794.106 255.07 815.134 272.008 833.328 287.788L834.638 286.277L835.948 284.767C817.639 268.886 796.417 251.791 764.173 232.589L763.149 234.308ZM834.638 286.277L833.328 287.788C848.332 300.803 857.741 315.789 865.829 330.052L867.569 329.066L869.309 328.079C861.163 313.715 851.483 298.241 835.948 284.767L834.638 286.277ZM867.569 329.066L865.829 330.052C873.39 343.385 875.103 358.465 875.688 372.985L877.686 372.904L879.684 372.824C879.095 358.185 877.366 342.288 869.309 328.079L867.569 329.066ZM877.686 372.904L875.688 372.985C876.26 387.196 871.708 402.726 865.002 418.902L866.849 419.668L868.697 420.433C875.465 404.11 880.292 387.923 879.684 372.824L877.686 372.904ZM866.849 419.668L865.002 418.902C858.551 434.46 845.802 448.073 831.558 462.734L832.993 464.128L834.427 465.521C848.575 450.96 861.904 436.817 868.697 420.433L866.849 419.668ZM832.993 464.128L831.558 462.734C816.646 478.083 797.099 490.927 776.563 504.119L777.644 505.802L778.725 507.485C799.201 494.331 819.143 481.253 834.427 465.521L832.993 464.128ZM777.644 505.802L776.563 504.119C755.82 517.445 730.979 528.417 691.459 543.23L692.161 545.103L692.863 546.976C732.428 532.146 757.604 521.053 778.725 507.485L777.644 505.802ZM692.161 545.103L691.459 543.23C665.441 552.983 625.835 563.901 581.8 574.608L582.273 576.551L582.746 578.495C626.797 567.784 666.604 556.819 692.863 546.976L692.161 545.103ZM582.273 576.551L581.8 574.608C537.814 585.303 490.381 594.546 450.826 600.409L451.119 602.388L451.412 604.366C491.094 598.484 538.646 589.217 582.746 578.495L582.273 576.551ZM451.119 602.388L450.826 600.409C411.292 606.269 381.061 608.473 350.936 609.571L351.008 611.569L351.081 613.568C381.329 612.466 411.709 610.251 451.412 604.366L451.119 602.388ZM351.008 611.569L350.936 609.571C320.793 610.669 291.693 610.591 270.426 609.812L270.353 611.81L270.28 613.809C291.652 614.592 320.85 614.669 351.081 613.568L351.008 611.569ZM270.353 611.81L270.426 609.812C236.62 608.572 211.544 603.673 188.913 598.613L188.477 600.565L188.041 602.516C210.784 607.602 236.127 612.557 270.28 613.809L270.353 611.81ZM188.477 600.565L188.913 598.613C170.277 594.446 155.211 586.23 141.324 577.914L140.296 579.629L139.269 581.345C153.239 589.712 168.755 598.204 188.041 602.516L188.477 600.565ZM140.296 579.629L141.324 577.914C128.258 570.089 118.285 558.751 109.392 547.16L107.806 548.378L106.219 549.595C115.191 561.288 125.537 573.121 139.269 581.345L140.296 579.629ZM107.806 548.378L109.392 547.16C100.763 535.913 95.8687 521.196 91.3279 506.018L89.4118 506.591L87.4957 507.164C92.0191 522.284 97.0821 537.687 106.219 549.595L107.806 548.378ZM89.4118 506.591L91.3279 506.018C87.1367 492.008 87.7169 477.011 88.0079 461.597L86.0083 461.559L84.0086 461.521C83.7215 476.727 83.0872 492.428 87.4957 507.164L89.4118 506.591ZM86.0083 461.559L88.0079 461.597C88.2971 446.279 91.5512 430.369 96.2722 414.109L94.3515 413.551L92.4309 412.994C87.6599 429.426 84.3071 445.712 84.0086 461.521L86.0083 461.559ZM94.3515 413.551L96.2722 414.109C101.021 397.753 112.95 373.223 136.807 329.731L135.054 328.769L133.3 327.807C109.486 371.221 97.3242 396.14 92.4309 412.994L94.3515 413.551ZM135.054 328.769L136.807 329.731C151.709 302.566 175.504 266.545 195.456 237.868L193.814 236.726L192.172 235.583C172.203 264.286 148.308 300.448 133.3 327.807L135.054 328.769ZM193.814 236.726L195.456 237.868C215.37 209.245 231.467 189.554 244.29 174.761L242.779 173.451L241.268 172.141C228.366 187.025 212.179 206.827 192.172 235.583L193.814 236.726ZM242.779 173.451L244.29 174.761C265.574 150.207 285.552 132.574 306.667 115.735L305.42 114.172L304.173 112.608C282.936 129.544 262.761 147.346 241.268 172.141L242.779 173.451ZM305.42 114.172L306.667 115.735C328.121 98.6266 353.572 86.3662 379.996 75.6968L379.247 73.8422L378.498 71.9877C351.953 82.7062 326.08 95.1385 304.173 112.608L305.42 114.172ZM379.247 73.8422L379.996 75.6968C407.176 64.7219 435.598 62.1502 462.281 61.4867L462.232 59.4873L462.182 57.4879C435.354 58.1551 406.354 60.7402 378.498 71.9877L379.247 73.8422ZM462.232 59.4873L462.281 61.4867C489.914 60.7996 518.603 64.6418 547.165 70.114L547.541 68.1497L547.918 66.1854C519.236 60.6903 490.227 56.7906 462.182 57.4879L462.232 59.4873ZM547.541 68.1497L547.165 70.114C575.377 75.5193 602.621 84.9664 629.768 95.3192L630.48 93.4505L631.193 91.5818C603.995 81.2096 576.485 71.6589 547.918 66.1854L547.541 68.1497ZM630.48 93.4505L629.768 95.3192C657.802 106.01 682.843 120.371 705.598 134.857L706.672 133.17L707.746 131.483C684.89 116.932 659.59 102.411 631.193 91.5818L630.48 93.4505ZM706.672 133.17L705.598 134.857C729.06 149.794 750.909 169.473 772.702 190.182L774.08 188.732L775.458 187.283C753.65 166.559 731.56 146.644 707.746 131.483L706.672 133.17ZM774.08 188.732L772.702 190.182C794.602 210.994 813.819 235.868 833.03 262.326L834.648 261.151L836.267 259.976C817.033 233.488 797.639 208.361 775.458 187.283L774.08 188.732ZM834.648 261.151L833.03 262.326C853.107 289.976 868.211 319.589 881.061 347.928L882.883 347.102L884.704 346.276C871.806 317.832 856.572 287.942 836.267 259.976L834.648 261.151ZM882.883 347.102L881.061 347.928C894.193 376.887 902.952 408.539 910.772 440.095L912.713 439.614L914.654 439.133C906.826 407.543 897.996 375.589 884.704 346.276L882.883 347.102ZM912.713 439.614L910.772 440.095C918.413 470.93 921.005 502.013 922.62 532.149L924.617 532.042L926.615 531.935C924.996 501.743 922.39 470.35 914.654 439.133L912.713 439.614ZM924.617 532.042L922.62 532.149C924.219 561.971 920.561 588.367 914.31 610.277L916.234 610.825L918.157 611.374C924.526 589.048 928.238 562.209 926.615 531.935L924.617 532.042ZM916.234 610.825L914.31 610.277C908.192 631.725 895.019 650.149 880.987 667.336L882.536 668.601L884.085 669.866C898.176 652.607 911.801 633.652 918.157 611.374L916.234 610.825ZM882.536 668.601L880.987 667.336C866.89 684.602 846.597 697.246 825.326 709.978L826.353 711.694L827.38 713.41C848.57 700.728 869.478 687.757 884.085 669.866L882.536 668.601ZM826.353 711.694L825.326 709.978C803.366 723.122 778.557 730.581 753.758 736.906L754.253 738.844L754.747 740.782C779.602 734.443 804.891 726.871 827.38 713.41L826.353 711.694ZM754.253 738.844L753.758 736.906C741.021 740.155 727.38 742.279 705.337 744.646L705.55 746.634L705.764 748.623C727.87 746.249 741.733 744.101 754.747 740.782L754.253 738.844ZM705.55 746.634L705.337 744.646C683.316 747.01 653.311 749.216 621.017 749.982L621.064 751.982L621.112 753.981C653.519 753.212 683.636 750.999 705.764 748.623L705.55 746.634ZM621.064 751.982L621.017 749.982C588.721 750.748 555.047 750.008 529.743 748.524L529.626 750.521L529.509 752.517C554.921 754.007 588.706 754.75 621.112 753.981L621.064 751.982ZM529.626 750.521L529.743 748.524C504.488 747.043 488.619 744.847 464.063 739.795L463.66 741.754L463.257 743.713C487.989 748.801 504.049 751.024 529.509 752.517L529.626 750.521ZM463.66 741.754L464.063 739.795C439.466 734.734 406.681 726.883 375.45 717.65L374.883 719.568L374.316 721.486C405.67 730.755 438.565 738.633 463.257 743.713L463.66 741.754ZM374.883 719.568L375.45 717.65C344.226 708.419 315.531 698.041 294.04 689.707L293.317 691.572L292.594 693.437C314.154 701.797 342.957 712.215 374.316 721.486L374.883 719.568ZM293.317 691.572L294.04 689.707C258.933 676.094 235.227 663.657 214.841 651.93L213.844 653.664L212.846 655.397C233.37 667.203 257.26 679.735 292.594 693.437L293.317 691.572ZM213.844 653.664L214.841 651.93C194.432 640.19 175.721 625.874 158.19 611.266L156.91 612.802L155.63 614.339C173.236 629.01 192.149 643.491 212.846 655.397L213.844 653.664ZM156.91 612.802L158.19 611.266C141.173 597.085 127.17 580.226 113.718 563L112.142 564.231L110.565 565.461C124.045 582.723 138.265 599.869 155.63 614.339L156.91 612.802ZM112.142 564.231L113.718 563C99.8547 545.247 89.8287 524.797 80.6663 504.041L78.8367 504.849L77.007 505.657C86.1954 526.471 96.3828 547.3 110.565 565.461L112.142 564.231ZM78.8367 504.849L80.6663 504.041C71.0041 482.154 63.9733 457.31 57.1593 431.407L55.2251 431.915L53.2909 432.424C60.1047 458.327 67.2031 483.448 77.007 505.657L78.8367 504.849ZM55.2251 431.915L57.1593 431.407C50.2741 405.233 47.0275 378.42 44.6065 352.131L42.6149 352.315L40.6233 352.498C43.0494 378.841 46.3191 405.921 53.2909 432.424L55.2251 431.915ZM42.6149 352.315L44.6065 352.131C42.1587 325.552 43.3325 300.538 45.1708 277.567L43.1772 277.407L41.1835 277.248C39.3383 300.305 38.1446 325.583 40.6233 352.498L42.6149 352.315ZM43.1772 277.407L45.1708 277.567C47.0735 253.791 54.1955 229.575 61.4847 204.732L59.5656 204.169L57.6465 203.605C50.3835 228.359 43.1252 252.984 41.1835 277.248L43.1772 277.407ZM59.5656 204.169L61.4847 204.732C68.922 179.383 80.7765 154.248 93.997 128.681L92.2204 127.762L90.4439 126.844C77.1974 152.461 65.196 177.875 57.6465 203.605L59.5656 204.169ZM92.2204 127.762L93.997 128.681C107.621 102.334 125.401 80.3406 143.503 62.1937L142.087 60.7812L140.671 59.3688C122.359 77.7269 104.301 100.045 90.4439 126.844L92.2204 127.762ZM142.087 60.7812L143.503 62.1937C161.501 44.1495 185.813 32.6616 211.201 22.4345L210.454 20.5794L209.707 18.7242C184.276 28.9684 159.29 40.7026 140.671 59.3688L142.087 60.7812ZM210.454 20.5794L211.201 22.4345C237.094 12.0045 267.076 9.17207 298.935 7.06362L298.803 5.06799L298.671 3.07235C266.857 5.17781 236.268 8.02461 209.707 18.7242L210.454 20.5794ZM298.803 5.06799L298.935 7.06362C332.744 4.82616 366.229 9.20275 397.986 15.9085L398.399 13.9516L398.812 11.9948C366.863 5.24826 332.982 0.801652 298.671 3.07235L298.803 5.06799ZM398.399 13.9516L397.986 15.9085C431.011 22.882 464.657 35.5205 499.249 48.9389L499.973 47.0743L500.696 45.2097C466.132 31.8019 432.199 19.0447 398.812 11.9948L398.399 13.9516ZM499.973 47.0743L499.249 48.9389C516.752 55.7284 533.811 64.0067 551.033 72.9588L551.955 71.1842L552.878 69.4096C535.601 60.4291 518.395 52.0754 500.696 45.2097L499.973 47.0743ZM551.955 71.1842L551.033 72.9588C568.223 81.8947 584.871 91.5991 602.069 102.528L603.142 100.84L604.215 99.152C586.933 88.17 570.185 78.4062 552.878 69.4096L551.955 71.1842ZM603.142 100.84L602.069 102.528C619.27 113.458 636.496 125.306 652.255 137.403L653.473 135.816L654.691 134.23C638.82 122.048 621.494 110.133 604.215 99.152L603.142 100.84ZM653.473 135.816L652.255 137.403C668.007 149.494 681.785 161.484 695.674 174.57L697.045 173.114L698.417 171.659C684.45 158.499 670.568 146.417 654.691 134.23L653.473 135.816ZM697.045 173.114L695.674 174.57C709.564 187.657 723.133 201.462 736.117 215.927L737.605 214.591L739.094 213.255C726.029 198.701 712.383 184.817 698.417 171.659L697.045 173.114ZM737.605 214.591L736.117 215.927C761.756 244.489 783.566 275.09 802.943 304.987L804.622 303.899L806.3 302.812C786.859 272.817 764.922 242.029 739.094 213.255L737.605 214.591ZM804.622 303.899L802.943 304.987C821.556 333.704 834.015 364.204 843.685 391.749L845.572 391.087L847.459 390.424C837.745 362.754 825.162 331.914 806.3 302.812L804.622 303.899ZM845.572 391.087L843.685 391.749C851.784 414.82 851.814 436.876 851.227 457.114L853.226 457.172L855.225 457.23C855.814 436.937 855.82 414.241 847.459 390.424L845.572 391.087ZM853.226 457.172L851.227 457.114C850.679 476.007 844.317 493.754 836.243 510.493L838.045 511.362L839.846 512.231C848.025 495.274 854.653 476.936 855.225 457.23L853.226 457.172ZM838.045 511.362L836.243 510.493C828.323 526.916 814.071 540.77 799.086 554.184L800.42 555.675L801.754 557.165C816.717 543.77 831.542 529.449 839.846 512.231L838.045 511.362ZM800.42 555.675L799.086 554.184C785.121 566.686 766.371 574.569 745.969 583.081L746.74 584.926L747.51 586.772C767.759 578.324 787.191 570.202 801.754 557.165L800.42 555.675ZM746.74 584.926L745.969 583.081C724.986 591.835 700.936 596.605 667.958 601.429L668.248 603.408L668.537 605.387C701.545 600.558 726.028 595.735 747.51 586.772L746.74 584.926ZM668.248 603.408L667.958 601.429C647.469 604.427 618.758 605.989 589.836 606.841L589.895 608.841L589.954 610.84C618.889 609.987 647.8 608.421 668.537 605.387L668.248 603.408ZM589.895 608.841L589.836 606.841C560.975 607.692 532.791 607.121 503.208 604.624L503.04 606.617L502.872 608.61C532.622 611.121 560.958 611.694 589.954 610.84L589.895 608.841ZM503.04 606.617L503.208 604.624C473.616 602.127 443.464 597.717 420.823 593.604L420.465 595.571L420.108 597.539C442.851 601.671 473.131 606.1 502.872 608.61L503.04 606.617ZM420.465 595.571L420.823 593.604C383.834 586.883 355.32 577.222 328.623 567.415L327.933 569.292L327.244 571.169C354.027 581.008 382.789 590.759 420.108 597.539L420.465 595.571ZM327.933 569.292L328.623 567.415C305.176 558.802 285.378 546.891 266.715 535.531L265.675 537.239L264.635 538.947C283.283 550.299 303.386 562.405 327.244 571.169L327.933 569.292ZM265.675 537.239L266.715 535.531C232.539 514.726 208.445 488.349 187.304 461.534L185.733 462.772L184.162 464.01C205.429 490.984 229.87 517.784 264.635 538.947L265.675 537.239ZM185.733 462.772L187.304 461.534C177.564 449.18 171.129 433.594 166.139 416.098C161.145 398.59 157.645 379.365 153.666 359.719L151.705 360.116L149.745 360.513C153.7 380.038 157.242 399.492 162.292 417.195C167.346 434.911 173.958 451.067 184.162 464.01L185.733 462.772ZM151.705 360.116L153.666 359.719C149.71 340.191 150.038 309.762 152.086 268.909L150.088 268.808L148.091 268.708C146.048 309.46 145.672 340.405 149.745 360.513L151.705 360.116ZM150.088 268.808L152.086 268.909C154.156 227.611 165.441 196.679 172.217 175.82L170.315 175.202L168.413 174.584C161.665 195.357 150.192 226.793 148.091 268.708L150.088 268.808ZM170.315 175.202L172.217 175.82C178.916 155.197 189.586 134.503 200.99 113.974L199.241 113.003L197.493 112.032C186.072 132.591 175.239 153.569 168.413 174.584L170.315 175.202ZM199.241 113.003L200.99 113.974C211.327 95.367 226.244 80.1985 242.259 65.8228L240.923 64.3345L239.587 62.8462C223.486 77.2988 208.162 92.827 197.493 112.032L199.241 113.003ZM240.923 64.3345L242.259 65.8228C258.059 51.6397 278.549 43.1052 299.656 35.8867L299.009 33.9944L298.361 32.102C277.18 39.3461 256.026 48.0892 239.587 62.8462L240.923 64.3345ZM299.009 33.9944L299.656 35.8867C320.864 28.6334 345.907 28.3603 371.769 28.6108L371.788 26.6109L371.808 24.611C346.044 24.3614 320.319 24.5926 298.361 32.102L299.009 33.9944ZM371.788 26.6109L371.769 28.6108C396.068 28.8462 420.953 36.1853 447.321 45.2905L447.974 43.4L448.627 41.5096C422.239 32.3976 396.814 24.8532 371.808 24.611L371.788 26.6109ZM447.974 43.4L447.321 45.2905C474.346 54.6222 500.521 69.4653 526.643 85.3855L527.684 83.6777L528.725 81.9699C502.576 66.0335 476.088 50.9921 448.627 41.5096L447.974 43.4ZM527.684 83.6777L526.643 85.3855C552.859 101.363 577.883 122.743 602.936 144.785L604.257 143.284L605.579 141.782C580.541 119.753 555.276 98.152 528.725 81.9699L527.684 83.6777ZM604.257 143.284L602.936 144.785C626.424 165.451 646.044 190.858 666.493 217.213L668.073 215.987L669.653 214.761C649.256 188.473 629.404 162.745 605.579 141.782L604.257 143.284ZM668.073 215.987L666.493 217.213C687.106 243.78 704.317 273.435 720.601 303.13L722.354 302.168L724.108 301.206C707.807 271.48 690.471 241.592 669.653 214.761L668.073 215.987ZM722.354 302.168L720.601 303.13C736.636 332.371 748.468 364.284 758.752 395.173L760.649 394.541L762.547 393.909C752.243 362.958 740.32 330.771 724.108 301.206L722.354 302.168ZM760.649 394.541L758.752 395.173C767.929 422.74 770.639 450.671 772.998 478.255L774.991 478.084L776.984 477.914C774.626 450.353 771.892 421.981 762.547 393.909L760.649 394.541ZM774.991 478.084L772.998 478.255C775.298 505.149 772.254 531.081 767.987 554.695L769.955 555.051L771.923 555.406C776.219 531.633 779.327 505.31 776.984 477.914L774.991 478.084ZM769.955 555.051L767.987 554.695C764.006 576.727 752.113 595.959 740.166 613.336L741.814 614.469L743.462 615.602C755.433 598.191 767.777 578.348 771.923 555.406L769.955 555.051ZM741.814 614.469L740.166 613.336C729.513 628.83 712.589 638.629 695.414 648.895L696.44 650.612L697.466 652.328C714.425 642.192 732.216 631.959 743.462 615.602L741.814 614.469ZM696.44 650.612L695.414 648.895C678.179 659.197 657.843 665.378 636.751 671.42L637.302 673.343L637.853 675.266C658.894 669.237 679.72 662.936 697.466 652.328L696.44 650.612ZM637.302 673.343L636.751 671.42C615.24 677.584 591.128 680.564 559.879 682.989L560.033 684.983L560.188 686.977C591.486 684.549 615.934 681.546 637.853 675.266L637.302 673.343ZM560.033 684.983L559.879 682.989C541.3 684.43 516.816 684.035 496.876 683.427L496.815 685.426L496.754 687.425C516.69 688.033 541.37 688.436 560.188 686.977L560.033 684.983ZM496.815 685.426L496.876 683.427C477.033 682.822 462.537 681.441 439.8 677.625L439.469 679.598L439.138 681.57C462.045 685.414 476.721 686.814 496.754 687.425L496.815 685.426ZM439.469 679.598L439.8 677.625C417.024 673.803 386.452 667.586 362.819 661.932L362.353 663.877L361.888 665.822C385.608 671.497 416.269 677.733 439.138 681.57L439.469 679.598ZM362.353 663.877L362.819 661.932C323.216 652.457 294.708 641.214 269.324 630.148L268.524 631.981L267.725 633.815C293.239 644.938 321.98 656.274 361.888 665.822L362.353 663.877ZM268.524 631.981L269.324 630.148C243.44 618.864 219.375 603.611 196.985 588.509L195.867 590.167L194.748 591.825C217.179 606.955 241.493 622.378 267.725 633.815L268.524 631.981ZM195.867 590.167L196.985 588.509C176.049 574.388 158.999 558.093 143.167 542.437L141.76 543.859L140.354 545.281C156.204 560.955 173.479 577.479 194.748 591.825L195.867 590.167ZM141.76 543.859L143.167 542.437C127.328 526.774 116.041 509.333 107.132 492.736L105.37 493.682L103.608 494.628C112.627 511.432 124.136 529.242 140.354 545.281L141.76 543.859ZM105.37 493.682L107.132 492.736C98.0251 475.771 92.4069 455.645 86.8884 434.14L84.9511 434.637L83.0139 435.135C88.5236 456.605 94.2411 477.179 103.608 494.628L105.37 493.682ZM84.9511 434.637L86.8884 434.14C81.2106 412.015 78.8101 388.413 76.9586 358.692L74.9625 358.817L72.9664 358.941C74.8207 388.707 77.2373 412.624 83.0139 435.135L84.9511 434.637ZM74.9625 358.817L76.9586 358.692C75.8447 340.811 76.3314 316.9 78.7355 292.294L76.745 292.099L74.7544 291.905C72.3337 316.681 71.8368 340.809 72.9664 358.941L74.9625 358.817ZM76.745 292.099L78.7355 292.294C81.1365 267.72 85.9419 243.151 90.34 224.066L88.3911 223.617L86.4421 223.168C82.0226 242.346 77.1783 267.097 74.7544 291.905L76.745 292.099ZM88.3911 223.617L90.34 224.066C97.723 192.029 107.391 166.232 118.176 139.976L116.326 139.216L114.476 138.456C103.656 164.798 93.8959 190.824 86.4421 223.168L88.3911 223.617ZM116.326 139.216L118.176 139.976C129.416 112.61 144.947 88.7479 160.919 68.1998L159.34 66.9724L157.761 65.745C141.645 86.4778 125.895 110.654 114.476 138.456L116.326 139.216ZM159.34 66.9724L160.919 68.1998C176.91 47.6271 199.473 32.9619 222.891 20.5756L221.956 18.8077L221.021 17.0397C197.451 29.5061 174.28 44.4927 157.761 65.745L159.34 66.9724ZM221.956 18.8077L222.891 20.5756C246.366 8.15903 275.236 5.88066 305.735 4.27515L305.63 2.27791L305.525 0.280678C275.151 1.87961 245.394 4.14823 221.021 17.0397L221.956 18.8077ZM305.63 2.27791L305.735 4.27515C338.25 2.56348 371.38 9.02037 403.849 18.5488L404.412 16.6298L404.975 14.7107C372.306 5.1235 338.683 -1.46483 305.525 0.280678L305.63 2.27791ZM404.412 16.6298L403.849 18.5488C420.554 23.4511 437.353 30.3295 454.916 37.9995L455.716 36.1666L456.517 34.3338C438.923 26.6501 421.934 19.6872 404.975 14.7107L404.412 16.6298ZM455.716 36.1666L454.916 37.9995C472.436 45.6507 489.986 54.3049 507.68 64.2296L508.659 62.4853L509.637 60.7409C491.823 50.7489 474.154 42.0361 456.517 34.3338L455.716 36.1666ZM508.659 62.4853L507.68 64.2296C525.373 74.1533 542.68 85.0869 559.966 97.252L561.117 95.6164L562.268 93.9809C544.876 81.7409 527.453 70.7341 509.637 60.7409L508.659 62.4853ZM561.117 95.6164L559.966 97.252C577.249 109.415 593.986 122.478 611.148 137.215L612.451 135.698L613.754 134.181C596.5 119.365 579.663 106.223 562.268 93.9809L561.117 95.6164ZM612.451 135.698L611.148 137.215C628.313 151.954 645.385 167.963 660.825 184.085L662.27 182.701L663.714 181.318C648.174 165.093 631.006 148.995 613.754 134.181L612.451 135.698ZM662.27 182.701L660.825 184.085C676.259 200.199 689.554 215.95 702.649 232.9L704.232 231.677L705.814 230.454C692.647 213.411 679.26 197.55 663.714 181.318L662.27 182.701ZM704.232 231.677L702.649 232.9C715.745 249.851 728.232 267.513 740.1 285.762L741.777 284.672L743.454 283.581C731.53 265.247 718.98 247.495 705.814 230.454L704.232 231.677ZM741.777 284.672L740.1 285.762C751.967 304.01 762.832 322.3 772.717 340.87L774.483 339.93L776.248 338.99C766.303 320.308 755.379 301.918 743.454 283.581L741.777 284.672ZM774.483 339.93L772.717 340.87C782.601 359.438 791.176 377.731 798.572 395.965L800.425 395.213L802.279 394.462C794.828 376.092 786.194 357.674 776.248 338.99L774.483 339.93ZM800.425 395.213L798.572 395.965C812.937 431.381 821.547 467.378 826.853 500.295L828.828 499.977L830.802 499.659C825.463 466.532 816.786 430.229 802.279 394.462L800.425 395.213ZM828.828 499.977L826.853 500.295C829.296 515.451 828.637 528.279 826.814 540.573L828.792 540.866L830.77 541.159C832.638 528.571 833.326 515.316 830.802 499.659L828.828 499.977ZM828.792 540.866L826.814 540.573C824.999 552.804 821.372 564.149 816.167 574.791L817.964 575.67L819.76 576.548C825.14 565.549 828.894 553.811 830.77 541.159L828.792 540.866ZM817.964 575.67L816.167 574.791C810.965 585.427 804.302 595.005 796.041 603.6L797.483 604.986L798.925 606.372C807.478 597.474 814.378 587.553 819.76 576.548L817.964 575.67ZM797.483 604.986L796.041 603.6C787.783 612.191 778.119 619.518 767.041 625.604L768.004 627.357L768.967 629.11C780.377 622.841 790.368 615.273 798.925 606.372L797.483 604.986ZM768.004 627.357L767.041 625.604C744.633 637.915 715.925 643.42 684.64 646.998L684.868 648.985L685.095 650.972C716.447 647.387 745.828 641.822 768.967 629.11L768.004 627.357ZM684.868 648.985L684.714 646.991C669.136 648.189 653.605 648.229 577.219 635.576L576.892 637.549L576.565 639.522C652.961 652.177 668.914 652.218 685.021 650.979L684.868 648.985ZM576.892 637.549L577.219 635.576C500.851 622.925 364.312 597.621 223.6 571.543L223.235 573.51L222.871 575.477C363.562 601.55 500.15 626.864 576.565 639.522L576.892 637.549Z" fill="#FFC294"/>
</svg>
