<svg width="1781" height="980" viewBox="0 0 1781 980" fill="none" xmlns="http://www.w3.org/2000/svg">
<path d="M366.085 307.706L367.937 308.46L366.085 307.706ZM387.411 276.179L388.995 277.4L387.411 276.179ZM442.068 227.35L443.267 228.95L443.267 228.95L442.068 227.35ZM1431.97 155.408L1431 157.154L1431.97 155.408ZM1520.1 218.428L1521.35 216.862L1520.1 218.428ZM1577.41 273.877L1575.91 275.201L1577.41 273.877ZM1617.29 328.994L1615.59 330.044L1615.59 330.044L1617.29 328.994ZM1639.3 380.584L1641.21 380.002L1639.3 380.584ZM1643.01 445.897L1645.01 445.978L1643.01 445.897ZM1631.2 499.571L1633.11 500.141L1631.2 499.571ZM1608.26 553.065L1606.49 552.136L1606.49 552.136L1608.26 553.065ZM1572.69 600.221L1574.17 601.561L1572.69 600.221ZM1520.37 643.209L1519.22 641.57L1519.22 641.57L1520.37 643.209ZM1444.13 683.957L1444.95 685.78L1444.13 683.957ZM351.813 728.515L351.169 730.409L351.169 730.409L351.813 728.515ZM271.211 695.767L270.318 697.556L270.318 697.556L271.211 695.767ZM196.988 636.029L195.497 637.362L196.988 636.029ZM177.741 603.488L175.926 604.329L177.741 603.488ZM167.331 531.008L169.33 531.033L167.331 531.008ZM204.237 445.946L205.924 447.021L204.237 445.946ZM243.979 401.476L242.597 400.03L242.597 400.03L243.979 401.476ZM334.876 336.373L333.792 334.692L333.792 334.692L334.876 336.373ZM1661.41 217.981L1662.07 216.091L1661.41 217.981ZM1717.2 243.049L1718.2 241.315L1717.2 243.049ZM1747.1 268.374L1748.54 266.987L1747.1 268.374ZM1768.32 299.917L1766.53 300.811L1766.53 300.811L1768.32 299.917ZM1778.13 338.798L1780.11 338.554L1778.13 338.798ZM1774.55 383.161L1776.51 383.536L1774.55 383.161ZM1752.5 441.499L1754.32 442.343L1752.5 441.499ZM328.768 865.845L329.218 863.896L328.768 865.845ZM254.423 842.994L253.713 844.864L254.423 842.994ZM198.71 814.76L199.76 813.058L199.76 813.058L198.71 814.76ZM119.184 737.768L117.595 738.982L117.595 738.982L119.184 737.768ZM97.9492 695.092L99.8442 694.452L97.9492 695.092ZM94.2728 607.886L92.2813 607.702L94.2728 607.886ZM109.924 552.976L108.048 552.28L109.924 552.976ZM150.712 471.045L148.999 470.013L148.999 470.013L150.712 471.045ZM1566.9 274.395L1568.03 272.742L1568.03 272.742L1566.9 274.395ZM1642.01 334.919L1643.48 333.558L1642.01 334.919ZM1664.93 369.348L1663.14 370.242L1663.14 370.242L1664.93 369.348ZM1672.69 406.553L1670.69 406.673L1672.69 406.553ZM1666.17 464.149L1668.09 464.689L1666.17 464.149ZM1611.73 558.558L1610.17 557.304L1610.17 557.304L1611.73 558.558ZM1561.29 600.863L1562.47 602.476L1561.29 600.863ZM356.712 812.604L357.197 810.664L356.712 812.604ZM257.118 777.186L257.9 775.345L257.9 775.345L257.118 777.186ZM190.188 738.958L191.315 737.305L190.188 738.958ZM128.874 686.605L130.368 685.276L130.368 685.276L128.874 686.605ZM104.57 649.517L106.336 648.578L104.57 649.517ZM90.7995 609.052L92.7468 608.595L90.7995 609.052ZM87.3131 563.337L85.3137 563.289L87.3131 563.337ZM96.5185 513.606L94.6013 513.036L96.5185 513.606ZM121.923 458.736L123.668 459.714L121.923 458.736ZM167.667 395.71L166.135 394.425L167.667 395.71ZM1506.65 171.69L1507.76 170.022L1506.65 171.69ZM1584.36 233.48L1582.95 234.902L1584.36 233.48ZM1617.84 278.454L1616.09 279.432L1616.09 279.432L1617.84 278.454ZM1629.36 318.199L1631.35 317.961L1629.36 318.199ZM1628.81 336.89L1626.84 336.553L1628.81 336.89ZM1612.87 375.109L1611.13 374.135L1612.87 375.109ZM1535.97 455.381L1534.66 453.87L1534.66 453.87L1535.97 455.381ZM206.512 843.421L206.804 841.442L206.804 841.442L206.512 843.421ZM116.378 822.7L115.762 824.602L116.378 822.7ZM25.0643 770.801L26.3656 769.283L26.3656 769.283L25.0643 770.801ZM5.5082 737.027L7.38096 736.325L7.38096 736.325L5.5082 737.027ZM3.18201 678.835L5.17768 678.967L3.18201 678.835ZM19.2221 625.631L17.3652 624.888L19.2221 625.631ZM54.0225 560.664L55.7242 561.715L54.0225 560.664ZM539.261 117.131L540.358 118.803L539.261 117.131ZM633.339 64.8012L632.47 62.9998L633.339 64.8012ZM765.84 19.1721L765.326 17.239L765.84 19.1721ZM876.624 2.78838L876.74 4.785L876.624 2.78838ZM1498.3 225.516L1499.55 223.954L1498.3 225.516ZM1553.64 279.073L1552.14 280.395L1552.14 280.395L1553.64 279.073ZM1583.17 324.967L1584.95 324.055L1583.17 324.967ZM1595.92 369.395L1593.94 369.674L1595.92 369.395ZM1591.78 409.731L1593.71 410.245L1591.78 409.731ZM1570.1 447.967L1568.46 446.832L1570.1 447.967ZM1502.4 518.971L1501.03 517.513L1501.03 517.513L1502.4 518.971ZM311.542 858.745L311.05 860.684L311.542 858.745ZM243.968 835.82L243.185 837.66L243.185 837.66L243.968 835.82ZM192.188 807.917L193.239 806.216L192.188 807.917ZM114.2 732.507L115.803 731.311L114.2 732.507ZM94.4139 689.43L96.315 688.808L94.4139 689.43ZM92.1285 624.37L94.1235 624.512L92.1285 624.37ZM109.571 574.028L107.764 573.17L107.764 573.17L109.571 574.028ZM145.451 519.261L143.86 518.049L143.86 518.049L145.451 519.261ZM1221.89 183.324L1222.43 181.399L1221.89 183.324ZM1323.98 226.062L1324.88 224.28L1324.88 224.28L1323.98 226.062ZM1379.2 263.787L1377.93 265.332L1377.93 265.332L1379.2 263.787ZM1438.85 343.188L1437.06 344.085L1437.06 344.085L1438.85 343.188ZM1453.82 438.528L1451.82 438.533L1453.82 438.528ZM1416.58 539.473L1414.82 538.531L1414.82 538.531L1416.58 539.473ZM1346.62 619.937L1345.3 618.436L1346.62 619.937ZM203.784 908.461L204.358 906.544L203.784 908.461ZM126.984 877.506L127.891 875.724L127.891 875.724L126.984 877.506ZM77.1052 845.225L78.3074 843.627L78.3074 843.627L77.1052 845.225ZM38.7098 806.951L37.1419 808.193L38.7098 806.951ZM18.2667 766.912L20.1564 766.257L18.2667 766.912ZM14.064 724.996L12.0645 724.955L14.064 724.996ZM43.502 635.951L41.7002 635.083L43.502 635.951ZM100.918 554.091L99.3396 552.863L99.3396 552.863L100.918 554.091ZM1379.95 228.74L1379.25 230.611L1379.95 228.74ZM1467.7 271.843L1466.68 273.561L1467.7 271.843ZM1554.53 336.148L1555.87 334.655L1555.87 334.655L1554.53 336.148ZM1598.29 384.523L1596.71 385.748L1596.71 385.748L1598.29 384.523ZM1619.71 426.854L1621.63 426.308L1621.63 426.308L1619.71 426.854ZM1621.6 466.443L1619.61 466.285L1621.6 466.443ZM1604.38 511.365L1602.6 510.456L1602.6 510.456L1604.38 511.365ZM1570.96 557.42L1572.45 558.756L1572.45 558.756L1570.96 557.42ZM1510.45 609.177L1511.65 610.782L1511.65 610.782L1510.45 609.177ZM259.597 863.427L260.099 861.491L259.597 863.427ZM196.961 842.365L197.719 840.514L196.961 842.365ZM108.851 784.647L110.175 783.147L108.851 784.647ZM81.6548 748.697L83.3739 747.675L81.6548 748.697ZM67.8985 709.465L65.9451 709.895L67.8985 709.465ZM67.0728 671.529L65.077 671.399L67.0728 671.529ZM104.906 572.849L103.124 571.939L104.906 572.849ZM167.908 485.443L169.415 486.758L167.908 485.443ZM993.536 48.167L993.88 50.1372L993.536 48.167ZM1101.84 41.514L1101.83 43.5139L1101.84 41.514ZM1168.28 52.2484L1168.78 50.3117L1168.28 52.2484ZM1225.44 74.8949L1224.57 76.6971L1225.44 74.8949ZM1276.25 108.905L1275.02 110.486L1275.02 110.486L1276.25 108.905ZM1323.89 152.888L1322.46 154.284L1323.89 152.888ZM1367.66 207.059L1369.28 205.888L1367.66 207.059ZM1415.91 293.814L1417.69 292.914L1415.91 293.814ZM1445.87 371.324L1447.77 370.719L1445.87 371.324ZM1462.3 447.965L1464.28 447.691L1462.3 447.965ZM1464.74 528.159L1462.74 528.096L1464.74 528.159ZM1447.91 607.005L1446.02 606.36L1446.02 606.36L1447.91 607.005ZM1407.66 674.442L1406.11 673.179L1407.66 674.442ZM1339.51 732.86L1338.35 731.229L1338.35 731.229L1339.51 732.86ZM350.708 963.474L350.378 965.446L350.708 963.474ZM243.838 937.175L243.181 939.064L243.181 939.064L243.838 937.175ZM185.063 909.348L184.086 911.093L184.086 911.093L185.063 909.348ZM122.99 865.749L124.267 864.21L122.99 865.749ZM80.4899 821.387L82.0293 820.11L80.4899 821.387ZM48.1621 771.02L46.3718 771.911L48.1621 771.02ZM34.0945 722.159L36.0711 721.854L34.0945 722.159ZM35.2291 676.422L37.2143 676.665L35.2291 676.422ZM54.9682 622.398L53.1709 621.52L54.9682 622.398ZM108.721 537.272L107.137 536.052L108.721 537.272ZM1348.31 316.148L1349.37 314.452L1349.37 314.452L1348.31 316.148ZM1397.48 357.984L1399 356.678L1397.48 357.984ZM1410.17 408.26L1411.96 409.148L1412.04 408.98L1412.09 408.799L1410.17 408.26ZM1364.35 469.663L1365.7 471.143L1365.72 471.126L1365.73 471.108L1364.35 469.663ZM351.198 358.56L353.196 358.658C353.601 350.376 358.082 332.703 367.937 308.46L366.085 307.706L364.232 306.953C354.346 331.271 349.64 349.469 349.201 358.462L351.198 358.56ZM366.085 307.706L367.937 308.46C371.192 300.455 378.41 291.13 388.995 277.4L387.411 276.179L385.827 274.958C375.41 288.471 367.744 298.316 364.232 306.953L366.085 307.706ZM387.411 276.179L388.995 277.4C399.99 263.137 416.429 249.052 443.267 228.95L442.068 227.35L440.869 225.749C414.022 245.857 397.186 260.223 385.827 274.958L387.411 276.179ZM442.068 227.35L443.267 228.95C460.352 216.154 486.572 200.472 512.635 185.683L511.648 183.944L510.661 182.204C484.602 196.99 458.18 212.783 440.869 225.749L442.068 227.35ZM511.648 183.944L512.635 185.683C538.624 170.936 564.026 158.275 598.266 144.435L597.517 142.581L596.767 140.727C562.354 154.636 536.794 167.376 510.661 182.204L511.648 183.944ZM597.517 142.581L598.266 144.435C632.525 130.589 674.856 115.949 716.739 104.198L716.198 102.272L715.658 100.346C673.633 112.138 631.162 126.825 596.767 140.727L597.517 142.581ZM716.198 102.272L716.739 104.198C758.608 92.4496 798.747 84.0306 840.832 77.8115L840.54 75.833L840.247 73.8544C798.002 80.0973 757.697 88.5507 715.658 100.346L716.198 102.272ZM840.54 75.833L840.832 77.8115C882.917 71.5923 925.736 67.8278 971.774 65.9345L971.692 63.9362L971.61 61.9378C925.454 63.8361 882.493 67.6116 840.247 73.8544L840.54 75.833ZM971.692 63.9362L971.774 65.9345C1017.82 64.0408 1065.76 64.134 1105.03 66.102L1105.13 64.1045L1105.23 62.107C1065.82 60.1321 1017.76 60.0399 971.61 61.9378L971.692 63.9362ZM1105.13 64.1045L1105.03 66.102C1144.27 68.0687 1173.4 71.9051 1202.95 77.3103L1203.31 75.343L1203.67 73.3756C1173.96 67.9413 1144.66 64.0831 1105.23 62.107L1105.13 64.1045ZM1203.31 75.343L1202.95 77.3103C1232.51 82.718 1261.59 89.5774 1290.08 98.0572L1290.65 96.1402L1291.22 94.2233C1262.58 85.6995 1233.36 78.8075 1203.67 73.3756L1203.31 75.343ZM1290.65 96.1402L1290.08 98.0572C1318.57 106.537 1345.6 116.429 1369.98 126.954L1370.77 125.118L1371.56 123.282C1347.04 112.694 1319.86 102.747 1291.22 94.2233L1290.65 96.1402ZM1370.77 125.118L1369.98 126.954C1394.35 137.478 1415.25 148.339 1431 157.154L1431.97 155.408L1432.95 153.663C1417.11 144.797 1396.08 133.871 1371.56 123.282L1370.77 125.118ZM1431.97 155.408L1431 157.154C1456.99 171.705 1485.54 193.503 1518.86 219.993L1520.1 218.428L1521.35 216.862C1488.06 190.392 1459.27 168.395 1432.95 153.663L1431.97 155.408ZM1520.1 218.428L1518.86 219.993C1543.68 239.726 1560.64 257.908 1575.91 275.201L1577.41 273.877L1578.91 272.554C1563.57 255.182 1546.43 236.804 1521.35 216.862L1520.1 218.428ZM1577.41 273.877L1575.91 275.201C1591.27 292.598 1604.22 311.605 1615.59 330.044L1617.29 328.994L1619 327.945C1607.57 309.406 1594.48 290.189 1578.91 272.554L1577.41 273.877ZM1617.29 328.994L1615.59 330.044C1626.27 347.365 1632.46 365.014 1637.38 381.167L1639.3 380.584L1641.21 380.002C1636.26 363.742 1629.95 345.705 1619 327.945L1617.29 328.994ZM1639.3 380.584L1637.38 381.167C1642.12 396.735 1642.08 419.677 1641.01 445.816L1643.01 445.897L1645.01 445.978C1646.07 419.976 1646.18 396.333 1641.21 380.002L1639.3 380.584ZM1643.01 445.897L1641.01 445.816C1640.23 465.08 1634.51 481.425 1629.28 499L1631.2 499.571L1633.11 500.141C1638.27 482.799 1644.2 465.867 1645.01 445.978L1643.01 445.897ZM1631.2 499.571L1629.28 499C1624.01 516.721 1615.71 534.582 1606.49 552.136L1608.26 553.065L1610.03 553.995C1619.29 536.354 1627.73 518.227 1633.11 500.141L1631.2 499.571ZM1608.26 553.065L1606.49 552.136C1597.83 568.625 1585.12 583.455 1571.2 598.882L1572.69 600.221L1574.17 601.561C1588.08 586.144 1601.12 570.98 1610.03 553.995L1608.26 553.065ZM1572.69 600.221L1571.2 598.882C1557.06 614.566 1538.75 627.906 1519.22 641.57L1520.37 643.209L1521.51 644.847C1541.02 631.201 1559.69 617.626 1574.17 601.561L1572.69 600.221ZM1520.37 643.209L1519.22 641.57C1499.09 655.653 1475.02 667.792 1443.3 682.135L1444.13 683.957L1444.95 685.78C1476.71 671.419 1501.06 659.155 1521.51 644.847L1520.37 643.209ZM1444.13 683.957L1443.3 682.135C1424.54 690.619 1398.84 698.989 1353.98 710.383L1354.47 712.322L1354.96 714.26C1399.88 702.852 1425.86 694.413 1444.95 685.78L1444.13 683.957ZM1354.47 712.322L1353.98 710.383C1309.16 721.766 1245.77 735.195 1158.7 747.518L1158.98 749.498L1159.26 751.478C1246.47 739.136 1310 725.68 1354.96 714.26L1354.47 712.322ZM1158.98 749.498L1158.7 747.518C1071.61 759.843 962.76 770.654 875.875 776.261L876.004 778.257L876.133 780.253C963.108 774.639 1072.06 763.819 1159.26 751.478L1158.98 749.498ZM876.004 778.257L875.875 776.261C789.011 781.867 727.427 781.943 673.263 779.607L673.177 781.605L673.091 783.603C727.41 785.946 789.138 785.867 876.133 780.253L876.004 778.257ZM673.177 781.605L673.263 779.607C619.098 777.27 574.215 772.519 529.304 765.497L528.995 767.473L528.686 769.449C573.742 776.494 618.774 781.26 673.091 783.603L673.177 781.605ZM528.995 767.473L529.304 765.497C484.381 758.474 440.783 749.322 411.566 742.684L411.122 744.635L410.679 746.585C439.949 753.235 483.643 762.407 528.686 769.449L528.995 767.473ZM411.122 744.635L411.566 742.684C382.367 736.051 368.92 732.221 352.457 726.622L351.813 728.515L351.169 730.409C367.801 736.066 381.39 739.931 410.679 746.585L411.122 744.635ZM351.813 728.515L352.457 726.622C316.58 714.418 288.643 702.23 272.104 693.977L271.211 695.767L270.318 697.556C287.032 705.896 315.136 718.152 351.169 730.409L351.813 728.515ZM271.211 695.767L272.104 693.977C241.194 678.554 217.045 655.478 198.48 634.697L196.988 636.029L195.497 637.362C214.205 658.303 238.752 681.806 270.318 697.556L271.211 695.767ZM196.988 636.029L198.48 634.697C190.125 625.345 184.775 613.911 179.556 602.647L177.741 603.488L175.926 604.329C181.108 615.512 186.683 627.496 195.497 637.362L196.988 636.029ZM177.741 603.488L179.556 602.647C169.411 580.754 169.02 555.357 169.33 531.033L167.331 531.008L165.331 530.982C165.022 555.226 165.349 581.503 175.926 604.329L177.741 603.488ZM167.331 531.008L169.33 531.033C169.499 517.765 173.918 504.144 180.703 490.095C187.489 476.045 196.562 461.72 205.924 447.021L204.237 445.946L202.55 444.872C193.213 459.533 184.007 474.057 177.101 488.356C170.195 502.656 165.51 516.885 165.331 530.982L167.331 531.008ZM204.237 445.946L205.924 447.021C216.219 430.857 230.661 416.978 245.361 402.921L243.979 401.476L242.597 400.03C227.962 414.025 213.149 428.23 202.55 444.872L204.237 445.946ZM243.979 401.476L245.361 402.921C260.909 388.055 291.171 366.964 335.961 338.053L334.876 336.373L333.792 334.692C289.072 363.557 258.47 384.852 242.597 400.03L243.979 401.476ZM334.876 336.373L335.961 338.053C359.18 323.065 385.159 309.605 418.684 293.76L417.829 291.952L416.975 290.144C383.396 306.014 357.232 319.562 333.792 334.692L334.876 336.373ZM417.829 291.952L418.684 293.76C452.179 277.929 492.743 260.757 538.046 244.379L537.366 242.498L536.686 240.617C491.264 257.038 450.584 274.259 416.975 290.144L417.829 291.952ZM537.366 242.498L538.046 244.379C583.34 228.004 632.141 212.945 690.741 198.767L690.271 196.823L689.801 194.879C631.057 209.092 582.116 224.194 536.686 240.617L537.366 242.498ZM690.271 196.823L690.741 198.767C749.351 184.586 816.284 171.741 877.145 162.67L876.85 160.692L876.555 158.714C815.586 167.801 748.536 180.667 689.801 194.879L690.271 196.823ZM876.85 160.692L877.145 162.67C937.987 153.602 990.725 148.695 1051.19 146.004L1051.1 144.006L1051.01 142.008C990.417 144.705 937.541 149.624 876.555 158.714L876.85 160.692ZM1051.1 144.006L1051.19 146.004C1111.67 143.313 1178.27 142.989 1242.06 145.886L1242.15 143.888L1242.24 141.89C1178.32 138.987 1111.6 139.312 1051.01 142.008L1051.1 144.006ZM1242.15 143.888L1242.06 145.886C1305.84 148.783 1364.8 154.91 1420.91 163.429L1421.21 161.451L1421.51 159.474C1365.27 150.935 1306.17 144.794 1242.24 141.89L1242.15 143.888ZM1421.21 161.451L1420.91 163.429C1477.01 171.948 1528.47 182.674 1569.97 193.066L1570.45 191.126L1570.94 189.186C1529.32 178.764 1477.74 168.013 1421.51 159.474L1421.21 161.451ZM1570.45 191.126L1569.97 193.066C1611.46 203.455 1641.44 213.187 1660.76 219.871L1661.41 217.981L1662.07 216.091C1642.66 209.377 1612.56 199.609 1570.94 189.186L1570.45 191.126ZM1661.41 217.981L1660.76 219.871C1687.98 229.287 1702.88 237.12 1716.2 244.783L1717.2 243.049L1718.2 241.315C1704.69 233.549 1689.56 225.603 1662.07 216.091L1661.41 217.981ZM1717.2 243.049L1716.2 244.783C1727.69 251.387 1736.7 260.46 1745.66 269.762L1747.1 268.374L1748.54 266.987C1739.6 257.704 1730.23 248.237 1718.2 241.315L1717.2 243.049ZM1747.1 268.374L1745.66 269.762C1754.36 278.792 1760.92 289.597 1766.53 300.811L1768.32 299.917L1770.11 299.022C1764.41 287.635 1757.64 276.429 1748.54 266.987L1747.1 268.374ZM1768.32 299.917L1766.53 300.811C1772.05 311.858 1774.43 325.107 1776.14 339.042L1778.13 338.798L1780.11 338.554C1778.39 324.574 1775.96 310.729 1770.11 299.022L1768.32 299.917ZM1778.13 338.798L1776.14 339.042C1777.79 352.395 1775.61 366.906 1772.58 382.786L1774.55 383.161L1776.51 383.536C1779.54 367.663 1781.84 352.594 1780.11 338.554L1778.13 338.798ZM1774.55 383.161L1772.58 382.786C1769.41 399.419 1761.77 416.845 1750.69 440.655L1752.5 441.499L1754.32 442.343C1765.36 418.608 1773.23 400.737 1776.51 383.536L1774.55 383.161ZM1752.5 441.499L1750.69 440.655C1743.89 455.271 1732.76 474.467 1720.53 493.487L1722.21 494.568L1723.89 495.65C1736.16 476.564 1747.41 457.196 1754.32 442.343L1752.5 441.499ZM1722.21 494.568L1720.53 493.487C1708.33 512.461 1694.95 530.411 1679.69 548.771L1681.22 550.05L1682.76 551.328C1698.12 532.864 1711.6 514.782 1723.89 495.65L1722.21 494.568ZM1681.22 550.05L1679.69 548.771C1664.42 567.13 1647.68 585.341 1629.01 603.507L1630.41 604.94L1631.8 606.374C1650.57 588.109 1667.41 569.794 1682.76 551.328L1681.22 550.05ZM1630.41 604.94L1629.01 603.507C1610.34 621.672 1590.25 639.236 1569.26 655.469L1570.48 657.052L1571.7 658.634C1592.83 642.303 1613.03 624.639 1631.8 606.374L1630.41 604.94ZM1570.48 657.052L1569.26 655.469C1548.27 671.697 1526.97 686.065 1503.02 700.086L1504.03 701.812L1505.04 703.538C1529.13 689.433 1550.57 674.97 1571.7 658.634L1570.48 657.052ZM1504.03 701.812L1503.02 700.086C1479.06 714.107 1453.09 727.346 1424.14 740.174L1424.95 742.002L1425.76 743.831C1454.84 730.948 1480.94 717.642 1505.04 703.538L1504.03 701.812ZM1424.95 742.002L1424.14 740.174C1395.24 752.984 1364.13 764.991 1298.72 783.578L1299.26 785.502L1299.81 787.426C1365.37 768.797 1396.65 756.731 1425.76 743.831L1424.95 742.002ZM1299.26 785.502L1298.72 783.578C1233.28 802.172 1134.51 826.971 1032.44 846.053L1032.8 848.019L1033.17 849.984C1135.38 830.877 1234.28 806.047 1299.81 787.426L1299.26 785.502ZM1032.8 848.019L1032.44 846.053C930.371 865.133 827.983 877.749 744.109 884.819L744.277 886.812L744.445 888.804C828.432 881.725 930.955 869.093 1033.17 849.984L1032.8 848.019ZM744.277 886.812L744.109 884.819C660.247 891.887 598.026 893.028 543.909 891.125L543.839 893.123L543.769 895.122C598.065 897.032 660.445 895.885 744.445 888.804L744.277 886.812ZM543.839 893.123L543.909 891.125C489.79 889.221 445.641 884.239 409.945 878.973L409.653 880.951L409.361 882.93C445.176 888.214 489.475 893.213 543.769 895.122L543.839 893.123ZM409.653 880.951L409.945 878.973C374.25 873.707 348.355 868.31 329.218 863.896L328.768 865.845L328.319 867.794C347.543 872.228 373.544 877.646 409.361 882.93L409.653 880.951ZM328.768 865.845L329.218 863.896C298.388 856.786 276.138 849.11 255.134 841.125L254.423 842.994L253.713 844.864C274.827 852.891 297.258 860.631 328.319 867.794L328.768 865.845ZM254.423 842.994L255.134 841.125C234.109 833.131 215.814 822.961 199.76 813.058L198.71 814.76L197.66 816.462C213.824 826.433 232.358 836.745 253.713 844.864L254.423 842.994ZM198.71 814.76L199.76 813.058C167.79 793.336 142.896 765.507 120.774 736.554L119.184 737.768L117.595 738.982C139.819 768.068 165.068 796.357 197.66 816.462L198.71 814.76ZM119.184 737.768L120.774 736.554C109.999 722.452 104.232 707.451 99.8442 694.452L97.9492 695.092L96.0543 695.732C100.479 708.838 106.412 724.346 117.595 738.982L119.184 737.768ZM97.9492 695.092L99.8442 694.452C91.117 668.599 93.3775 639.242 96.2643 608.071L94.2728 607.886L92.2813 607.702C89.4088 638.719 87.0107 668.941 96.0543 695.732L97.9492 695.092ZM94.2728 607.886L96.2643 608.071C97.8278 591.189 103.996 574.723 111.799 553.671L109.924 552.976L108.048 552.28C100.299 573.189 93.9034 590.187 92.2813 607.702L94.2728 607.886ZM109.924 552.976L111.799 553.671C123.293 522.658 138.044 495.922 152.425 472.078L150.712 471.045L148.999 470.013C134.563 493.948 119.668 520.929 108.048 552.28L109.924 552.976ZM150.712 471.045L152.425 472.078C161.271 457.41 174.739 438.201 194.295 414.241L192.746 412.976L191.197 411.712C171.554 435.777 157.968 455.143 148.999 470.013L150.712 471.045ZM192.746 412.976L194.295 414.241C213.838 390.298 239.388 362.431 270.167 333.936L268.808 332.469L267.45 331.001C236.53 359.626 210.853 387.629 191.197 411.712L192.746 412.976ZM268.808 332.469L270.167 333.936C300.95 305.439 336.192 277.154 367.172 254.944L366.006 253.318L364.841 251.693C333.739 273.991 298.366 302.38 267.45 331.001L268.808 332.469ZM366.006 253.318L367.172 254.944C398.129 232.749 423.755 217.483 451.583 202.669L450.643 200.904L449.703 199.138C421.744 214.022 395.964 229.38 364.841 251.693L366.006 253.318ZM450.643 200.904L451.583 202.669C479.421 187.85 508.666 173.957 539.628 161.242L538.869 159.392L538.109 157.542C507.017 170.31 477.652 184.26 449.703 199.138L450.643 200.904ZM538.869 159.392L539.628 161.242C570.591 148.527 602.386 137.41 633.517 128.331L632.957 126.411L632.397 124.491C601.129 133.61 569.201 144.774 538.109 157.542L538.869 159.392ZM632.957 126.411L633.517 128.331C664.642 119.253 694.145 112.547 724.672 107.01L724.315 105.042L723.958 103.074C693.312 108.633 663.672 115.369 632.397 124.491L632.957 126.411ZM724.315 105.042L724.672 107.01C755.192 101.474 785.827 97.3111 824.084 94.5107L823.938 92.516L823.792 90.5214C785.388 93.3325 754.612 97.5136 723.958 103.074L724.315 105.042ZM823.938 92.516L824.084 94.5107C862.356 91.7092 907.32 90.3978 945.803 91.1106L945.84 89.111L945.877 87.1113C907.266 86.3961 862.181 87.7114 823.792 90.5214L823.938 92.516ZM945.84 89.111L945.803 91.1106C984.232 91.8225 1014.83 94.5912 1067.86 103.996L1068.21 102.027L1068.56 100.058C1015.35 90.6211 984.543 87.8275 945.877 87.1113L945.84 89.111ZM1068.21 102.027L1067.86 103.996C1120.93 113.409 1195.47 129.374 1254.08 144.39L1254.57 142.453L1255.07 140.516C1196.37 125.474 1121.72 109.487 1068.56 100.058L1068.21 102.027ZM1254.57 142.453L1254.08 144.39C1312.65 159.399 1353.02 172.971 1391.51 187.973L1392.23 186.11L1392.96 184.246C1354.32 169.186 1313.8 155.564 1255.07 140.516L1254.57 142.453ZM1392.23 186.11L1391.51 187.973C1430.02 202.981 1465.42 219.007 1494.52 233.919L1495.43 232.139L1496.34 230.359C1467.11 215.382 1431.59 199.301 1392.96 184.246L1392.23 186.11ZM1495.43 232.139L1494.52 233.919C1523.6 248.824 1545.32 262.131 1565.78 276.049L1566.9 274.395L1568.03 272.742C1547.44 258.737 1525.58 245.345 1496.34 230.359L1495.43 232.139ZM1566.9 274.395L1565.78 276.049C1605.53 303.096 1629.63 324.531 1640.55 336.281L1642.01 334.919L1643.48 333.558C1632.29 321.519 1607.93 299.894 1568.03 272.742L1566.9 274.395ZM1642.01 334.919L1640.55 336.281C1650.83 347.351 1657.69 359.346 1663.14 370.242L1664.93 369.348L1666.72 368.454C1661.2 357.413 1654.14 345.032 1643.48 333.558L1642.01 334.919ZM1664.93 369.348L1663.14 370.242C1668.14 380.241 1669.78 391.517 1670.69 406.673L1672.69 406.553L1674.68 406.433C1673.77 391.192 1672.1 379.222 1666.72 368.454L1664.93 369.348ZM1672.69 406.553L1670.69 406.673C1672.02 428.841 1668.29 449.193 1664.24 463.609L1666.17 464.149L1668.09 464.689C1672.22 449.98 1676.05 429.168 1674.68 406.433L1672.69 406.553ZM1666.17 464.149L1664.24 463.609C1655.5 494.764 1635.75 525.503 1610.17 557.304L1611.73 558.558L1613.29 559.811C1638.97 527.881 1659.13 496.633 1668.09 464.689L1666.17 464.149ZM1611.73 558.558L1610.17 557.304C1597.64 572.89 1579.44 585.081 1560.1 599.25L1561.29 600.863L1562.47 602.476C1581.54 588.497 1600.34 575.919 1613.29 559.811L1611.73 558.558ZM1561.29 600.863L1560.1 599.25C1550.34 606.409 1539.63 612.935 1514.39 626.29L1515.33 628.058L1516.26 629.826C1541.55 616.446 1552.46 609.811 1562.47 602.476L1561.29 600.863ZM1515.33 628.058L1514.39 626.29C1489.19 639.625 1449.71 659.321 1383.53 684.61L1384.24 686.479L1384.95 688.347C1451.31 662.993 1490.94 643.227 1516.26 629.826L1515.33 628.058ZM1384.24 686.479L1383.53 684.61C1317.32 709.908 1225.6 740.203 1139.48 763.916L1140.01 765.844L1140.54 767.772C1226.78 744.028 1318.62 713.693 1384.95 688.347L1384.24 686.479ZM1140.01 765.844L1139.48 763.916C1053.37 787.623 975.649 803.831 896.911 816.063L897.218 818.039L897.525 820.016C976.408 807.761 1054.28 791.522 1140.54 767.772L1140.01 765.844ZM897.218 818.039L896.911 816.063C818.164 828.297 740.754 836.063 684.97 840.188L685.118 842.182L685.265 844.177C741.133 840.046 818.652 832.269 897.525 820.016L897.218 818.039ZM685.118 842.182L684.97 840.188C629.211 844.31 597.47 844.553 559.154 841.908L559.016 843.903L558.878 845.898C597.435 848.56 629.373 848.309 685.265 844.177L685.118 842.182ZM559.016 843.903L559.154 841.908C520.792 839.259 476.786 833.705 440.581 827.773L440.257 829.746L439.934 831.72C476.236 837.668 520.367 843.239 558.878 845.898L559.016 843.903ZM440.257 829.746L440.581 827.773C404.391 821.843 377.342 815.706 357.197 810.664L356.712 812.604L356.226 814.544C376.458 819.608 403.616 825.769 439.934 831.72L440.257 829.746ZM356.712 812.604L357.197 810.664C324.554 802.493 292.436 790.026 257.9 775.345L257.118 777.186L256.335 779.026C290.919 793.728 323.271 806.295 356.226 814.544L356.712 812.604ZM257.118 777.186L257.9 775.345C232.807 764.678 213.77 752.614 191.315 737.305L190.188 738.958L189.062 740.61C211.585 755.965 230.878 768.204 256.335 779.026L257.118 777.186ZM190.188 738.958L191.315 737.305C161.142 716.736 140.427 696.577 130.368 685.276L128.874 686.605L127.38 687.935C137.646 699.469 158.605 719.847 189.062 740.61L190.188 738.958ZM128.874 686.605L130.368 685.276C120.513 674.204 113.128 661.346 106.336 648.578L104.57 649.517L102.805 650.457C109.618 663.265 117.187 676.484 127.38 687.935L128.874 686.605ZM104.57 649.517L106.336 648.578C99.7805 636.254 96.048 622.687 92.7468 608.595L90.7995 609.052L88.8522 609.508C92.1648 623.648 95.9901 637.646 102.805 650.457L104.57 649.517ZM90.7995 609.052L92.7468 608.595C89.2735 593.769 88.9467 578.403 89.3125 563.386L87.3131 563.337L85.3137 563.289C84.9458 578.39 85.2594 594.171 88.8522 609.508L90.7995 609.052ZM87.3131 563.337L89.3125 563.386C89.6916 547.826 93.3299 531.357 98.4356 514.176L96.5185 513.606L94.6013 513.036C89.4563 530.35 85.7054 547.211 85.3137 563.289L87.3131 563.337ZM96.5185 513.606L98.4356 514.176C103.739 496.328 113.12 478.544 123.668 459.714L121.923 458.736L120.178 457.759C109.635 476.58 100.046 494.715 94.6013 513.036L96.5185 513.606ZM121.923 458.736L123.668 459.714C134.938 439.594 149.295 420.731 169.2 396.995L167.667 395.71L166.135 394.425C146.185 418.214 131.635 437.307 120.178 457.759L121.923 458.736ZM167.667 395.71L169.2 396.995C181.706 382.082 200.784 362.484 229.29 336.203L227.934 334.733L226.578 333.262C198.017 359.595 178.798 379.324 166.135 394.425L167.667 395.71ZM227.934 334.733L229.29 336.203C257.777 309.939 295.461 277.964 335.983 247.047L334.77 245.457L333.557 243.867C292.937 274.858 255.157 306.913 226.578 333.262L227.934 334.733ZM334.77 245.457L335.983 247.047C376.503 216.132 418.72 187.242 456.165 163.774L455.103 162.079L454.041 160.385C416.498 183.914 374.18 212.873 333.557 243.867L334.77 245.457ZM455.103 162.079L456.165 163.774C493.603 140.31 524.993 123.14 549.836 110.244L548.914 108.468L547.993 106.693C523.079 119.627 491.59 136.851 454.041 160.385L455.103 162.079ZM548.914 108.468L549.836 110.244C574.677 97.3481 591.992 89.2607 608.616 82.2795L607.841 80.4355L607.067 78.5915C590.324 85.6229 572.909 93.759 547.993 106.693L548.914 108.468ZM607.841 80.4355L608.616 82.2795C625.225 75.3042 640.629 69.6736 665.645 62.3221L665.081 60.4033L664.517 58.4844C639.37 65.8746 623.824 71.5541 607.067 78.5915L607.841 80.4355ZM665.081 60.4033L665.645 62.3221C690.68 54.965 724.839 46.0655 760.084 39.1072L759.696 37.1451L759.309 35.1829C723.923 42.169 689.645 51.0999 664.517 58.4844L665.081 60.4033ZM759.696 37.1451L760.084 39.1072C795.309 32.1527 830.597 27.4047 874.328 24.634L874.201 22.638L874.075 20.642C830.176 23.4234 794.713 28.1932 759.309 35.1829L759.696 37.1451ZM874.201 22.638L874.328 24.634C918.076 21.8622 969.191 21.2142 1012.19 22.9244L1012.27 20.926L1012.34 18.9276C969.209 17.2118 917.957 17.8617 874.075 20.642L874.201 22.638ZM1012.27 20.926L1012.19 22.9244C1055.15 24.6332 1088.45 28.7161 1127.77 35.7251L1128.12 33.7562L1128.47 31.7872C1089 24.7508 1055.51 20.6446 1012.34 18.9276L1012.27 20.926ZM1128.12 33.7562L1127.77 35.7251C1167.11 42.7383 1211.44 52.5539 1247.73 61.9841L1248.23 60.0484L1248.73 58.1127C1212.35 48.6575 1167.92 38.8194 1128.47 31.7872L1128.12 33.7562ZM1248.23 60.0484L1247.73 61.9841C1283.99 71.4075 1310.86 80.1431 1342.96 92.8975L1343.7 91.0388L1344.43 89.1802C1312.17 76.3604 1285.14 67.5746 1248.73 58.1127L1248.23 60.0484ZM1343.7 91.0388L1342.96 92.8975C1375.08 105.662 1411.63 122.188 1439.9 136.176L1440.79 134.384L1441.68 132.591C1413.32 118.56 1376.67 101.99 1344.43 89.1802L1343.7 91.0388ZM1440.79 134.384L1439.9 136.176C1468.15 150.155 1487 161.084 1505.55 173.358L1506.65 171.69L1507.76 170.022C1489.05 157.644 1470.05 146.633 1441.68 132.591L1440.79 134.384ZM1506.65 171.69L1505.55 173.358C1542.59 197.861 1567.82 219.924 1582.95 234.902L1584.36 233.48L1585.77 232.058C1570.45 216.902 1545.02 194.673 1507.76 170.022L1506.65 171.69ZM1584.36 233.48L1582.95 234.902C1597.94 249.726 1608.33 265.593 1616.09 279.432L1617.84 278.454L1619.58 277.475C1611.71 263.446 1601.11 247.235 1585.77 232.058L1584.36 233.48ZM1617.84 278.454L1616.09 279.432C1623.3 292.278 1625.87 305.877 1627.37 318.437L1629.36 318.199L1631.35 317.961C1629.82 305.237 1627.17 291.013 1619.58 277.475L1617.84 278.454ZM1629.36 318.199L1627.37 318.437C1628.1 324.526 1627.87 330.49 1626.84 336.553L1628.81 336.89L1630.78 337.228C1631.88 330.821 1632.13 324.468 1631.35 317.961L1629.36 318.199ZM1628.81 336.89L1626.84 336.553C1624.74 348.778 1618.32 361.239 1611.13 374.135L1612.87 375.109L1614.62 376.083C1621.78 363.238 1628.56 350.218 1630.78 337.228L1628.81 336.89ZM1612.87 375.109L1611.13 374.135C1596.83 399.776 1570.04 423.21 1534.66 453.87L1535.97 455.381L1537.28 456.892C1572.47 426.399 1599.9 402.474 1614.62 376.083L1612.87 375.109ZM1535.97 455.381L1534.66 453.87C1521.91 464.92 1502.08 477.893 1474.64 494.446L1475.67 496.159L1476.71 497.871C1504.13 481.327 1524.24 468.195 1537.28 456.892L1535.97 455.381ZM1475.67 496.159L1474.64 494.446C1447.34 510.92 1412.49 529.71 1300.52 575.931L1301.28 577.779L1302.04 579.628C1414.09 533.376 1449.15 514.496 1476.71 497.871L1475.67 496.159ZM1301.28 577.779L1300.52 575.931C1188.53 622.156 1000.54 695.213 873.79 740.994L874.47 742.875L875.149 744.756C1001.96 698.954 1190 625.875 1302.04 579.628L1301.28 577.779ZM874.47 742.875L873.79 740.994C747.063 786.765 687.289 803.039 633.132 815.3L633.573 817.25L634.015 819.201C688.374 806.895 748.31 790.568 875.149 744.756L874.47 742.875ZM633.573 817.25L633.132 815.3C578.953 827.565 532.197 835.321 473.536 840.259L473.704 842.252L473.872 844.245C532.738 839.29 579.677 831.502 634.015 819.201L633.573 817.25ZM473.704 842.252L473.536 840.259C414.844 845.199 345.643 847.083 298.456 846.949L298.45 848.949L298.444 850.949C345.717 851.083 415.036 849.197 473.872 844.245L473.704 842.252ZM298.45 848.949L298.456 846.949C251.3 846.816 228.297 844.611 206.804 841.442L206.512 843.421L206.22 845.399C227.94 848.602 251.139 850.815 298.444 850.949L298.45 848.949ZM206.512 843.421L206.804 841.442C165.724 835.385 136.292 827.042 116.994 820.797L116.378 822.7L115.762 824.602C135.224 830.9 164.876 839.304 206.22 845.399L206.512 843.421ZM116.378 822.7L116.994 820.797C79.6847 808.724 48.7897 788.496 26.3656 769.283L25.0643 770.801L23.763 772.32C46.4902 791.793 77.8395 812.331 115.762 824.602L116.378 822.7ZM25.0643 770.801L26.3656 769.283C16.5504 760.873 11.8724 748.308 7.38096 736.325L5.5082 737.027L3.63543 737.729C8.04783 749.501 13.0285 763.123 23.763 772.32L25.0643 770.801ZM5.5082 737.027L7.38096 736.325C5.28877 730.744 4.29267 722.819 4.05665 712.976C3.82156 703.172 4.3417 691.651 5.17768 678.967L3.18201 678.835L1.18634 678.704C0.34868 691.413 -0.181772 703.082 0.0577961 713.072C0.296431 723.024 1.30025 731.499 3.63543 737.729L5.5082 737.027ZM3.18201 678.835L5.17768 678.967C6.40567 660.335 13.8525 644.437 21.079 626.374L19.2221 625.631L17.3652 624.888C10.2626 642.641 2.4669 659.275 1.18634 678.704L3.18201 678.835ZM19.2221 625.631L21.079 626.374C28.6241 607.515 39.5529 587.899 55.7242 561.715L54.0225 560.664L52.3209 559.613C36.1231 585.84 25.0437 605.696 17.3652 624.888L19.2221 625.631ZM54.0225 560.664L55.7242 561.715C65.6822 545.591 81.0295 524.57 102.97 498.033L101.429 496.759L99.8875 495.485C77.8837 522.098 62.4115 543.275 52.3209 559.613L54.0225 560.664ZM101.429 496.759L102.97 498.033C124.869 471.547 153.304 440.482 213.581 385.788L212.237 384.307L210.893 382.826C150.507 437.618 121.933 468.821 99.8875 495.485L101.429 496.759ZM212.237 384.307L213.581 385.788C273.878 331.075 365.143 253.69 426.97 203.633L425.712 202.079L424.453 200.524C362.582 250.618 271.258 328.052 210.893 382.826L212.237 384.307ZM425.712 202.079L426.97 203.633C488.776 153.594 518.361 133.239 540.358 118.803L539.261 117.131L538.163 115.459C516.039 129.978 486.347 150.414 424.453 200.524L425.712 202.079ZM539.261 117.131L540.358 118.803C575.46 95.7669 604.484 80.9425 634.208 66.6025L633.339 64.8012L632.47 62.9998C602.673 77.3749 573.474 92.286 538.163 115.459L539.261 117.131ZM633.339 64.8012L634.208 66.6025C649.092 59.422 664.18 53.3058 687.484 45.2376L686.829 43.3477L686.175 41.4578C662.775 49.5593 647.534 55.7324 632.47 62.9998L633.339 64.8012ZM686.829 43.3477L687.484 45.2376C710.791 37.1681 741.939 27.5876 766.353 21.1051L765.84 19.1721L765.326 17.239C740.813 23.748 709.571 33.3577 686.175 41.4578L686.829 43.3477ZM765.84 19.1721L766.353 21.1051C807.107 10.2837 839.157 6.97291 876.74 4.785L876.624 2.78838L876.508 0.791764C838.786 2.98773 806.441 6.32185 765.326 17.239L765.84 19.1721ZM876.624 2.78838L876.74 4.785C899.678 3.44971 930.722 3.81654 962.131 5.89602L962.263 3.90039L962.395 1.90476C930.871 -0.182382 899.654 -0.555677 876.508 0.791764L876.624 2.78838ZM962.263 3.90039L962.131 5.89602C993.499 7.97288 1024.3 12.3016 1054.99 18.4553L1055.39 16.4944L1055.78 14.5334C1024.93 8.3492 993.958 3.99451 962.395 1.90476L962.263 3.90039ZM1055.39 16.4944L1054.99 18.4553C1085.69 24.6084 1115.35 32.4542 1145.42 41.8574L1146.02 39.9485L1146.62 38.0396C1116.43 28.6014 1086.63 20.7182 1055.78 14.5334L1055.39 16.4944ZM1146.02 39.9485L1145.42 41.8574C1175.49 51.2569 1205.06 61.9694 1242.4 78.4396L1243.2 76.6097L1244.01 74.7798C1206.53 58.2458 1176.82 47.4814 1146.62 38.0396L1146.02 39.9485ZM1243.2 76.6097L1242.4 78.4396C1279.76 94.918 1324 116.834 1358.6 135.531L1359.55 133.771L1360.51 132.012C1325.82 113.27 1281.48 91.3057 1244.01 74.7798L1243.2 76.6097ZM1359.55 133.771L1358.6 135.531C1393.19 154.216 1416.78 169.013 1439.2 184.356L1440.33 182.706L1441.46 181.055C1418.93 165.634 1395.21 150.765 1360.51 132.012L1359.55 133.771ZM1440.33 182.706L1439.2 184.356C1461.63 199.709 1482.15 215.161 1497.05 227.078L1498.3 225.516L1499.55 223.954C1484.58 211.979 1463.97 196.467 1441.46 181.055L1440.33 182.706ZM1498.3 225.516L1497.05 227.078C1521.02 246.261 1537.4 263.639 1552.14 280.395L1553.64 279.073L1555.15 277.752C1540.32 260.901 1523.77 243.337 1499.55 223.954L1498.3 225.516ZM1553.64 279.073L1552.14 280.395C1564.88 294.866 1573.54 310.557 1581.39 325.88L1583.17 324.967L1584.95 324.055C1577.07 308.678 1568.22 292.615 1555.15 277.752L1553.64 279.073ZM1583.17 324.967L1581.39 325.88C1588.84 340.414 1591.96 355.643 1593.94 369.674L1595.92 369.395L1597.9 369.116C1595.9 354.934 1592.71 339.182 1584.95 324.055L1583.17 324.967ZM1595.92 369.395L1593.94 369.674C1595.78 382.761 1593.33 396.111 1589.85 409.218L1591.78 409.731L1593.71 410.245C1597.23 397.004 1599.86 383.02 1597.9 369.116L1595.92 369.395ZM1591.78 409.731L1589.85 409.218C1586.5 421.82 1577.65 433.499 1568.46 446.832L1570.1 447.967L1571.75 449.102C1580.72 436.096 1590.14 423.698 1593.71 410.245L1591.78 409.731ZM1570.1 447.967L1568.46 446.832C1559.08 460.426 1539.9 481.006 1501.03 517.513L1502.4 518.971L1503.76 520.429C1542.61 483.949 1562.1 463.097 1571.75 449.102L1570.1 447.967ZM1502.4 518.971L1501.03 517.513C1476.46 540.582 1438.77 569.73 1395.24 600.477L1396.4 602.111L1397.55 603.744C1441.12 572.966 1479 543.69 1503.76 520.429L1502.4 518.971ZM1396.4 602.111L1395.24 600.477C1351.76 631.19 1302.87 661.709 1242.83 693.958L1243.78 695.72L1244.72 697.481C1304.9 665.161 1353.93 634.556 1397.55 603.744L1396.4 602.111ZM1243.78 695.72L1242.83 693.958C1182.78 726.211 1113.06 759.268 1056.04 783.954L1056.83 785.79L1057.63 787.625C1114.74 762.901 1184.56 729.797 1244.72 697.481L1243.78 695.72ZM1056.83 785.79L1056.04 783.954C999.035 808.632 956.867 823.93 911.769 837.247L912.336 839.165L912.902 841.083C958.178 827.714 1000.5 812.357 1057.63 787.625L1056.83 785.79ZM912.336 839.165L911.769 837.247C866.658 850.567 819.888 861.441 773.323 869.287L773.655 871.26L773.988 873.232C820.714 865.359 867.64 854.447 912.902 841.083L912.336 839.165ZM773.655 871.26L773.323 869.287C726.764 877.132 681.816 881.622 635.916 884.058L636.022 886.055L636.128 888.053C682.153 885.609 727.255 881.106 773.988 873.232L773.655 871.26ZM636.022 886.055L635.916 884.058C590.015 886.495 544.551 886.741 501.318 884.416L501.211 886.413L501.103 888.41C544.497 890.744 590.105 890.496 636.128 888.053L636.022 886.055ZM501.211 886.413L501.318 884.416C458.088 882.091 418.449 877.187 386.098 871.961L385.779 873.935L385.46 875.91C417.925 881.154 457.707 886.076 501.103 888.41L501.211 886.413ZM385.779 873.935L386.098 871.961C353.755 866.736 329.911 861.341 312.034 856.806L311.542 858.745L311.05 860.684C329.028 865.244 352.987 870.664 385.46 875.91L385.779 873.935ZM311.542 858.745L312.034 856.806C282.838 849.401 262.621 841.578 244.751 833.979L243.968 835.82L243.185 837.66C261.182 845.313 281.599 853.213 311.05 860.684L311.542 858.745ZM243.968 835.82L244.751 833.979C226.739 826.321 209.656 816.353 193.239 806.216L192.188 807.917L191.137 809.619C207.591 819.779 224.885 829.879 243.185 837.66L243.968 835.82ZM192.188 807.917L193.239 806.216C161.606 786.683 136.179 758.637 115.803 731.311L114.2 732.507L112.597 733.702C133.114 761.217 158.895 789.711 191.137 809.619L192.188 807.917ZM114.2 732.507L115.803 731.311C106.231 718.474 101.056 703.312 96.315 688.808L94.4139 689.43L92.5129 690.051C97.2364 704.502 102.58 720.269 112.597 733.702L114.2 732.507ZM94.4139 689.43L96.315 688.808C94.0611 681.913 93.0122 672.678 92.7873 661.669C92.563 650.688 93.1595 638.084 94.1235 624.512L92.1285 624.37L90.1336 624.228C89.1668 637.839 88.5601 650.587 88.7882 661.751C89.0157 672.889 90.0748 682.592 92.5129 690.051L94.4139 689.43ZM92.1285 624.37L94.1235 624.512C95.4521 605.807 103.644 591.174 111.377 574.886L109.571 574.028L107.764 573.17C100.183 589.137 91.5287 604.586 90.1336 624.228L92.1285 624.37ZM109.571 574.028L111.377 574.886C119.257 558.29 130.596 542.06 147.041 520.473L145.451 519.261L143.86 518.049C127.4 539.654 115.837 556.168 107.764 573.17L109.571 574.028ZM145.451 519.261L147.041 520.473C157.257 507.064 172.854 489.558 195.557 467.837L194.175 466.392L192.792 464.947C169.985 486.768 154.235 504.43 143.86 518.049L145.451 519.261ZM194.175 466.392L195.557 467.837C218.243 446.134 247.901 421.052 283.905 394.838L282.727 393.221L281.55 391.605C245.414 417.914 215.618 443.109 192.792 464.947L194.175 466.392ZM282.727 393.221L283.905 394.838C319.907 368.626 361.352 342.046 404.66 317.8L403.683 316.055L402.706 314.31C359.266 338.63 317.687 365.294 281.55 391.605L282.727 393.221ZM403.683 316.055L404.66 317.8C447.96 293.559 491.866 272.457 540.321 252.628L539.563 250.777L538.806 248.926C490.209 268.814 446.155 289.985 402.706 314.31L403.683 316.055ZM539.563 250.777L540.321 252.628C588.778 232.798 640.446 214.885 692.205 200.303L691.662 198.378L691.12 196.453C639.211 211.077 587.4 229.04 538.806 248.926L539.563 250.777ZM691.662 198.378L692.205 200.303C743.962 185.722 794.252 175.014 837.374 167.778L837.043 165.806L836.712 163.833C793.462 171.091 743.031 181.829 691.12 196.453L691.662 198.378ZM837.043 165.806L837.374 167.778C880.483 160.544 914.895 157.107 949.288 155.212L949.178 153.215L949.068 151.218C914.536 153.12 879.976 156.574 836.712 163.833L837.043 165.806ZM949.178 153.215L949.288 155.212C983.691 153.317 1017.01 153.071 1049.64 155.032L1049.76 153.035L1049.88 151.039C1017.07 149.067 983.592 149.316 949.068 151.218L949.178 153.215ZM1049.76 153.035L1049.64 155.032C1082.27 156.992 1113.22 161.168 1143.02 166.788L1143.39 164.822L1143.76 162.857C1113.82 157.21 1082.7 153.011 1049.88 151.039L1049.76 153.035ZM1143.39 164.822L1143.02 166.788C1172.81 172.408 1200.5 179.346 1221.34 185.248L1221.89 183.324L1222.43 181.399C1201.5 175.471 1173.69 168.503 1143.76 162.857L1143.39 164.822ZM1221.89 183.324L1221.34 185.248C1255.48 194.914 1288.56 210.257 1323.07 227.843L1323.98 226.062L1324.88 224.28C1290.33 206.667 1256.96 191.175 1222.43 181.399L1221.89 183.324ZM1323.98 226.062L1323.07 227.843C1346.93 240.004 1362.92 253.007 1377.93 265.332L1379.2 263.787L1380.47 262.241C1365.43 249.893 1349.15 236.65 1324.88 224.28L1323.98 226.062ZM1379.2 263.787L1377.93 265.332C1406.18 288.521 1423.39 316.842 1437.06 344.085L1438.85 343.188L1440.64 342.291C1426.87 314.849 1409.35 285.949 1380.47 262.241L1379.2 263.787ZM1438.85 343.188L1437.06 344.085C1451.19 372.252 1451.74 404.591 1451.82 438.533L1453.82 438.528L1455.82 438.524C1455.74 404.732 1455.26 371.433 1440.64 342.291L1438.85 343.188ZM1453.82 438.528L1451.82 438.533C1451.85 454.453 1447.28 470.736 1440.33 487.443C1433.38 504.159 1424.1 521.148 1414.82 538.531L1416.58 539.473L1418.34 540.416C1427.6 523.104 1436.98 505.916 1444.02 488.98C1451.07 472.036 1455.85 455.194 1455.82 438.524L1453.82 438.528ZM1416.58 539.473L1414.82 538.531C1395.41 574.854 1369.9 596.77 1345.3 618.436L1346.62 619.937L1347.94 621.438C1372.5 599.811 1398.55 577.462 1418.34 540.416L1416.58 539.473ZM1346.62 619.937L1345.3 618.436C1328.31 633.4 1300.09 654.515 1257.04 682.298L1258.12 683.978L1259.21 685.658C1302.34 657.824 1330.74 636.588 1347.94 621.438L1346.62 619.937ZM1258.12 683.978L1257.04 682.298C1214.01 710.067 1156.59 743.284 1099.69 772.266L1100.6 774.048L1101.51 775.83C1158.52 746.79 1216.06 713.506 1259.21 685.658L1258.12 683.978ZM1100.6 774.048L1099.69 772.266C1042.8 801.242 988.177 824.975 936.739 844.065L937.435 845.94L938.131 847.815C989.716 828.67 1044.48 804.875 1101.51 775.83L1100.6 774.048ZM937.435 845.94L936.739 844.065C885.315 863.15 838.73 876.877 782.917 889.551L783.36 891.502L783.803 893.452C839.776 880.741 886.531 866.965 938.131 847.815L937.435 845.94ZM783.36 891.502L782.917 889.551C727.096 902.228 663.476 913.431 593.163 920.514L593.363 922.504L593.563 924.494C664.056 917.393 727.839 906.161 783.803 893.452L783.36 891.502ZM593.363 922.504L593.163 920.514C522.84 927.598 447.739 930.222 391.391 929.691L391.372 931.691L391.353 933.691C447.832 934.223 523.08 931.594 593.563 924.494L593.363 922.504ZM391.372 931.691L391.391 929.691C335.07 929.16 299.789 925.397 271.466 921.097L271.166 923.075L270.865 925.052C299.378 929.38 334.847 933.158 391.353 933.691L391.372 931.691ZM271.166 923.075L271.466 921.097C243.131 916.796 222.834 912.072 204.358 906.544L203.784 908.461L203.211 910.377C221.884 915.963 242.365 920.726 270.865 925.052L271.166 923.075ZM203.784 908.461L204.358 906.544C169.391 896.083 144.857 884.354 127.891 875.724L126.984 877.506L126.077 879.289C143.162 887.98 167.931 899.822 203.211 910.377L203.784 908.461ZM126.984 877.506L127.891 875.724C110.606 866.932 94.2378 855.609 78.3074 843.627L77.1052 845.225L75.903 846.823C91.8997 858.856 108.485 870.34 126.077 879.289L126.984 877.506ZM77.1052 845.225L78.3074 843.627C62.3397 831.616 50.0763 818.083 40.2777 805.71L38.7098 806.951L37.1419 808.193C47.0659 820.725 59.5691 834.537 75.903 846.823L77.1052 845.225ZM38.7098 806.951L40.2777 805.71C30.7694 793.703 24.8524 779.805 20.1564 766.257L18.2667 766.912L16.377 767.567C21.1238 781.262 27.2172 795.66 37.1419 808.193L38.7098 806.951ZM18.2667 766.912L20.1564 766.257C15.657 753.276 15.7736 739.248 16.0636 725.037L14.064 724.996L12.0645 724.955C11.7764 739.074 11.6081 753.809 16.377 767.567L18.2667 766.912ZM14.064 724.996L16.0636 725.037C16.6465 696.473 29.7717 669.061 45.3038 636.819L43.502 635.951L41.7002 635.083C26.2679 667.118 12.6685 695.354 12.0645 724.955L14.064 724.996ZM43.502 635.951L45.3038 636.819C53.6128 619.572 73.383 592.723 102.496 555.32L100.918 554.091L99.3396 552.863C70.3179 590.149 50.2349 617.367 41.7002 635.083L43.502 635.951ZM100.918 554.091L102.496 555.32C117.176 536.46 134.377 519.426 159.506 496.36L158.153 494.887L156.801 493.414C131.641 516.508 114.234 533.727 99.3396 552.863L100.918 554.091ZM158.153 494.887L159.506 496.36C184.604 473.323 217.635 445.355 255.175 417.449L253.982 415.844L252.789 414.239C215.13 442.233 181.992 470.291 156.801 493.414L158.153 494.887ZM253.982 415.844L255.175 417.449C292.71 389.547 333.755 362.55 378.657 336.785L377.662 335.051L376.666 333.316C331.63 359.158 290.453 386.24 252.789 414.239L253.982 415.844ZM377.662 335.051L378.657 336.785C423.563 311.019 471.087 287.299 512.708 268.325L511.878 266.505L511.049 264.686C469.338 283.7 421.7 307.476 376.666 333.316L377.662 335.051ZM511.878 266.505L512.708 268.325C554.316 249.358 588.566 235.861 624.069 223.516L623.412 221.627L622.756 219.738C587.137 232.123 552.771 245.666 511.049 264.686L511.878 266.505ZM623.412 221.627L624.069 223.516C659.578 211.17 695.299 200.386 731.772 191.066L731.277 189.129L730.782 187.191C694.198 196.539 658.369 207.355 622.756 219.738L623.412 221.627ZM731.277 189.129L731.772 191.066C768.248 181.746 804.4 174.215 832.549 169.063L832.189 167.096L831.829 165.128C803.606 170.294 767.363 177.844 730.782 187.191L731.277 189.129ZM832.189 167.096L832.549 169.063C860.656 163.918 879.65 161.379 914.893 159.422L914.782 157.425L914.671 155.428C879.253 157.395 860.093 159.955 831.829 165.128L832.189 167.096ZM914.782 157.425L914.893 159.422C950.182 157.462 1001.13 156.166 1043.71 157.419L1043.77 155.42L1043.83 153.421C1001.11 152.164 950.043 153.463 914.671 155.428L914.782 157.425ZM1043.77 155.42L1043.71 157.419C1086.25 158.671 1118.91 162.506 1157.03 169.302L1157.38 167.333L1157.73 165.364C1119.44 158.538 1086.59 154.679 1043.83 153.421L1043.77 155.42ZM1157.38 167.333L1157.03 169.302C1195.17 176.101 1237.77 185.743 1277.98 197.134L1278.53 195.21L1279.07 193.286C1238.73 181.857 1196 172.185 1157.73 165.364L1157.38 167.333ZM1278.53 195.21L1277.98 197.134C1318.2 208.525 1354.74 221.376 1379.25 230.611L1379.95 228.74L1380.66 226.868C1356.08 217.605 1319.42 204.715 1279.07 193.286L1278.53 195.21ZM1379.95 228.74L1379.25 230.611C1415.35 244.216 1438.45 256.759 1466.68 273.561L1467.7 271.843L1468.72 270.124C1440.38 253.251 1417.06 240.585 1380.66 226.868L1379.95 228.74ZM1467.7 271.843L1466.68 273.561C1504.99 296.369 1534.69 321.138 1553.2 337.641L1554.53 336.148L1555.87 334.655C1537.25 318.062 1507.34 293.111 1468.72 270.124L1467.7 271.843ZM1554.53 336.148L1553.2 337.641C1570.86 353.383 1584.71 370.27 1596.71 385.748L1598.29 384.523L1599.87 383.297C1587.82 367.764 1573.8 350.645 1555.87 334.655L1554.53 336.148ZM1598.29 384.523L1596.71 385.748C1608.04 400.365 1614.24 414.931 1617.79 427.401L1619.71 426.854L1621.63 426.308C1617.98 413.435 1611.57 398.386 1599.87 383.297L1598.29 384.523ZM1619.71 426.854L1617.79 427.401C1621.26 439.623 1620.67 452.829 1619.61 466.285L1621.6 466.443L1623.59 466.602C1624.66 453.16 1625.33 439.297 1621.63 426.308L1619.71 426.854ZM1621.6 466.443L1619.61 466.285C1618.51 480.054 1610.81 494.365 1602.6 510.456L1604.38 511.365L1606.16 512.274C1614.21 496.501 1622.42 481.355 1623.59 466.602L1621.6 466.443ZM1604.38 511.365L1602.6 510.456C1594.1 527.117 1582.15 541.965 1569.47 556.084L1570.96 557.42L1572.45 558.756C1585.19 544.558 1597.42 529.402 1606.16 512.274L1604.38 511.365ZM1570.96 557.42L1569.47 556.084C1556.19 570.881 1539.45 585.105 1509.26 607.573L1510.45 609.177L1511.65 610.782C1541.89 588.277 1558.89 573.861 1572.45 558.756L1570.96 557.42ZM1510.45 609.177L1509.26 607.573C1488.36 623.126 1454.13 644.814 1401.68 671.904L1402.6 673.681L1403.52 675.458C1456.09 648.302 1490.52 626.503 1511.65 610.782L1510.45 609.177ZM1402.6 673.681L1401.68 671.904C1349.26 698.984 1279.23 730.162 1195.13 760.956L1195.81 762.834L1196.5 764.712C1280.75 733.868 1350.93 702.624 1403.52 675.458L1402.6 673.681ZM1195.81 762.834L1195.13 760.956C1111.02 791.75 1014.96 821.211 932.918 842.036L933.41 843.975L933.902 845.913C1016.08 825.055 1112.26 795.554 1196.5 764.712L1195.81 762.834ZM933.41 843.975L932.918 842.036C850.89 862.857 785.776 874.153 728.471 881.732L728.734 883.715L728.996 885.698C786.439 878.101 851.707 866.777 933.902 845.913L933.41 843.975ZM728.734 883.715L728.471 881.732C671.162 889.311 623.639 892.83 584.65 894.519L584.736 896.517L584.823 898.515C623.917 896.821 671.557 893.294 728.996 885.698L728.734 883.715ZM584.736 896.517L584.65 894.519C545.684 896.206 516.707 895.96 473.655 892.441L473.493 894.434L473.33 896.427C516.561 899.961 545.705 900.209 584.823 898.515L584.736 896.517ZM473.493 894.434L473.655 892.441C430.564 888.918 374.268 882.125 335.055 876.211L334.757 878.189L334.459 880.166C373.751 886.093 430.138 892.897 473.33 896.427L473.493 894.434ZM334.757 878.189L335.055 876.211C295.873 870.301 275.485 865.479 260.099 861.491L259.597 863.427L259.095 865.363C274.613 869.385 295.136 874.236 334.459 880.166L334.757 878.189ZM259.597 863.427L260.099 861.491C234.811 854.935 215.712 847.876 197.719 840.514L196.961 842.365L196.204 844.216C214.308 851.624 233.584 858.749 259.095 865.363L259.597 863.427ZM196.961 842.365L197.719 840.514C162.835 826.241 134.349 804.486 110.175 783.147L108.851 784.647L107.528 786.146C131.842 807.609 160.719 829.697 196.204 844.216L196.961 842.365ZM108.851 784.647L110.175 783.147C98.6584 772.981 90.7372 760.061 83.3739 747.675L81.6548 748.697L79.9357 749.719C87.2774 762.069 95.4808 775.512 107.528 786.146L108.851 784.647ZM81.6548 748.697L83.3739 747.675C76.3331 735.832 72.7427 722.182 69.8518 709.036L67.8985 709.465L65.9451 709.895C68.8452 723.082 72.5415 737.282 79.9357 749.719L81.6548 748.697ZM67.8985 709.465L69.8518 709.036C67.3077 697.467 68.1842 685.191 69.0685 671.66L67.0728 671.529L65.077 671.399C64.2028 684.778 63.2552 697.663 65.9451 709.895L67.8985 709.465ZM67.0728 671.529L69.0685 671.66C70.0314 656.924 74.8284 641.439 81.7203 625.095C88.6136 608.748 97.5365 591.688 106.687 573.758L104.906 572.849L103.124 571.939C94.0091 589.8 84.9993 607.024 78.0346 623.541C71.0685 640.061 66.082 656.02 65.077 671.399L67.0728 671.529ZM104.906 572.849L106.687 573.758C125.645 536.612 148.49 510.745 169.415 486.758L167.908 485.443L166.401 484.128C145.493 508.095 122.334 534.3 103.124 571.939L104.906 572.849ZM167.908 485.443L169.415 486.758C182.247 472.049 201.051 453.24 216.325 438.155L214.919 436.732L213.514 435.309C198.255 450.378 179.346 469.289 166.401 484.128L167.908 485.443ZM214.919 436.732L216.325 438.155C231.534 423.135 242.925 412.773 267.515 393.737L266.29 392.156L265.066 390.574C240.349 409.709 228.838 420.176 213.514 435.309L214.919 436.732ZM266.29 392.156L267.515 393.737C292.118 374.691 329.571 347.29 386.663 311.855L385.608 310.156L384.553 308.456C327.335 343.97 289.769 371.451 265.066 390.574L266.29 392.156ZM385.608 310.156L386.663 311.855C443.764 276.414 519.369 233.771 597.462 195.478L596.581 193.682L595.701 191.886C517.483 230.241 441.762 272.949 384.553 308.456L385.608 310.156ZM596.581 193.682L597.462 195.478C675.553 157.186 753.852 124.529 808.386 103.368L807.662 101.503L806.939 99.6386C752.329 120.83 673.92 153.531 595.701 191.886L596.581 193.682ZM807.662 101.503L808.386 103.368C862.9 82.2138 891.24 73.5566 919.095 66.364L918.595 64.4275L918.095 62.4911C890.059 69.7302 861.568 78.4399 806.939 99.6386L807.662 101.503ZM918.595 64.4275L919.095 66.364C946.984 59.1627 973.547 53.6885 993.88 50.1372L993.536 48.167L993.192 46.1968C972.764 49.7647 946.097 55.2607 918.095 62.4911L918.595 64.4275ZM993.536 48.167L993.88 50.1372C1027.28 44.3035 1063.14 43.2874 1101.83 43.5139L1101.84 41.514L1101.85 39.514C1063.11 39.2872 1026.96 40.2988 993.192 46.1968L993.536 48.167ZM1101.84 41.514L1101.83 43.5139C1128.59 43.6706 1148.57 49.2317 1167.78 54.1851L1168.28 52.2484L1168.78 50.3117C1149.61 45.3714 1129.18 39.674 1101.85 39.514L1101.84 41.514ZM1168.28 52.2484L1167.78 54.1851C1186.8 59.0875 1205.72 67.6263 1224.57 76.6971L1225.44 74.8949L1226.31 73.0927C1207.44 64.0161 1188.21 55.3211 1168.78 50.3117L1168.28 52.2484ZM1225.44 74.8949L1224.57 76.6971C1242.25 85.2036 1258.3 97.5452 1275.02 110.486L1276.25 108.905L1277.47 107.323C1260.81 94.4272 1244.43 81.8129 1226.31 73.0927L1225.44 74.8949ZM1276.25 108.905L1275.02 110.486C1291.83 123.492 1307.26 138.676 1322.46 154.284L1323.89 152.888L1325.33 151.493C1310.1 135.863 1294.51 120.51 1277.47 107.323L1276.25 108.905ZM1323.89 152.888L1322.46 154.284C1337.92 170.157 1352.17 189.039 1366.03 208.231L1367.66 207.059L1369.28 205.888C1355.4 186.682 1341.01 167.592 1325.33 151.493L1323.89 152.888ZM1367.66 207.059L1366.03 208.231C1378.81 225.916 1394.95 256.632 1414.12 294.713L1415.91 293.814L1417.69 292.914C1398.56 254.918 1382.28 223.885 1369.28 205.888L1367.66 207.059ZM1415.91 293.814L1414.12 294.713C1428.04 322.351 1436 346.828 1443.96 371.928L1445.87 371.324L1447.77 370.719C1439.8 345.605 1431.77 320.861 1417.69 292.914L1415.91 293.814ZM1445.87 371.324L1443.96 371.928C1452.14 397.721 1456.9 423.57 1460.32 448.239L1462.3 447.965L1464.28 447.691C1460.85 422.907 1456.05 396.811 1447.77 370.719L1445.87 371.324ZM1462.3 447.965L1460.32 448.239C1463.81 473.533 1463.61 500.611 1462.74 528.096L1464.74 528.159L1466.74 528.222C1467.61 500.716 1467.83 473.346 1464.28 447.691L1462.3 447.965ZM1464.74 528.159L1462.74 528.096C1461.9 554.905 1454.69 580.928 1446.02 606.36L1447.91 607.005L1449.81 607.65C1458.51 582.111 1465.88 555.636 1466.74 528.222L1464.74 528.159ZM1447.91 607.005L1446.02 606.36C1437.24 632.126 1421.89 653.791 1406.11 673.179L1407.66 674.442L1409.22 675.704C1425.08 656.201 1440.8 634.095 1449.81 607.65L1447.91 607.005ZM1407.66 674.442L1406.11 673.179C1389.85 693.168 1368.03 710.171 1338.35 731.229L1339.51 732.86L1340.67 734.492C1370.35 713.43 1392.58 696.156 1409.22 675.704L1407.66 674.442ZM1339.51 732.86L1338.35 731.229C1320.23 744.085 1294.07 759.271 1251.65 780.5L1252.55 782.288L1253.44 784.077C1295.92 762.816 1322.3 747.523 1340.67 734.492L1339.51 732.86ZM1252.55 782.288L1251.65 780.5C1209.26 801.716 1151.09 827.895 1087.33 852.473L1088.05 854.339L1088.77 856.206C1152.65 831.582 1210.94 805.351 1253.44 784.077L1252.55 782.288ZM1088.05 854.339L1087.33 852.473C1023.58 877.05 956.006 899.232 888.595 917.776L889.126 919.704L889.656 921.633C957.19 903.055 1024.89 880.831 1088.77 856.206L1088.05 854.339ZM889.126 919.704L888.595 917.776C821.184 936.32 755.982 950.554 706.815 959.691L707.181 961.658L707.546 963.624C756.81 954.468 822.123 940.21 889.656 921.633L889.126 919.704ZM707.181 961.658L706.815 959.691C657.675 968.824 626.569 972.427 588.485 974.401L588.589 976.398L588.692 978.395C626.973 976.412 658.256 972.784 707.546 963.624L707.181 961.658ZM588.589 976.398L588.485 974.401C550.368 976.376 506.217 976.607 463.87 974.197L463.756 976.194L463.643 978.19C506.148 980.61 550.445 980.377 588.692 978.395L588.589 976.398ZM463.756 976.194L463.87 974.197C421.529 971.787 382.314 966.729 351.037 961.501L350.708 963.474L350.378 965.446C381.77 970.693 421.131 975.771 463.643 978.19L463.756 976.194ZM350.708 963.474L351.037 961.501C297.367 952.53 264.637 942.297 244.496 935.286L243.838 937.175L243.181 939.064C263.506 946.138 296.456 956.433 350.378 965.446L350.708 963.474ZM243.838 937.175L244.496 935.286C224.992 928.498 206.702 919.167 186.04 907.603L185.063 909.348L184.086 911.093C204.808 922.691 223.341 932.159 243.181 939.064L243.838 937.175ZM185.063 909.348L186.04 907.603C159.605 892.808 138.797 876.268 124.267 864.21L122.99 865.749L121.713 867.288C136.306 879.399 157.333 896.121 184.086 911.093L185.063 909.348ZM122.99 865.749L124.267 864.21C109.265 851.76 95.5645 836.429 82.0293 820.11L80.4899 821.387L78.9504 822.663C92.5243 839.029 106.416 854.593 121.713 867.288L122.99 865.749ZM80.4899 821.387L82.0293 820.11C68.1929 803.427 57.8945 786.079 49.9525 770.128L48.1621 771.02L46.3718 771.911C54.4115 788.058 64.8683 805.685 78.9504 822.663L80.4899 821.387ZM48.1621 771.02L49.9525 770.128C42.1466 754.451 38.5077 737.644 36.0711 721.854L34.0945 722.159L32.1179 722.464C34.5755 738.391 38.2901 755.68 46.3718 771.911L48.1621 771.02ZM34.0945 722.159L36.0711 721.854C33.7954 707.107 35.3155 692.179 37.2143 676.665L35.2291 676.422L33.2439 676.179C31.3481 691.669 29.7478 707.104 32.1179 722.464L34.0945 722.159ZM35.2291 676.422L37.2143 676.665C39.221 660.27 46.4651 644.374 56.7654 623.275L54.9682 622.398L53.1709 621.52C42.9139 642.53 35.3448 659.014 33.2439 676.179L35.2291 676.422ZM54.9682 622.398L56.7654 623.275C72.5632 590.916 91.4136 563.027 110.306 538.492L108.721 537.272L107.137 536.052C88.1359 560.727 69.1214 588.849 53.1709 621.52L54.9682 622.398ZM108.721 537.272L110.306 538.492C121.978 523.334 139.591 503.816 158.573 484.791L157.157 483.379L155.741 481.966C136.69 501.06 118.95 520.71 107.137 536.052L108.721 537.272ZM157.157 483.379L158.573 484.791C177.521 465.801 197.69 448.241 221.112 429.953L219.881 428.376L218.651 426.8C195.123 445.17 174.826 462.838 155.741 481.966L157.157 483.379ZM219.881 428.376L221.112 429.953C244.534 411.665 270.586 393.191 300.113 374.355L299.037 372.669L297.962 370.983C268.333 389.883 242.178 408.43 218.651 426.8L219.881 428.376ZM299.037 372.669L300.113 374.355C329.632 355.525 361.825 336.899 403.636 316.715L402.767 314.914L401.897 313.113C359.93 333.373 327.599 352.077 297.962 370.983L299.037 372.669ZM402.767 314.914L403.636 316.715C445.461 296.524 495.942 275.333 541.048 258.56L540.351 256.685L539.654 254.811C494.448 271.621 443.85 292.86 401.897 313.113L402.767 314.914ZM540.351 256.685L541.048 258.56C586.143 241.79 624.332 230.08 654.383 221.718L653.846 219.791L653.31 217.864C623.17 226.251 584.872 237.996 539.654 254.811L540.351 256.685ZM653.846 219.791L654.383 221.718C684.415 213.361 705.132 208.712 734.306 203.949L733.984 201.975L733.662 200.001C704.33 204.79 683.47 209.472 653.31 217.864L653.846 219.791ZM733.984 201.975L734.306 203.949C763.507 199.182 800.535 194.446 839.03 191.636L838.885 189.642L838.739 187.647C800.113 190.466 762.967 195.217 733.662 200.001L733.984 201.975ZM838.885 189.642L839.03 191.636C877.526 188.827 916.372 188.087 946.17 188.769L946.216 186.77L946.262 184.77C916.338 184.085 877.364 184.828 838.739 187.647L838.885 189.642ZM946.216 186.77L946.17 188.769C975.939 189.451 995.489 191.575 1015.69 194.548L1015.99 192.569L1016.28 190.591C995.931 187.597 976.215 185.456 946.262 184.77L946.216 186.77ZM1015.99 192.569L1015.69 194.548C1035.91 197.522 1056.16 201.279 1083.91 208.402L1084.41 206.464L1084.9 204.527C1057.01 197.367 1036.61 193.584 1016.28 190.591L1015.99 192.569ZM1084.41 206.464L1083.91 208.402C1111.67 215.528 1146.32 225.909 1180.19 238.08L1180.87 236.198L1181.55 234.316C1147.55 222.1 1112.78 211.683 1084.9 204.527L1084.41 206.464ZM1180.87 236.198L1180.19 238.08C1214.06 250.249 1246.1 263.895 1275.39 278.238L1276.27 276.442L1277.15 274.646C1247.72 260.237 1215.55 246.535 1181.55 234.316L1180.87 236.198ZM1276.27 276.442L1275.39 278.238C1304.68 292.583 1330.26 307.212 1347.25 317.843L1348.31 316.148L1349.37 314.452C1332.26 303.749 1306.57 289.053 1277.15 274.646L1276.27 276.442ZM1348.31 316.148L1347.25 317.843C1372.45 333.602 1385.46 347.102 1395.97 359.29L1397.48 357.984L1399 356.678C1388.3 344.265 1374.99 330.473 1349.37 314.452L1348.31 316.148ZM1397.48 357.984L1395.97 359.29C1400.8 364.895 1403.75 370.669 1406.01 376.134L1407.86 375.37L1409.71 374.606C1407.36 368.912 1404.21 362.719 1399 356.678L1397.48 357.984ZM1407.86 375.37L1406.01 376.134C1408.24 381.51 1409.35 386.557 1409.76 391.726L1411.76 391.567L1413.75 391.408C1413.3 385.849 1412.1 380.39 1409.71 374.606L1407.86 375.37ZM1411.76 391.567L1409.76 391.726C1410.17 396.881 1409.85 401.958 1408.24 407.72L1410.17 408.26L1412.09 408.799C1413.85 402.534 1414.19 396.98 1413.75 391.408L1411.76 391.567ZM1410.17 408.26L1408.38 407.371C1395.68 432.978 1378.48 453.39 1362.97 468.217L1364.35 469.663L1365.73 471.108C1381.48 456.049 1399 435.273 1411.96 409.148L1410.17 408.26ZM1364.35 469.663L1363.01 468.182C1354.62 475.795 1345.23 483.552 1335.51 491.582L1336.79 493.124L1338.06 494.666C1347.77 486.649 1357.23 478.831 1365.7 471.143L1364.35 469.663Z" fill="#FFC294"/>
</svg>
