<svg width="1003" height="716" viewBox="0 0 1003 716" fill="none" xmlns="http://www.w3.org/2000/svg">
<path d="M340.963 178.1L340.645 176.125L340.963 178.1ZM351.802 171.591L353.09 173.122L351.802 171.591ZM391.857 122.703L390.271 121.484L391.857 122.703ZM465.839 56.079L464.633 54.4835L465.839 56.079ZM513.499 27.7847L514.361 29.5894L513.499 27.7847ZM569.246 10.5197L568.782 8.5743L569.246 10.5197ZM671.531 2.04433L671.57 4.04394L671.531 2.04433ZM766.385 18.1576L765.821 20.0764L766.385 18.1576ZM826.431 47.6749L827.435 45.9451L826.431 47.6749ZM891.194 95.3812L892.478 93.8472L891.194 95.3812ZM938.603 151.279L936.939 152.388L938.603 151.279ZM970.854 248.07L968.895 248.472L970.854 248.07ZM973.543 318.358L975.543 318.357L973.543 318.358ZM960.214 403.448L958.265 402.998L960.214 403.448ZM929.791 488.973L927.971 488.143L927.971 488.143L929.791 488.973ZM866.295 573.551L867.686 574.988L867.686 574.988L866.295 573.551ZM824.368 601.843L823.363 600.114L824.368 601.843ZM751.553 629.418L752.164 631.322L752.164 631.322L751.553 629.418ZM428.745 645.838L428.376 647.803L428.376 647.803L428.745 645.838ZM339.161 619.933L338.444 621.799L339.161 619.933ZM280.599 588.948L281.627 587.233L281.627 587.233L280.599 588.948ZM230.241 547.557L231.626 546.113L231.626 546.113L230.241 547.557ZM176.282 467.629L178.056 466.704L178.056 466.704L176.282 467.629ZM153.629 369.39L151.639 369.582L153.629 369.39ZM158.736 321.359L156.792 320.887L158.736 321.359ZM217.124 213.26L218.829 214.304L217.124 213.26ZM273.045 136.617L271.579 135.257L273.045 136.617ZM313.38 101.738L312.181 100.137L312.181 100.137L313.38 101.738ZM367.065 72.6891L367.86 74.5243L367.86 74.5243L367.065 72.6891ZM504.303 35.5486L503.942 33.5815L504.303 35.5486ZM611.88 26.9342L611.895 28.9342L611.88 26.9342ZM677.06 32.896L677.375 30.9208L677.06 32.896ZM773.343 60.4334L774.034 58.5568L773.343 60.4334ZM861.334 107.958L860.223 109.621L861.334 107.958ZM932.892 168.306L934.289 166.875L934.289 166.875L932.892 168.306ZM984.37 243.938L986.139 243.006L986.139 243.006L984.37 243.938ZM996.755 279.609L998.694 279.118L996.755 279.609ZM998.88 327.59L996.881 327.555L998.88 327.59ZM983.082 389.466L984.97 390.124L983.082 389.466ZM939.094 467.27L940.758 468.379L940.758 468.379L939.094 467.27ZM887.734 528.25L889.089 529.721L889.089 529.721L887.734 528.25ZM383.076 698.81L382.936 700.805L383.076 698.81ZM285.988 679.843L285.422 681.761L285.988 679.843ZM221.777 653.93L222.68 652.146L221.777 653.93ZM151.612 601.585L152.97 600.116L151.612 601.585ZM106.019 540.279L107.77 539.312L106.019 540.279ZM96.7201 478.6L98.7201 478.587L96.7201 478.6ZM102.941 445.903L101.04 445.282L101.04 445.282L102.941 445.903ZM160.945 357.388L162.508 358.635L162.508 358.635L160.945 357.388ZM746.99 76.5626L747.085 74.5648L747.085 74.5648L746.99 76.5626ZM817.93 88.5811L818.542 86.677L817.93 88.5811ZM890.593 128.22L889.447 129.859L889.447 129.859L890.593 128.22ZM925.442 161.883L923.92 163.181L925.442 161.883ZM972.84 234.019L974.591 233.052L974.591 233.052L972.84 234.019ZM998.899 322.887L1000.88 322.626L998.899 322.887ZM989.239 420.092L987.32 419.527L989.239 420.092ZM935.801 513.155L934.182 511.98L934.182 511.98L935.801 513.155ZM897.393 547.944L898.623 549.521L897.393 547.944ZM223.654 633.986L224.195 632.061L223.654 633.986ZM133.634 593.348L134.766 591.7L133.634 593.348ZM98.2954 554.009L99.9569 552.896L99.9569 552.896L98.2954 554.009ZM80.0996 480.174L78.1138 480.412L80.0996 480.174ZM82.7798 419.246L80.8248 418.824L82.7798 419.246ZM95.2809 382.779L97.1216 383.561L97.1216 383.561L95.2809 382.779ZM133.08 319.382L134.705 320.548L133.08 319.382ZM200.543 248.632L201.877 250.122L201.877 250.122L200.543 248.632ZM763.539 82.5948L763.512 84.5946L763.539 82.5948ZM829.196 93.0657L828.704 95.0043L829.196 93.0657ZM873.457 110.876L872.56 112.664L872.56 112.664L873.457 110.876ZM933.077 152.135L934.347 150.59L934.347 150.59L933.077 152.135ZM981.007 211.907L979.276 212.91L979.276 212.91L981.007 211.907ZM996.333 275.643L994.342 275.828L996.333 275.643ZM992.312 328.477L990.351 328.079L990.351 328.079L992.312 328.477ZM967.921 397.031L969.725 397.894L969.725 397.894L967.921 397.031ZM927.956 470.498L929.696 471.484L927.956 470.498ZM878.164 541.358L879.715 542.622L879.715 542.622L878.164 541.358ZM824.263 593.213L825.573 594.725L825.573 594.725L824.263 593.213ZM754.582 639.29L755.573 641.027L754.582 639.29ZM313.812 705.722L313.547 707.705L313.812 705.722ZM213.704 678.997L214.364 677.109L213.704 678.997ZM156.658 653.774L155.743 655.552L156.658 653.774ZM80.3728 605.244L79.1021 606.788L79.1021 606.788L80.3728 605.244ZM17.4418 531.64L15.753 532.711L15.753 532.711L17.4418 531.64ZM3.68045 492.6L1.715 492.97L3.68045 492.6ZM2.63509 454.522L0.638409 454.407L2.63509 454.522ZM14.6137 416.884L12.7976 416.046L14.6137 416.884ZM52.7877 368.285L51.3381 366.907L51.3381 366.907L52.7877 368.285ZM99.016 329.85L97.8947 328.194L97.872 328.21L97.8496 328.226L99.016 329.85ZM324.232 178.923L324.027 180.912C327.504 181.271 333.378 181.346 341.28 180.075L340.963 178.1L340.645 176.125C333.063 177.345 327.542 177.254 324.438 176.933L324.232 178.923ZM340.963 178.1L341.28 180.075C345.802 179.347 349.48 176.158 353.09 173.122L351.802 171.591L350.515 170.06C346.641 173.318 343.852 175.61 340.645 176.125L340.963 178.1ZM351.802 171.591L353.09 173.122C357.304 169.577 362.663 163.408 369.272 155.149C375.907 146.858 383.92 136.309 393.442 123.922L391.857 122.703L390.271 121.484C380.723 133.904 372.752 144.399 366.149 152.65C359.52 160.933 354.387 166.804 350.515 170.06L351.802 171.591ZM391.857 122.703L393.442 123.922C412.052 99.7131 439.631 78.3941 467.045 57.6746L465.839 56.079L464.633 54.4835C437.298 75.1435 409.266 96.7747 390.271 121.484L391.857 122.703ZM465.839 56.079L467.045 57.6746C487.739 42.0342 503.318 34.8651 514.361 29.5894L513.499 27.7847L512.637 25.9801C501.553 31.2752 485.667 38.5863 464.633 54.4835L465.839 56.079ZM513.499 27.7847L514.361 29.5894C526.013 24.023 544.454 18.4928 569.711 12.465L569.246 10.5197L568.782 8.5743C543.514 14.6048 524.706 20.2141 512.637 25.9801L513.499 27.7847ZM569.246 10.5197L569.711 12.465C596.446 6.08443 633.656 4.78869 671.57 4.04394L671.531 2.04433L671.491 0.0447113C633.679 0.78747 596.015 2.07494 568.782 8.5743L569.246 10.5197ZM671.531 2.04433L671.57 4.04394C708.362 3.32123 737.084 11.6287 765.821 20.0764L766.385 18.1576L766.949 16.2388C738.207 7.78971 708.959 -0.691272 671.491 0.0447113L671.531 2.04433ZM766.385 18.1576L765.821 20.0764C780.87 24.5004 800.659 35.0289 825.427 49.4046L826.431 47.6749L827.435 45.9451C802.733 31.6077 782.536 20.8208 766.949 16.2388L766.385 18.1576ZM826.431 47.6749L825.427 49.4046C850.13 63.7424 871.975 81.9104 889.911 96.9152L891.194 95.3812L892.478 93.8472C874.564 78.8611 852.474 60.4783 827.435 45.9451L826.431 47.6749ZM891.194 95.3812L889.911 96.9152C909.579 113.369 923.123 131.667 936.939 152.388L938.603 151.279L940.267 150.169C926.39 129.355 912.592 110.674 892.478 93.8472L891.194 95.3812ZM938.603 151.279L936.939 152.388C944.226 163.319 950.456 178.702 955.756 195.748C961.046 212.765 965.37 231.306 968.895 248.472L970.854 248.07L972.813 247.668C969.276 230.44 964.921 211.756 959.575 194.561C954.238 177.395 947.874 161.579 940.267 150.169L938.603 151.279ZM970.854 248.07L968.895 248.472C970.366 255.639 971.031 265.474 971.323 277.406C971.614 289.317 971.531 303.173 971.543 318.36L973.543 318.358L975.543 318.357C975.531 303.215 975.614 289.281 975.321 277.308C975.029 265.355 974.362 255.211 972.813 247.668L970.854 248.07ZM973.543 318.358L971.543 318.36C971.561 339.423 966.825 366.008 958.265 402.998L960.214 403.448L962.162 403.899C970.721 366.911 975.561 339.926 975.543 318.357L973.543 318.358ZM960.214 403.448L958.265 402.998C949.541 440.695 936.655 469.082 927.971 488.143L929.791 488.973L931.611 489.802C940.311 470.705 953.343 442.011 962.162 403.899L960.214 403.448ZM929.791 488.973L927.971 488.143C912.74 521.571 889.294 548.513 864.904 572.114L866.295 573.551L867.686 574.988C892.225 551.242 916.079 523.891 931.611 489.802L929.791 488.973ZM866.295 573.551L864.904 572.114C853.257 583.385 838.189 591.501 823.363 600.114L824.368 601.843L825.373 603.572C839.989 595.081 855.599 586.685 867.686 574.988L866.295 573.551ZM824.368 601.843L823.363 600.114C809.884 607.945 787.285 615.859 750.942 627.513L751.553 629.418L752.164 631.322C788.37 619.711 811.438 611.668 825.373 603.572L824.368 601.843ZM751.553 629.418L750.942 627.513C730.248 634.15 704.044 640.256 682.202 644.943L682.621 646.899L683.041 648.854C704.902 644.163 731.269 638.023 752.164 631.322L751.553 629.418ZM682.621 646.899L682.202 644.943C660.443 649.613 643.751 652.133 616.822 653.965L616.958 655.961L617.094 657.956C644.214 656.111 661.096 653.564 683.041 648.854L682.621 646.899ZM616.958 655.961L616.822 653.965C589.854 655.8 553.185 656.863 518.634 654.999L518.527 656.996L518.419 658.994C553.175 660.868 590.012 659.798 617.094 657.956L616.958 655.961ZM518.527 656.996L518.634 654.999C484.097 653.137 452.749 648.316 429.115 643.872L428.745 645.838L428.376 647.803C452.119 652.267 483.65 657.118 518.419 658.994L518.527 656.996ZM428.745 645.838L429.115 643.872C390.387 636.591 362.502 626.767 339.879 618.066L339.161 619.933L338.444 621.799C361.188 630.547 389.322 640.461 428.376 647.803L428.745 645.838ZM339.161 619.933L339.879 618.066C323.318 611.696 304.161 600.744 281.627 587.233L280.599 588.948L279.57 590.663C302.067 604.152 321.509 615.286 338.444 621.799L339.161 619.933ZM280.599 588.948L281.627 587.233C265.018 577.274 248.956 562.727 231.626 546.113L230.241 547.557L228.857 549.001C246.179 565.606 262.53 580.447 279.57 590.663L280.599 588.948ZM230.241 547.557L231.626 546.113C208.543 523.985 193.794 496.866 178.056 466.704L176.282 467.629L174.509 468.555C190.224 498.672 205.239 526.358 228.857 549.001L230.241 547.557ZM176.282 467.629L178.056 466.704C162.909 437.677 158.85 402.661 155.62 369.198L153.629 369.39L151.639 369.582C154.859 402.949 158.949 438.735 174.509 468.555L176.282 467.629ZM153.629 369.39L155.62 369.198C154.11 353.553 156.879 337.454 160.679 321.832L158.736 321.359L156.792 320.887C152.962 336.632 150.063 353.257 151.639 369.582L153.629 369.39ZM158.736 321.359L160.679 321.832C162.453 314.54 165.376 308.309 175.758 289.123L173.999 288.171L172.24 287.22C161.905 306.319 158.71 313.005 156.792 320.887L158.736 321.359ZM173.999 288.171L175.758 289.123C186.101 270.007 204.004 238.503 218.829 214.304L217.124 213.26L215.418 212.215C200.55 236.484 182.612 268.051 172.24 287.22L173.999 288.171ZM217.124 213.26L218.829 214.304C243.801 173.541 262.312 151.123 274.511 137.978L273.045 136.617L271.579 135.257C259.184 148.613 240.516 171.247 215.418 212.215L217.124 213.26ZM273.045 136.617L274.511 137.978C286.625 124.924 300.588 113.811 314.578 103.339L313.38 101.738L312.181 100.137C298.148 110.641 283.948 121.929 271.579 135.257L273.045 136.617ZM313.38 101.738L314.578 103.339C328.242 93.1114 344.108 84.8123 367.86 74.5243L367.065 72.6891L366.27 70.8538C342.417 81.1854 326.217 89.6308 312.181 100.137L313.38 101.738ZM367.065 72.6891L367.86 74.5243C383.108 67.92 406.265 61.1949 431.32 54.3533L430.794 52.4239L430.267 50.4946C405.265 57.3215 381.825 64.1164 366.27 70.8538L367.065 72.6891ZM430.794 52.4239L431.32 54.3533C456.297 47.5333 482.589 41.5666 504.664 37.5158L504.303 35.5486L503.942 33.5815C481.751 37.6537 455.348 43.6461 430.267 50.4946L430.794 52.4239ZM504.303 35.5486L504.664 37.5158C543.553 30.3797 579.59 29.1783 611.895 28.9342L611.88 26.9342L611.865 24.9343C579.49 25.179 543.177 26.382 503.942 33.5815L504.303 35.5486ZM611.88 26.9342L611.895 28.9342C634.825 28.7609 653.798 31.2193 676.746 34.8711L677.06 32.896L677.375 30.9208C654.358 27.2582 635.128 24.7585 611.865 24.9343L611.88 26.9342ZM677.06 32.896L676.746 34.8711C706.48 39.6027 739.593 50.1243 772.651 62.31L773.343 60.4334L774.034 58.5568C740.91 46.3467 707.503 35.7151 677.375 30.9208L677.06 32.896ZM773.343 60.4334L772.651 62.31C805.776 74.5204 834.34 92.3247 860.223 109.621L861.334 107.958L862.446 106.295C836.508 88.9629 807.622 70.9377 774.034 58.5568L773.343 60.4334ZM861.334 107.958L860.223 109.621C886.372 127.095 910.729 149.464 931.494 169.737L932.892 168.306L934.289 166.875C913.484 146.563 888.912 123.982 862.446 106.295L861.334 107.958ZM932.892 168.306L931.494 169.737C955.802 193.468 969.681 220.322 982.6 244.869L984.37 243.938L986.139 243.006C973.254 218.522 959.113 191.111 934.289 166.875L932.892 168.306ZM984.37 243.938L982.6 244.869C988.437 255.96 991.798 268.201 994.817 280.101L996.755 279.609L998.694 279.118C995.677 267.222 992.221 254.562 986.139 243.006L984.37 243.938ZM996.755 279.609L994.817 280.101C996.12 285.241 996.736 291.966 996.971 300.039C997.205 308.093 997.058 317.361 996.881 327.555L998.88 327.59L1000.88 327.625C1001.06 317.451 1001.21 308.087 1000.97 299.922C1000.73 291.776 1000.11 284.695 998.694 279.118L996.755 279.609ZM998.88 327.59L996.881 327.555C996.622 342.442 990.499 362.069 981.193 388.809L983.082 389.466L984.97 390.124C994.22 363.548 1000.61 343.278 1000.88 327.625L998.88 327.59ZM983.082 389.466L981.193 388.809C972.218 414.595 955.438 439.132 937.43 466.161L939.094 467.27L940.758 468.379C958.666 441.502 975.792 416.496 984.97 390.124L983.082 389.466ZM939.094 467.27L937.43 466.161C918.503 494.568 900.897 513.405 886.379 526.779L887.734 528.25L889.089 529.721C903.819 516.152 921.639 497.075 940.758 468.379L939.094 467.27ZM887.734 528.25L886.379 526.779C877.546 534.915 864.807 544.947 847.205 557.411L848.361 559.043L849.516 560.676C867.181 548.167 880.076 538.023 889.089 529.721L887.734 528.25ZM848.361 559.043L847.205 557.411C829.624 569.86 807.398 584.165 784.346 597.415L785.342 599.149L786.339 600.883C809.497 587.572 831.829 573.2 849.516 560.676L848.361 559.043ZM785.342 599.149L784.346 597.415C761.302 610.661 738.109 622.417 712.687 633.584L713.491 635.415L714.296 637.246C739.85 626.022 763.171 614.2 786.339 600.883L785.342 599.149ZM713.491 635.415L712.687 633.584C687.262 644.751 660.31 654.971 633.603 663.628L634.22 665.53L634.837 667.433C661.667 658.736 688.744 648.469 714.296 637.246L713.491 635.415ZM634.22 665.53L633.603 663.628C606.899 672.284 581.254 679.067 559.459 684.033L559.904 685.983L560.348 687.933C582.244 682.944 608.005 676.13 634.837 667.433L634.22 665.53ZM559.904 685.983L559.459 684.033C537.675 688.997 520.531 691.936 503.306 694.105L503.556 696.089L503.806 698.073C521.166 695.888 538.441 692.925 560.348 687.933L559.904 685.983ZM503.556 696.089L503.306 694.105C486.083 696.273 469.297 697.581 448.595 698.086L448.644 700.086L448.693 702.085C469.524 701.577 486.445 700.259 503.806 698.073L503.556 696.089ZM448.644 700.086L448.595 698.086C427.878 698.592 403.773 698.252 383.215 696.815L383.076 698.81L382.936 700.805C403.644 702.253 427.876 702.593 448.693 702.085L448.644 700.086ZM383.076 698.81L383.215 696.815C346.305 694.235 315.385 686.441 286.555 677.925L285.988 679.843L285.422 681.761C314.369 690.312 345.607 698.196 382.936 700.805L383.076 698.81ZM285.988 679.843L286.555 677.925C257.396 669.312 236.424 659.095 222.68 652.146L221.777 653.93L220.875 655.715C234.707 662.709 255.926 673.049 285.422 681.761L285.988 679.843ZM221.777 653.93L222.68 652.146C195.38 638.342 174.428 619.948 152.97 600.116L151.612 601.585L150.255 603.053C171.735 622.906 193.037 641.64 220.875 655.715L221.777 653.93ZM151.612 601.585L152.97 600.116C132.431 581.134 118.283 558.352 107.77 539.312L106.019 540.279L104.268 541.246C114.847 560.404 129.242 583.633 150.255 603.053L151.612 601.585ZM106.019 540.279L107.77 539.312C98.3516 522.256 98.8676 500.743 98.7201 478.587L96.7201 478.6L94.7202 478.614C94.865 500.356 94.2456 523.095 104.268 541.246L106.019 540.279ZM96.7201 478.6L98.7201 478.587C98.6446 467.252 101.566 456.544 104.842 446.525L102.941 445.903L101.04 445.282C97.7348 455.39 94.6402 466.606 94.7202 478.614L96.7201 478.6ZM102.941 445.903L104.842 446.525C111.801 425.243 130.038 399.332 162.508 358.635L160.945 357.388L159.381 356.141C127.01 396.713 108.264 423.189 101.04 445.282L102.941 445.903ZM160.945 357.388L162.508 358.635C182.579 333.48 214.407 302.332 243.1 275.215L241.726 273.761L240.352 272.307C211.679 299.407 179.652 330.735 159.381 356.141L160.945 357.388ZM241.726 273.761L243.1 275.215C271.729 248.157 297.225 227.063 318.081 210.884L316.855 209.304L315.629 207.724C294.688 223.969 269.09 245.148 240.352 272.307L241.726 273.761ZM316.855 209.304L318.081 210.884C338.925 194.715 354.33 184.119 373.601 172.744L372.584 171.022L371.568 169.299C352.127 180.774 336.582 191.47 315.629 207.724L316.855 209.304ZM372.584 171.022L373.601 172.744C392.892 161.357 415.595 149.508 440.159 138.378L439.333 136.557L438.508 134.735C413.821 145.921 390.989 157.835 371.568 169.299L372.584 171.022ZM439.333 136.557L440.159 138.378C464.72 127.249 490.441 117.203 515.724 109.049L515.11 107.145L514.496 105.242C489.059 113.446 463.197 123.548 438.508 134.735L439.333 136.557ZM515.11 107.145L515.724 109.049C540.998 100.897 565.065 94.9366 590.086 90.1083L589.707 88.1445L589.328 86.1807C564.168 91.036 539.942 97.0347 514.496 105.242L515.11 107.145ZM589.707 88.1445L590.086 90.1083C615.105 85.2804 640.328 81.7687 667.897 79.7978L667.754 77.8029L667.611 75.808C639.872 77.7911 614.49 81.3251 589.328 86.1807L589.707 88.1445ZM667.754 77.8029L667.897 79.7978C695.478 77.8259 724.637 77.5032 746.895 78.5603L746.99 76.5626L747.085 74.5648C724.655 73.4996 695.337 73.8258 667.611 75.808L667.754 77.8029ZM746.99 76.5626L746.895 78.5603C783.712 80.3089 804.729 86.4408 817.318 90.4853L817.93 88.5811L818.542 86.677C805.704 82.5525 784.333 76.3339 747.085 74.5648L746.99 76.5626ZM817.93 88.5811L817.318 90.4853C843.016 98.741 866.243 113.64 889.447 129.859L890.593 128.22L891.739 126.581C868.506 110.342 844.857 95.1311 818.542 86.677L817.93 88.5811ZM890.593 128.22L889.447 129.859C901.814 138.503 912.102 149.33 923.92 163.181L925.442 161.883L926.963 160.585C915.092 146.671 904.536 135.526 891.739 126.581L890.593 128.22ZM925.442 161.883L923.92 163.181C941.179 183.409 957.555 210.459 971.089 234.985L972.84 234.019L974.591 233.052C961.03 208.477 944.495 181.133 926.963 160.585L925.442 161.883ZM972.84 234.019L971.089 234.985C988.243 266.072 992.942 293.032 996.916 323.149L998.899 322.887L1000.88 322.626C996.89 292.378 992.116 264.811 974.591 233.052L972.84 234.019ZM998.899 322.887L996.916 323.149C1002.79 367.699 994.583 394.822 987.32 419.527L989.239 420.092L991.158 420.656C998.461 395.812 1006.87 368.029 1000.88 322.626L998.899 322.887ZM989.239 420.092L987.32 419.527C983.583 432.242 975.626 448.04 965.891 464.38C956.174 480.691 944.757 497.423 934.182 511.98L935.801 513.155L937.419 514.33C948.038 499.712 959.529 482.875 969.328 466.428C979.109 450.01 987.275 433.864 991.158 420.656L989.239 420.092ZM935.801 513.155L934.182 511.98C926.028 523.205 914.353 532.18 896.163 546.367L897.393 547.944L898.623 549.521C916.64 535.469 928.857 526.117 937.419 514.33L935.801 513.155ZM897.393 547.944L896.163 546.367C883.947 555.894 864.165 568.797 843.834 580.984L844.862 582.7L845.891 584.415C866.264 572.202 886.212 559.2 898.623 549.521L897.393 547.944ZM844.862 582.7L843.834 580.984C823.555 593.14 803.086 603.747 780.095 613.825L780.898 615.657L781.701 617.489C804.846 607.343 825.466 596.659 845.891 584.415L844.862 582.7ZM780.898 615.657L780.095 613.825C757.107 623.902 732.229 633.124 702.556 641.309L703.088 643.237L703.62 645.165C733.492 636.924 758.552 627.636 781.701 617.489L780.898 615.657ZM703.088 643.237L702.556 641.309C672.873 649.498 639.133 656.374 608.178 661.097L608.48 663.074L608.781 665.051C639.863 660.309 673.76 653.403 703.62 645.165L703.088 643.237ZM608.48 663.074L608.178 661.097C577.245 665.816 550.13 668.174 518.546 669.312L518.618 671.31L518.69 673.309C550.409 672.166 577.679 669.796 608.781 665.051L608.48 663.074ZM518.618 671.31L518.546 669.312C486.95 670.45 451.736 670.295 417.345 667.889L417.205 669.884L417.066 671.879C451.625 674.297 486.983 674.452 518.69 673.309L518.618 671.31ZM417.205 669.884L417.345 667.889C382.965 665.483 350.454 660.829 316.41 654.097L316.022 656.059L315.634 658.021C349.815 664.78 382.495 669.459 417.066 671.879L417.205 669.884ZM316.022 656.059L316.41 654.097C282.357 647.363 247.767 638.693 224.195 632.061L223.654 633.986L223.112 635.911C246.77 642.568 281.463 651.264 315.634 658.021L316.022 656.059ZM223.654 633.986L224.195 632.061C171.225 617.158 151.223 603.012 134.766 591.7L133.634 593.348L132.501 594.996C149.205 606.478 169.605 620.857 223.112 635.911L223.654 633.986ZM133.634 593.348L134.766 591.7C120.033 581.573 109.571 567.246 99.9569 552.896L98.2954 554.009L96.6338 555.122C106.264 569.497 117.085 584.4 132.501 594.996L133.634 593.348ZM98.2954 554.009L99.9569 552.896C95.1933 545.786 91.6404 535.405 88.816 522.762C85.9997 510.156 83.9474 495.493 82.0854 479.936L80.0996 480.174L78.1138 480.412C79.9784 495.99 82.0495 510.82 84.9122 523.635C87.7669 536.413 91.4485 547.382 96.6338 555.122L98.2954 554.009ZM80.0996 480.174L82.0854 479.936C78.8641 453.023 82.3693 430.63 84.7348 419.668L82.7798 419.246L80.8248 418.824C78.3999 430.061 74.8235 452.922 78.1138 480.412L80.0996 480.174ZM82.7798 419.246L84.7348 419.668C87.1326 408.556 91.1693 397.568 97.1216 383.561L95.2809 382.779L93.4402 381.996C87.4574 396.075 83.3031 407.339 80.8248 418.824L82.7798 419.246ZM95.2809 382.779L97.1216 383.561C105.728 363.307 119.548 341.676 134.705 320.548L133.08 319.382L131.455 318.216C116.248 339.415 102.222 361.331 93.4402 381.996L95.2809 382.779ZM133.08 319.382L134.705 320.548C150.637 298.339 172.062 276.815 201.877 250.122L200.543 248.632L199.209 247.142C169.341 273.882 147.649 295.641 131.455 318.216L133.08 319.382ZM200.543 248.632L201.877 250.122C219.782 234.093 246.019 215.728 267.112 201.089L265.972 199.446L264.831 197.803C243.789 212.406 217.334 230.916 199.209 247.142L200.543 248.632ZM265.972 199.446L267.112 201.089C288.126 186.505 303.698 177.04 319.012 168.618L318.049 166.866L317.085 165.113C301.643 173.605 285.953 183.144 264.831 197.803L265.972 199.446ZM318.049 166.866L319.012 168.618C334.324 160.198 348.906 153.109 368.665 145.082L367.912 143.229L367.159 141.376C347.253 149.463 332.53 156.62 317.085 165.113L318.049 166.866ZM367.912 143.229L368.665 145.082C388.439 137.048 412.944 128.295 438.395 120.85L437.833 118.931L437.272 117.011C411.684 124.496 387.051 133.294 367.159 141.376L367.912 143.229ZM437.833 118.931L438.395 120.85C463.811 113.416 489.439 107.548 531.341 101.778L531.068 99.7964L530.795 97.8151C488.716 103.61 462.894 109.516 437.272 117.011L437.833 118.931ZM531.068 99.7964L531.341 101.778C573.275 96.0026 630.703 90.5061 674.319 87.5512L674.184 85.5558L674.049 83.5603C630.364 86.5199 572.841 92.0245 530.795 97.8151L531.068 99.7964ZM674.184 85.5558L674.319 87.5512C717.916 84.5976 745.943 84.3519 763.512 84.5946L763.539 82.5948L763.567 80.595C745.888 80.3508 717.751 80.5995 674.049 83.5603L674.184 85.5558ZM763.539 82.5948L763.512 84.5946C787.217 84.9221 806.274 89.3162 828.704 95.0043L829.196 93.0657L829.688 91.127C807.218 85.4287 787.774 80.9294 763.567 80.595L763.539 82.5948ZM829.196 93.0657L828.704 95.0043C844.613 99.0387 857.204 104.965 872.56 112.664L873.457 110.876L874.353 109.088C858.961 101.371 846.043 95.2748 829.688 91.127L829.196 93.0657ZM873.457 110.876L872.56 112.664C892.608 122.716 913.585 138.693 931.806 153.679L933.077 152.135L934.347 150.59C916.097 135.58 894.829 119.354 874.353 109.088L873.457 110.876ZM933.077 152.135L931.806 153.679C955.04 172.788 968.433 194.197 979.276 212.91L981.007 211.907L982.737 210.905C971.834 192.09 958.151 170.168 934.347 150.59L933.077 152.135ZM981.007 211.907L979.276 212.91C989.527 230.6 992.033 250.925 994.342 275.828L996.333 275.643L998.325 275.459C996.025 250.651 993.49 229.462 982.737 210.905L981.007 211.907ZM996.333 275.643L994.342 275.828C996.126 295.08 993.498 312.566 990.351 328.079L992.312 328.477L994.272 328.875C997.447 313.223 1000.16 295.288 998.325 275.459L996.333 275.643ZM992.312 328.477L990.351 328.079C985.89 350.071 978.905 369.461 966.117 396.167L967.921 397.031L969.725 397.894C982.606 370.993 989.726 351.283 994.272 328.875L992.312 328.477ZM967.921 397.031L966.117 396.167C956.471 416.311 938.001 448.712 926.215 469.512L927.956 470.498L929.696 471.484C941.444 450.749 960.003 418.196 969.725 397.894L967.921 397.031ZM927.956 470.498L926.215 469.512C909.963 498.198 894.404 518.267 876.614 540.094L878.164 541.358L879.715 542.622C897.556 520.731 913.279 500.459 929.696 471.484L927.956 470.498ZM878.164 541.358L876.614 540.094C863.82 555.793 845.375 572.264 822.953 591.702L824.263 593.213L825.573 594.725C847.947 575.329 866.664 558.634 879.715 542.622L878.164 541.358ZM824.263 593.213L822.953 591.702C805.881 606.502 783.45 620.514 753.591 637.553L754.582 639.29L755.573 641.027C785.445 623.981 808.178 609.804 825.573 594.725L824.263 593.213ZM754.582 639.29L753.591 637.553C738.324 646.265 721.648 653.579 703.593 661.142L704.366 662.986L705.139 664.831C723.205 657.263 740.077 649.87 755.573 641.027L754.582 639.29ZM704.366 662.986L703.593 661.142C685.582 668.686 666.556 675.79 647.32 682.069L647.94 683.97L648.561 685.872C667.901 679.559 687.029 672.417 705.139 664.831L704.366 662.986ZM647.94 683.97L647.32 682.069C628.089 688.346 609.23 693.582 589.156 698.035L589.589 699.987L590.022 701.94C610.231 697.457 629.216 692.186 648.561 685.872L647.94 683.97ZM589.589 699.987L589.156 698.035C569.105 702.482 548.41 705.991 516.463 708.409L516.614 710.403L516.765 712.397C548.905 709.965 569.789 706.428 590.022 701.94L589.589 699.987ZM516.614 710.403L516.463 708.409C484.486 710.829 441.888 712.048 404.337 711.002L404.281 713.001L404.225 715C441.918 716.05 484.655 714.828 516.765 712.397L516.614 710.403ZM404.281 713.001L404.337 711.002C366.801 709.957 335.589 706.612 314.076 703.74L313.812 705.722L313.547 707.705C335.16 710.59 366.516 713.95 404.225 715L404.281 713.001ZM313.812 705.722L314.076 703.74C281.708 699.419 252.11 690.294 214.364 677.109L213.704 678.997L213.045 680.885C250.837 694.086 280.755 703.328 313.547 707.705L313.812 705.722ZM213.704 678.997L214.364 677.109C195.197 670.414 176.451 661.717 157.574 651.996L156.658 653.774L155.743 655.552C174.706 665.318 193.635 674.105 213.045 680.885L213.704 678.997ZM156.658 653.774L157.574 651.996C119.864 632.576 95.031 614.713 81.6435 603.699L80.3728 605.244L79.1021 606.788C92.7132 617.986 117.785 636.005 155.743 655.552L156.658 653.774ZM80.3728 605.244L81.6435 603.699C55.1053 581.865 35.311 556.075 19.1307 530.569L17.4418 531.64L15.753 532.711C32.0658 558.427 52.124 584.592 79.1021 606.788L80.3728 605.244ZM17.4418 531.64L19.1307 530.569C11.1626 518.008 7.9367 504.393 5.64589 492.23L3.68045 492.6L1.715 492.97C4.02401 505.23 7.35731 519.476 15.753 532.711L17.4418 531.64ZM3.68045 492.6L5.64589 492.23C3.36359 480.111 3.89707 467.381 4.63178 454.637L2.63509 454.522L0.638409 454.407C-0.0943544 467.117 -0.669736 480.308 1.715 492.97L3.68045 492.6ZM2.63509 454.522L4.63178 454.637C5.34903 442.196 10.6968 430.15 16.4298 417.721L14.6137 416.884L12.7976 416.046C7.11356 428.368 1.40619 441.09 0.638409 454.407L2.63509 454.522ZM14.6137 416.884L16.4298 417.721C22.3129 404.967 36.3888 388.44 54.2373 369.663L52.7877 368.285L51.3381 366.907C33.5604 385.61 19.002 402.595 12.7976 416.046L14.6137 416.884ZM52.7877 368.285L54.2373 369.663C67.6411 355.562 81.2667 345.054 100.182 331.475L99.016 329.85L97.8496 328.226C78.8894 341.837 65.0114 352.523 51.3381 366.907L52.7877 368.285ZM99.016 329.85L100.137 331.507C112.037 323.45 128.749 312.924 164.192 294.981L163.288 293.197L162.385 291.413C126.814 309.42 109.953 320.031 97.8947 328.194L99.016 329.85ZM163.288 293.197L164.192 294.981C199.663 277.024 253.346 251.979 308.705 226.152L307.86 224.339L307.014 222.527C251.681 248.342 197.928 273.419 162.385 291.413L163.288 293.197Z" fill="#FFC294"/>
</svg>
