<svg width="1003" height="717" viewBox="0 0 1003 717" fill="none" xmlns="http://www.w3.org/2000/svg">
<path d="M351.802 172.591L353.09 174.122L351.802 172.591ZM513.499 28.7849L514.361 30.5895L513.499 28.7849ZM569.246 11.5198L568.782 9.57441L568.782 9.57441L569.246 11.5198ZM766.385 19.1577L765.821 21.0765L766.385 19.1577ZM938.603 152.279L936.939 153.388L936.939 153.388L938.603 152.279ZM970.854 249.07L968.895 249.472L970.854 249.07ZM973.543 319.359L975.543 319.357L973.543 319.359ZM682.621 647.899L682.202 645.943L682.621 647.899ZM518.527 657.997L518.419 659.994L518.527 657.997ZM230.241 548.557L228.857 550.001L230.241 548.557ZM176.282 468.629L178.056 467.704L178.056 467.704L176.282 468.629ZM158.736 322.36L156.792 321.887L158.736 322.36ZM173.999 289.172L172.24 288.22L173.999 289.172ZM273.045 137.617L271.579 136.257L271.579 136.257L273.045 137.617ZM313.38 102.738L312.181 101.137L312.181 101.137L313.38 102.738ZM504.303 36.5487L503.942 34.5816L504.303 36.5487ZM932.892 169.306L934.289 167.875L934.289 167.875L932.892 169.306ZM984.37 244.938L986.139 244.006L986.139 244.006L984.37 244.938ZM996.755 280.61L998.694 280.118L996.755 280.61ZM998.88 328.59L996.881 328.555L998.88 328.59ZM713.491 636.415L712.687 634.584L712.687 634.584L713.491 636.415ZM503.556 697.089L503.306 695.105L503.556 697.089ZM151.612 602.585L152.97 601.116L152.97 601.116L151.612 602.585ZM106.019 541.279L107.77 540.312L106.019 541.279ZM96.7201 479.601L98.7201 479.587L96.7201 479.601ZM160.945 358.388L162.508 359.635L162.508 359.635L160.945 358.388ZM316.855 210.304L315.629 208.724L315.629 208.724L316.855 210.304ZM515.11 108.145L515.724 110.049L515.11 108.145ZM589.707 89.1446L590.086 91.1084L589.707 89.1446ZM746.99 77.5627L747.085 75.565L746.99 77.5627ZM925.442 162.883L923.92 164.181L925.442 162.883ZM972.84 235.019L974.591 234.052L974.591 234.052L972.84 235.019ZM998.899 323.888L1000.88 323.626L998.899 323.888ZM703.088 644.237L702.556 642.31L703.088 644.237ZM518.618 672.311L518.69 674.309L518.618 672.311ZM133.634 594.348L134.766 592.7L133.634 594.348ZM98.2954 555.009L99.9569 553.896L99.9569 553.896L98.2954 555.009ZM80.0996 481.174L82.0854 480.936L80.0996 481.174ZM133.08 320.382L131.455 319.217L131.455 319.217L133.08 320.382ZM200.543 249.632L201.877 251.122L201.877 251.122L200.543 249.632ZM318.049 167.866L319.012 169.618L318.049 167.866ZM531.068 100.797L531.341 102.778L531.068 100.797ZM933.077 153.135L934.347 151.59L934.347 151.59L933.077 153.135ZM981.007 212.908L979.276 213.91L979.276 213.91L981.007 212.908ZM996.333 276.644L994.342 276.828L996.333 276.644ZM992.312 329.477L990.351 329.08L992.312 329.477ZM704.366 663.986L703.593 662.142L703.593 662.142L704.366 663.986ZM516.614 711.403L516.463 709.409L516.614 711.403ZM156.658 654.774L157.574 652.996L156.658 654.774ZM80.3728 606.244L79.1021 607.788L79.1021 607.788L80.3728 606.244ZM17.4418 532.64L15.753 533.711L15.753 533.711L17.4418 532.64ZM3.68045 493.6L1.715 493.97L3.68045 493.6ZM2.63509 455.522L0.638409 455.407L2.63509 455.522ZM99.016 330.851L97.8947 329.194L97.872 329.21L97.8496 329.226L99.016 330.851ZM340.963 179.1L341.28 181.075C345.802 180.348 349.48 177.158 353.09 174.122L351.802 172.591L350.515 171.061C346.641 174.319 343.852 176.61 340.645 177.125L340.963 179.1ZM513.499 28.7849L514.361 30.5895C526.013 25.0231 544.454 19.4929 569.711 13.4651L569.246 11.5198L568.782 9.57441C543.514 15.6049 524.706 21.2142 512.637 26.9802L513.499 28.7849ZM938.603 152.279L936.939 153.388C944.226 164.32 950.456 179.702 955.756 196.748C961.046 213.765 965.37 232.306 968.895 249.472L970.854 249.07L972.813 248.668C969.276 231.441 964.921 212.756 959.575 195.561C954.238 178.395 947.874 162.579 940.267 151.17L938.603 152.279ZM970.854 249.07L968.895 249.472C970.366 256.639 971.031 266.475 971.323 278.406C971.614 290.317 971.531 304.173 971.543 319.36L973.543 319.359L975.543 319.357C975.531 304.215 975.614 290.281 975.321 278.308C975.029 266.355 974.362 256.211 972.813 248.668L970.854 249.07ZM682.621 647.899L682.202 645.943C660.443 650.613 643.751 653.134 616.822 654.965L616.958 656.961L617.094 658.956C644.214 657.111 661.096 654.564 683.041 649.854L682.621 647.899ZM616.958 656.961L616.822 654.965C589.854 656.8 553.185 657.863 518.634 655.999L518.527 657.997L518.419 659.994C553.175 661.868 590.012 660.799 617.094 658.956L616.958 656.961ZM230.241 548.557L231.626 547.113C208.543 524.985 193.794 497.866 178.056 467.704L176.282 468.629L174.509 469.555C190.224 499.672 205.239 527.358 228.857 550.001L230.241 548.557ZM158.736 322.36L160.679 322.832C162.453 315.54 165.376 309.309 175.758 290.123L173.999 289.172L172.24 288.22C161.905 307.319 158.71 314.005 156.792 321.887L158.736 322.36ZM273.045 137.617L274.511 138.978C286.625 125.924 300.588 114.811 314.578 104.339L313.38 102.738L312.181 101.137C298.148 111.641 283.948 122.929 271.579 136.257L273.045 137.617ZM932.892 169.306L931.494 170.737C955.802 194.468 969.681 221.322 982.6 245.869L984.37 244.938L986.139 244.006C973.254 219.522 959.113 192.111 934.289 167.875L932.892 169.306ZM984.37 244.938L982.6 245.869C988.437 256.96 991.798 269.201 994.817 281.101L996.755 280.61L998.694 280.118C995.677 268.222 992.221 255.562 986.139 244.006L984.37 244.938ZM996.755 280.61L994.817 281.101C996.12 286.241 996.736 292.966 996.971 301.039C997.205 309.093 997.058 318.361 996.881 328.555L998.88 328.59L1000.88 328.625C1001.06 318.452 1001.21 309.087 1000.97 300.923C1000.73 292.776 1000.11 285.695 998.694 280.118L996.755 280.61ZM713.491 636.415L712.687 634.584C687.262 645.751 660.31 655.971 633.603 664.628L634.22 666.53L634.837 668.433C661.667 659.737 688.744 649.469 714.296 638.246L713.491 636.415ZM634.22 666.53L633.603 664.628C606.899 673.284 581.254 680.067 559.459 685.033L559.904 686.983L560.348 688.933C582.244 683.944 608.005 677.13 634.837 668.433L634.22 666.53ZM559.904 686.983L559.459 685.033C537.675 689.997 520.531 692.936 503.306 695.105L503.556 697.089L503.806 699.073C521.166 696.888 538.441 693.925 560.348 688.933L559.904 686.983ZM151.612 602.585L152.97 601.116C132.431 582.134 118.283 559.352 107.77 540.312L106.019 541.279L104.268 542.246C114.847 561.404 129.242 584.633 150.255 604.053L151.612 602.585ZM106.019 541.279L107.77 540.312C98.3516 523.256 98.8676 501.743 98.7201 479.587L96.7201 479.601L94.7202 479.614C94.865 501.356 94.2456 524.095 104.268 542.246L106.019 541.279ZM160.945 358.388L162.508 359.635C182.579 334.48 214.407 303.332 243.1 276.215L241.726 274.761L240.352 273.308C211.679 300.407 179.652 331.735 159.381 357.141L160.945 358.388ZM241.726 274.761L243.1 276.215C271.729 249.158 297.225 228.063 318.081 211.884L316.855 210.304L315.629 208.724C294.688 224.969 269.09 246.148 240.352 273.308L241.726 274.761ZM515.11 108.145L515.724 110.049C540.998 101.897 565.065 95.9367 590.086 91.1084L589.707 89.1446L589.328 87.1809C564.168 92.0361 539.942 98.0348 514.496 106.242L515.11 108.145ZM925.442 162.883L923.92 164.181C941.179 184.409 957.555 211.459 971.089 235.985L972.84 235.019L974.591 234.052C961.03 209.477 944.495 182.133 926.963 161.585L925.442 162.883ZM972.84 235.019L971.089 235.985C988.243 267.072 992.942 294.032 996.916 324.149L998.899 323.888L1000.88 323.626C996.89 293.378 992.116 265.811 974.591 234.052L972.84 235.019ZM703.088 644.237L702.556 642.31C672.873 650.499 639.133 657.375 608.178 662.097L608.48 664.074L608.781 666.051C639.863 661.309 673.76 654.403 703.62 646.165L703.088 644.237ZM608.48 664.074L608.178 662.097C577.245 666.816 550.13 669.174 518.546 670.312L518.618 672.311L518.69 674.309C550.409 673.166 577.679 670.796 608.781 666.051L608.48 664.074ZM133.634 594.348L134.766 592.7C120.033 582.573 109.571 568.246 99.9569 553.896L98.2954 555.009L96.6338 556.122C106.264 570.497 117.085 585.4 132.501 595.997L133.634 594.348ZM98.2954 555.009L99.9569 553.896C95.1933 546.786 91.6404 536.405 88.816 523.763C85.9997 511.156 83.9474 496.493 82.0854 480.936L80.0996 481.174L78.1138 481.412C79.9784 496.99 82.0495 511.82 84.9122 524.635C87.7669 537.413 91.4485 548.383 96.6338 556.122L98.2954 555.009ZM133.08 320.382L134.705 321.548C150.637 299.339 172.062 277.815 201.877 251.122L200.543 249.632L199.209 248.142C169.341 274.882 147.649 296.641 131.455 319.217L133.08 320.382ZM200.543 249.632L201.877 251.122C219.782 235.093 246.019 216.728 267.112 202.089L265.972 200.446L264.831 198.803C243.789 213.406 217.334 231.916 199.209 248.142L200.543 249.632ZM265.972 200.446L267.112 202.089C288.126 187.505 303.698 178.04 319.012 169.618L318.049 167.866L317.085 166.113C301.643 174.605 285.953 184.144 264.831 198.803L265.972 200.446ZM933.077 153.135L931.806 154.679C955.04 173.788 968.433 195.197 979.276 213.91L981.007 212.908L982.737 211.905C971.834 193.09 958.151 171.168 934.347 151.59L933.077 153.135ZM981.007 212.908L979.276 213.91C989.527 231.6 992.033 251.925 994.342 276.828L996.333 276.644L998.325 276.459C996.025 251.651 993.49 230.462 982.737 211.905L981.007 212.908ZM996.333 276.644L994.342 276.828C996.126 296.08 993.498 313.566 990.351 329.08L992.312 329.477L994.272 329.875C997.447 314.223 1000.16 296.288 998.325 276.459L996.333 276.644ZM704.366 663.986L703.593 662.142C685.582 669.686 666.556 676.79 647.32 683.069L647.94 684.971L648.561 686.872C667.901 680.559 687.029 673.417 705.139 665.831L704.366 663.986ZM647.94 684.971L647.32 683.069C628.089 689.347 609.23 694.582 589.156 699.035L589.589 700.988L590.022 702.94C610.231 698.457 629.216 693.187 648.561 686.872L647.94 684.971ZM589.589 700.988L589.156 699.035C569.105 703.482 548.41 706.991 516.463 709.409L516.614 711.403L516.765 713.397C548.905 710.965 569.789 707.428 590.022 702.94L589.589 700.988ZM156.658 654.774L157.574 652.996C119.864 633.576 95.031 615.713 81.6435 604.699L80.3728 606.244L79.1021 607.788C92.7132 618.986 117.785 637.005 155.743 656.552L156.658 654.774ZM80.3728 606.244L81.6435 604.699C55.1053 582.866 35.311 557.075 19.1307 531.569L17.4418 532.64L15.753 533.711C32.0658 559.427 52.124 585.593 79.1021 607.788L80.3728 606.244ZM17.4418 532.64L19.1307 531.569C11.1626 519.008 7.9367 505.394 5.64589 493.23L3.68045 493.6L1.715 493.97C4.02401 506.231 7.35731 520.476 15.753 533.711L17.4418 532.64ZM3.68045 493.6L5.64589 493.23C3.36359 481.112 3.89707 468.381 4.63178 455.637L2.63509 455.522L0.638409 455.407C-0.0943544 468.117 -0.669736 481.308 1.715 493.97L3.68045 493.6ZM99.016 330.851L100.137 332.507C112.037 324.451 128.749 313.924 164.192 295.981L163.288 294.197L162.385 292.413C126.814 310.42 109.953 321.031 97.8947 329.194L99.016 330.851ZM163.288 294.197L164.192 295.981C199.663 278.024 253.346 252.979 308.705 227.152L307.86 225.34L307.014 223.527C251.681 249.342 197.928 274.42 162.385 292.413L163.288 294.197ZM569.246 11.5198L569.711 13.4651C633.765 -1.82215 703.14 2.65048 765.821 21.0765L766.385 19.1577L766.949 17.2389C703.707 -1.35212 633.617 -5.89907 568.782 9.57441L569.246 11.5198ZM589.707 89.1446L590.086 91.1084C641.567 81.174 694.514 77.0727 746.895 79.5605L746.99 77.5627L747.085 75.565C694.371 73.0614 641.105 77.1892 589.328 87.1809L589.707 89.1446ZM518.527 657.997L518.634 655.999C412.533 650.277 309.274 621.552 231.626 547.113L230.241 548.557L228.857 550.001C307.457 625.351 411.797 654.243 518.419 659.994L518.527 657.997ZM503.556 697.089L503.306 695.105C378.139 710.862 247.347 688.343 152.97 601.116L151.612 602.585L150.255 604.053C245.789 692.349 377.926 714.921 503.806 699.073L503.556 697.089ZM518.618 672.311L518.546 670.312C457.674 672.505 387.458 670.809 319.567 659.695C251.659 648.578 186.21 628.059 134.766 592.7L133.634 594.348L132.501 595.997C184.614 631.817 250.704 652.475 318.921 663.643C387.157 674.813 457.655 676.509 518.69 674.309L518.618 672.311ZM516.614 711.403L516.463 709.409C393.04 718.75 268.854 710.302 157.574 652.996L156.658 654.774L155.743 656.552C267.969 714.346 393.015 722.763 516.765 713.397L516.614 711.403ZM176.282 468.629L178.056 467.704C156.13 425.685 149.441 369.023 160.679 322.832L158.736 322.36L156.792 321.887C145.329 369.007 152.129 426.664 174.509 469.555L176.282 468.629ZM96.7201 479.601L98.7201 479.587C98.5684 456.818 107.658 435.36 120.283 415.266C132.923 395.147 148.937 376.645 162.508 359.635L160.945 358.388L159.381 357.141C145.949 373.977 129.695 392.767 116.896 413.138C104.082 433.532 94.5612 455.757 94.7202 479.614L96.7201 479.601ZM80.0996 481.174L82.0854 480.936C74.8948 420.859 100.173 369.685 134.705 321.548L133.08 320.382L131.455 319.217C96.7275 367.626 70.7437 419.836 78.1138 481.412L80.0996 481.174ZM2.63509 455.522L4.63178 455.637C6.11983 429.827 20.0687 406.121 38.738 385.244C57.3927 364.384 80.5779 346.549 100.182 332.475L99.016 330.851L97.8496 329.226C78.1943 343.336 54.7145 361.378 35.7563 382.578C16.8129 403.761 2.20118 428.3 0.638409 455.407L2.63509 455.522ZM351.802 172.591L353.09 174.122C381.771 150.001 404.537 122.38 428.779 96.8244C453.083 71.2043 479.024 47.4716 514.361 30.5895L513.499 28.7849L512.637 26.9802C476.646 44.1745 450.306 68.32 425.877 94.0715C401.387 119.888 378.968 147.132 350.515 171.061L351.802 172.591ZM313.38 102.738L314.578 104.339C367.179 64.9656 440.848 50.2263 504.664 38.5159L504.303 36.5487L503.942 34.5816C440.293 46.2614 365.658 61.1081 312.181 101.137L313.38 102.738ZM316.855 210.304L318.081 211.884C376.861 166.287 444.963 132.872 515.724 110.049L515.11 108.145L514.496 106.242C443.374 129.181 374.838 162.793 315.629 208.724L316.855 210.304ZM318.049 167.866L319.012 169.618C384.214 133.764 457.837 112.901 531.341 102.778L531.068 100.797L530.795 98.8152C456.933 108.987 382.815 129.969 317.085 166.113L318.049 167.866ZM173.999 289.172L175.758 290.123C204.243 237.48 233.805 182.839 274.511 138.978L273.045 137.617L271.579 136.257C230.469 180.554 200.678 235.662 172.24 288.22L173.999 289.172ZM766.385 19.1577L765.821 21.0765C832.831 40.7755 898.699 96.0322 936.939 153.388L938.603 152.279L940.267 151.17C901.623 93.2065 835.042 37.2562 766.949 17.2389L766.385 19.1577ZM504.303 36.5487L504.664 38.5159C664.267 9.2285 817.51 59.4552 931.494 170.737L932.892 169.306L934.289 167.875C819.414 55.7234 664.873 5.0505 503.942 34.5816L504.303 36.5487ZM746.99 77.5627L746.895 79.5605C815.528 82.8201 879.091 111.64 923.92 164.181L925.442 162.883L926.963 161.585C881.36 108.137 816.731 78.8727 747.085 75.565L746.99 77.5627ZM531.068 100.797L531.341 102.778C675.047 82.9866 815.378 58.9203 931.806 154.679L933.077 153.135L934.347 151.59C816.314 54.5113 673.995 79.0938 530.795 98.8152L531.068 100.797ZM973.543 319.359L971.543 319.36C971.687 494.001 846.527 610.678 682.202 645.943L682.621 647.899L683.041 649.854C848.702 614.302 975.689 496.36 975.543 319.357L973.543 319.359ZM998.88 328.59L996.881 328.555C995.622 400.867 953.128 464.866 896.482 517.143C839.863 569.395 769.358 609.692 712.687 634.584L713.491 636.415L714.296 638.246C771.243 613.233 842.16 572.718 899.195 520.082C956.203 467.472 999.594 402.511 1000.88 328.625L998.88 328.59ZM998.899 323.888L996.916 324.149C1008.24 409.977 970.619 479.546 912.101 532.711C853.545 585.91 774.187 622.549 702.556 642.31L703.088 644.237L703.62 646.165C775.658 626.292 855.64 589.411 914.791 535.672C973.978 481.898 1012.43 411.11 1000.88 323.626L998.899 323.888ZM992.312 329.477L990.351 329.08C961.016 473.696 836.17 606.608 703.593 662.142L704.366 663.986L705.139 665.831C838.728 609.873 964.63 475.998 994.272 329.875L992.312 329.477Z" fill="#FFC294"/>
</svg>
