<svg width="976" height="757" viewBox="0 0 976 757" fill="none" xmlns="http://www.w3.org/2000/svg">
<path d="M9.64834 343.213L11.6362 342.993L9.64834 343.213ZM198.587 132.695L197.639 130.933L198.587 132.695ZM420.994 44.1364L421.46 46.0815L421.46 46.0815L420.994 44.1364ZM596.255 34.4255L596.501 32.4408L596.255 34.4255ZM818.275 158.808L819.73 157.436L819.73 157.436L818.275 158.808ZM873.083 232.951L874.769 231.876L874.769 231.876L873.083 232.951ZM913.867 321.125L915.745 320.435L913.867 321.125ZM932.494 412.817L934.486 412.634L932.494 412.817ZM902.939 570.563L901.122 569.728L902.939 570.563ZM737.274 719.104L736.502 717.259L736.502 717.259L737.274 719.104ZM640.986 739.337L641.185 741.327L640.986 739.337ZM274.629 704.077L274.131 706.014L274.629 704.077ZM114.759 642.302L113.684 643.989L113.684 643.989L114.759 642.302ZM66.0781 599.478L67.5324 598.105L66.0781 599.478ZM2.00275 383.871L0.00277746 383.881L2.00275 383.871ZM104.039 152.54L105.487 153.919L104.039 152.54ZM169.99 107.069L169.109 105.274L169.109 105.274L169.99 107.069ZM252.116 83.0149L251.741 81.0502L252.116 83.0149ZM408.613 86.8322L409.017 84.8735L408.613 86.8322ZM576.707 148.377L575.821 150.17L576.707 148.377ZM800.51 303.077L799.111 304.506L800.51 303.077ZM910.728 425.735L909.101 426.899L909.101 426.899L910.728 425.735ZM971.998 564.48L973.978 564.201L971.998 564.48ZM969.963 620.145L967.989 619.825L969.963 620.145ZM946.583 664.284L944.993 663.071L946.583 664.284ZM905.304 696.582L904.301 694.852L905.304 696.582ZM649.106 717.621L648.857 719.606L649.106 717.621ZM298.135 638.352L298.799 636.466L298.135 638.352ZM61.5666 442.592L59.6876 443.277L61.5666 442.592ZM49.4691 379.334L51.464 379.191L49.4691 379.334ZM54.2137 321.004L56.1782 321.379L56.1782 321.379L54.2137 321.004ZM166.457 154.647L165.271 153.037L166.457 154.647ZM233.583 121.972L232.899 120.093L233.583 121.972ZM415.374 106.369L415.222 108.364L415.374 106.369ZM582.355 149.682L583.029 147.799L582.355 149.682ZM834.639 288.277L833.328 289.788L834.639 288.277ZM867.569 331.066L865.83 332.052L867.569 331.066ZM877.687 374.904L879.685 374.824L877.687 374.904ZM866.85 421.667L868.697 422.433L868.697 422.433L866.85 421.667ZM582.274 578.551L582.746 580.495L582.274 578.551ZM270.354 613.81L270.28 615.809L270.354 613.81ZM86.0089 463.559L84.0092 463.521L86.0089 463.559ZM94.3521 415.551L92.4315 414.993L92.4315 414.993L94.3521 415.551ZM135.054 330.769L133.301 329.807L135.054 330.769ZM242.78 175.451L244.291 176.761L244.291 176.761L242.78 175.451ZM774.081 190.732L775.458 189.282L774.081 190.732ZM834.649 263.151L833.03 264.326L834.649 263.151ZM882.883 349.102L884.705 348.276L882.883 349.102ZM912.714 441.614L910.772 442.095L912.714 441.614ZM916.234 612.825L918.158 613.374L916.234 612.825ZM882.537 670.601L880.988 669.336L882.537 670.601ZM754.253 740.844L754.748 742.782L754.253 740.844ZM621.065 753.982L621.112 755.981L621.065 753.982ZM293.318 693.572L294.041 691.707L294.041 691.707L293.318 693.572ZM55.2257 433.915L57.1599 433.407L55.2257 433.915ZM42.6155 354.314L40.6239 354.498L42.6155 354.314ZM92.221 129.762L93.9976 130.681L92.221 129.762ZM142.087 62.7811L140.671 61.3687L140.671 61.3687L142.087 62.7811ZM210.455 22.5793L211.202 24.4344L211.202 24.4344L210.455 22.5793ZM398.4 15.9515L398.813 13.9946L398.4 15.9515ZM603.143 102.84L604.215 101.152L604.215 101.152L603.143 102.84ZM804.622 305.899L806.301 304.811L806.301 304.811L804.622 305.899ZM845.573 393.087L847.46 392.424L845.573 393.087ZM746.74 586.926L747.51 588.772L746.74 586.926ZM668.248 605.408L668.538 607.387L668.248 605.408ZM589.896 610.84L589.837 608.841L589.896 610.84ZM151.706 362.116L149.746 362.513L151.706 362.116ZM199.242 115.003L200.99 115.974L199.242 115.003ZM240.923 66.3344L239.587 64.846L240.923 66.3344ZM604.258 145.284L605.579 143.782L604.258 145.284ZM760.65 396.541L758.752 397.173L760.65 396.541ZM741.815 616.469L740.167 615.336L741.815 616.469ZM696.441 652.612L697.467 654.328L697.467 654.328L696.441 652.612ZM637.303 675.343L637.854 677.266L637.854 677.266L637.303 675.343ZM560.034 686.982L559.879 684.988L560.034 686.982ZM268.525 633.981L269.324 632.148L268.525 633.981ZM84.9517 436.637L86.889 436.14L84.9517 436.637ZM74.9631 360.817L72.967 360.941L74.9631 360.817ZM116.326 141.216L118.176 141.976L118.176 141.976L116.326 141.216ZM159.34 68.9723L160.92 70.1997L160.92 70.1997L159.34 68.9723ZM221.956 20.8075L222.892 22.5755L222.892 22.5755L221.956 20.8075ZM404.413 18.6297L403.85 20.5487L404.413 18.6297ZM774.483 341.93L772.718 342.87L774.483 341.93ZM800.426 397.213L798.573 397.965L800.426 397.213ZM684.868 650.985L685.022 652.979L685.059 652.976L685.096 652.972L684.868 650.985ZM12.5486 419.408L14.5444 419.537C15.04 411.852 16.2112 384.401 11.6362 342.993L9.64834 343.213L7.66044 343.433C12.2063 384.578 11.0355 411.793 10.5527 419.279L12.5486 419.408ZM818.275 158.808L816.82 160.181C836.97 181.54 854.36 207.294 871.396 234.025L873.083 232.951L874.769 231.876C857.721 205.126 840.16 179.092 819.73 157.436L818.275 158.808ZM873.083 232.951L871.396 234.025C888.574 260.981 900.756 291.208 911.99 321.814L913.867 321.125L915.745 320.435C904.497 289.792 892.195 259.218 874.769 231.876L873.083 232.951ZM913.867 321.125L911.99 321.814C923.453 353.046 927.881 384.424 930.503 413L932.494 412.817L934.486 412.634C931.853 383.936 927.387 352.153 915.745 320.435L913.867 321.125ZM737.274 719.104L736.502 717.259C710.709 728.057 683.232 733.101 640.787 737.347L640.986 739.337L641.185 741.327C683.734 737.07 711.691 731.982 738.046 720.949L737.274 719.104ZM114.759 642.302L115.834 640.616C97.9862 629.238 82.4765 613.934 67.5324 598.105L66.0781 599.478L64.6238 600.851C79.5964 616.711 95.3908 632.327 113.684 643.989L114.759 642.302ZM104.039 152.54L105.487 153.919C124.522 133.931 147.861 120.147 170.87 108.865L169.99 107.069L169.109 105.274C145.936 116.636 122.105 130.669 102.591 151.161L104.039 152.54ZM169.99 107.069L170.87 108.865C194.627 97.2167 222.603 90.6738 252.49 84.9795L252.116 83.0149L251.741 81.0502C221.826 86.7499 193.387 93.3696 169.109 105.274L169.99 107.069ZM800.51 303.077L799.111 304.506C820.641 325.593 848.294 354.471 868.14 376.548L869.627 375.211L871.115 373.874C851.212 351.734 823.501 322.795 801.91 301.648L800.51 303.077ZM869.627 375.211L868.14 376.548C887.968 398.604 899.149 412.977 909.101 426.899L910.728 425.735L912.355 424.572C902.311 410.523 891.036 396.034 871.115 373.874L869.627 375.211ZM971.998 564.48L970.017 564.759C972.748 584.161 970.737 602.883 967.989 619.825L969.963 620.145L971.938 620.465C974.706 603.396 976.793 584.203 973.978 564.201L971.998 564.48ZM969.963 620.145L967.989 619.825C965.444 635.516 955.426 649.396 944.993 663.071L946.583 664.284L948.173 665.497C958.523 651.932 969.208 637.292 971.938 620.465L969.963 620.145ZM946.583 664.284L944.993 663.071C935.165 675.952 920.537 685.444 904.301 694.852L905.304 696.582L906.306 698.313C922.54 688.907 937.813 679.076 948.173 665.497L946.583 664.284ZM61.5666 442.592L63.4455 441.906C55.477 420.058 52.8404 398.429 51.464 379.191L49.4691 379.334L47.4742 379.477C48.8601 398.847 51.53 420.909 59.6876 443.277L61.5666 442.592ZM49.4691 379.334L51.464 379.191C50.1037 360.18 52.4676 340.789 56.1782 321.379L54.2137 321.004L52.2493 320.628C48.5106 340.185 46.0782 359.966 47.4742 379.477L49.4691 379.334ZM166.457 154.647L167.644 156.257C186.904 142.062 209.889 132.724 234.267 123.851L233.583 121.972L232.899 120.093C208.501 128.973 185.035 138.471 165.271 153.037L166.457 154.647ZM834.639 288.277L833.328 289.788C848.333 302.802 857.741 317.789 865.83 332.052L867.569 331.066L869.309 330.079C861.164 315.715 851.484 300.24 835.949 286.766L834.639 288.277ZM867.569 331.066L865.83 332.052C873.39 345.385 875.104 360.464 875.688 374.984L877.687 374.904L879.685 374.824C879.096 360.185 877.367 344.288 869.309 330.079L867.569 331.066ZM877.687 374.904L875.688 374.984C876.26 389.196 871.708 404.726 865.002 420.901L866.85 421.667L868.697 422.433C875.465 406.109 880.293 389.923 879.685 374.824L877.687 374.904ZM86.0089 463.559L88.0085 463.597C88.2977 448.279 91.5518 432.369 96.2728 416.109L94.3521 415.551L92.4315 414.993C87.6605 431.426 84.3077 447.712 84.0092 463.521L86.0089 463.559ZM94.3521 415.551L96.2728 416.109C101.022 399.753 112.95 375.223 136.808 331.731L135.054 330.769L133.301 329.807C109.487 373.22 97.3248 398.14 92.4315 414.993L94.3521 415.551ZM774.081 190.732L772.703 192.182C794.603 212.993 813.819 237.868 833.03 264.326L834.649 263.151L836.267 261.976C817.034 235.488 797.64 210.361 775.458 189.282L774.081 190.732ZM834.649 263.151L833.03 264.326C853.107 291.976 868.211 321.589 881.062 349.928L882.883 349.102L884.705 348.276C871.807 319.832 856.573 289.942 836.267 261.976L834.649 263.151ZM882.883 349.102L881.062 349.928C894.193 378.887 902.952 410.539 910.772 442.095L912.714 441.614L914.655 441.133C906.827 409.543 897.997 377.589 884.705 348.276L882.883 349.102ZM916.234 612.825L914.311 612.277C908.192 633.725 895.019 652.149 880.988 669.336L882.537 670.601L884.086 671.866C898.177 654.607 911.802 635.652 918.158 613.374L916.234 612.825ZM754.253 740.844L753.759 738.906C741.021 742.154 727.381 744.279 705.337 746.646L705.551 748.634L705.765 750.623C727.871 748.249 741.733 746.101 754.748 742.782L754.253 740.844ZM705.551 748.634L705.337 746.646C683.317 749.01 653.311 751.216 621.017 751.982L621.065 753.982L621.112 755.981C653.52 755.212 683.636 752.999 705.765 750.623L705.551 748.634ZM55.2257 433.915L57.1599 433.407C50.2747 407.233 47.0281 380.42 44.6071 354.131L42.6155 354.314L40.6239 354.498C43.05 380.841 46.3197 407.921 53.2915 434.424L55.2257 433.915ZM92.221 129.762L93.9976 130.681C107.621 104.333 125.402 82.3405 143.503 64.1935L142.087 62.7811L140.671 61.3687C122.359 79.7268 104.302 102.044 90.4445 128.843L92.221 129.762ZM142.087 62.7811L143.503 64.1935C161.502 46.1494 185.813 34.6614 211.202 24.4344L210.455 22.5793L209.707 20.7241C184.276 30.9682 159.29 42.7024 140.671 61.3687L142.087 62.7811ZM804.622 305.899L802.944 306.987C821.556 335.704 834.016 366.204 843.685 393.749L845.573 393.087L847.46 392.424C837.746 364.754 825.163 333.914 806.301 304.811L804.622 305.899ZM746.74 586.926L745.97 585.081C724.987 593.835 700.937 598.604 667.959 603.429L668.248 605.408L668.538 607.387C701.546 602.558 726.028 597.735 747.51 588.772L746.74 586.926ZM668.248 605.408L667.959 603.429C647.469 606.427 618.759 607.989 589.837 608.841L589.896 610.84L589.955 612.84C618.89 611.987 647.801 610.421 668.538 607.387L668.248 605.408ZM199.242 115.003L200.99 115.974C211.327 97.3669 226.245 82.1983 242.259 67.8227L240.923 66.3344L239.587 64.846C223.487 79.2987 208.163 94.8269 197.494 114.032L199.242 115.003ZM741.815 616.469L740.167 615.336C729.514 630.83 712.59 640.629 695.415 650.895L696.441 652.612L697.467 654.328C714.426 644.192 732.217 633.959 743.463 617.602L741.815 616.469ZM696.441 652.612L695.415 650.895C678.18 661.197 657.843 667.377 636.752 673.42L637.303 675.343L637.854 677.266C658.895 671.237 679.72 664.936 697.467 654.328L696.441 652.612ZM637.303 675.343L636.752 673.42C615.241 679.583 591.129 682.564 559.879 684.988L560.034 686.982L560.189 688.976C591.486 686.549 615.934 683.546 637.854 677.266L637.303 675.343ZM84.9517 436.637L86.889 436.14C81.2112 414.015 78.8107 390.412 76.9592 360.692L74.9631 360.817L72.967 360.941C74.8213 390.707 77.2379 414.624 83.0145 437.134L84.9517 436.637ZM116.326 141.216L118.176 141.976C129.417 114.61 144.948 90.7477 160.92 70.1997L159.34 68.9723L157.761 67.7449C141.646 88.4776 125.896 112.654 114.476 140.456L116.326 141.216ZM159.34 68.9723L160.92 70.1997C176.911 49.627 199.474 34.9618 222.892 22.5755L221.956 20.8075L221.021 19.0396C197.452 31.506 174.281 46.4925 157.761 67.7449L159.34 68.9723ZM774.483 341.93L772.718 342.87C782.602 361.438 791.177 379.731 798.573 397.965L800.426 397.213L802.279 396.461C794.829 378.092 786.194 359.674 776.249 340.99L774.483 341.93ZM684.868 650.985L684.715 648.991C669.136 650.189 653.606 650.229 577.219 637.576L576.892 639.549L576.565 641.522C652.961 654.177 668.915 654.217 685.022 652.979L684.868 650.985ZM596.255 34.4255L596.008 36.4102C680.663 46.9336 759.336 99.246 816.82 160.181L818.275 158.808L819.73 157.436C761.87 96.1039 682.4 43.1188 596.501 32.4408L596.255 34.4255ZM576.707 148.377L575.821 150.17C655.547 189.572 735.547 242.253 799.111 304.506L800.51 303.077L801.91 301.648C737.979 239.035 657.605 186.128 577.593 146.584L576.707 148.377ZM582.355 149.682L581.68 151.565C670.507 183.384 761.79 227.74 833.328 289.788L834.639 288.277L835.949 286.766C763.89 224.266 672.097 179.704 583.029 147.799L582.355 149.682ZM603.143 102.84L602.07 104.528C684.069 156.636 750.089 225.439 802.944 306.987L804.622 305.899L806.301 304.811C753.172 222.84 686.756 153.604 604.215 101.152L603.143 102.84ZM604.258 145.284L602.937 146.785C676.31 211.342 728.182 305.347 758.752 397.173L760.65 396.541L762.547 395.909C731.834 303.653 679.646 208.95 605.579 143.782L604.258 145.284ZM66.0781 599.478L67.5324 598.105C12.5379 539.852 4.37984 460.823 4.00273 383.861L2.00275 383.871L0.00277746 383.881C0.380208 460.907 8.47884 541.38 64.6238 600.851L66.0781 599.478ZM640.986 739.337L640.787 737.347C517.593 749.672 394.549 732.83 275.127 702.14L274.629 704.077L274.131 706.014C393.837 736.777 517.375 753.714 641.185 741.327L640.986 739.337ZM649.106 717.621L649.355 715.637C530.416 700.709 411.918 676.309 298.799 636.466L298.135 638.352L297.47 640.239C410.926 680.201 529.716 704.653 648.857 719.606L649.106 717.621ZM582.274 578.551L581.801 576.608C479.491 601.484 375.718 615.671 270.427 611.811L270.354 613.81L270.28 615.809C376.027 619.685 480.177 605.434 582.746 580.495L582.274 578.551ZM621.065 753.982L621.017 751.982C506.849 754.69 400.622 733.036 294.041 691.707L293.318 693.572L292.595 695.437C399.595 736.928 506.345 758.703 621.112 755.981L621.065 753.982ZM589.896 610.84L589.837 608.841C499.933 611.49 401.143 600.741 319.705 563.783C238.345 526.861 174.347 463.818 153.666 361.719L151.706 362.116L149.746 362.513C170.73 466.109 235.764 530.082 318.052 567.425C400.26 604.733 499.732 615.498 589.955 612.84L589.896 610.84ZM560.034 686.982L559.879 684.988C462.53 692.54 358.279 670.928 269.324 632.148L268.525 633.981L267.726 635.814C357.178 674.812 462.084 696.587 560.189 688.976L560.034 686.982ZM932.494 412.817L930.503 413C935.549 467.99 923.991 519.946 901.122 569.728L902.939 570.563L904.757 571.398C927.86 521.106 939.607 468.448 934.486 412.634L932.494 412.817ZM910.728 425.735L909.101 426.899C939.234 469.05 962.794 513.441 970.017 564.759L971.998 564.48L973.978 564.201C966.629 511.985 942.672 466.981 912.355 424.572L910.728 425.735ZM866.85 421.667L865.002 420.901C844.708 469.851 796.795 503.294 742.261 527.281C687.774 551.247 627.107 565.592 581.801 576.608L582.274 578.551L582.746 580.495C627.978 569.497 689.003 555.076 743.872 530.942C798.694 506.828 847.8 472.836 868.697 422.433L866.85 421.667ZM912.714 441.614L910.772 442.095C924.146 496.061 929.651 558.504 914.311 612.277L916.234 612.825L918.158 613.374C933.766 558.662 928.113 495.443 914.655 441.133L912.714 441.614ZM845.573 393.087L843.685 393.749C858.822 436.867 853.912 476.489 835.53 509.41C817.125 542.374 785.14 568.738 745.97 585.081L746.74 586.926L747.51 588.772C787.344 572.152 820.101 545.249 839.023 511.36C857.969 477.429 862.972 436.613 847.46 392.424L845.573 393.087ZM760.65 396.541L758.752 397.173C782.154 467.465 782.765 553.377 740.167 615.336L741.815 616.469L743.463 617.602C787.024 554.243 786.18 466.894 762.547 395.909L760.65 396.541ZM198.587 132.695L199.534 134.456C271.098 95.9576 342.575 64.9644 421.46 46.0815L420.994 44.1364L420.528 42.1914C341.202 61.18 269.393 92.3326 197.639 130.933L198.587 132.695ZM252.116 83.0149L252.49 84.9795C303.071 75.3425 357.797 78.3869 408.209 88.7909L408.613 86.8322L409.017 84.8735C358.234 74.3926 302.962 71.2913 251.741 81.0502L252.116 83.0149ZM233.583 121.972L234.267 123.851C292.064 102.815 354.426 103.741 415.222 108.364L415.374 106.369L415.525 104.375C354.654 99.747 291.554 98.7441 232.899 120.093L233.583 121.972ZM210.455 22.5793L211.202 24.4344C268.236 1.46003 338.737 5.3973 397.986 17.9083L398.4 15.9515L398.813 13.9946C339.262 1.41992 267.826 -2.68738 209.707 20.7241L210.455 22.5793ZM221.956 20.8075L222.892 22.5755C249.185 8.66846 280.616 4.09306 312.449 5.04842C344.27 6.00338 376.358 12.4808 403.85 20.5487L404.413 18.6297L404.976 16.7106C377.258 8.5765 344.823 2.01817 312.569 1.05022C280.33 0.0826599 248.138 4.69719 221.021 19.0396L221.956 20.8075ZM420.994 44.1364L421.46 46.0815C478.598 32.4043 537.754 29.1688 596.008 36.4102L596.255 34.4255L596.501 32.4408C537.774 25.1405 478.135 28.402 420.528 42.1914L420.994 44.1364ZM408.613 86.8322L408.209 88.7909C466.256 100.771 522.71 123.921 575.821 150.17L576.707 148.377L577.593 146.584C524.335 120.263 467.536 96.9509 409.017 84.8735L408.613 86.8322ZM415.374 106.369L415.222 108.364C471.29 112.626 528.875 132.65 581.68 151.565L582.355 149.682L583.029 147.799C530.296 128.91 472.215 108.685 415.525 104.375L415.374 106.369ZM242.78 175.451L244.291 176.761C317.758 92.0078 412.194 60.1672 507.075 67.3187C602.018 74.4748 697.47 120.689 772.703 192.182L774.081 190.732L775.458 189.282C699.663 117.255 603.373 70.5656 507.376 63.33C411.318 56.0898 315.618 88.369 241.268 174.141L242.78 175.451ZM398.4 15.9515L397.986 17.9083C469.911 33.096 540.068 65.1276 602.07 104.528L603.143 102.84L604.215 101.152C541.912 61.5603 471.312 29.3035 398.813 13.9946L398.4 15.9515ZM240.923 66.3344L242.259 67.8227C296.939 18.7397 364.438 18.5712 429.797 40.7279C495.187 62.8951 558.082 107.32 602.937 146.785L604.258 145.284L605.579 143.782C560.524 104.141 497.171 59.3439 431.081 36.9396C364.96 14.5247 295.746 14.4349 239.587 64.846L240.923 66.3344ZM404.413 18.6297L403.85 20.5487C563.363 67.3596 696.833 200.313 772.718 342.87L774.483 341.93L776.249 340.99C700.011 197.77 565.796 63.905 404.976 16.7106L404.413 18.6297ZM9.64834 343.213L11.6362 342.993C5.8024 290.19 32.4223 248.959 70.849 215.379C109.314 181.766 159.28 156.111 199.534 134.456L198.587 132.695L197.639 130.933C157.539 152.506 107.1 178.389 68.217 212.367C29.2955 246.379 1.62368 288.793 7.66044 343.433L9.64834 343.213ZM2.00275 383.871L4.00273 383.861C3.59446 300.541 49.0499 213.184 105.487 153.919L104.039 152.54L102.591 151.161C45.6762 210.927 -0.412018 299.229 0.00277746 383.881L2.00275 383.871ZM54.2137 321.004L56.1782 321.379C68.9679 254.476 113.803 195.938 167.644 156.257L166.457 154.647L165.271 153.037C110.852 193.144 65.2763 252.483 52.2493 320.628L54.2137 321.004ZM135.054 330.769L136.808 331.731C166.814 277.03 203.409 223.923 244.291 176.761L242.78 175.451L241.268 174.141C200.193 221.527 163.437 274.869 133.301 329.807L135.054 330.769ZM42.6155 354.314L44.6071 354.131C37.3487 275.317 57.9046 200.482 93.9976 130.681L92.221 129.762L90.4445 128.843C54.1029 199.126 33.2775 274.728 40.6239 354.498L42.6155 354.314ZM151.706 362.116L153.666 361.719C136.976 279.322 160.823 188.278 200.99 115.974L199.242 115.003L197.494 114.032C157.026 186.877 132.809 278.901 149.746 362.513L151.706 362.116ZM74.9631 360.817L76.9592 360.692C72.3113 286.082 89.9309 210.741 118.176 141.976L116.326 141.216L114.476 140.456C86.0762 209.598 68.2708 285.556 72.967 360.941L74.9631 360.817ZM902.939 570.563L901.122 569.728C869.245 639.116 805.759 688.267 736.502 717.259L737.274 719.104L738.046 720.949C807.908 691.704 872.336 641.971 904.757 571.398L902.939 570.563ZM905.304 696.582L904.301 694.852C868.447 715.626 824.48 723.332 779.502 724.571C734.538 725.809 688.757 720.582 649.355 715.637L649.106 717.621L648.857 719.606C688.258 724.551 734.311 729.817 779.612 728.569C824.901 727.322 869.63 719.564 906.306 698.313L905.304 696.582ZM882.537 670.601L880.988 669.336C850.398 706.804 799.711 727.186 753.759 738.906L754.253 740.844L754.748 742.782C800.904 731.01 852.655 710.364 884.086 671.866L882.537 670.601ZM800.426 397.213L798.573 397.965C825.431 464.184 832.579 522.888 815.357 566.952C798.213 610.817 756.665 640.761 684.641 648.998L684.868 650.985L685.096 652.972C758.067 644.627 801.23 614.084 819.082 568.408C836.856 522.932 829.285 463.041 802.279 396.461L800.426 397.213ZM274.629 704.077L275.127 702.14C219.811 687.924 164.085 671.374 115.834 640.616L114.759 642.302L113.684 643.989C162.516 675.118 218.788 691.791 274.131 706.014L274.629 704.077ZM298.135 638.352L298.799 636.466C195.677 600.143 103.177 550.844 63.4455 441.906L61.5666 442.592L59.6876 443.277C100.069 553.998 194.114 603.834 297.47 640.239L298.135 638.352ZM270.354 613.81L270.427 611.811C223.978 610.109 177.797 600.11 143.545 577.031C109.417 554.035 86.9821 517.963 88.0085 463.597L86.0089 463.559L84.0092 463.521C82.9571 519.252 106.062 556.598 141.31 580.348C176.434 604.015 223.464 614.093 270.28 615.809L270.354 613.81ZM293.318 693.572L294.041 691.707C172.368 644.527 91.4117 563.614 57.1599 433.407L55.2257 433.915L53.2915 434.424C87.9049 566.006 169.863 647.846 292.595 695.437L293.318 693.572ZM268.525 633.981L269.324 632.148C183.778 594.854 110.578 528.452 86.889 436.14L84.9517 436.637L83.0145 437.134C107.102 530.998 181.439 598.197 267.726 635.814L268.525 633.981Z" fill="#FFC294"/>
</svg>
