<svg width="530" height="371" viewBox="0 0 530 371" fill="none" xmlns="http://www.w3.org/2000/svg">
<path d="M233.815 5.9266C242.134 4.14437 250.349 2.65129 258.596 1.5061C264.446 0.697531 270.357 0.240411 276.267 0.24722C282.177 0.20089 288.116 0.563857 294.067 1.17753C302.424 2.04832 310.859 3.19784 319.496 4.59651C319.852 4.6549 320.197 4.71284 320.553 4.77245C324.872 5.52074 319.844 4.42976 325.122 5.3918C330.131 6.32981 335.093 7.57748 339.963 9.03067C348.811 11.6679 357.499 14.7378 366.048 18.1612C375.562 21.9789 384.86 26.3287 393.857 31.2216C401.434 35.3428 408.799 39.8385 415.932 44.6748C417.32 45.3611 418.703 46.0577 420.079 46.7671C428.228 50.9652 436.138 55.613 443.786 60.6355C451.379 65.6159 458.735 70.9769 465.715 76.799C472.03 82.0784 478.053 87.6712 483.795 93.5625C490.126 100.015 495.514 107.346 500.495 114.767C500.523 114.809 500.55 114.852 500.579 114.894C501.191 115.632 501.734 116.29 502.22 116.884C506.529 122.314 506.612 122.137 510.707 128.234C512.302 130.488 516.976 139.376 517.82 140.984C517.835 141.01 517.85 141.036 517.864 141.061C520.251 146.321 518.409 137.157 525.449 160.423C525.714 161.46 524.7 158.206 525.621 161.784C525.726 162.197 525.826 162.604 525.925 163.003C528.274 173.147 528.444 179.514 528.897 185.685C529.204 191.102 528.929 196.465 527.914 204.251C528.027 210.531 527.646 216.799 527.165 223.018C526.531 231.338 524.613 239.495 522.16 247.4C519.708 255.314 515.841 262.617 511.864 269.731C507.634 277.273 502.076 283.865 496.529 290.312C490.103 297.802 482.427 304.048 474.61 309.923C471.969 311.904 469.251 313.77 466.504 315.581C461.875 318.625 457.029 321.586 452.013 324.488C442.37 330.099 431.859 335.07 420.935 339.378C405.426 345.52 389.126 350.543 372.994 354.718C359.368 358.24 345.839 361.151 332.893 363.475C327.675 364.399 330.811 363.997 329.82 364.183C314.236 366.921 319.378 365.774 309.141 367.13C308.963 367.152 308.786 367.174 308.608 367.196C287.917 369.733 265.903 370.9 244.143 370.806C232.907 370.763 221.737 370.372 210.843 369.664C200.985 370.302 191.064 370.548 181.184 370.472C166.577 370.335 152.056 369.5 137.928 367.953C136.167 367.758 134.412 367.549 132.666 367.325C125.341 366.334 132.098 367.079 128.603 366.581C118.191 365.007 113.294 363.992 106.719 362.47C103.58 361.72 100.06 360.815 95.436 359.408C92.4259 358.479 94.1655 358.861 93.6199 358.679C87.8338 356.724 82.5723 354.933 79.1192 353.703C77.4904 353.123 76.2635 352.673 75.5749 352.4C68.0982 349.425 61.5002 346.406 55.3821 343.282C47.024 339.033 39.952 333.912 33.002 328.265C27.5049 323.852 22.6146 318.457 17.7138 312.247C16.6979 310.963 15.7379 309.599 14.8267 308.167C13.0768 305.248 16.7505 312 12.027 303.669C10.4838 300.722 9.13647 297.678 7.86129 294.609C5.45655 288.807 4.69495 282.559 3.90976 276.454C3.04958 269.536 4.17183 262.652 5.18792 255.911C6.29132 248.869 8.58957 242.152 11.0526 235.53C10.7236 234.824 10.3973 234.117 10.0738 233.409C6.71878 226.041 4.73151 218.171 2.89829 210.321C1.11594 202.649 0.715705 194.734 0.69998 186.855C0.693368 178.427 2.16269 170.073 3.76341 161.766C3.76847 161.74 3.77293 161.714 3.77791 161.688C4.92796 156.277 3.98546 159.877 4.16176 159.039C9.51394 140.453 5.40899 155.122 10.1146 142.525C9.4835 143.563 10.3369 141.149 12.3442 136.231C13.5767 133.146 15.5737 129.217 18.2615 124.752C19.0334 123.461 19.5351 122.631 19.8448 122.104C20.8812 120.351 19.7528 122.01 19.9865 121.614C24.9747 113.276 29.1199 107.921 30.1527 106.522C31.2511 105.057 32.3589 103.543 33.4553 102.055C36.1945 98.3102 38.9514 94.7768 41.1132 92.5099C44.1653 89.3824 37.4406 96.8363 46.3578 87.3815C48.5014 85.0325 43.4805 89.8061 46.6889 86.3748C47.1634 85.8705 47.8235 85.1851 48.7207 84.2785C53.6481 79.3161 59.4868 73.6636 66.0568 67.8139C70.4592 63.8981 75.2968 59.9855 80.5737 56.4508C85.8269 52.8543 91.4941 49.5965 97.2828 46.5857C107.044 41.5068 117.101 36.9231 126.745 33.0794C140.999 27.3572 154.47 23.6803 164.449 21.3601C165.552 21.102 166.62 20.8584 167.638 20.6305C186.852 16.4998 197.689 15.0744 207.756 14.0548C209.739 13.2739 211.716 12.5183 213.689 11.7907C220.35 9.28775 227.104 7.33627 233.815 5.9266ZM524.303 222.477C523.35 225.785 522.2 229.293 520.884 232.905C518.32 240.04 514.364 247.231 510.222 254.208C505.877 261.548 500.347 268.014 495.288 273.804C492.679 276.79 489.976 279.417 487.434 281.77C487.441 281.578 486.226 282.596 484.299 284.251C479.819 288.172 471.163 295.323 465.724 299.456C465.132 299.913 464.58 300.338 464.082 300.723C456.999 305.775 449.291 310.634 441.52 315.042C435.94 318.214 430.314 321.136 424.843 323.693C420.33 325.779 423.231 324.271 422.657 324.523C417.8 326.612 413.809 328.315 410.702 329.638C408.171 330.714 406.218 331.535 404.868 332.053C390.96 337.361 377.787 341.253 364.787 344.54C347.262 348.917 330.053 352.323 311.152 355.288C310.363 355.409 309.272 355.733 305.943 356.215C304.317 356.448 302.164 356.716 299.255 356.982C298.683 357.021 309.595 355.606 294.019 357.385C288.652 357.971 281.621 358.495 273.823 358.802C268.486 360.267 263.11 361.6 257.575 362.846C251.897 364.123 246.042 365.296 239.863 366.288C233.145 367.322 241.12 366.312 234.646 367.27C233.35 367.453 232.052 367.624 230.752 367.789C235.22 367.913 239.687 367.984 244.153 367.998C265.572 368.063 286.972 366.954 308.243 364.3C329.711 361.595 351.089 357.445 372.297 352.032C377.905 350.594 383.494 349.063 389.065 347.42C393.542 346.078 397.607 345.278 406.984 341.952C407.656 341.608 407.581 341.507 407.852 341.296C411.897 339.863 415.921 338.357 419.899 336.772C430.489 332.567 440.774 327.73 450.579 322.013C458.246 317.547 465.832 312.864 472.879 307.621C480.626 301.795 488.118 295.685 494.34 288.428C499.862 282.012 505.289 275.549 509.34 268.32C513.288 261.262 517.052 254.12 519.395 246.548C521.809 238.767 523.666 230.843 524.28 222.796C524.288 222.69 524.295 222.583 524.303 222.477ZM442.67 65.2339C449.654 71.2721 456.114 77.9325 462.043 84.9883C464.055 87.3636 465.915 89.8586 467.655 92.4276C470.794 97.196 466.635 91.1321 469.703 95.9298C471.547 98.8892 473.358 102.1 475.143 105.486C478.198 111.219 479.749 117.96 481.174 124.725C482.622 131.488 482.924 138.579 482.654 145.505C482.586 147.186 482.45 148.853 482.263 150.503C482.727 151.336 483.196 152.205 483.674 153.124C487.407 160.652 481.713 149.462 486.003 158.278C487.501 161.489 488.951 164.917 490.362 168.484C493.463 176.203 494.142 185.153 494.43 193.899C494.738 202.769 491.54 211.198 488.712 218.738C488.193 220.108 487.618 221.434 487.008 222.715C483.252 230.021 485.963 225.118 485.432 226.167C482.139 232.19 478.021 237.742 474.245 242.904C468.586 250.552 462.339 256.285 458.393 260.316C456.268 262.027 454.715 263.308 453.374 264.485C450.045 267.356 447.95 269.541 440.958 274.95C438.496 276.866 435.331 279.095 431.114 281.576C429.444 282.539 427.188 283.474 433.415 279.586C435.561 278.214 438.055 276.529 440.661 274.555C444.689 271.531 449.171 268.081 453.218 264.314C454.113 263.482 455.002 262.652 455.878 261.826C457.706 260.224 467.322 250.287 468.41 248.758C470.603 246.237 472.263 244.133 473.56 242.403C478.018 236.461 479.068 235.511 479.443 235.033C482.427 231.087 486.459 224.718 488.606 218.697C490.364 213.947 491.656 209.756 492.161 207.867C493.481 203.151 494.27 198.457 494.085 193.912C493.756 184.873 493.064 176.273 489.98 168.636C488.153 164.074 486.219 159.647 484.035 155.376C483.426 154.216 482.867 153.188 482.351 152.264C482.633 154.771 482.81 157.56 482.953 162.209C482.961 164.424 482.858 167.061 482.546 170.264C482.488 170.876 482.576 168.288 482.408 169.931C481.876 175.033 481.132 180.059 480.227 184.978C480.21 185.071 480.192 185.164 480.175 185.256C479.2 190.423 477.925 193.918 476.594 197.888C475.007 202.456 473.227 207.666 469.789 216.298C469.4 217.259 469.577 217.128 469.166 218.368C468.673 219.764 467.537 223 463.329 231.326C462.549 232.853 461.102 235.665 459.197 239.088C456.752 243.563 453.304 249.024 449.487 253.881C444.358 260.537 439.003 266.471 436.428 269.224C435.02 270.732 434.156 271.611 433.665 272.1C432.715 273.038 433.157 272.514 433.584 272.023C433.866 271.699 434.14 271.389 434.01 271.522C433.856 271.681 433.704 271.838 433.553 271.992C417.46 287.705 423.393 281.53 414.546 288.944C413.762 289.569 413.065 290.124 412.442 290.621C405.786 295.849 407.942 294.83 404.537 297.54C401.95 299.599 394.422 304.95 388.672 308.485C386.138 310.066 383.98 311.329 382.863 311.971C379.216 314.044 383.683 311.323 380.445 313.17C358.608 324.727 371.029 318.58 363.793 322.34C363.475 322.495 363.159 322.648 362.842 322.799C354.241 326.904 346.293 329.957 338.398 332.594C330.305 336.852 322.106 340.805 319.632 341.913C319.326 342.057 319.023 342.2 318.721 342.341C307.79 347.479 297.672 351.444 287.73 354.646C284.881 355.57 282.049 356.441 279.217 357.271C279.64 357.243 280.095 357.213 280.587 357.182C288.342 356.631 296.911 355.761 305.721 354.575C321.433 352.469 337.906 349.486 351.873 346.314C359.777 344.489 352.043 346.111 357.435 344.836C359.811 344.267 362.136 343.695 364.426 343.115C375.919 340.192 386.562 337.149 398.148 333C399.404 332.544 396.279 333.494 400.589 331.939C403.835 330.755 407.021 329.535 410.153 328.274C420.899 323.961 430.971 319.125 440.695 313.59C448.918 308.929 456.938 303.891 464.799 298.186C471.061 293.633 477.258 288.678 483.376 283.22C484.506 282.21 485.63 281.186 486.75 280.141C489.016 278.023 491.531 275.559 494.015 272.696C498.903 267.059 504.43 260.544 508.668 253.296C512.861 246.172 516.732 238.935 519.096 232.262C520.115 229.423 521.014 226.747 521.766 224.304C523.039 220.177 524.16 215.866 524.956 211.414C525.116 206.672 525.077 201.947 524.662 197.257C523.673 185.812 521.927 174.438 518.882 163.389C516.485 154.722 513.941 146.096 510.101 138.099C506.499 130.606 502.712 123.216 498.085 116.406C497.177 115.071 496.268 113.74 495.349 112.422C492.961 109.041 496.957 114.964 492.287 108.472C488.979 103.967 485.42 99.7131 481.551 95.7442C477.309 91.3994 472.9 87.2129 468.349 83.2108C467.643 82.6232 464.192 79.7997 459.689 76.4611C454.716 72.712 448.304 68.5763 443.312 65.6156C443.096 65.4859 442.88 65.3593 442.67 65.2339ZM59.2472 293.37C62.1251 298.712 65.2835 303.863 69.0543 308.525C72.7282 313.059 76.5058 317.493 80.5891 321.604C83.822 324.768 79.2403 320.144 84.5173 325.103C85.3296 325.837 86.1697 326.571 87.0383 327.296C93.1073 332.354 99.8592 337.922 107.294 341.87C113.656 345.274 119.986 348.378 125.912 350.699C132.797 353.31 123.473 350.032 130.441 352.584C131.802 353.062 133.179 353.519 134.571 353.955C142.904 356.547 151.658 358.791 160.492 360.665C167.967 362.253 175.511 363.494 182.977 364.429C190.54 365.341 179.147 363.798 188.986 364.949C190.585 365.126 192.186 365.294 193.788 365.454C200.215 366.095 206.645 366.609 213.076 367.004C216.659 366.742 220.268 366.429 223.884 366.05C234.916 364.91 246.043 363.065 257.063 360.559C259.19 360.08 261.313 359.579 263.429 359.062C260.019 359.099 256.543 359.09 253.065 359.018C244.061 358.872 235.042 358.466 227.075 358.024C222.029 357.757 209.551 357.101 199.182 355.769C198.743 355.714 198.311 355.659 197.888 355.602C196.472 355.411 198.033 355.494 195.997 355.203C189.423 354.229 185.765 354.107 178.12 352.45C174.916 351.74 170.26 350.701 164.409 349.169C156.949 347.216 147.517 344.524 136.74 340.609C135.844 340.283 134.94 339.949 134.028 339.605C133.382 339.351 128.415 337.772 122.155 334.853C119.212 333.482 115.947 331.854 112.584 330.033C105.521 326.214 98.0355 321.546 91.8477 317.283C90.9756 316.683 90.1332 316.087 89.3239 315.503C84.8905 312.232 87.6276 314.457 86.8579 313.892C83.6198 311.459 80.6098 308.946 77.754 306.404C76.9792 305.925 76.2057 305.444 75.4355 304.959C69.7801 301.433 64.3472 297.574 59.2472 293.37ZM84.0922 310.236C86.6661 312.327 89.3887 314.379 92.4148 316.46C95.4376 318.528 98.7346 320.665 102.45 322.915C104.725 324.292 108.629 326.556 113.167 328.949C117.749 331.375 122.997 333.895 127.749 336.035C128.993 336.594 128.246 336.424 129.256 336.858C132.242 338.131 134.788 339.121 136.99 339.938C148.322 344.006 150.294 344.183 159.474 346.64C161.106 347.059 162.873 347.508 164.71 347.96C175.228 350.673 188.24 352.77 191.267 353.208C200.524 354.62 184.14 352.377 183.651 352.22C177.906 351.522 189.671 353.521 199.319 354.526C199.598 354.558 199.877 354.589 200.155 354.619C201.517 355.232 215.207 356.461 210.285 355.638C209.722 355.558 202.114 354.867 200.155 354.619C208.765 355.146 223.79 356.448 240.427 357.509C246.537 357.869 243.315 357.971 253.077 358.197C255.765 358.242 259.43 358.283 264.54 358.198C265.556 358.171 266.438 358.143 267.212 358.119C270.565 357.26 273.899 356.353 277.204 355.391C282.823 353.722 274.414 356.061 282.768 353.524C284.139 353.097 285.528 352.655 286.931 352.195C296.831 348.994 307.328 344.792 317.565 339.906C319.364 339.05 321.156 338.179 322.94 337.3C320.342 338.025 317.7 338.736 314.988 339.441C310.378 340.619 314.169 339.773 310.062 340.816C307.535 341.447 305.157 342.007 302.874 342.521C291.734 345.006 282.848 346.478 269.583 347.877C268.037 348.037 266.431 348.193 264.754 348.347C261.651 348.684 246.252 350.01 236.248 349.923C234.832 349.912 238.851 349.729 231.698 349.8C230.369 349.808 228.909 349.812 227.347 349.804C217.202 349.842 202.801 348.933 192.832 347.494C191.989 347.381 191.177 347.269 190.402 347.159C182.017 345.892 191.577 347.672 181.059 345.821C176.399 344.931 185.063 346.427 176.315 344.725C172.788 344.016 167.046 342.79 160.953 341.259C152.024 339.056 142.386 336.085 137.537 334.434C129.395 331.642 133.8 333.315 133.137 333.105C132.386 332.852 131.226 332.452 129.831 331.953C123.783 329.864 113.53 325.531 112.463 325.005C108.446 323.207 104.492 321.314 100.605 319.333C94.972 316.457 89.4743 313.412 84.0922 310.236ZM12.4397 238.455C10.3682 244.119 8.47675 249.95 7.48299 256.262C7.45275 256.463 7.42268 256.663 7.39249 256.864C6.60036 262.238 7.53858 257.002 6.89863 261.56C6.25283 266.426 5.80467 271.368 6.40331 276.138C7.17277 282.254 7.93871 288.322 10.1496 293.659C11.9677 298.066 13.9049 302.307 16.2279 306.113C17.8969 308.817 18.7739 309.85 19.5465 310.799C20.4201 311.84 21.1878 312.784 23.2484 315.22C26.821 319.416 30.5054 323.166 34.5078 326.37C41.343 331.904 48.1989 336.856 56.2042 341.004C57.2229 341.554 51.1894 338.535 56.3933 341.294C57.0977 341.657 58.0059 342.116 59.1721 342.688C65.4469 345.758 72.4489 348.879 79.8695 351.738C88.5887 355.095 97.9191 358.042 107.252 360.323C110.223 361.051 113.19 361.713 116.138 362.295C122.115 363.385 122.352 363.339 135.291 365.184C136.762 365.379 136.409 365.456 138.172 365.703C139.669 365.902 142.703 366.258 149.711 366.676C151.735 366.83 168.191 367.704 181.204 367.756C184.14 367.784 186.899 367.794 189.28 367.808C187.322 367.596 185.379 367.374 183.452 367.135C166.821 364.821 183.421 367.675 166.753 364.724C165.6 364.498 169.82 365.124 165.294 364.262C163.708 363.953 161.904 363.589 159.962 363.177C151.782 361.461 141.174 358.747 133.801 356.441C131.587 355.755 129.675 355.097 128.188 354.559C116.882 350.312 113.142 348.091 105.965 344.378C103.82 343.24 101.438 341.827 98.6318 339.909C94.1263 336.832 89.6995 333.215 85.2278 329.457C78.5725 323.87 72.6447 317.065 67.0552 310.144C62.2598 304.201 58.4974 297.593 55.1693 291.137C53.5381 287.933 54.7557 290.572 53.8121 288.804C49.153 284.816 44.6056 280.73 40.1744 276.538C33.2996 270.064 27.3835 262.679 21.9884 255.031C18.2647 249.819 15.2136 244.198 12.4397 238.455ZM320.813 337.516C320.348 337.511 311.553 339.892 314.454 339.278C314.632 339.257 320.957 337.543 320.813 337.516ZM254.175 48.0325C243.158 49.3358 232.301 51.4685 221.598 54.1975C210.362 57.0567 199.282 60.4865 188.42 64.5713C177.867 68.5419 167.52 73.1371 157.445 78.3991C156.765 78.7542 156.087 79.1119 155.41 79.4724C151.423 81.618 155.578 79.571 151.325 81.9037C144.421 85.7344 137.969 89.5991 131.719 93.668C126.331 97.1736 121.142 100.87 116.029 104.996C113.191 107.459 110.415 109.943 107.709 112.432C103.15 116.622 98.7724 120.8 94.6144 124.89C90.0813 129.588 85.573 134.517 81.2241 139.583C76.9072 144.626 72.671 149.752 68.7666 154.942C67.5014 156.497 65.9374 158.518 64.2736 160.933C64.2563 160.959 64.2384 160.984 64.2211 161.009C63.8627 161.882 63.5069 162.758 63.1564 163.638C61.3299 168.292 63.3321 163.664 61.7871 167.684C60.6127 170.783 59.4989 173.901 58.4471 177.036C55.4498 186.044 52.6282 195.129 50.8276 204.304C48.7945 215.082 46.901 225.88 46.7831 236.677C46.6992 245.714 47.081 254.759 48.9078 263.495C49.4841 266.225 50.0596 268.953 50.7043 271.647C51.4685 273.022 53.1556 275.933 55.1439 278.699C57.6485 282.238 60.3229 285.743 60.9806 286.583C69.5499 297.118 62.1409 288.549 67.6868 294.976C68.5395 295.9 69.3923 296.781 70.2486 297.621C71.9037 299.246 73.5043 300.796 75.0897 302.293C75.5712 302.6 76.0543 302.905 76.5394 303.206C76.7912 303.365 77.0508 303.528 77.3042 303.686C80.9695 305.956 76.3613 302.904 81.6772 306.148C88.0832 310.013 94.7607 313.782 101.646 317.29C110.979 322.048 120.728 326.29 130.581 329.912C140.896 333.713 151.305 336.865 161.414 339.414C162.372 339.656 163.328 339.893 164.28 340.124C171.099 341.745 166.793 340.868 168.266 341.249C177.324 343.625 190.486 345.353 192.651 345.591C192.795 345.611 192.939 345.63 193.083 345.649C204.979 347.264 216.315 347.866 227.35 347.873C241.708 347.862 255.544 347.233 269.393 345.938C280.337 344.904 291.252 343.203 302.45 340.647C312.334 338.416 322.449 335.715 332.892 332.254C340.01 328.54 346.819 324.767 352.997 321.148C353.417 320.901 353.798 320.676 354.138 320.475C359.885 317.05 355.403 319.897 355.925 319.599C364.729 314.558 369.434 310.815 372.16 308.865C375.158 306.705 377.98 304.569 380.683 302.452C389.182 295.811 396.408 289.362 403.542 282.269C406.965 278.865 410.38 275.322 413.887 271.54C417.501 267.621 414.817 270.288 415.528 269.5C422.829 261.27 417.54 267.536 422.201 262.36C424.148 260.173 426.104 257.928 428.049 255.632C433.963 248.676 439.7 241.19 444.882 233.373C449.406 226.594 453.617 219.668 457.374 212.858C457.803 212.08 458.114 211.502 458.339 211.078C459.93 208.039 457.188 212.867 459.859 207.845C463.125 201.626 466.165 195.235 468.893 188.689C471.573 182.209 474.226 175.65 476.028 168.999C477.631 162.879 479.136 156.733 479.865 150.585C479.789 149.616 479.705 148.653 479.616 147.709C478.108 145.415 476.834 143.845 475.156 141.602C474.373 140.596 473.495 139.456 472.43 138.077C464.787 128.218 458.702 121.586 452.71 115.765C448.458 111.663 444.285 107.919 439.396 103.943C435.333 100.644 430.77 97.1963 425.123 93.4508C424.803 93.2382 424.478 93.0239 424.15 92.8088C419.136 89.763 424.145 92.762 406.078 82.0621C406.027 82.0332 405.952 81.9904 405.854 81.9343C403.775 80.6911 390.908 73.6122 383.018 70.0897C381.983 69.6218 381.961 69.7527 380.606 69.1223C379.619 68.6641 378.668 68.2259 377.744 67.8034C370.138 64.3306 364.318 61.8921 355.033 58.9926C355.011 58.9859 354.99 58.9793 354.969 58.9726C346.466 56.3228 336.456 53.4611 326.482 51.037C324.259 50.5021 322.033 49.9965 319.827 49.5345C315.308 48.5714 309.967 47.6363 305.675 47.0631C303.025 46.6969 300.794 46.4459 299.432 46.3173C294.692 45.857 289.765 45.7688 285.218 45.8227C280.113 45.8804 275.501 46.0907 272.172 46.155C265.827 46.3475 278.193 45.1362 261.569 46.2417C260.985 46.6305 259.607 47.1056 258.658 47.5418C257.161 47.692 255.666 47.8549 254.175 48.0325ZM397.206 300.268C394.038 301.933 389.204 304.444 382.427 307.931C375.723 311.362 396.752 300.311 388.205 304.638C379.744 308.921 372.88 312.545 365.822 316.225C362.374 318.492 358.913 320.656 355.472 322.714C355.067 322.957 354.655 323.203 354.249 323.444C352.313 324.588 351.554 325.074 351.17 325.339C354.79 323.846 358.551 322.229 361.86 320.681C364.29 319.573 366.494 318.542 368.271 317.722C368.888 317.454 377.819 313.313 385.068 308.521C385.482 308.242 380.97 310.891 387.574 306.758C388.078 306.437 388.646 306.073 389.285 305.66C391.639 304.144 394.327 302.318 397.206 300.268ZM487.16 282.006C486.304 282.827 485.421 283.656 484.514 284.492C478.472 290.072 471.395 295.69 465.796 299.555C465.22 299.954 464.66 300.336 464.12 300.697C464.67 300.306 465.219 299.91 465.765 299.514C472.224 294.817 478.481 289.782 484.471 284.443C485.375 283.636 486.27 282.826 487.16 282.006ZM480.361 161.38C479.728 164.199 479.029 166.947 478.345 169.611C476.29 177.215 473.523 183.921 471.248 189.672C469.391 194.297 467.661 198.241 466.296 201.339C464.553 204.935 462.658 208.619 460.637 212.327C456.529 219.871 451.883 227.51 447.001 234.786C441.534 242.994 435.592 250.624 429.947 257.229C428.536 258.886 427.144 260.486 425.788 262.021C416.71 272.095 425.426 262.225 414.204 274.526C411.639 277.268 415.116 273.834 411.241 277.925C409.3 279.959 407.318 281.996 405.291 284.023C398.167 291.173 390.401 298.11 382.242 304.449C377.959 307.813 373.56 311.004 369.119 314.021C382.642 307.151 393.566 301.684 398.742 299.166C402.79 296.239 407.148 292.912 411.433 289.394C415.354 286.187 419.226 282.844 422.812 279.592C424.713 277.865 428.073 274.856 432.168 270.663C435.476 267.274 439.266 263.109 443.138 258.273C443.337 258.018 445.207 255.674 447.606 252.432C450.763 248.271 454.416 242.492 456.98 237.854C457.959 236.131 458.822 234.607 459.505 233.461C460.048 232.355 460.238 233.886 466.927 218.75C467.735 216.824 466.97 218.456 467.303 217.565C467.471 217.108 467.936 215.996 468.976 213.382C470.87 208.605 472.886 203.139 474.753 197.3C476.035 193.267 477.29 189.134 478 184.877C478.861 179.847 479.642 174.772 480.054 169.819C480.148 168.639 480.363 165.773 480.363 162.177C480.364 161.915 480.363 161.649 480.361 161.38ZM51.67 275.432C52.7375 279.32 54.0336 283.097 55.7901 286.652C56.1197 287.318 56.4524 287.982 56.787 288.644C57.8352 289.53 58.8858 290.411 59.9404 291.283C62.9363 293.776 66.0049 296.113 69.1512 298.324C63.2356 292.508 58.6035 285.981 54.144 279.377C53.2772 278.089 52.4552 276.773 51.67 275.432ZM61.9621 159.928C51.424 172.053 71.0049 148.534 56.3619 165.983C51.1807 172.283 46.0772 179.209 42.7658 183.94C41.0293 186.412 39.7693 188.275 39.1806 189.114C33.7946 196.786 29.29 203.919 25.3734 210.91C21.3847 218.066 17.6467 224.904 14.8334 232.071C14.3631 233.318 13.8898 234.568 13.4184 235.823C16.3424 242.005 19.5774 248.175 23.6346 253.849C28.9608 261.391 34.7627 268.648 41.5761 275.062C44.8605 278.167 48.2281 281.224 51.6457 284.219C49.764 279.55 47.7133 271.656 46.3413 264.802C45.368 262.561 44.4459 260.27 43.5542 257.937C40.8822 250.94 39.5436 243.221 38.3874 234.98C38.0304 232.45 37.9313 229.837 38.0213 227.174C38.0853 224.05 38.6886 218.44 39.774 212.007C41.0627 203.757 44.5181 194.531 47.6073 187.302C47.7427 186.984 47.8795 186.668 48.0162 186.358C53.7746 175.137 49.8023 182.348 58.3947 169.057C59.5324 165.976 60.722 162.934 61.9621 159.928ZM504.768 121.579C507.666 126.55 510.242 131.688 512.718 136.841C516.688 145.12 519.263 153.895 521.676 162.62C524.449 172.686 526.158 183.018 527.203 193.381C527.351 190.844 527.393 188.302 527.277 185.766C526.921 178.115 526.264 170.489 524.51 163.355C522.597 155.468 520.162 148.01 516.873 141.563C515.026 137.909 513.176 134.464 511.283 131.312C508.134 126.261 506.155 123.406 504.768 121.579ZM57.7163 170.915C54.5212 176.059 51.296 181.827 48.8345 187.807C46.74 192.886 44.813 197.926 43.3965 202.594C41.6973 208.468 41.7116 208.381 40.9537 212.205C40.9182 212.405 40.8812 212.617 40.8425 212.839C38.1662 230.012 39.8356 221.995 39.4334 226.688C39.3398 229.802 39.4959 232.452 39.8221 234.775C41.1904 243.966 41.576 248.938 44.5307 257.56C44.8218 258.348 45.1286 259.169 45.4574 260.026C45.0176 257.253 44.7684 254.869 44.6264 253.26C44.1301 246.667 44.5142 249.465 44.455 248.298C44.3632 245.332 44.2746 241.129 44.3147 236.653C44.3444 226.582 46.1988 215.286 46.4999 213.314C47.0269 210.106 47.6001 206.937 48.192 203.801C50.0729 194.157 52.9313 185.053 55.884 176.175C56.4773 174.409 57.0886 172.656 57.7163 170.915ZM202.244 16.2835C189.466 17.8815 175.197 20.332 166.176 22.4398C165.69 22.5485 165.224 22.6552 164.777 22.7584C154.192 25.2575 152.778 26.152 151.787 26.4053C142.654 29.069 134.779 31.8858 127.447 34.8304C117.229 38.9572 107.997 43.1847 98.1622 48.2664C92.8011 51.0539 87.3111 54.1217 81.6228 57.9952C78.9916 59.7702 76.3322 61.6825 73.6446 63.8263C71.7324 65.3469 69.5814 67.158 67.2776 69.1958C61.4528 74.3633 54.5551 80.8928 47.9475 87.6108C42.9715 92.6205 38.4802 97.9101 34.798 103.039C32.3223 106.435 30.1089 109.645 28.2253 112.433C25.5881 116.346 23.3514 119.774 21.3304 123.023C18.4709 127.653 15.9463 131.852 13.8904 136.868C13.0453 138.924 12.1748 141.067 11.2829 143.37C10.6534 145.005 11.4361 143.411 11.2478 143.911C6.43794 157.487 8.57017 150.893 7.52647 153.68C6.55364 156.611 5.81226 159.258 5.23342 161.971C3.97554 168.42 2.20404 175.097 2.0728 186.854C2.07744 187.555 2.08551 188.272 2.09874 189.008C2.13716 192.721 2.86766 202.631 4.79304 209.879C5.07091 210.987 5.33527 212.045 5.57748 213.026C8.16452 222.777 6.76029 219.259 10.3123 229.113C10.5821 229.757 10.6166 229.792 11.8938 232.575C11.9412 232.676 11.9898 232.78 12.0405 232.888C12.2478 232.339 12.4552 231.79 12.6623 231.241C15.5923 223.746 19.4441 216.727 23.3247 209.762C28.6104 200.311 34.6544 191.319 41.0382 182.67C48.6605 172.357 56.6839 162.438 64.9683 152.918C66.0978 150.385 67.2637 147.877 68.4605 145.392C73.5071 134.92 79.1387 124.857 85.3712 115.117C89.5232 108.642 93.9312 102.313 98.5872 96.0802C99.1251 95.1358 99.6285 94.4093 99.9052 93.9349C100.875 92.4157 99.4031 94.3616 100.326 92.8573C100.511 92.5593 100.794 92.1283 101.229 91.5403C102.679 89.6068 104.396 87.8194 106.506 85.8897C107.698 84.4287 108.916 82.9793 110.168 81.5494C112.977 78.3329 115.965 75.2338 119.028 72.1972C126.001 65.315 133.267 58.5755 140.76 52.077C146.713 46.8808 153.09 42.0754 159.783 37.9624C168.454 32.5713 177.339 27.7592 186.219 23.455C191.577 20.8671 196.936 18.4875 202.244 16.2835ZM264.128 34.3714C253.93 36.1836 243.795 38.4132 233.807 41.1837C228.919 42.542 224.062 44.033 219.243 45.6477C210.851 48.5632 217.798 46.1294 205.551 50.7453C203.81 51.4234 202.026 52.1357 200.204 52.8843C190.33 56.9377 179.356 62.0443 168.168 68.2425C158.248 73.7196 148.193 80.0704 138.521 87.0889C135.79 89.0598 133.092 91.0833 130.433 93.1467C130.653 93.0019 130.871 92.8554 131.092 92.7114C139.527 87.201 148.168 82.1684 157.008 77.5598C167.07 72.3234 177.431 67.7193 188.091 63.6994C198.867 59.6381 209.947 56.1682 221.347 53.2216C225.827 52.0649 230.358 50.9956 234.949 50.0438C237.148 49.5699 244.1 47.9709 249.356 47.2654C251.056 47.0286 252.593 46.8401 254.013 46.6812C259.103 46.1214 262.694 45.8972 267.072 45.5941C273.228 45.1817 279.262 44.949 285.212 44.9015C292.17 44.8344 299.023 45.1393 305.805 45.9512C312.863 46.7382 319.837 48.0306 326.8 49.711C329.253 50.2991 331.709 50.9283 334.171 51.5848C342.478 53.857 339.549 53.1544 349.391 56.0767C351.483 56.7109 353.427 57.3064 355.311 57.8943C362.228 60.0657 368.463 62.0972 378.248 66.7103C378.316 66.7419 378.384 66.7733 378.451 66.8052C387.103 70.9115 395.538 75.453 406.182 81.3352C407.214 81.9102 408.265 82.5011 409.337 83.1097C409.839 83.0994 415.774 86.0701 425.615 92.7354C427.681 94.1417 429.917 95.7125 432.297 97.4662C434.924 99.4152 432.199 97.2032 433.445 98.121C435.73 99.8093 437.883 101.515 439.976 103.232C442.526 105.324 444.986 107.433 447.475 109.581C448.575 110.533 448.711 110.485 449.61 111.267C450.845 112.343 452.189 113.558 453.572 114.855C460.814 121.529 468.46 130.967 469.911 132.873C472.389 136.027 474.335 138.605 476.064 140.925C477.338 142.654 478.461 144.268 479.522 145.917C479.568 145.883 479.567 145.526 479.19 142.83C478.645 139.192 477.925 135.551 477.015 131.938C475.117 124.37 472.731 116.877 468.88 110.113C464.966 103.179 460.804 96.3877 455.61 90.5724C452.688 87.2998 449.734 84.096 446.659 81.0723C440.835 75.5789 443.666 77.757 438.008 73.1306C437.748 72.9298 437.466 72.7129 437.167 72.4863C432.129 68.5969 422.974 62.3792 414.884 58.2234C411.815 56.612 408.943 55.2666 406.615 54.2653C399.166 51.1688 405.282 54.0417 398.253 51.2953C397.27 50.9218 396.029 50.4476 394.448 49.852C386.363 46.8123 378.175 44.0534 369.902 41.6928C360.036 38.8944 350.012 36.6078 339.935 34.7965C332.097 33.3546 324.275 32.5137 316.309 32.1911C306.497 31.7712 296.621 31.6412 286.821 31.9294C279.172 32.1289 271.679 32.9873 264.128 34.3714ZM480.328 138.53C480.225 138.211 480.163 138.036 480.262 138.595C480.289 138.776 480.317 138.955 480.343 139.13C480.339 138.93 480.333 138.73 480.328 138.53ZM265.01 21.4995C251.988 22.8727 239.078 25.1636 226.477 28.0682C221.742 29.1609 217.049 30.3405 212.412 31.6039C206.316 33.2933 212.755 31.3027 208.415 32.5219C203.508 33.9202 198.558 35.4527 193.628 37.1428C185.923 39.7767 178.28 42.8457 170.876 46.4429C163.238 50.0869 155.991 54.4167 148.954 58.9546C139.762 64.8841 130.761 70.7611 122.469 76.7282C121.241 77.6175 120.15 78.4264 119.18 79.1656C110.63 85.9337 110.242 85.8357 108.127 87.7366C107.206 88.8639 106.297 90.006 105.4 91.1632C103.177 94.004 100.992 96.8832 98.8477 99.8041C98.7391 100.107 98.6462 100.407 98.5744 100.703C98.044 102.715 97.7417 104.291 97.6461 104.5C97.1307 105.604 97.3316 103.003 97.1919 102.078C96.9757 102.378 96.7611 102.679 96.5457 102.979C96.2543 104.362 95.6898 107.636 95.6344 110.146C95.6091 113.315 95.63 115.148 95.4784 109.891C95.4541 109.553 95.6306 106.702 96.1849 103.481C93.1737 107.703 90.2511 112.015 87.427 116.428C81.3732 125.909 75.7823 135.883 70.7194 146.419C70.7319 146.405 70.745 146.391 70.7575 146.377C74.0819 142.687 77.4484 139.065 80.8448 135.509C87.5906 128.506 82.8809 133.605 83.3144 133.174C90.416 126.175 94.8158 121.454 97.0833 119.236C100.09 116.308 103.105 113.456 106.109 110.693C116.856 100.781 127.571 92.1473 137.124 85.1586C140.798 82.4577 144.291 79.9847 147.527 77.737C153.844 73.578 160.328 69.6784 166.945 66.03C177.41 60.2552 188.214 55.1117 199.259 50.5832C210.332 46.0439 221.654 42.121 233.172 38.9073C243.238 36.1054 253.437 33.8462 263.705 32.0056C271.291 30.6004 279.017 29.7017 286.737 29.4916C296.639 29.1858 306.534 29.3038 316.419 29.717C324.443 30.0322 332.475 30.8918 340.37 32.3461C350.55 34.1758 360.637 36.4856 370.578 39.3243C380.256 42.1079 389.766 45.4105 399.118 49.0998C404.768 51.3294 410.357 53.7671 415.721 56.6326C423.936 60.9733 431.725 66.0772 439.094 71.6969C440.932 73.0975 442.703 74.5805 444.42 76.1211C445.413 77.0201 443.523 75.5353 445.493 77.3355C450.791 82.2782 454.294 86.2544 457.05 89.2824C464.763 98.4264 465.524 100.191 470.911 108.966C471.859 110.574 472.88 112.464 473.936 114.762C475.514 117.953 477.988 125.872 479.185 131.389C479.74 133.784 480.098 135.72 480.256 136.591C480.067 132.745 479.623 128.943 478.823 125.236C477.416 118.662 475.963 112.229 472.983 106.636C471.629 104.079 470.232 101.567 468.766 99.1222C465.088 93.1706 467.525 96.8355 466.775 95.5839C464.983 92.6864 462.694 89.4698 460.195 86.5594C455.282 80.762 450.105 75.7139 448.467 74.1692C445.055 70.896 442.161 68.3604 439.521 66.1277C436.002 63.1778 433.003 60.6859 429.587 58.0098C424.843 55.4363 420.047 52.9532 415.197 50.5882C403.689 44.9321 391.754 40.2129 379.521 36.1947C362.63 30.6409 345.356 25.985 327.807 22.2938C326.11 21.9388 324.41 21.5943 322.707 21.2594C315.811 20.4858 308.838 20.0553 301.795 19.9584C289.569 19.7589 277.23 20.22 265.01 21.4995ZM467.049 130.108C463.793 125.791 452.785 114.85 457.379 119.719C461.199 123.518 471.259 135.327 467.049 130.108ZM76.635 143.4C75.1986 144.949 73.8134 146.459 72.4835 147.927C70.7995 149.784 69.2022 151.573 67.6958 153.278C67.5869 153.405 67.4779 153.53 67.3714 153.654C66.6801 155.205 66.0006 156.768 65.3336 158.344C65.7155 157.797 66.1129 157.235 66.526 156.662C69.4646 152.592 72.7868 148.199 76.635 143.4ZM434.899 58.7643C435.622 59.3481 436.342 59.936 437.061 60.526C439.372 61.8546 441.665 63.2029 443.939 64.5688C444.056 64.6391 444.172 64.7104 444.288 64.7808C443.543 64.282 442.796 63.7856 442.046 63.294C439.688 61.7477 437.306 60.2374 434.899 58.7643ZM404.859 51.7513C399.413 49.7121 407.952 53.0437 415.492 57.0698C422.255 60.6055 428.271 64.4942 424.623 62.0038C424.422 61.8717 420.201 59.2532 415.608 56.8479C410.634 54.1841 405.19 51.8818 404.859 51.7513ZM347.392 25.033C358.298 27.8255 369.226 31.0049 380.049 34.6051C392.289 38.6608 404.347 43.4715 415.877 49.202C417.964 50.2327 420.039 51.2839 422.101 52.3518C421.828 52.1521 421.551 51.9491 421.27 51.7444C420.407 51.1218 419.538 50.5022 418.661 49.8858C418.178 49.546 417.692 49.2075 417.205 48.8696C409.439 44.9197 401.444 41.3136 393.225 38.098C388.303 36.1719 383.305 34.4027 378.21 32.8219C374.095 31.596 375.779 31.6579 365.891 29.0847C364.93 28.8422 363.855 28.5787 362.653 28.2944C361.33 27.906 354.28 26.3964 347.392 25.033ZM326.661 50.2925C324.201 49.8138 324.054 49.9352 326.581 50.6268C328.484 51.1545 331.909 52.0336 336.986 53.3738C338.024 53.6475 339.516 53.6007 338.547 53.3186C332.935 51.6877 328.863 50.727 326.661 50.2925ZM258.95 4.08818C250.526 5.26073 242.277 6.78439 234.373 8.48024C229.343 9.56131 224.526 10.8118 219.891 12.3752C219.142 12.6251 218.397 12.8815 217.654 13.142C219.693 12.987 221.803 12.8454 224.042 12.7186C255.504 11.6214 243.984 11.8729 263.535 12.2208C267.348 12.3707 270.056 12.5433 271.965 12.6895C279.873 13.3358 274.111 13.3378 276.368 13.6034C279.114 13.9398 282.132 14.0647 285.547 14.4731C288.949 14.8902 281.564 14.212 289.573 15.0767C292.732 15.361 298.02 16.0501 303.445 16.8142C313.181 17.0251 322.853 17.875 332.452 19.3938C342.317 20.9332 352.173 22.8977 362.211 25.2797C363.669 25.6275 365.125 25.9844 366.577 26.3512C376.006 28.7149 385.323 31.6181 394.363 35.1585C395.331 35.5351 396.296 35.9185 397.259 36.3064C395.696 35.4162 394.117 34.538 392.524 33.6743C383.756 28.9193 374.536 24.595 365 20.7724C356.578 17.402 347.928 14.3421 339.164 11.7264C332.555 9.72593 325.894 8.26388 319.072 7.17083C310.641 5.79836 302.167 4.63509 293.805 3.7639C287.903 3.15505 282.081 2.80225 276.28 2.84882C270.392 2.84405 264.647 3.3004 258.95 4.08818ZM188.328 64.329C190.119 63.56 190.506 63.3105 188.701 63.9481C188.549 64.0022 188.397 64.0566 188.246 64.1107C174.61 69.0394 166.002 73.7227 175.45 69.6599C180.966 67.3893 185.913 65.3679 188.328 64.329ZM212.019 15.2096C203.466 18.4588 195.238 21.9969 187.346 25.7874C178.188 30.212 169.428 34.9786 161.127 40.1179C154.392 44.2436 148.241 48.8859 142.388 53.9681C134.915 60.4254 127.699 67.0954 120.751 73.9341C120.613 74.0689 120.476 74.2049 120.339 74.3401C121.874 73.1707 124.143 71.519 127.909 68.9083C133.907 64.7704 140.393 60.497 147.144 56.1437C154.11 51.6429 161.564 47.1763 169.424 43.4365C176.935 39.7929 184.769 36.6586 192.549 34.0037C203.963 30.1044 215.265 27.0487 225.679 24.6421C226.456 24.463 227.229 24.2875 227.997 24.1157C238.184 21.9182 233.047 23.1271 240.107 21.7538C248.453 20.2014 256.51 18.9791 264.65 18.1115C270.001 17.5434 275.38 17.1373 280.891 16.8858C285.495 16.6946 279.773 17.1092 284.6 16.9249C288.309 16.798 291.992 16.7343 295.656 16.7314C287.362 15.7236 279.759 15.119 271.839 14.6447C268.058 14.4298 264.202 14.2591 260.158 14.1373C241.6 13.5841 226.698 14.259 215.366 14.9575C214.775 14.9942 214.195 15.0311 213.625 15.0676C213.097 15.1121 212.562 15.1597 212.019 15.2096ZM136.174 66.2968C132.219 69.1308 147.477 59.0935 144.124 61.0724C143.98 61.1441 136.345 66.1581 136.174 66.2968ZM99.5331 45.9763C95.2217 48.3291 111.588 40.2218 108.068 41.7649C107.845 41.8292 99.7165 45.8382 99.5331 45.9763ZM113.71 40.2489C114.246 39.9958 114.799 39.4435 114.267 39.6755C103.962 44.2774 102.737 45.5498 113.71 40.2489Z" fill="#FFC294"/>
</svg>
