<svg width="1015" height="845" viewBox="0 0 1015 845" fill="none" xmlns="http://www.w3.org/2000/svg">
<path d="M311.437 95.9279L313.182 94.9502L311.437 95.9279ZM302.675 47.4368L300.678 47.3185L302.675 47.4368ZM306.962 39.841L308.38 41.2521L308.38 41.2521L306.962 39.841ZM331.041 26.9996L330.367 25.1166L331.041 26.9996ZM405.537 14.0013L405.308 12.0145L405.537 14.0013ZM478.554 10.9879L478.572 12.9878L478.554 10.9879ZM545.549 17.4682L545.953 15.5093L545.549 17.4682ZM635.401 47.9928L636.133 46.1313L635.401 47.9928ZM827.164 172.018L828.462 170.497L827.164 172.018ZM900.788 251.892L899.219 253.132L899.219 253.132L900.788 251.892ZM1011.02 566.993L1009.03 567.166L1011.02 566.993ZM1008.44 663.368L1006.47 663.003L1008.44 663.368ZM965.848 754.392L964.205 753.252L964.205 753.252L965.848 754.392ZM896.99 813.343L898.084 815.017L896.99 813.343ZM799.529 840.842L799.27 838.858L799.529 840.842ZM701.961 835.97L702.296 833.998L701.961 835.97ZM136.903 574.287L138.202 572.766L136.903 574.287ZM65.5787 502.774L67.1323 501.515L65.5787 502.774ZM14.8089 409.265L12.953 410.011L14.8089 409.265ZM4.21623 359.155L6.2024 358.92L4.21623 359.155ZM5.63182 297.419L7.61085 297.708L5.63182 297.419ZM18.4095 252.319L16.5224 251.656L16.5224 251.656L18.4095 252.319ZM49.6228 191.056L47.896 190.047L49.6228 191.056ZM123.988 108.794L122.671 107.289L122.671 107.289L123.988 108.794ZM169.823 79.4852L168.86 77.7323L169.823 79.4852ZM225.442 56.9371L226.07 58.8358L225.442 56.9371ZM297.112 42.9832L297.34 44.9702L297.112 42.9832ZM399.664 46.1527L399.372 48.1312L399.664 46.1527ZM865.663 315.912L867.141 314.564L867.141 314.564L865.663 315.912ZM923.174 388.484L921.491 389.566L921.491 389.566L923.174 388.484ZM963.164 482.86L965.077 482.275L963.164 482.86ZM971.788 537.745L969.795 537.91L971.788 537.745ZM970.825 604.719L968.838 604.491L970.825 604.719ZM958.04 646.14L959.883 646.915L959.883 646.915L958.04 646.14ZM937.072 678.294L935.508 677.049L935.508 677.049L937.072 678.294ZM906.877 704.775L905.739 703.13L906.877 704.775ZM817.966 735L817.592 733.035L817.966 735ZM712.735 739.766L712.76 737.766L712.735 739.766ZM221.257 527.791L222.52 526.241L222.52 526.241L221.257 527.791ZM144.325 456.912L145.778 455.538L144.325 456.912ZM105.469 407.993L107.113 406.853L105.469 407.993ZM60.3927 312.004L62.2936 311.383L60.3927 312.004ZM54.6175 249.678L52.6175 249.663L54.6175 249.678ZM65.6066 206.258L67.4481 207.039L67.4481 207.039L65.6066 206.258ZM89.7292 169.799L88.1909 168.521L88.1909 168.521L89.7292 169.799ZM174.239 115.124L173.361 113.327L173.361 113.327L174.239 115.124ZM235.041 93.9787L235.602 95.8984L235.602 95.8984L235.041 93.9787ZM300.473 81.9993L300.729 83.9828L300.473 81.9993ZM408.211 79.2394L408.24 77.2396L408.211 79.2394ZM499.176 92.5076L498.722 94.4553L499.176 92.5076ZM852.814 323.13L851.244 324.369L851.244 324.369L852.814 323.13ZM907.866 407.66L909.639 406.735L909.639 406.735L907.866 407.66ZM930.284 463.018L932.183 462.391L932.183 462.391L930.284 463.018ZM941.531 517.835L939.547 518.082L941.531 517.835ZM943.071 599.578L945.07 599.624L943.071 599.578ZM931.157 657.167L929.261 656.528L931.157 657.167ZM908.746 693.128L907.223 691.832L907.223 691.832L908.746 693.128ZM876.104 717.392L877.096 719.128L877.096 719.128L876.104 717.392ZM782.877 741.621L783.108 743.608L782.877 741.621ZM703.279 741.545L703.139 743.54L703.279 741.545ZM605.073 718.505L604.5 720.421L605.073 718.505ZM195.587 451.757L197.089 450.437L195.587 451.757ZM130.544 364.796L132.253 363.756L130.544 364.796ZM102.118 305.432L100.254 306.154L102.118 305.432ZM84.8565 195.374L82.8566 195.39L84.8565 195.374ZM95.2524 148.95L93.3882 148.225L93.3882 148.225L95.2524 148.95ZM154.531 68.0007L153.097 66.6063L154.531 68.0007ZM252.822 16.0821L253.488 17.9677L252.822 16.0821ZM321.971 4.32785L322.158 6.31914L321.971 4.32785ZM421.799 7.32113L421.476 9.29497L421.799 7.32113ZM505.534 31.5532L504.851 33.4329L505.534 31.5532ZM572.137 60.7001L573.006 58.8988L573.006 58.8988L572.137 60.7001ZM659.926 116.82L658.724 118.417L659.926 116.82ZM968.287 548.007L970.166 547.32L970.166 547.32L968.287 548.007ZM990.896 640.684L988.917 640.978L990.896 640.684ZM992.173 707.136L994.166 707.3L992.173 707.136ZM974.532 748.672L973.007 747.377L974.532 748.672ZM944.732 768.455L945.574 770.269L944.732 768.455ZM887.176 783.551L887.564 785.513L887.176 783.551ZM815.957 787.909L815.964 789.909L815.957 787.909ZM732.365 775.547L732.781 773.591L732.365 775.547ZM239.277 460.112L240.769 458.78L239.277 460.112ZM190.182 395.714L191.845 394.603L190.182 395.714ZM157.974 335.716L156.151 336.538L157.974 335.716ZM142.459 236.896L144.459 236.922L142.459 236.896ZM156.367 194.512L154.555 193.666L154.555 193.666L156.367 194.512ZM220.331 123.575L221.631 125.095L220.331 123.575ZM269.106 92.948L270.047 94.7129L270.047 94.7129L269.106 92.948ZM325.378 73.317L325.896 75.2486L325.896 75.2486L325.378 73.317ZM399.325 62.5397L399.479 64.5337L399.325 62.5397ZM505.291 66.1297L505.603 64.1541L505.291 66.1297ZM581.661 86.967L581.022 88.8624L581.661 86.967ZM660.229 123.298L661.176 121.536L661.176 121.536L660.229 123.298ZM736.3 175.491L735.037 177.042L736.3 175.491ZM805.625 244.211L804.143 245.555L805.625 244.211ZM867.301 327.932L865.622 329.02L865.622 329.02L867.301 327.932ZM913.05 417.099L914.898 416.334L913.05 417.099ZM939.747 502.389L941.69 501.915L939.747 502.389ZM948.102 577.857L946.103 577.902L948.102 577.857ZM938.987 635.54L937.114 634.837L938.987 635.54ZM912.766 673.189L911.328 671.799L912.766 673.189ZM875.991 695.77L875.213 693.927L875.991 695.77ZM827.858 704.616L827.758 702.618L827.858 704.616ZM750.541 697.322L750.978 695.371L750.541 697.322ZM361.045 453.931L362.416 452.475L362.416 452.475L361.045 453.931ZM294.621 382.015L293.057 383.262L293.057 383.262L294.621 382.015ZM253.228 319.536L254.951 318.521L253.228 319.536ZM224.155 255.952L226.025 255.243L224.155 255.952ZM211.406 199.783L209.416 199.984L211.406 199.783ZM213.623 154.252L211.665 153.845L211.653 153.903L211.645 153.961L213.623 154.252ZM315.291 99.7698L316.245 98.0124C315.63 97.678 315.205 97.4406 314.761 97.0464C314.324 96.659 313.799 96.0521 313.182 94.9502L311.437 95.9279L309.692 96.9055C310.483 98.3168 311.273 99.2987 312.106 100.038C312.931 100.77 313.729 101.197 314.336 101.527L315.291 99.7698ZM311.437 95.9279L313.182 94.9502C303.358 77.4178 304.24 54.8319 304.671 47.5551L302.675 47.4368L300.678 47.3185C300.248 54.5816 299.24 78.2527 309.692 96.9055L311.437 95.9279ZM302.675 47.4368L304.671 47.5551C304.814 45.1414 306.108 43.5334 308.38 41.2521L306.962 39.841L305.545 38.4299C303.26 40.725 300.918 43.2771 300.678 47.3185L302.675 47.4368ZM306.962 39.841L308.38 41.2521C313.065 36.5458 321.003 32.7159 331.715 28.8827L331.041 26.9996L330.367 25.1166C319.633 28.9578 310.921 33.0295 305.545 38.4299L306.962 39.841ZM331.041 26.9996L331.715 28.8827C344.236 24.4015 367.114 20.4434 405.766 15.9882L405.537 14.0013L405.308 12.0145C366.732 16.4609 343.393 20.4549 330.367 25.1166L331.041 26.9996ZM405.537 14.0013L405.766 15.9882C428.52 13.3653 458.274 13.1731 478.572 12.9878L478.554 10.9879L478.535 8.98801C458.309 9.17263 428.318 9.36216 405.308 12.0145L405.537 14.0013ZM478.554 10.9879L478.572 12.9878C508.488 12.7148 527.227 15.738 545.146 19.4271L545.549 17.4682L545.953 15.5093C527.831 11.7786 508.803 8.71174 478.535 8.98801L478.554 10.9879ZM545.549 17.4682L545.146 19.4271C563.849 23.2775 593.477 33.674 634.67 49.8544L635.401 47.9928L636.133 46.1313C594.982 29.968 565.044 19.4396 545.953 15.5093L545.549 17.4682ZM635.401 47.9928L634.67 49.8544C655.798 58.153 676.794 68.8838 696.953 80.0003L697.919 78.2489L698.884 76.4975C678.665 65.3477 657.495 54.5223 636.133 46.1313L635.401 47.9928ZM697.919 78.2489L696.953 80.0003C717.06 91.0884 735.419 102.752 758.233 119.591L759.42 117.982L760.608 116.372C737.661 99.4357 719.155 87.6757 698.884 76.4975L697.919 78.2489ZM759.42 117.982L758.233 119.591C781.066 136.444 807.799 158.122 825.866 173.539L827.164 172.018L828.462 170.497C810.343 155.034 783.535 133.295 760.608 116.372L759.42 117.982ZM827.164 172.018L825.866 173.539C852.999 196.693 874.099 221.339 899.219 253.132L900.788 251.892L902.357 250.652C877.192 218.802 855.898 193.909 828.462 170.497L827.164 172.018ZM900.788 251.892L899.219 253.132C911.848 269.116 922.423 286.589 932.644 305.038L934.393 304.068L936.143 303.099C925.882 284.578 915.184 266.887 902.357 250.652L900.788 251.892ZM934.393 304.068L932.644 305.038C942.841 323.443 951.812 342.621 959.782 362.263L961.635 361.511L963.489 360.759C955.467 340.99 946.428 321.664 936.143 303.099L934.393 304.068ZM961.635 361.511L959.782 362.263C967.75 381.899 974.444 401.413 980.878 423.233L982.796 422.667L984.714 422.102C978.249 400.174 971.513 380.535 963.489 360.759L961.635 361.511ZM982.796 422.667L980.878 423.233C987.312 445.055 993.278 468.575 998.237 493.359L1000.2 492.967L1002.16 492.574C997.175 467.664 991.179 444.028 984.714 422.102L982.796 422.667ZM1000.2 492.967L998.237 493.359C1003.2 518.144 1006.96 543.472 1009.03 567.166L1011.02 566.993L1013.01 566.819C1010.93 542.959 1007.14 517.484 1002.16 492.574L1000.2 492.967ZM1011.02 566.993L1009.03 567.166C1012.93 612.052 1010.03 643.841 1006.47 663.003L1008.44 663.368L1010.4 663.733C1014.03 644.187 1016.95 612.035 1013.01 566.819L1011.02 566.993ZM1008.44 663.368L1006.47 663.003C999.817 698.845 981.454 728.405 964.205 753.252L965.848 754.392L967.491 755.533C984.796 730.604 1003.59 700.457 1010.4 663.733L1008.44 663.368ZM965.848 754.392L964.205 753.252C947.43 777.416 921.877 794.687 895.896 811.669L896.99 813.343L898.084 815.017C923.975 798.094 950.204 780.435 967.491 755.533L965.848 754.392ZM896.99 813.343L895.896 811.669C869.439 828.961 838.103 833.784 799.27 838.858L799.529 840.842L799.788 842.825C838.485 837.768 870.744 832.887 898.084 815.017L896.99 813.343ZM799.529 840.842L799.27 838.858C767.094 843.063 736.357 839.788 702.296 833.998L701.961 835.97L701.626 837.942C735.809 843.752 767.015 847.107 799.788 842.825L799.529 840.842ZM701.961 835.97L702.296 833.998C679.399 830.106 645.504 820.354 589.153 800.484L588.488 802.371L587.823 804.257C644.193 824.133 678.365 833.988 701.626 837.942L701.961 835.97ZM588.488 802.371L589.153 800.484C532.842 780.629 455.421 750.007 396.798 724.614L396.003 726.449L395.208 728.284C453.906 753.71 531.414 784.367 587.823 804.257L588.488 802.371ZM396.003 726.449L396.798 724.614C338.197 699.23 300.746 680.007 270.186 663.037L269.215 664.785L268.244 666.534C298.92 683.568 336.488 702.849 395.208 728.284L396.003 726.449ZM269.215 664.785L270.186 663.037C239.62 646.064 217.087 631.93 196.016 617.303L194.875 618.946L193.735 620.589C214.926 635.299 237.574 649.503 268.244 666.534L269.215 664.785ZM194.875 618.946L196.016 617.303C174.94 602.672 156.005 587.973 138.202 572.766L136.903 574.287L135.604 575.808C153.507 591.1 172.548 605.881 193.735 620.589L194.875 618.946ZM136.903 574.287L138.202 572.766C103.534 543.154 80.5484 518.065 67.1323 501.515L65.5787 502.774L64.025 504.034C77.5975 520.777 100.755 546.04 135.604 575.808L136.903 574.287ZM65.5787 502.774L67.1323 501.515C43.7323 472.649 29.2912 439.956 16.6648 408.52L14.8089 409.265L12.953 410.011C25.5982 441.493 40.221 474.669 64.025 504.034L65.5787 502.774ZM14.8089 409.265L16.6648 408.52C10.7954 393.907 8.45888 378.007 6.2024 358.92L4.21623 359.155L2.23006 359.389C4.48446 378.459 6.86262 394.848 12.953 410.011L14.8089 409.265ZM4.21623 359.155L6.2024 358.92C3.26617 334.082 5.47625 312.335 7.61085 297.708L5.63182 297.419L3.65278 297.13C1.49346 311.926 -0.764109 334.062 2.23006 359.389L4.21623 359.155ZM5.63182 297.419L7.61085 297.708C9.76282 282.962 14.9316 268.261 20.2965 252.982L18.4095 252.319L16.5224 251.656C11.1853 266.856 5.87075 281.932 3.65278 297.13L5.63182 297.419ZM18.4095 252.319L20.2965 252.982C25.7975 237.315 37.3164 216.082 51.3497 192.065L49.6228 191.056L47.896 190.047C33.8836 214.028 22.1689 235.576 16.5224 251.656L18.4095 252.319ZM49.6228 191.056L51.3497 192.065C70.5474 159.209 96.8063 135.225 125.304 110.3L123.988 108.794L122.671 107.289C94.1817 132.207 67.4584 156.567 47.896 190.047L49.6228 191.056ZM123.988 108.794L125.304 110.3C138.557 98.7085 154.345 90.2701 170.786 81.2381L169.823 79.4852L168.86 77.7323C152.534 86.7008 136.318 95.3526 122.671 107.289L123.988 108.794ZM169.823 79.4852L170.786 81.2381C187.607 71.9976 206.562 65.2907 226.07 58.8358L225.442 56.9371L224.814 55.0383C205.302 61.4944 186.034 68.2979 168.86 77.7323L169.823 79.4852ZM225.442 56.9371L226.07 58.8358C245.888 52.2786 268.241 48.3019 297.34 44.9702L297.112 42.9832L296.885 40.9962C267.686 44.3393 245.017 48.3536 224.814 55.0383L225.442 56.9371ZM297.112 42.9832L297.34 44.9702C337.175 40.4092 373.51 44.3078 399.372 48.1312L399.664 46.1527L399.957 44.1743C373.959 40.3307 337.226 36.3772 296.885 40.9962L297.112 42.9832ZM399.664 46.1527L399.372 48.1312C412.465 50.067 425.526 52.9917 446.334 58.6776L446.861 56.7484L447.388 54.8191C426.507 49.113 413.274 46.1431 399.957 44.1743L399.664 46.1527ZM446.861 56.7484L446.334 58.6776C467.133 64.3614 495.175 72.9488 522.264 83.2103L522.972 81.34L523.681 79.4697C496.444 69.1524 468.277 60.5274 447.388 54.8191L446.861 56.7484ZM522.972 81.34L522.264 83.2103C549.339 93.4668 574.638 105.145 600.673 118.606L601.591 116.83L602.51 115.053C576.371 101.538 550.93 89.7921 523.681 79.4697L522.972 81.34ZM601.591 116.83L600.673 118.606C626.708 132.068 652.692 146.948 678.582 163.442L679.657 161.755L680.732 160.068C654.738 143.509 628.649 128.569 602.51 115.053L601.591 116.83ZM679.657 161.755L678.582 163.442C704.472 179.936 729.483 197.594 752.132 214.949L753.349 213.361L754.565 211.774C731.83 194.353 706.725 176.628 680.732 160.068L679.657 161.755ZM753.349 213.361L752.132 214.949C774.776 232.3 794.297 248.809 812.894 265.893L814.247 264.42L815.6 262.947C796.917 245.784 777.305 229.198 754.565 211.774L753.349 213.361ZM814.247 264.42L812.894 265.893C831.491 282.978 848.57 300.133 864.185 317.259L865.663 315.912L867.141 314.564C851.443 297.348 834.281 280.109 815.6 262.947L814.247 264.42ZM865.663 315.912L864.185 317.259C894.267 350.252 912.224 375.144 921.491 389.566L923.174 388.484L924.856 387.403C915.458 372.777 897.36 347.708 867.141 314.564L865.663 315.912ZM923.174 388.484L921.491 389.566C940.073 418.483 951.294 450.924 961.252 483.446L963.164 482.86L965.077 482.275C955.106 449.711 943.756 416.815 924.856 387.403L923.174 388.484ZM963.164 482.86L961.252 483.446C966.434 500.372 968.122 517.733 969.795 537.91L971.788 537.745L973.781 537.58C972.111 517.434 970.402 499.666 965.077 482.275L963.164 482.86ZM971.788 537.745L969.795 537.91C972.105 565.774 970.537 589.702 968.838 604.491L970.825 604.719L972.812 604.947C974.533 589.965 976.118 565.766 973.781 537.58L971.788 537.745ZM970.825 604.719L968.838 604.491C967.208 618.689 961.694 632.303 956.197 645.364L958.04 646.14L959.883 646.915C965.361 633.903 971.108 619.792 972.812 604.947L970.825 604.719ZM958.04 646.14L956.197 645.364C951.341 656.899 943.642 666.83 935.508 677.049L937.072 678.294L938.637 679.54C946.739 669.362 954.784 659.029 959.883 646.915L958.04 646.14ZM937.072 678.294L935.508 677.049C927.472 687.143 916.919 695.396 905.739 703.13L906.877 704.775L908.015 706.419C919.278 698.627 930.226 690.106 938.637 679.54L937.072 678.294ZM906.877 704.775L905.739 703.13C882.482 719.22 852.949 726.305 817.592 733.035L817.966 735L818.34 736.964C853.646 730.245 883.976 723.05 908.015 706.419L906.877 704.775ZM817.966 735L817.592 733.035C787.773 738.71 748.936 738.222 712.76 737.766L712.735 739.766L712.71 741.766C748.752 742.22 788.04 742.731 818.34 736.964L817.966 735ZM712.735 739.766L712.76 737.766C697.371 737.572 687.609 736.114 671.371 733.2L671.017 735.168L670.664 737.137C686.987 740.067 696.998 741.568 712.71 741.766L712.735 739.766ZM671.017 735.168L671.371 733.2C655.148 730.288 632.844 725.636 602.402 717.025L601.858 718.95L601.313 720.874C631.893 729.524 654.325 734.204 670.664 737.137L671.017 735.168ZM601.858 718.95L602.402 717.025C571.958 708.413 534.054 695.984 490.855 678.221L490.094 680.07L489.334 681.92C532.687 699.747 570.736 712.225 601.313 720.874L601.858 718.95ZM490.094 680.07L490.855 678.221C447.646 660.454 400.277 637.722 363.983 618.689L363.054 620.46L362.125 622.231C398.507 641.31 445.989 664.097 489.334 681.92L490.094 680.07ZM363.054 620.46L363.983 618.689C327.709 599.667 303.959 585.041 282.124 570.358L281.008 572.018L279.892 573.678C301.847 588.441 325.722 603.141 362.125 622.231L363.054 620.46ZM281.008 572.018L282.124 570.358C260.28 555.67 241.074 541.368 222.52 526.241L221.257 527.791L219.993 529.341C238.642 544.546 257.947 558.921 279.892 573.678L281.008 572.018ZM221.257 527.791L222.52 526.241C185.935 496.412 161.109 471.744 145.778 455.538L144.325 456.912L142.872 458.287C158.301 474.596 183.253 499.386 219.993 529.341L221.257 527.791ZM144.325 456.912L145.778 455.538C130.197 439.068 117.732 422.176 107.113 406.853L105.469 407.993L103.825 409.132C114.492 424.523 127.089 441.604 142.872 458.287L144.325 456.912ZM105.469 407.993L107.113 406.853C86.0328 376.438 72.6771 343.139 62.2936 311.383L60.3927 312.004L58.4917 312.626C68.9264 344.539 82.426 378.256 103.825 409.132L105.469 407.993ZM60.3927 312.004L62.2936 311.383C57.3174 296.163 56.4329 274.105 56.6174 249.693L54.6175 249.678L52.6175 249.663C52.4335 274.002 53.2833 296.696 58.4917 312.626L60.3927 312.004ZM54.6175 249.678L56.6174 249.693C56.7459 232.704 62.067 219.736 67.4481 207.039L65.6066 206.258L63.7652 205.478C58.3774 218.19 52.7525 231.806 52.6175 249.663L54.6175 249.678ZM65.6066 206.258L67.4481 207.039C72.7516 194.525 81.5873 182.729 91.2676 171.077L89.7292 169.799L88.1909 168.521C78.4747 180.216 69.312 192.39 63.7652 205.478L65.6066 206.258ZM89.7292 169.799L91.2676 171.077C109.98 148.553 141.214 133.484 175.117 116.921L174.239 115.124L173.361 113.327C139.733 129.755 107.573 145.192 88.1909 168.521L89.7292 169.799ZM174.239 115.124L175.117 116.921C192.882 108.242 213.903 102.239 235.602 95.8984L235.041 93.9787L234.48 92.059C212.889 98.3686 191.498 104.467 173.361 113.327L174.239 115.124ZM235.041 93.9787L235.602 95.8984C255.942 89.9541 277.642 86.9608 300.729 83.9828L300.473 81.9993L300.217 80.0157C277.161 82.9897 255.163 86.0146 234.48 92.059L235.041 93.9787ZM300.473 81.9993L300.729 83.9828C324.439 80.9245 362.413 80.5756 408.182 81.2392L408.211 79.2394L408.24 77.2396C362.519 76.5767 324.258 76.9147 300.217 80.0157L300.473 81.9993ZM408.211 79.2394L408.182 81.2392C442.3 81.7338 468.424 87.3876 498.722 94.4553L499.176 92.5076L499.63 90.5599C469.291 83.4824 442.814 77.7409 408.24 77.2396L408.211 79.2394ZM499.176 92.5076L498.722 94.4553C517.187 98.7629 541.659 106.411 560.458 112.501L561.074 110.598L561.69 108.695C542.899 102.608 518.28 94.9105 499.63 90.5599L499.176 92.5076ZM561.074 110.598L560.458 112.501C579.177 118.565 591.285 123.279 609.648 131.829L610.492 130.016L611.336 128.202C592.822 119.582 580.561 114.809 561.69 108.695L561.074 110.598ZM610.492 130.016L609.648 131.829C628.044 140.394 652.301 152.644 675.036 166.379L676.07 164.667L677.104 162.956C654.21 149.125 629.818 136.808 611.336 128.202L610.492 130.016ZM676.07 164.667L675.036 166.379C697.755 180.105 718.247 194.96 738.771 211.566L740.029 210.011L741.287 208.456C720.654 191.762 700.012 176.796 677.104 162.956L676.07 164.667ZM740.029 210.011L738.771 211.566C759.295 228.172 779.209 246.063 798.494 265.367L799.909 263.954L801.324 262.54C781.938 243.136 761.92 225.151 741.287 208.456L740.029 210.011ZM799.909 263.954L798.494 265.367C817.78 284.672 835.826 304.839 851.244 324.369L852.814 323.13L854.384 321.891C838.859 302.226 820.708 281.943 801.324 262.54L799.909 263.954ZM852.814 323.13L851.244 324.369C880.284 361.153 896.495 390.172 906.092 408.584L907.866 407.66L909.639 406.735C899.964 388.173 883.622 358.926 854.384 321.891L852.814 323.13ZM907.866 407.66L906.092 408.584C915.482 426.599 922.322 445.257 928.385 463.644L930.284 463.018L932.183 462.391C926.098 443.933 919.178 425.036 909.639 406.735L907.866 407.66ZM930.284 463.018L928.385 463.644C934.471 482.104 937.365 500.506 939.547 518.082L941.531 517.835L943.516 517.589C941.326 499.941 938.394 481.229 932.183 462.391L930.284 463.018ZM941.531 517.835L939.547 518.082C941.816 536.366 941.85 565.484 941.072 599.532L943.071 599.578L945.07 599.624C945.848 565.622 945.828 536.211 943.516 517.589L941.531 517.835ZM943.071 599.578L941.072 599.532C940.538 622.861 934.698 640.388 929.261 656.528L931.157 657.167L933.052 657.805C938.498 641.64 944.522 623.611 945.07 599.624L943.071 599.578ZM931.157 657.167L929.261 656.528C924.581 670.422 916.023 681.496 907.223 691.832L908.746 693.128L910.269 694.425C919.116 684.032 928.112 672.469 933.052 657.805L931.157 657.167ZM908.746 693.128L907.223 691.832C898.804 701.721 887.195 708.751 875.111 715.655L876.104 717.392L877.096 719.128C889.135 712.249 901.338 704.915 910.269 694.425L908.746 693.128ZM876.104 717.392L875.111 715.655C849.888 730.067 818.963 735.41 782.646 739.635L782.877 741.621L783.108 743.608C819.414 739.385 851.089 733.988 877.096 719.128L876.104 717.392ZM782.877 741.621L782.646 739.635C752.06 743.193 723.855 740.979 703.418 739.549L703.279 741.545L703.139 743.54C723.53 744.966 752.096 747.215 783.108 743.608L782.877 741.621ZM703.279 741.545L703.418 739.549C681.578 738.022 649.294 729.634 605.646 716.589L605.073 718.505L604.5 720.421C648.067 733.443 680.78 741.976 703.139 743.54L703.279 741.545ZM605.073 718.505L605.646 716.589C582.924 709.797 559.437 700.351 534.355 689.615L533.568 691.453L532.781 693.292C557.891 704.04 581.551 713.562 604.5 720.421L605.073 718.505ZM533.568 691.453L534.355 689.615C509.32 678.898 483.66 666.646 453.001 649.379L452.019 651.121L451.038 652.864C481.835 670.209 507.626 682.524 532.781 693.292L533.568 691.453ZM452.019 651.121L453.001 649.379C422.334 632.108 387.442 610.19 352.341 585.116L351.179 586.744L350.016 588.371C385.235 613.529 420.247 635.523 451.038 652.864L452.019 651.121ZM351.179 586.744L352.341 585.116C317.239 560.041 282.983 532.472 256.751 509.489L255.433 510.994L254.115 512.498C280.44 535.562 314.799 563.214 350.016 588.371L351.179 586.744ZM255.433 510.994L256.751 509.489C230.537 486.522 213.389 468.985 197.089 450.437L195.587 451.757L194.085 453.077C210.502 471.759 227.773 489.419 254.115 512.498L255.433 510.994ZM195.587 451.757L197.089 450.437C164.801 413.695 144.318 383.58 132.253 363.756L130.544 364.796L128.836 365.836C141.014 385.844 161.632 416.149 194.085 453.077L195.587 451.757ZM130.544 364.796L132.253 363.756C119.937 343.522 111.158 323.222 103.983 304.709L102.118 305.432L100.254 306.154C107.468 324.768 116.345 345.314 128.836 365.836L130.544 364.796ZM102.118 305.432L103.983 304.709C89.6256 267.664 87.147 229.767 86.8565 195.357L84.8565 195.374L82.8566 195.39C83.1482 229.928 85.6276 268.417 100.254 306.154L102.118 305.432ZM84.8565 195.374L86.8565 195.357C86.7148 178.584 91.7943 163.371 97.1166 149.674L95.2524 148.95L93.3882 148.225C88.0334 162.006 82.7082 177.816 82.8566 195.39L84.8565 195.374ZM95.2524 148.95L97.1166 149.674C108.352 120.76 131.121 94.9393 155.964 69.3951L154.531 68.0007L153.097 66.6063C128.267 92.1365 104.95 118.472 93.3882 148.225L95.2524 148.95ZM154.531 68.0007L155.964 69.3951C181.227 43.419 216.123 31.1793 253.488 17.9677L252.822 16.0821L252.155 14.1965C214.996 27.3349 179.131 39.8374 153.097 66.6063L154.531 68.0007ZM252.822 16.0821L253.488 17.9677C272.716 11.1693 294.228 8.9344 322.158 6.31914L321.971 4.32785L321.785 2.33656C293.957 4.94233 271.932 7.20362 252.155 14.1965L252.822 16.0821ZM321.971 4.32785L322.158 6.31914C361.92 2.59587 397.396 5.36163 421.476 9.29497L421.799 7.32113L422.121 5.34728C397.75 1.36643 361.93 -1.42251 321.785 2.33656L321.971 4.32785ZM421.799 7.32113L421.476 9.29497C446.586 13.3966 472.07 21.5208 504.851 33.4329L505.534 31.5532L506.217 29.6735C473.397 17.747 447.62 9.51245 422.121 5.34728L421.799 7.32113ZM505.534 31.5532L504.851 33.4329C524.979 40.7473 551.546 52.9869 571.268 62.5014L572.137 60.7001L573.006 58.8988C553.271 49.3782 526.549 37.062 506.217 29.6735L505.534 31.5532ZM572.137 60.7001L571.268 62.5014C603.121 77.8678 627.069 94.5916 658.724 118.417L659.926 116.82L661.129 115.222C629.416 91.352 605.218 74.4385 573.006 58.8988L572.137 60.7001ZM659.926 116.82L658.724 118.417C678.242 133.108 703.44 155.149 729.756 180.431L731.142 178.989L732.527 177.546C706.15 152.205 680.824 130.045 661.129 115.222L659.926 116.82ZM731.142 178.989L729.756 180.431C756.046 205.688 782.269 233.978 806.513 264.035L808.07 262.779L809.627 261.524C785.271 231.328 758.932 202.913 732.527 177.546L731.142 178.989ZM808.07 262.779L806.513 264.035C830.753 294.087 852.229 325.059 872.62 357.866L874.319 356.81L876.018 355.754C855.557 322.835 833.987 291.725 809.627 261.524L808.07 262.779ZM874.319 356.81L872.62 357.866C893.011 390.673 911.653 424.356 927.957 458.135L929.758 457.265L931.559 456.396C915.19 422.481 896.479 388.674 876.018 355.754L874.319 356.81ZM929.758 457.265L927.957 458.135C944.262 491.916 957.666 524.781 966.409 548.694L968.287 548.007L970.166 547.32C961.382 523.295 947.927 490.308 931.559 456.396L929.758 457.265ZM968.287 548.007L966.409 548.694C980.068 586.052 984.954 614.377 988.917 640.978L990.896 640.684L992.874 640.389C988.894 613.675 983.959 585.046 970.166 547.32L968.287 548.007ZM990.896 640.684L988.917 640.978C992.61 665.766 991.734 688.162 990.18 706.971L992.173 707.136L994.166 707.3C995.732 688.355 996.632 665.613 992.874 640.389L990.896 640.684ZM992.173 707.136L990.18 706.971C989.462 715.653 986.625 723.034 983.576 729.976L985.407 730.78L987.238 731.584C990.332 724.541 993.392 716.664 994.166 707.3L992.173 707.136ZM985.407 730.78L983.576 729.976C980.569 736.823 976.975 742.707 973.007 747.377L974.532 748.672L976.056 749.967C980.316 744.951 984.104 738.722 987.238 731.584L985.407 730.78ZM974.532 748.672L973.007 747.377C965.621 756.073 955.209 761.391 943.891 766.64L944.732 768.455L945.574 770.269C956.854 765.038 968.034 759.41 976.056 749.967L974.532 748.672ZM944.732 768.455L943.891 766.64C932.319 772.007 911.961 776.609 886.787 781.589L887.176 783.551L887.564 785.513C912.595 780.561 933.476 775.88 945.574 770.269L944.732 768.455ZM887.176 783.551L886.787 781.589C867.934 785.318 844.092 785.82 815.951 785.909L815.957 787.909L815.964 789.909C844.038 789.82 868.269 789.33 887.564 785.513L887.176 783.551ZM815.957 787.909L815.951 785.909C794.86 785.976 767.041 780.871 732.781 773.591L732.365 775.547L731.949 777.503C766.143 784.769 794.377 789.977 815.964 789.909L815.957 787.909ZM732.365 775.547L732.781 773.591C717.555 770.356 706.597 767.032 684.93 758.614L684.206 760.478L683.482 762.343C705.286 770.814 716.457 774.212 731.949 777.503L732.365 775.547ZM684.206 760.478L684.93 758.614C663.256 750.193 631.303 736.548 591.13 715.817L590.212 717.595L589.295 719.372C629.602 740.171 661.684 753.874 683.482 762.343L684.206 760.478ZM590.212 717.595L591.13 715.817C550.948 695.083 503.507 667.672 462.301 641.444L461.227 643.131L460.153 644.819C501.452 671.105 548.997 698.577 589.295 719.372L590.212 717.595ZM461.227 643.131L462.301 641.444C421.105 615.223 387.583 591.017 359.483 569.139L358.254 570.717L357.026 572.296C385.218 594.245 418.843 618.525 460.153 644.819L461.227 643.131ZM358.254 570.717L359.483 569.139C331.386 547.264 309.736 528.457 290.092 509.748L288.713 511.196L287.333 512.645C307.079 531.45 328.831 550.344 357.026 572.296L358.254 570.717ZM288.713 511.196L290.092 509.748C270.443 491.035 253.449 472.982 240.769 458.78L239.277 460.112L237.785 461.444C250.523 475.71 267.592 493.843 287.333 512.645L288.713 511.196ZM239.277 460.112L240.769 458.78C219.769 435.26 205.266 414.704 191.845 394.603L190.182 395.714L188.518 396.824C201.989 417 216.61 437.728 237.785 461.444L239.277 460.112ZM190.182 395.714L191.845 394.603C178.987 375.345 168.715 354.67 159.797 334.893L157.974 335.716L156.151 336.538C165.105 356.396 175.482 377.3 188.518 396.824L190.182 395.714ZM157.974 335.716L159.797 334.893C144.997 302.071 144.056 267.822 144.459 236.922L142.459 236.896L140.46 236.87C140.055 267.819 140.959 302.848 156.151 336.538L157.974 335.716ZM142.459 236.896L144.459 236.922C144.644 222.749 151.735 209.167 158.18 195.358L156.367 194.512L154.555 193.666C148.281 207.11 140.659 221.626 140.46 236.87L142.459 236.896ZM156.367 194.512L158.18 195.358C170.324 169.336 195.085 147.802 221.631 125.095L220.331 123.575L219.031 122.056C192.656 144.616 167.136 166.709 154.555 193.666L156.367 194.512ZM220.331 123.575L221.631 125.095C235.198 113.49 252.35 104.146 270.047 94.7129L269.106 92.948L268.165 91.1831C250.53 100.584 232.984 110.12 219.031 122.056L220.331 123.575ZM269.106 92.948L270.047 94.7129C286.57 85.9047 305.518 80.7185 325.896 75.2486L325.378 73.317L324.859 71.3854C304.562 76.8337 285.161 82.1234 268.165 91.1831L269.106 92.948ZM325.378 73.317L325.896 75.2486C346.896 69.6117 369.574 66.8471 399.479 64.5337L399.325 62.5397L399.171 60.5457C369.209 62.8634 346.23 65.649 324.859 71.3854L325.378 73.317ZM399.325 62.5397L399.479 64.5337C443.113 61.1584 481.01 64.325 504.979 68.1053L505.291 66.1297L505.603 64.1541C481.366 60.3316 443.153 57.1433 399.171 60.5457L399.325 62.5397ZM505.291 66.1297L504.979 68.1053C529.733 72.0093 555.051 80.1157 581.022 88.8624L581.661 86.967L582.299 85.0716C556.341 76.3297 530.73 68.1172 505.603 64.1541L505.291 66.1297ZM581.661 86.967L581.022 88.8624C607.269 97.7015 632.907 110.876 659.282 125.059L660.229 123.298L661.176 121.536C634.799 107.352 608.897 94.0294 582.299 85.0716L581.661 86.967ZM660.229 123.298L659.282 125.059C686.88 139.901 711.89 158.191 735.037 177.042L736.3 175.491L737.563 173.941C714.314 155.006 689.085 136.545 661.176 121.536L660.229 123.298ZM736.3 175.491L735.037 177.042C759.096 196.637 781.535 220.618 804.143 245.555L805.625 244.211L807.107 242.868C784.501 217.934 761.882 193.747 737.563 173.941L736.3 175.491ZM805.625 244.211L804.143 245.555C826.996 270.761 846.517 299.541 865.622 329.02L867.301 327.932L868.979 326.844C849.862 297.348 830.194 268.333 807.107 242.868L805.625 244.211ZM867.301 327.932L865.622 329.02C885.247 359.301 899.609 389.86 911.202 417.864L913.05 417.099L914.898 416.334C903.254 388.205 888.785 357.404 868.979 326.844L867.301 327.932ZM913.05 417.099L911.202 417.864C922.886 446.087 931.053 475.18 937.804 502.863L939.747 502.389L941.69 501.915C934.919 474.152 926.695 444.832 914.898 416.334L913.05 417.099ZM939.747 502.389L937.804 502.863C944.204 529.108 945.574 554.444 946.103 577.902L948.102 577.857L950.102 577.812C949.571 554.281 948.196 528.594 941.69 501.915L939.747 502.389ZM948.102 577.857L946.103 577.902C946.614 600.555 942.787 619.726 937.114 634.837L938.987 635.54L940.859 636.243C946.714 620.646 950.624 600.967 950.102 577.812L948.102 577.857ZM938.987 635.54L937.114 634.837C931.639 649.423 921.562 661.212 911.328 671.799L912.766 673.189L914.204 674.579C924.507 663.921 935.079 651.639 940.859 636.243L938.987 635.54ZM912.766 673.189L911.328 671.799C901.578 681.884 888.668 688.246 875.213 693.927L875.991 695.77L876.769 697.612C890.28 691.907 903.849 685.289 914.204 674.579L912.766 673.189ZM875.991 695.77L875.213 693.927C861.563 699.691 846.738 701.668 827.758 702.618L827.858 704.616L827.958 706.613C847.06 705.656 862.457 703.655 876.769 697.612L875.991 695.77ZM827.858 704.616L827.758 702.618C799.665 704.025 773.948 700.521 750.978 695.371L750.541 697.322L750.103 699.274C773.318 704.479 799.408 708.043 827.958 706.613L827.858 704.616ZM750.541 697.322L750.978 695.371C736.834 692.199 717.836 686.493 694.047 677.83L693.362 679.71L692.678 681.589C716.562 690.286 735.733 696.052 750.103 699.274L750.541 697.322ZM693.362 679.71L694.047 677.83C670.276 669.174 642.415 657.398 617.443 645.167L616.563 646.963L615.683 648.76C640.784 661.052 668.775 672.885 692.678 681.589L693.362 679.71ZM616.563 646.963L617.443 645.167C592.5 632.952 571.285 620.642 543.645 601.587L542.51 603.234L541.375 604.881C569.167 624.04 590.553 636.452 615.683 648.76L616.563 646.963ZM542.51 603.234L543.645 601.587C515.987 582.52 482.55 557.078 449.329 529.484L448.051 531.022L446.773 532.561C480.07 560.218 513.603 585.734 541.375 604.881L542.51 603.234ZM448.051 531.022L449.329 529.484C416.11 501.89 384.124 472.917 362.416 452.475L361.045 453.931L359.674 455.387C381.427 475.872 413.476 504.902 446.773 532.561L448.051 531.022ZM361.045 453.931L362.416 452.475C329.702 421.666 311.703 400.234 296.185 380.768L294.621 382.015L293.057 383.262C308.662 402.836 326.789 424.417 359.674 455.387L361.045 453.931ZM294.621 382.015L296.185 380.768C280.58 361.193 267.418 339.686 254.951 318.521L253.228 319.536L251.505 320.551C263.981 341.731 277.263 363.449 293.057 383.262L294.621 382.015ZM253.228 319.536L254.951 318.521C242.824 297.934 234.008 276.286 226.025 255.243L224.155 255.952L222.285 256.662C230.283 277.745 239.197 299.657 251.505 320.551L253.228 319.536ZM224.155 255.952L226.025 255.243C218.197 234.611 215.003 215.519 213.396 199.583L211.406 199.783L209.416 199.984C211.044 216.135 214.293 235.597 222.285 256.662L224.155 255.952ZM211.406 199.783L213.396 199.583C211.835 184.096 213.485 168.911 215.602 154.544L213.623 154.252L211.645 153.961C209.517 168.399 207.804 183.987 209.416 199.984L211.406 199.783ZM213.623 154.252L215.582 154.659C217.026 147.71 219.268 141.133 222.088 134.531L220.249 133.745L218.41 132.96C215.513 139.741 213.176 146.575 211.665 153.845L213.623 154.252ZM220.249 133.745L222.088 134.531C224.913 127.92 228.235 121.512 231.7 114.831L229.924 113.91L228.149 112.989C224.696 119.647 221.303 126.188 218.41 132.96L220.249 133.745Z" fill="#FFC294"/>
</svg>
