<svg width="1785" height="981" viewBox="0 0 1785 981" fill="none" xmlns="http://www.w3.org/2000/svg">
<path d="M879.702 1.07221C965.919 -3.94691 1052.73 8.93261 1135.65 33.7675C1174.44 40.0777 1213.14 48.3142 1251.93 58.3935C1288.34 67.8554 1315.37 76.6411 1347.63 89.4609C1402.57 111.29 1457.89 136.159 1508.18 168.428C1584.37 182.816 1658.3 205.317 1721.39 241.596C1733.43 248.518 1742.79 257.984 1751.74 267.268C1760.83 276.71 1767.61 287.915 1773.3 299.303C1779.15 311.01 1781.59 324.855 1783.31 338.835C1786.73 366.664 1779.68 395.003 1768.31 421.787C1756.95 448.576 1741.2 473.972 1727.09 495.931C1655.86 606.749 1548.48 691.149 1428.96 744.111C1399.85 757.012 1368.56 769.078 1303 787.706C1262.78 799.137 1222.05 809.984 1180.94 820.087C1030.97 886.77 871.672 933.995 710.74 963.904C661.45 973.065 630.167 976.692 591.887 978.676C458.744 985.575 306.626 978.167 187.28 911.374C176.432 905.303 166.525 898.943 157.607 892.721C148.036 888.683 138.585 884.307 129.271 879.569C111.679 870.621 95.0941 859.137 79.0975 847.104C62.7636 834.819 50.2598 821.005 40.3358 808.474C30.4112 795.941 24.3179 781.542 19.5711 767.848C18.9012 765.915 18.332 763.962 17.8436 761.995C12.9216 754.402 9.75038 745.801 6.82991 738.01C-8.60949 696.819 3.99213 650.244 25.9823 607.2C48.0047 564.093 79.6767 524.074 103.082 495.766C103.485 495.278 103.89 494.791 104.295 494.304C123.305 445.09 157.434 400.915 196.847 361.35C241.273 316.75 292.558 277.865 336.751 244.147C377.374 213.154 419.693 184.194 457.235 160.665C498.75 134.646 540.861 111.987 583.982 92.8779C641.156 60.7999 701.648 35.2759 768.52 17.5195C809.635 6.60229 841.98 3.26818 879.702 1.07221ZM1158.59 825.499C1046.02 852.326 930.771 873.384 815.19 885.379C744.081 904.006 671.23 917.272 596.758 924.774C460.744 938.476 307.913 949.168 175.796 899.936C180.099 902.616 184.579 905.278 189.234 907.884C307.535 974.092 458.672 981.573 591.68 974.682C629.763 972.708 660.87 969.104 710.01 959.972C863.273 931.488 1015.02 887.277 1158.59 825.499ZM73.5506 805.045C77.1369 810.183 81.0161 815.318 85.2235 820.391C98.7587 836.71 112.46 852.041 127.462 864.491C136.025 871.598 146.769 880.26 159.56 889.205C294.515 945.989 454.061 935.129 596.357 920.795C661.681 914.215 725.755 903.187 788.502 887.983C739.166 892.498 689.803 895.318 640.596 896.184C594.668 900.564 548.927 901.968 503.927 899.784C403.189 897.686 297.588 883.225 206.28 847.257C176.908 841.608 147.779 834.21 118.956 824.883C102.532 819.568 87.342 812.702 73.5506 805.045ZM385.284 880.771C423.983 888.965 463.703 893.824 504.046 895.785C522.273 896.164 540.347 896.138 558.152 895.759C554.421 895.652 550.691 895.534 546.963 895.403C495.078 893.579 439.69 889.96 385.284 880.771ZM1023.58 796.55C913.335 820.108 801.449 836.104 688.46 844.457C632.568 848.589 600.628 848.841 562.072 846.179C557.831 845.886 553.581 845.575 549.323 845.249C469.836 858.74 390.407 864.803 312.145 860.279C388.369 882.235 471.266 888.738 547.103 891.405C574.984 892.386 602.955 892.677 630.982 892.328C642.012 891.542 653.58 890.599 665.706 889.469C686.685 886.975 707.689 883.884 728.664 880.25C829.684 862.745 929.967 832.685 1023.58 796.55ZM228.129 851.129C287.328 871.956 351.802 884.367 416.602 890.703C377.181 884.27 338.658 874.605 301.438 861.262C299.118 860.548 296.804 859.821 294.497 859.077C272.264 857.33 250.133 854.705 228.129 851.129ZM695.894 890.401C735.393 888.562 774.95 885.528 814.473 881.432C835.424 875.939 856.224 869.978 876.869 863.561C813.564 874.769 762.263 882.001 732.19 885.978C719.627 887.64 707.533 889.106 695.894 890.401ZM24.8035 770.622C29.2703 782.854 34.917 795.188 43.4715 805.99C53.2701 818.364 65.5341 831.897 81.5018 843.907C97.4322 855.889 113.8 867.213 131.085 876.005C134.799 877.894 138.536 879.725 142.294 881.5C135.751 876.481 129.945 871.751 124.907 867.569C109.61 854.874 95.7182 839.31 82.1444 822.944C75.9901 815.524 70.5283 807.98 65.658 800.49C50.903 791.645 37.9255 781.999 26.9569 772.601C26.2116 771.962 25.4951 771.301 24.8035 770.622ZM1319.76 745.693C1290.04 757.471 1259.36 768.397 1228.3 778.511C1117.37 814.634 1001.45 840.483 906.804 858.122C884.722 865.488 862.459 872.329 840.019 878.637C954.454 865.462 1068.43 843.609 1179.65 816.286C1204.99 805.01 1230.07 793.179 1254.85 780.78C1282.73 766.825 1303.59 755.48 1319.76 745.693ZM1079.26 783.976C1068.92 786.436 1058.57 788.83 1048.21 791.156C959.108 826.902 863.351 857.524 766.212 877.248C801.761 872.149 850.084 864.618 905.801 854.239C964.94 834.499 1022.78 810.996 1079.26 783.976ZM96.7879 627.65C94.4757 650.458 95.8156 673.335 103.039 694.733C107.427 707.732 113.193 722.733 123.968 736.835C132.778 748.365 142.029 759.717 151.99 770.45C165.237 783.9 179.997 796.348 196.432 806.496C228.409 826.241 261.905 842.36 296.583 855.228C374.393 861.177 453.493 856.354 532.793 843.895C414.45 833.561 291.574 808.6 192.256 740.892C161.8 720.129 140.84 699.75 130.574 688.216C114.578 670.245 103.483 649.589 96.7879 627.65ZM91.2196 603.366C74.4894 638.302 65.4638 674.839 73.0457 709.316C75.9367 722.462 79.5274 736.113 86.5682 747.956C93.9315 760.342 101.853 773.262 113.369 783.428C137.543 804.767 166.029 826.522 200.913 840.795C203.066 841.676 205.229 842.543 207.399 843.399C230.974 847.921 254.711 851.307 278.577 853.654C251.304 843.853 225.168 831.742 200.854 816.743C181.251 804.651 164.306 789.597 149.076 773.19C136.683 760.599 125.631 747.179 115.791 733.983C105.774 720.55 100.43 704.782 95.7069 690.332C87.9491 666.599 88.288 642.93 93.6444 620.13C93.7628 619.242 93.886 618.354 94.0145 617.467C92.8956 612.809 91.9657 608.104 91.2196 603.366ZM1366.19 712.453C1363.51 713.165 1360.83 713.862 1358.15 714.541C1316.1 725.222 1273.26 734.722 1229.88 743.031C1186.07 756.446 1141.93 768.624 1097.51 779.559C1044.01 805.929 989.26 829.145 933.326 848.993C1022.35 831.623 1126.76 807.369 1227.06 774.707C1265.01 762.349 1302.35 748.792 1338.04 733.958C1339.24 733.132 1340.41 732.316 1341.55 731.51C1350.21 725.365 1358.42 719.01 1366.19 712.453ZM1103.24 763.721C997.919 778.033 890.975 785.505 785.897 785.975C766.372 792.227 746.786 798.216 727.154 803.89C673.511 819.393 619.51 832.559 565.503 842.399C602.433 844.816 633.943 844.477 688.165 840.469C809.273 831.515 929.111 813.768 1047.02 787.324C1066.08 779.673 1084.84 771.786 1103.24 763.721ZM176.969 488.757C167.563 499.085 158.624 509.744 150.236 520.754C128.576 549.185 107.314 582.636 98.2752 618.043C104.416 642.621 115.959 665.779 133.562 685.557C143.622 696.858 164.337 717.016 194.509 737.586C297.444 807.761 426.137 831.759 549.138 841.223C608.186 831.178 667.305 817.022 726.043 800.047C741.593 795.553 757.114 790.861 772.598 785.997C740.269 785.959 708.13 785.257 676.285 783.884C621.968 781.541 576.936 776.775 531.881 769.73C461.826 758.778 370.551 744.333 297.077 710.169C223.528 675.97 167.371 621.772 168.525 531.263C168.714 516.456 171.753 502.282 176.969 488.757ZM88.9461 577.136C81.8155 586.4 74.6047 595.991 67.6629 605.881C64.2292 611.96 60.9777 618.139 57.9715 624.401C42.9494 655.695 34.1396 688.917 39.2655 722.135C41.7021 737.925 45.3405 754.732 53.1463 770.409C57.4958 779.145 62.5536 788.298 68.5106 797.533C83.8969 806.686 101.212 814.937 120.187 821.077C142.53 828.307 165.062 834.373 187.752 839.358C157.519 825.05 132.32 805.492 110.722 786.427C98.6748 775.793 90.4714 762.349 83.1297 750C75.7357 737.562 72.0396 723.363 69.1395 710.176C60.8938 672.68 71.6726 633.199 90.243 596.28C89.4924 589.937 89.0641 583.546 88.9461 577.136ZM1517.02 174.216C1542.68 191.346 1566.91 210.52 1588.96 232.339C1604.3 247.516 1614.91 263.727 1622.78 277.756C1630.37 291.293 1633.02 305.517 1634.54 318.241C1634.7 319.588 1634.82 320.928 1634.89 322.264C1639.78 326.751 1643.69 330.634 1646.67 333.839C1657.33 345.313 1664.39 357.694 1669.91 368.734C1675.29 379.502 1676.96 391.473 1677.88 406.714C1679.24 429.448 1675.41 450.261 1671.29 464.97C1658.06 512.13 1630.54 549.387 1595.62 579.721C1558.57 627.725 1505.24 661.412 1447.81 685.208C1414.59 704.187 1378.2 721.581 1339.95 737.495C1321.79 749.936 1296.19 764.56 1256.64 784.357C1238.35 793.509 1219.9 802.35 1201.3 810.889C1235.13 802.338 1268.69 793.298 1301.91 783.858C1367.33 765.271 1398.43 753.265 1427.34 740.454C1546.25 687.758 1652.98 603.831 1723.72 493.768C1737.83 471.819 1753.41 446.672 1764.63 420.225C1775.85 393.772 1782.64 366.18 1779.34 339.323C1777.62 325.388 1775.24 312.139 1769.72 301.092C1764.12 289.878 1757.55 279.073 1748.86 270.043C1739.89 260.741 1730.88 251.668 1719.4 245.063C1659.4 210.564 1589.46 188.591 1517.02 174.216ZM48.8582 634.91C32.0897 663.471 19.8998 693.85 19.2576 725.317C19.013 737.307 18.8911 749.168 21.5614 760.378C23.8108 763.761 26.4218 766.875 29.5594 769.563C38.6449 777.348 49.1216 785.299 60.8514 792.807C56.6209 785.783 52.8869 778.862 49.5662 772.192C41.4847 755.961 37.77 738.672 35.3123 722.745C30.6928 692.809 37.0573 663.058 48.8582 634.91ZM1176.69 173.554C1091.69 158.732 1006.29 154.804 918.087 159.703C906.319 160.357 896.364 161.075 887.275 161.934C884.962 162.268 882.65 162.607 880.339 162.951C853.358 166.972 826.429 171.453 799.6 176.46C726.157 191.942 654.478 213.313 584.842 240.169C667.98 212.898 753.656 194.371 841.933 187.928C962.115 179.156 1071.34 193.848 1184.74 234.597C1218.74 246.815 1250.92 260.519 1280.34 274.927C1309.76 289.334 1335.46 304.03 1352.57 314.732C1389.44 337.795 1410.21 361.258 1413.17 387.168C1416.14 413.097 1401.16 440.572 1368.93 471.39L1368.91 471.407L1368.89 471.424C1360.42 479.112 1350.96 486.931 1341.25 494.947L1338.71 491.863C1348.42 483.836 1357.81 476.081 1366.19 468.471C1398.19 437.871 1411.94 411.589 1409.2 387.621C1406.46 363.627 1387.09 341.046 1350.45 318.124C1333.45 307.493 1307.87 292.863 1278.58 278.518C1249.29 264.175 1217.25 250.53 1183.39 238.361C1070.52 197.803 961.855 183.185 842.224 191.917C726.673 200.351 615.535 229.58 508.644 272.1C465.496 291.647 423.208 313.336 381.851 337.066C373.647 341.774 365.493 346.572 357.392 351.459C356.816 354.46 356.487 356.966 356.39 358.938L352.394 358.743C352.459 357.423 352.617 355.906 352.868 354.199C302.784 384.694 254.775 418.621 209.534 455.91C201.121 463.744 192.957 471.783 185.089 480.04C177.355 496.219 172.754 513.319 172.524 531.313C171.398 619.618 225.966 672.692 298.763 706.542C371.637 740.427 462.333 754.808 532.499 765.778C577.409 772.8 622.293 777.551 676.458 779.888C712.401 781.438 748.719 782.131 785.264 781.977C968.106 723.375 1145.48 641.525 1303.71 576.211C1366.36 550.35 1404.87 533.075 1431.41 519.989C1445.79 494.086 1455.07 466.524 1455.01 438.813C1454.98 423.713 1454.85 408.931 1453.47 394.691C1451.62 387.213 1449.53 379.708 1447.15 372.209C1442.68 358.124 1437.8 343.947 1432.44 329.852C1407.35 286.311 1371.56 251.212 1326.26 228.124C1291.76 210.538 1258.67 195.194 1224.54 185.528C1208.64 181.028 1192.69 177.041 1176.69 173.554ZM1427.87 526.172C1401.44 538.985 1363.89 555.699 1305.24 579.909C1150.69 643.701 977.377 723.507 798.547 781.886C903.98 780.851 1011.15 772.78 1116.53 757.838C1151.74 742.097 1185.57 725.742 1217.65 709.182C1231.94 700.543 1246.14 691.674 1260.23 682.578C1303.28 654.795 1331.51 633.681 1348.49 618.717C1372.94 597.182 1399.65 569.427 1420.2 538.401C1422.87 534.376 1425.43 530.296 1427.87 526.172ZM1126.35 760.466C1123.45 760.889 1120.55 761.306 1117.65 761.719C1102.39 768.536 1086.87 775.237 1071.12 781.791C1079.47 779.83 1087.8 777.825 1096.13 775.777C1106.25 770.786 1116.33 765.682 1126.35 760.466ZM1193.51 749.698C1175.2 752.904 1156.81 755.901 1138.36 758.686C1130.26 762.969 1122.14 767.18 1113.99 771.316C1140.6 764.558 1167.11 757.351 1193.51 749.698ZM1163.35 740.609C1152.66 745.708 1141.83 750.764 1130.85 755.764C1132.93 755.456 1135.01 755.146 1137.08 754.833C1145.87 750.177 1154.63 745.436 1163.35 740.609ZM1459.1 566.883C1392.02 618.778 1315 661.732 1247.92 697.763C1238.65 702.743 1229.21 707.714 1219.61 712.669C1196.33 726.733 1172.79 740.184 1148.99 753.008C1175.79 748.833 1202.45 744.211 1228.91 739.144C1282.01 722.878 1334.64 704.792 1386.72 684.892C1390.96 683.271 1395.25 681.628 1399.56 679.965C1418.89 658.091 1434.09 634.351 1445.12 608.797C1450.93 595.336 1455.59 581.363 1459.1 566.883ZM100.264 505.493C77.6934 533.131 49.566 569.83 29.5448 609.02C7.70442 651.771 -4.25796 697.034 10.575 736.606C12.2038 740.952 13.8584 745.373 15.7723 749.645C14.9708 741.505 15.0947 733.271 15.2586 725.236C15.9217 692.744 28.5172 661.619 45.5018 632.726C51.3314 622.808 57.6906 613.132 64.2811 603.736C71.9105 590.248 80.4112 577.268 89.0907 564.975C89.8247 547.553 92.7983 530.134 97.7957 513.317C98.5748 510.696 99.3985 508.087 100.264 505.493ZM1388.15 688.628C1347.58 704.128 1306.69 718.529 1265.5 731.829C1296.4 725.385 1326.99 718.33 1357.17 710.664C1362.49 709.314 1367.81 707.9 1373.15 706.422C1380.37 699.988 1387.17 693.364 1393.56 686.553C1391.75 687.247 1389.95 687.941 1388.15 688.628ZM1419.78 695.958C1404.96 701.214 1390.01 705.881 1375.11 710.028C1368.55 715.844 1361.65 721.503 1354.43 727.004C1377.06 717.198 1398.94 706.855 1419.78 695.958ZM1524.52 628.455C1484.67 650.54 1441.79 667.967 1401.91 683.346C1395.62 690.422 1388.9 697.3 1381.76 703.98C1403.37 697.704 1424.99 690.321 1446.03 681.619C1463.71 671.511 1480.48 660.958 1496.15 649.941C1506.07 642.962 1515.54 635.8 1524.52 628.455ZM1466.94 505.766C1458.03 510.842 1447.69 516.402 1434.3 523.024C1430.95 528.993 1427.35 534.861 1423.54 540.61C1402.73 572.019 1375.76 600.035 1351.14 621.719C1334.62 636.266 1307.77 656.425 1267.47 682.65C1330.54 648.34 1399.88 608.209 1460.52 560.717C1464.34 543.128 1466.48 524.808 1466.94 505.766ZM1605.75 394.227C1603.59 396.963 1601.31 399.695 1598.89 402.433C1598.29 405.156 1597.62 407.856 1596.91 410.525C1593.33 423.979 1583.91 436.376 1574.94 449.383C1545.98 491.387 1507.24 529.065 1464.11 562.972C1460.45 579.396 1455.35 595.205 1448.79 610.383C1438.54 634.141 1424.75 656.326 1407.48 676.903C1451.61 659.751 1498.7 640.033 1540.95 614.285C1588.17 571.287 1618.38 522.275 1622.8 466.566C1623.87 453.11 1624.45 439.904 1620.98 427.682C1618.1 417.548 1613.47 406.031 1605.75 394.227ZM1579.14 593.132C1572.08 598.534 1564.78 603.702 1557.29 608.652C1552.71 611.682 1548.06 614.63 1543.35 617.505C1529.68 629.926 1514.64 641.824 1498.45 653.213C1491.52 658.086 1484.37 662.868 1477.04 667.56C1515.63 648.403 1551.02 624.086 1579.14 593.132ZM100.843 584.871C99.9647 586.438 99.0989 588.009 98.2469 589.586C96.9171 592.047 95.6191 594.518 94.3592 596.999C94.7627 600.226 95.2524 603.438 95.828 606.632C97.2183 599.293 98.9135 592.021 100.843 584.871ZM1629.91 351.752C1626.75 359.991 1622.36 368.213 1617.81 376.364C1615.08 381.267 1611.91 386.084 1608.33 390.875C1616.76 403.47 1621.76 415.794 1624.83 426.589C1628.52 439.578 1627.85 453.441 1626.79 466.883C1622.74 517.878 1597.61 563.139 1558.24 603.207C1570.31 595.064 1581.85 586.355 1592.66 576.992C1610.03 554.42 1623.73 528.671 1632.47 499.281C1637.7 481.706 1643.43 465.361 1644.21 446.097C1645.27 419.958 1645.32 397.016 1640.58 381.447C1637.68 371.943 1634.35 361.921 1629.91 351.752ZM172.415 487.825C171.661 488.502 170.909 489.181 170.156 489.859C150.589 512.432 127.968 540.315 109.206 570.684C107.184 576.996 105.313 583.427 103.649 589.937C114.687 563.862 130.897 539.538 147.054 518.33C155.038 507.849 163.516 497.687 172.415 487.825ZM113.933 545.503C111.082 548.84 108.345 552.19 105.69 555.601C101.537 560.936 97.2533 566.405 92.9149 571.999C92.8703 577.948 93.0969 583.886 93.6014 589.786C93.9742 589.085 94.3494 588.384 94.7274 587.685C98.1405 581.368 101.766 575.132 105.546 568.998C107.345 563.406 109.258 557.918 111.243 552.561C112.119 550.199 113.017 547.847 113.933 545.503ZM1634.96 327.791C1634.87 331.034 1634.53 334.265 1633.97 337.509C1633.48 340.425 1632.74 343.342 1631.83 346.26C1637.25 357.982 1641.13 369.521 1644.4 380.282C1649.38 396.613 1649.26 420.257 1648.21 446.259C1647.4 466.148 1641.47 483.08 1636.31 500.422C1629.37 523.739 1619.38 544.784 1606.95 563.787C1634.72 536.36 1656.27 503.679 1667.44 463.89C1671.48 449.474 1675.22 429.121 1673.89 406.953C1672.98 391.798 1671.33 380.521 1666.33 370.522C1660.89 359.627 1654.03 347.632 1643.74 336.561C1641.42 334.063 1638.5 331.127 1634.96 327.791ZM226.805 373.52C184.357 412.233 143.985 452.817 107.787 496.358C105.502 502.319 103.444 508.351 101.63 514.456C97.3189 528.963 94.5481 543.9 93.4481 558.876C99.1116 551.043 104.802 543.512 110.331 536.332C114.842 530.474 120.217 523.987 126.199 517.143C151.21 464.434 186.349 416.612 226.805 373.52ZM1593.28 408.587C1578.99 423.74 1561.06 439.333 1540.47 457.173C1527.43 468.476 1507.32 481.608 1479.9 498.152C1477.04 499.88 1474.09 501.631 1470.99 503.435C1470.68 521.892 1468.82 539.703 1465.41 556.855C1506.75 523.939 1543.79 487.525 1571.65 447.112C1580.84 433.78 1589.69 422.1 1593.04 409.498C1593.12 409.195 1593.2 408.89 1593.28 408.587ZM146.873 511.391C137.439 520.356 129.257 528.525 121.892 536.532C119.467 542.283 117.166 548.089 114.993 553.951C114.89 554.228 114.788 554.505 114.686 554.782C124.995 539.38 136.048 524.785 146.873 511.391ZM120.158 530.43C117.773 533.327 115.546 536.117 113.501 538.772C110.393 542.808 107.239 546.949 104.072 551.185C108.586 545.491 113.342 539.945 118.479 534.338C119.032 533.032 119.592 531.73 120.158 530.43ZM197.015 452.168C184.862 462.76 173.09 473.724 161.767 485.072C150.179 496.687 139.101 508.485 129.573 519.363C128.576 521.47 127.596 523.585 126.633 525.708C136.18 515.884 147.063 505.565 159.995 493.694C162.418 491.47 164.852 489.258 167.294 487.055C168.066 486.164 168.834 485.282 169.596 484.409C176.603 476.376 183.789 468.552 191.138 460.92C193.006 457.966 194.969 455.049 197.015 452.168ZM1458.82 419.432C1458.96 425.854 1459 432.32 1459.01 438.805C1459.07 465.571 1450.69 492.028 1437.63 516.889C1449.51 510.906 1458.86 505.813 1467.02 501.114C1467.18 484.146 1466.01 466.612 1463.51 448.52C1462.19 438.977 1460.67 429.257 1458.82 419.432ZM583.724 146.081C539.517 161.772 496.424 180.78 454.777 202.95C426.95 217.764 401.324 233.03 370.366 255.225C278.806 320.866 188.472 404.099 136.134 506.058C143.284 498.259 150.996 490.205 158.935 482.247C174.842 466.305 191.623 451.118 209.098 436.661C215.482 429.133 222.382 421.881 229.62 414.913C263.626 382.173 305.401 355.361 336.986 334.974C345.144 329.708 353.632 324.633 362.648 319.586C364.082 315.673 365.672 311.55 367.427 307.234C370.938 298.597 378.604 288.752 389.021 275.239C400.381 260.504 417.216 246.138 444.063 226.029C486.572 194.19 533.909 167.759 583.724 146.081ZM1392.09 235.99C1409.53 265.023 1423.99 296.395 1436.07 328.13C1438.78 332.849 1441.37 337.664 1443.83 342.572C1451.9 358.659 1455.66 376.013 1457.43 394.018C1461.95 412.347 1465.05 430.486 1467.47 447.972C1469.88 465.405 1471.07 482.344 1471.03 498.777C1473.37 497.402 1475.63 496.059 1477.83 494.727C1505.27 478.174 1525.1 465.201 1537.85 454.15C1561.02 434.074 1580.5 417.096 1595.21 400.568C1596.46 394.772 1597.37 388.951 1597.66 383.148C1586.18 368.471 1572.97 352.692 1556.4 337.922C1507.11 293.993 1451.54 261.32 1392.09 235.99ZM547.63 114.405C517.822 129.253 488.447 145.824 459.359 164.055C421.914 187.523 379.697 216.413 339.178 247.328C294.942 281.078 243.882 319.799 199.68 364.173C163.598 400.396 132.185 440.292 112.805 484.193C203.921 377.456 319.547 288.326 427.647 200.806C467.014 168.933 506.605 139.973 547.63 114.405ZM355.056 343.621C323.827 360.722 293.226 379.483 263.936 399.99C239.518 419.71 216.177 440.71 194.295 463.41C194.283 463.429 194.271 463.447 194.26 463.466C198.451 459.911 202.667 456.387 206.907 452.892C251.544 411.343 303.089 375.62 354.906 344.226C354.956 344.025 355.005 343.824 355.056 343.621ZM217.658 434.821C215.735 436.38 213.821 437.948 211.914 439.524C210.925 440.694 209.948 441.87 208.986 443.052C211.855 440.282 214.747 437.54 217.658 434.821ZM360.601 325.339C353.129 329.605 346.021 333.902 339.155 338.334C307.513 358.758 266.074 385.369 232.394 417.795C231.846 418.323 231.299 418.851 230.756 419.382C240.83 411.626 251.1 404.097 261.534 396.789C293.002 371.384 326.218 348.113 360.348 326.072C360.432 325.829 360.517 325.584 360.601 325.339ZM1601.31 387.885C1601.09 390.082 1600.8 392.272 1600.44 394.451C1601.45 393.219 1602.44 391.987 1603.39 390.756C1602.72 389.8 1602.03 388.842 1601.31 387.885ZM1538.21 256.566C1545.14 263.518 1551.86 270.669 1558.34 278.033C1571.42 292.896 1580.26 308.959 1588.15 324.336C1595.9 339.463 1599.09 355.214 1601.09 369.396C1601.68 373.547 1601.85 377.704 1601.71 381.847C1602.17 382.426 1602.62 383.003 1603.06 383.578C1604.05 384.855 1605 386.133 1605.92 387.408C1609.07 383.11 1611.88 378.796 1614.32 374.416C1619.62 364.91 1624.5 355.64 1627.54 346.527C1624.99 341.131 1622.11 335.711 1618.79 330.324C1611.46 318.44 1603.47 306.32 1594.61 294.547C1586.92 288.826 1578.38 282.734 1568.97 276.33C1558.9 269.476 1548.64 262.893 1538.21 256.566ZM1344.88 170.063C1354.43 181.543 1363.56 193.832 1372.47 206.169C1378.08 213.927 1383.42 221.935 1388.52 230.144C1450.22 255.905 1507.97 289.398 1559.06 334.936C1574.41 348.617 1586.89 363.127 1597.71 376.761C1597.64 374.486 1597.45 372.217 1597.13 369.955C1595.15 355.924 1592.04 340.694 1584.59 326.16C1576.73 310.837 1568.07 295.147 1555.34 280.676C1545.29 269.253 1534.65 258.34 1523.53 247.894C1467.36 215.568 1406.76 190.307 1344.88 170.063ZM358.351 332.133C341.859 342.856 325.6 353.87 309.668 365.279C325.071 355.848 340.71 346.852 356.499 338.278C357.057 336.323 357.674 334.273 358.351 332.133ZM363.718 338.929C362.441 339.613 361.166 340.3 359.891 340.989C359.866 341.082 359.84 341.174 359.815 341.266C361.116 340.484 362.417 339.705 363.718 338.929ZM1605.65 302.948C1611.55 311.374 1617.04 319.869 1622.19 328.226C1624.77 332.412 1627.09 336.616 1629.2 340.807C1629.53 339.479 1629.8 338.155 1630.03 336.833C1630.76 332.564 1631.09 328.345 1630.97 324.097C1624.32 318.06 1615.91 310.95 1605.65 302.948ZM627.56 216.964C557.198 237.378 488.322 262.638 421.879 294.041C417.851 295.945 413.932 297.814 410.113 299.656C403.328 303.806 396.575 307.966 389.857 312.136C381.083 317.582 372.355 323.09 363.69 328.675C362.876 331.092 362.135 333.402 361.464 335.6C375.913 327.849 390.477 320.449 405.092 313.393C412.57 309.783 420.07 306.228 427.593 302.732C491.542 268.602 558.629 240.021 627.56 216.964ZM367.661 321.377C367.071 321.702 366.483 322.028 365.898 322.353C365.875 322.418 365.851 322.482 365.828 322.547C366.438 322.156 367.05 321.767 367.661 321.377ZM1452.16 163.309C1500.28 192.659 1545.16 230.996 1582.1 272.835C1587.51 278.957 1592.61 285.271 1597.46 291.681C1611.02 301.792 1621.99 310.769 1630.52 318.322C1629.01 305.873 1626.41 292.425 1619.29 279.713C1611.53 265.874 1601.13 250.007 1586.15 235.183C1561.99 211.275 1535.17 190.555 1506.67 172.216C1488.59 168.816 1470.38 165.872 1452.16 163.309ZM813.144 95.9355C754.74 101.113 697.194 111.816 641.147 127.746C571.189 152.631 504.299 185.911 446.462 229.231C419.624 249.333 403.185 263.418 392.189 277.681C381.605 291.411 374.386 300.736 371.132 308.74C370.032 311.446 369 314.071 368.032 316.609C380.274 309.922 393.512 303.224 408.208 296.134C534.116 219.135 671.592 145.91 813.144 95.9355ZM430.681 305.71C430.249 305.91 429.816 306.11 429.384 306.31C426.538 307.83 423.698 309.36 420.865 310.901C424.132 309.159 427.404 307.428 430.681 305.71ZM1245.79 188.055C1273.26 197.606 1300.29 210.396 1328.08 224.56C1367.52 244.663 1399.85 273.727 1424.31 309.424C1413.34 283.088 1400.61 257.341 1385.8 233.343C1352 219.296 1316.98 207.556 1281.18 197.415C1269.37 194.071 1257.58 190.952 1245.79 188.055ZM1408.61 157.866C1450.27 182.951 1490.49 211.432 1525.92 244.656C1541.37 253.563 1556.5 263.004 1571.22 273.022C1576.21 276.418 1580.96 279.727 1585.47 282.942C1583.39 280.428 1581.27 277.939 1579.1 275.482C1540.36 231.598 1492.82 191.603 1442.04 161.923C1430.88 160.439 1419.73 159.093 1408.61 157.866ZM1247.87 142.282C1108.5 107.078 972.76 84.4038 828.998 94.6689C694.579 140.503 563.507 207.914 442.179 280.284C539.929 236.388 642.587 205.256 747.197 182.866C777.926 175.573 808.865 169.323 839.907 164.114C862.362 160.346 884.843 157.337 907.326 155.125C1019.25 140.383 1132.78 137.055 1245.44 142.171C1246.25 142.208 1247.06 142.245 1247.87 142.282ZM538.082 254.807C526.441 259.667 514.874 264.695 503.388 269.891C504.618 269.397 505.849 268.907 507.08 268.417C517.365 263.758 527.7 259.221 538.082 254.807ZM1134.76 37.6767C1050.08 23.9182 964.964 19.3749 877.522 24.915C773.097 31.5311 677.178 55.9749 585.775 96.458C531.849 126.729 480.847 162.88 430.165 203.914C415.728 215.602 401.166 227.311 386.555 239.082C409.812 223.389 430.666 211.254 452.897 199.419C512.599 167.638 575.266 142.324 639.923 123.936C706.76 100.171 776.327 84.0535 843.441 74.1357C865.216 70.9179 887.283 68.1371 909.533 65.874C913.45 64.8198 917.368 63.7838 921.289 62.7714C1024.47 36.1291 1130.78 25.8699 1229.5 73.373C1234.42 75.7394 1239.21 78.3949 1243.91 81.2626C1249.16 82.4605 1254.39 83.7066 1259.6 85.0039C1254.85 82.8383 1250.17 80.739 1245.59 78.7206C1209.74 62.9063 1172.65 49.036 1134.76 37.6767ZM1328.52 151.773C1332.41 155.766 1336.22 159.943 1339.96 164.26C1398.63 183.118 1456.33 206.424 1510.34 235.915C1476.24 205.948 1438.25 179.958 1399.08 156.842C1374.97 154.322 1351.02 152.343 1327.5 150.727C1327.84 151.076 1328.18 151.424 1328.52 151.773ZM1245.25 146.167C1158.69 142.236 1071.63 143.302 985.204 150.708C1049.7 149.786 1113.98 155.797 1177.48 169.633C1212.42 175.729 1247.29 183.659 1282.27 193.566C1316.35 203.222 1349.77 214.331 1382.13 227.51C1377.99 221.032 1373.69 214.691 1369.23 208.512C1359.02 194.391 1348.61 180.438 1337.67 167.727C1314.22 160.214 1290.61 153.407 1267 147.197C1259.68 146.834 1252.43 146.493 1245.25 146.167ZM1164.17 42.8232C1192.43 52.31 1220.17 63.1369 1247.21 75.0605C1258.2 79.9094 1269.78 85.2273 1281.54 90.7939C1285.85 91.9947 1290.14 93.2308 1294.42 94.5039C1323.06 103.028 1350.24 112.974 1374.76 123.562C1399.28 134.152 1420.31 145.078 1436.15 153.944C1438.56 155.294 1440.96 156.667 1443.36 158.063C1461.46 160.484 1479.58 163.265 1497.59 166.484C1449.92 136.986 1397.96 113.763 1346.15 93.1787C1314.05 80.4243 1287.18 71.688 1250.92 62.2646C1221.98 54.7427 1193.08 48.2504 1164.17 42.8232ZM1286.04 148.188C1301.56 152.477 1317.07 157.037 1332.53 161.899C1330.26 159.393 1327.97 156.944 1325.66 154.564C1324.27 153.146 1322.89 151.732 1321.5 150.322C1309.55 149.529 1297.72 148.825 1286.04 148.188ZM1303.99 101.613C1324.95 111.899 1345.64 122.532 1363.7 132.293C1375.97 138.922 1388.22 145.798 1400.36 152.952C1411.17 154.087 1422.02 155.332 1432.87 156.701C1417.29 148.021 1396.87 137.468 1373.17 127.235C1351.87 118.038 1328.55 109.324 1303.99 101.613ZM1253.88 87.7187C1262.93 93.899 1271.76 100.712 1280.66 107.604C1295.76 119.284 1309.71 132.664 1323.28 146.43C1345.43 147.912 1367.99 149.707 1390.74 151.968C1381.14 146.421 1371.48 141.041 1361.8 135.811C1337.43 122.648 1308.29 107.889 1280.14 94.5546C1271.44 92.1308 1262.68 89.8536 1253.88 87.7187ZM1206.14 77.5908C1110.24 60.0456 1008.51 59.8489 910.263 69.8193C888.035 75.8077 865.862 82.464 843.774 89.7197C985.805 81.7917 1120.27 105.438 1258.26 140.797C1261.38 141.595 1264.49 142.404 1267.61 143.223C1283.84 144.029 1300.42 144.943 1317.26 146.032C1304.75 133.461 1291.94 121.388 1278.22 110.768C1266.21 101.476 1254.55 92.4941 1242.39 85.0185C1230.39 82.2891 1218.31 79.8165 1206.14 77.5908ZM885.785 72.5205C871.769 74.1883 857.84 76.0514 844.026 78.0927C796.373 85.1346 747.518 95.3068 699.316 109.12C741.268 100.1 783.909 93.9549 826.986 90.8017C827.39 90.7721 827.794 90.7438 828.198 90.7148C847.331 84.1988 866.532 78.1175 885.785 72.5205ZM1227.77 76.9775C1134.21 31.9594 1033.53 39.3796 934.598 63.5537C1025.39 55.9945 1118.54 57.4988 1206.86 73.6562C1214.76 75.1003 1222.62 76.6489 1230.44 78.3027C1229.55 77.8524 1228.66 77.4085 1227.77 76.9775ZM1103.96 29.0478C1030.78 10.0031 955.102 0.689523 879.934 5.06537C842.351 7.25328 810.301 10.5643 769.547 21.3857C717.573 35.1863 669.46 53.7063 623.748 76.3837C703.638 45.4952 787.309 26.6225 877.269 20.9228C954.207 16.0482 1029.34 18.9553 1103.96 29.0478Z" fill="#FFC294"/>
</svg>
