<svg width="780" height="163" viewBox="0 0 780 163" fill="none" xmlns="http://www.w3.org/2000/svg">
<path d="M57.942 72.3818C55.7693 76.9623 51.0448 97.0164 41.8413 120.022C34.0811 139.42 23.6477 152.549 18.4666 158.171C15.9229 160.932 12.7775 162.732 11.034 161.711C-35.7116 134.339 95.8928 32.8455 98.5971 31.7994C135.637 17.472 50.7975 119.466 46.8318 125.823C44.097 130.206 94.5572 91.4757 157.073 49.1764C179.979 33.6774 185.803 31.5279 190.747 30.2072C195.69 28.8866 199.786 28.7759 201.833 31.1752C203.879 33.5744 203.752 38.4868 202.639 43.5401C195.926 74.0109 162.158 111.225 143.436 131.684C136.051 139.755 128.089 144.733 124.594 145.996C75.0978 163.893 236.353 42.2761 241.348 37.2373C303.79 -25.7614 149.622 122.287 133.897 129.711C129.694 131.695 173.566 85.4153 234.494 29.1675C256.946 8.43953 262.684 4.09836 266.866 3.0238C271.047 1.94925 273.619 4.40547 272.959 9.43258C266.813 56.2795 213.007 97.7775 207.372 107.199C205.71 109.978 211.2 110.402 223.538 105.069C298.911 72.4905 340.138 40.532 350.078 36.624C354.577 34.8553 358.273 34.3536 360.487 36.2127C362.701 38.0718 363.399 42.5195 362.187 47.2781C356.207 70.7601 328.509 93.9279 290.27 128.685C277.097 140.657 267.801 145.455 265.276 145.912C263.934 146.154 270.499 140.593 297.416 122.463C372.965 71.5754 428.161 37.0887 432.256 35.8157C468.165 24.6515 333.855 110.324 302.468 127.767C297.943 130.282 294.143 131.339 294.675 130.31C297.897 124.082 349.842 95.273 420.093 53.4532C445.386 38.3964 449.891 36.2619 450.895 36.4604C454.121 37.0981 431.245 52.1198 403.545 69.4646C391.416 77.0589 382.64 81.2773 407.832 70.2585C433.024 59.2397 492.307 32.6195 524.546 18.3197C556.785 4.0199 560.182 2.84711 564.266 1.94422C568.35 1.04132 573.018 0.443861 576.471 1.78463C579.923 3.12539 582.019 6.42248 582.225 10.2342C583.461 33.054 553.094 60.6405 519.911 96.1253C511.398 105.229 503.473 111.805 501.961 115.184C500.136 119.264 547.366 105.896 612.817 84.2726C659.727 68.7748 682.79 58.8957 691.942 56.3406C700.36 53.9904 712.49 53.2959 724.786 54.7527C729.519 55.3133 730.065 60.104 729.967 63.9211C729.868 67.7382 728.82 71.6107 726.693 76.0064C716.563 96.9361 693.817 114.822 678.385 126.905C670.465 133.106 661.257 136.471 653.834 139.138C650.211 140.44 646.664 140.987 647.088 139.759C649.232 133.537 704.103 110.242 778.633 76.4872" stroke="#0052AF" stroke-linecap="round" stroke-linejoin="round"/>
</svg>
