<svg width="844" height="163" viewBox="0 0 844 163" fill="none" xmlns="http://www.w3.org/2000/svg">
<path d="M98.2674 30.4199C100.953 29.4918 103.12 28.4981 106.136 29.3018C107.717 29.7893 108.455 31.6272 108.451 32.8535C108.47 33.1979 108.461 33.5924 108.433 33.9375C108.41 34.2415 108.371 34.5565 108.318 34.8818C108.218 35.5169 108.034 36.2871 107.88 36.8291C106.398 41.7996 103.882 46.3201 101.352 50.7578C96.1584 59.66 90.3882 67.999 84.4363 76.333C72.928 92.4546 60.4402 108.021 48.365 123.828C47.585 124.097 46.7942 124.347 45.991 124.573C58.4478 108.173 71.182 92.3916 83.0633 75.7656C88.9967 67.4686 94.7938 59.0989 99.9734 50.248C102.497 45.8467 105.009 41.3085 106.445 36.5674C107.114 34.28 107.505 31.3134 105.69 30.6885C103.647 30.0533 101.337 30.8449 98.7928 31.7783C98.9503 31.6808 98.2189 32.1488 98.1033 32.2393C97.8513 32.4155 97.5439 32.6364 97.1863 32.8975C96.6032 33.3237 96.1056 33.6942 95.4402 34.1963C93.4818 35.687 96.8934 33.1982 93.157 36.0664C71.5448 53.0816 51.502 70.7998 32.41 91.3867C30.554 93.448 31.2968 92.2405 25.9695 98.4619C24.9496 99.548 17.2967 109.133 15.534 111.878C15.2964 112.23 16.6273 110.461 14.3846 113.673C9.42819 120.939 4.6639 128.938 2.55156 137.618C0.0975409 146.233 3.17084 155.991 11.3465 160.216C13.1189 160.999 16.0145 158.741 17.7742 156.838C19.4428 155.031 21.0359 153.135 22.5603 151.202C24.8309 148.274 22.4937 151.46 24.1023 149.357C30.9326 140.314 36.7977 129.792 41.115 118.984C43.9662 111.863 46.4928 104.771 48.7527 97.9912C52.4979 86.5293 51.2527 90.8098 53.2791 84.7217C53.5636 83.8528 55.7211 76.7208 55.9422 76.3594C56.4412 75.4708 55.5779 79.0133 56.2381 77.6504C56.2505 77.2655 59.7064 68.1158 57.7078 73.5322C57.526 73.8769 55.4221 80.8223 54.9549 82.5508C54.6196 83.7555 55.3516 81.6299 54.6502 84.0723C53.9485 86.509 53.0687 89.1795 51.8426 93.2031C50.5896 97.2377 51.2991 95.5154 48.615 103.502C46.8873 108.565 44.9025 114.023 42.6687 119.605C37.0888 133.673 28.4117 147.856 19.0682 158.03C18.4677 158.679 17.8317 159.283 17.158 159.834C14.8567 161.666 13.7345 161.839 13.1512 161.996C12.8422 162.059 12.6301 162.089 12.2742 162.103C11.926 162.093 11.3721 162.164 10.4891 161.681C10.2285 161.526 9.92664 161.343 9.5789 161.12C2.0835 156.744 -1.2644 147.765 0.432419 139.555C0.9493 136.815 0.372418 140.175 0.955856 137.409C5.03743 122.09 14.5351 110.094 24.4578 98.0576C46.4762 72.6511 71.422 50.468 98.2674 30.4199ZM266.677 1.89258C268.736 1.24676 271.777 1.75505 272.747 4.18555C273.17 5.16782 273.187 5.66093 273.237 5.83789C273.273 6.02314 273.271 5.92171 273.267 5.81543C273.22 5.60562 273.376 5.36864 273.411 7.38184C273.401 7.82759 273.365 8.26208 273.307 8.70312C270.713 28.3185 260.096 46.4046 248.571 61.4912C245.907 64.9355 248.288 61.719 247.009 63.3545C241.295 70.4871 240.059 72.1112 234.166 78.6064C232.904 79.9746 233.561 79.1532 233.326 79.3984C229.66 83.2095 226.611 86.5778 225.645 87.5771C218.682 94.931 212.432 100.139 207.537 106.569C206.551 107.876 208.505 108.235 209.81 108.118C211.226 108.039 212.682 107.729 214.12 107.354C217.029 106.579 219.969 105.479 223.078 104.145C223.179 104.101 223.263 104.064 223.331 104.034C223.803 103.825 223.501 103.937 223.315 103.999C223.201 104.037 223.131 104.055 223.304 103.971C223.539 103.854 224.237 103.543 225.891 102.82C259.906 88.0216 294.666 69.5875 325.771 50.0713C330.61 47.0551 327.201 49.2676 327.514 49.0811C332.523 46.0892 335.662 43.8954 337.231 42.9043C341.483 40.2686 345.582 37.4821 349.883 35.5947C353.336 34.3248 357.466 32.8735 360.548 35.2314C363.805 38.5598 363.108 43.2179 362.417 46.5742C362.324 46.9675 362.227 47.3556 362.126 47.7383C349.993 78.9572 322.364 98.8832 298.321 120.709C299.77 119.739 301.21 118.776 302.643 117.819C303.292 117.386 302.179 118.235 303.472 117.371C319.157 106.913 316.097 108.813 326.386 101.775C328.977 100.003 337.062 94.883 337.762 94.4404C340.384 92.7716 337.763 94.6507 338.637 94.0859C345.805 89.4551 344.412 89.8722 354.054 83.5537C354.353 83.3585 353.138 84.244 353.945 83.7246C356.438 82.121 358.974 80.4294 361.413 78.8711C367.12 75.2282 369.182 74.1194 377.771 68.4375C378.872 67.713 377.059 68.5897 385.725 63.043C389.195 60.8084 404.441 51.1275 408.841 48.4268C413.103 45.7906 410.223 47.6721 410.533 47.4824C422.231 40.3679 417.857 43.1215 423.804 39.7061C429.754 36.3679 427.981 37.0166 430.407 35.6377C430.502 35.5859 430.602 35.5317 430.708 35.4756C430.852 35.3999 430.998 35.3245 431.14 35.2529C431.286 35.18 431.413 35.1183 431.563 35.0488C431.772 34.953 431.952 34.879 432.096 34.834C433.297 34.4682 434.195 34.1979 435.598 33.9551C435.959 33.8971 436.287 33.861 436.581 33.8467C436.736 33.8398 436.838 33.8369 437.021 33.8428C437.255 33.8513 437.459 33.8786 437.637 33.9277C437.814 33.9769 437.965 34.0483 438.087 34.1475C438.238 34.2651 438.357 34.4689 438.378 34.6777C438.397 35.1967 438.268 35.3553 438.119 35.6816C436.703 37.9671 434.781 39.4129 433.997 40.1719C432.221 41.7153 434.413 39.7098 432.792 41.1152C421.425 50.2891 427.965 45.2528 424.156 48.3164C419.43 51.9582 415.096 55.0348 410.789 57.9961C412.366 57.0255 415.478 55.1866 419.624 52.7061C419.725 52.6455 419.822 52.5874 419.914 52.5322C422.845 50.7743 421.107 51.734 421.402 51.5508C426.234 48.5595 429.749 46.6505 430.629 46.166C433.945 44.3348 437.425 42.186 439.699 40.9727C441.965 39.7726 436.858 42.7409 443.532 39.0117C445.392 37.926 440.322 40.5009 445.416 37.707C447.049 36.9241 448.559 35.7422 450.841 35.4365C450.706 35.5986 450.569 35.7593 450.43 35.9209C450.43 35.9274 450.43 35.938 450.428 35.9521C450.414 35.9981 450.476 36.205 450.57 36.2715C450.617 36.3117 450.651 36.3266 450.664 36.3311C450.394 36.4394 450.122 36.5522 449.847 36.668C449.849 36.6662 449.852 36.6648 449.853 36.6631C449.943 36.5688 450.047 36.4558 450.138 36.3477C450.225 36.2422 450.295 36.1516 450.362 36.0459C450.39 36.0075 450.409 35.9597 450.421 35.9326C450.196 36.1945 449.968 36.4561 449.733 36.7168C442.345 39.8572 433.568 45.5777 428.058 48.7041C425.136 50.4348 422.695 51.8808 420.352 53.2705C416.956 55.2855 413.892 57.0954 409.979 59.4316C409.091 59.9616 410.029 59.4949 409.759 59.6582C402.454 64.0878 405.883 61.842 404.349 62.7109C403.274 63.3195 402.276 63.8852 401.298 64.4414C400.627 64.8956 399.949 65.3524 399.266 65.8174C396.942 67.3922 398.869 66.1535 396.825 67.5488C388.656 73.1023 383.666 76.3212 374.317 82.5303C372.789 83.5482 365.254 88.6342 360.261 91.6963C359.549 92.133 361.51 90.7999 357.949 93.0645C352.669 96.426 343.084 102.473 337.346 106.07C333.145 108.706 338.094 105.755 332.68 109.078C330.304 110.532 334.647 107.771 330.21 110.489C325.726 113.249 314.404 120.134 310.005 122.696C305.565 125.297 308.04 123.94 307.681 124.157C307.205 124.442 306.47 124.876 305.575 125.397C304.567 125.983 303.468 126.615 302.475 127.174C299.678 128.789 296.569 129.908 296.068 129.984C295.773 130.059 295.472 130.127 295.149 130.155C294.984 130.165 294.826 130.181 294.608 130.117C294.511 130.089 294.331 129.99 294.286 129.796C294.249 129.606 294.306 129.504 294.351 129.406C328.025 103.688 363.477 86.6354 398.611 65.1533C402.178 62.7125 405.833 60.1885 409.61 57.5459C411.094 56.5223 421.659 48.7654 426.346 45.2451C426.554 45.0704 431.473 41.5865 434.98 38C435.088 37.8898 434.505 38.43 434.428 38.4727C434.39 38.493 434.505 38.3747 434.878 37.998C435.065 37.8078 435.299 37.5718 435.608 37.2422C436 36.8247 436.441 36.329 436.796 35.8418C437.05 35.516 437.238 35.1229 437.311 34.9316C437.23 34.9146 437.109 34.8976 436.953 34.8945C436.843 34.8924 436.732 34.895 436.599 34.9033C435.28 35.0184 434.143 35.334 432.414 35.8604C427.966 37.987 422.667 41.3747 417.929 44.1621C415.626 45.5357 409.899 48.8796 403.098 53.3154C402.636 53.6078 392.063 60.6465 388.186 62.9004C387.529 63.285 388.102 62.6548 379.914 68.0488C378.347 69.0833 381.237 67.2762 377.093 69.9834C370.767 74.1172 362.36 79.5101 354.644 84.6738C353.309 85.567 347.624 89.4647 342.938 92.4229C342.21 92.8823 343.541 91.9201 341.106 93.5156C329.464 101.147 317.442 109.205 305.683 117.037C301.529 119.806 303.601 118.276 299.254 121.163C298.778 121.479 298.249 121.832 297.678 122.213C296.589 122.937 295.356 123.763 294.055 124.641C292.82 125.8 291.599 126.967 290.392 128.143C282.992 134.636 275.486 141.322 266.163 145.069C266.117 145.115 266.071 145.158 266.029 145.201C265.949 145.284 265.875 145.368 265.844 145.412C265.845 145.41 265.846 145.407 265.848 145.403C265.855 145.392 265.864 145.373 265.877 145.341C265.886 145.311 265.903 145.282 265.917 145.165C265.689 145.255 265.461 145.345 265.231 145.432C265.438 145.199 265.649 144.971 265.859 144.742C265.828 144.666 265.784 144.587 265.721 144.513C265.537 144.3 265.322 144.242 265.215 144.226C265.075 144.206 265.031 144.222 265.013 144.224C265.764 143.938 266.508 143.624 267.247 143.291C274.384 136.084 283.35 130.762 291.928 125.069C306.513 111.838 321.349 98.9285 335.174 84.917C338.82 81.1337 335.805 84.2675 341.049 78.6104C348.123 70.6529 357.557 59.9255 361.196 46.2627C362.07 42.7911 362.169 38.3576 359.794 36.1299C357.434 34.2389 353.468 35.4886 350.314 36.6914C336.754 43.8836 324.334 52.6682 315.323 57.8223C298.248 67.9072 319.639 55.0558 306.586 62.7598C300.289 66.4514 293.429 70.5504 291.927 71.3916C276.864 79.8392 266.09 85.2648 252.137 92.0498C249.224 93.4547 252.101 92.1703 249.65 93.3467C241.233 97.3806 232.271 101.402 224.086 104.948C223.981 104.994 223.88 105.038 223.782 105.08C220.393 106.508 220.995 106.353 217.574 107.562C215.564 108.234 213.587 108.808 211.537 109.141C210.514 109.294 209.48 109.421 208.321 109.276C207.762 109.171 207.052 109.113 206.404 108.317C206.094 107.91 206.023 107.329 206.105 106.931C206.184 106.513 206.33 106.227 206.495 105.946C209.112 102.162 212.327 99.3388 215.512 96.0957C216.065 95.5496 212.406 99.3363 217.007 94.7246C224.492 87.2696 233.668 78.0017 241.368 68.6504C243.631 65.8636 243.673 65.7187 248.429 59.6562C249.383 58.3591 248.428 60.1986 253.433 52.7529C254.372 51.5579 262.231 38.7025 265.136 31.9092C265.971 30.1622 268.027 25.6197 269.263 21.5098C269.428 20.9513 268.681 23.161 269.698 19.752C270.742 16.1243 271.559 12.3623 272.056 8.53906C272.278 6.86147 272.152 5.04949 271.218 3.91211C270.312 2.75938 268.585 2.58832 266.968 3.02637C262.166 4.54647 258.037 8.56171 253.937 11.9209C251.332 14.171 255.274 10.8731 251.389 14.252C246.263 18.7511 240.652 23.8879 235.029 29.0684C228.945 34.6762 222.893 40.3092 217.639 45.2363C213.893 48.7533 216.429 46.2696 216.152 46.5195C211.739 50.5137 209.24 53.1208 207.836 54.4697C201.789 60.2823 196.704 65.1378 191.535 70.1377C190.742 71.4785 189.821 73.0038 188.647 74.9482C187.543 76.7343 186.363 78.5547 185.13 80.3984C194.827 72.6024 204.499 64.9413 213.561 57.8184C214.174 57.3339 214.785 56.8533 215.394 56.374C221.194 51.0374 227.11 45.5936 233.038 40.1504C239.42 34.3078 246.002 28.2255 252.351 22.6582C252.794 22.2738 253.289 21.8481 253.673 21.5264C253.869 21.3611 254.052 21.2104 254.22 21.0732C254.253 21.0457 254.321 20.9896 254.399 20.9268C254.473 20.8671 254.544 20.8103 254.611 20.7568C254.746 20.6498 254.87 20.5557 254.981 20.4727C255.093 20.3896 255.193 20.3181 255.288 20.2559C255.312 20.2403 255.335 20.2246 255.358 20.21C255.4 20.1895 255.327 20.2099 255.631 20.0654C255.698 20.0389 255.775 20.0071 255.924 19.9883C256.059 19.9754 256.364 19.9575 256.668 20.2314C256.968 20.5168 256.971 20.8701 256.953 21.0156C256.932 21.1784 256.894 21.2583 256.865 21.3281C256.834 21.3961 256.806 21.4472 256.776 21.4961C256.768 21.5102 256.767 21.5113 256.763 21.5186C256.755 21.5306 256.748 21.5429 256.74 21.5547C256.619 21.7398 256.466 21.9331 256.249 22.1924C256.141 22.3212 256.017 22.4642 255.878 22.6221C255.81 22.6992 255.742 22.7769 255.668 22.8594C255.521 23.024 255.358 23.2024 255.181 23.3955C254.84 23.7684 254.372 24.2711 253.975 24.6914C253.672 25.0134 253.342 25.3604 252.987 25.7324C252.632 26.1045 252.25 26.5019 251.843 26.9248C251.639 27.1363 251.428 27.3538 251.211 27.5781C251.015 27.7801 250.88 27.92 250.71 28.0957C249.472 29.3719 247.591 31.2899 246.324 32.5752C244.973 33.9461 243.49 35.4468 241.876 37.0732C235.249 42.6465 228.793 47.4919 222.687 52.3203C220.691 53.9093 218.714 55.4749 216.758 57.0225C202.435 70.1805 188.092 83.3196 173.602 96.2822C171.002 99.6341 168.356 102.923 165.753 106.059C164.019 108.145 166.388 105.44 163.615 108.766C160.853 112.115 153.312 120.686 150.678 123.544C148.095 126.377 149.126 125.137 148.661 125.631C147.376 126.989 145.507 129.025 143.591 131.13C139.768 135.412 134.886 139.372 133.963 140.038C131.019 142.238 128.045 144.29 124.648 145.639C122.733 146.322 121.557 146.713 119.746 147.132C118.795 147.333 118.211 147.439 117.275 147.468C116.749 147.475 116.298 147.425 115.909 147.302C115.811 147.27 115.722 147.237 115.627 147.193C115.49 147.13 115.362 147.056 115.247 146.967C115.017 146.79 114.838 146.555 114.732 146.29C114.524 142.404 117.644 140.079 119.407 137.724C123.664 132.912 128.232 128.625 132.896 124.329C139.224 118.548 145.733 112.915 152.423 107.267C160.641 98.8019 169.685 89.7703 176.767 82.8604C182.498 77.2789 177.005 82.8038 183.983 75.9053C185.546 74.3654 183.443 76.3099 185.804 73.9932C187.2 72.6247 188.616 71.241 190.047 69.8486C192.164 66.2242 194.125 62.5811 195.704 59.1914C197.525 55.2367 195.19 60.5862 196.99 56.5918C198.931 52.166 200.632 47.445 201.712 42.5703C202.521 38.6232 203.258 33.8627 201.088 30.9365C200.349 30.0576 199.199 29.589 197.952 29.4268C193.788 29.295 200.112 29.3259 194.634 29.5713C193.387 29.7302 192.133 30.0055 190.891 30.3369C178.773 34.024 168.266 42.2205 157.507 49.1787C136.479 63.4033 115.686 77.9656 94.6502 92.8994C92.3746 94.5152 90.2932 95.7764 85.5672 99.207C85.2308 99.5107 85.2856 99.5448 85.158 99.7031C72.8768 107.582 62.517 118.826 48.7107 123.708C48.8048 123.649 48.899 123.594 48.9861 123.539C49.2681 123.361 49.5728 123.164 49.8992 122.951C51.1231 122.151 52.3183 121.337 53.5906 120.461C74.6984 105.643 100.04 87.2188 121.903 71.9355C124.468 70.1349 122.892 71.1487 123.376 70.8027C130.931 65.4126 128.469 67.3134 133.478 63.8584C140.977 58.6956 148.813 53.3429 156.716 48.0098C167.741 40.8846 178.394 32.6253 190.529 28.9814C192.848 28.3723 195.218 27.8883 197.631 28.0713C200.894 28.3803 201.8 29.8083 202.113 30.0625C202.46 30.4588 202.207 30.0998 202.439 30.3916C202.594 30.6792 203.637 31.7035 203.843 35.252C203.872 35.9585 203.673 33.3999 203.779 36.1699C203.79 38.0466 203.508 40.3958 202.964 42.8457C201.742 48.5725 199.218 54.8748 197.838 57.9092C196.028 61.7779 194.88 64.1281 193.721 66.2842C201.395 58.858 209.354 51.2787 216.782 44.248C218.824 42.3151 218.209 42.7977 218.779 42.2441C223.597 37.5685 231.813 30.1768 233.629 28.5234C233.791 28.3748 233.953 28.226 234.115 28.0781C245.986 17.8301 253.806 8.13017 266.677 1.89258ZM167.956 101.189C158.703 109.156 146.321 120.88 134.803 128.549C134.701 128.689 134.616 128.811 134.511 128.983C134.462 129.054 134.413 129.194 134.454 129.059C134.46 129.013 134.486 128.927 134.459 128.775C134.272 128.898 134.087 129.023 133.901 129.144C134.021 128.881 134.145 128.621 134.273 128.364C134.223 128.301 134.165 128.243 134.104 128.2C133.981 128.111 133.852 128.065 133.753 128.047C133.359 128.004 133.369 128.09 133.39 128.062C133.937 127.703 134.481 127.337 135.024 126.967C137.78 122.181 141.821 118.474 144.603 115.57C136.693 122.618 128.797 130.024 120.779 138.061C118.863 140.264 120.805 138.144 119.269 139.968C118.828 140.503 118.294 141.184 117.897 141.73C117.487 142.297 117.148 142.782 116.738 143.483C116.369 144.147 116.157 144.53 115.988 145.232C115.934 145.513 115.946 145.667 115.982 145.773C116.014 145.854 116.059 145.911 116.246 145.987C116.395 146.046 116.64 146.099 116.976 146.112C117.143 146.119 117.338 146.117 117.544 146.104C117.673 146.097 117.811 146.084 117.956 146.068C118.536 146.005 119.238 145.874 120.057 145.669C121.311 145.353 122.588 144.949 124.19 144.371C131.173 141.319 137.378 135.98 142.679 130.295C151.487 120.696 160.185 110.985 168.384 100.812C168.264 100.917 168.123 101.042 167.956 101.189ZM287.135 129.353C285.1 130.753 283.22 132.063 281.784 133.091C277.375 136.255 282.302 132.98 275.692 137.708C273.921 138.987 272.115 140.31 270.39 141.621C270.239 141.737 270.088 141.853 269.937 141.969C276.046 138.718 281.751 134.05 287.135 129.353ZM571.362 0C569.911 0.331152 571.727 -0.375025 576.34 1.07422C578.753 1.95373 581.767 4.84298 581.988 9.45312C582.01 9.85617 582.022 10.2688 582.024 10.6904C581.472 18.9557 581.319 17.542 579.749 22.6826C579.273 24.2275 576.59 29.4949 576.044 30.4199C574.289 33.4599 577.754 29.108 569.517 40.8203C569.144 41.3217 570.263 39.671 568.973 41.4102C560.366 52.5011 559.24 53.7489 549.028 64.9561C541.8 72.79 529.13 85.7295 519.978 95.4941C518.933 96.6076 517.916 97.6639 516.947 98.6543C517.044 98.3521 507.841 107.23 504.478 111.16C503.575 112.183 502.624 113.255 502.044 114.479C508.141 115.467 516.711 112.249 523.391 110.754C526.254 110.001 524.394 110.568 524.756 110.479C530.27 109.125 533.807 107.94 535.686 107.4C555.361 101.687 571.378 96.7749 589.999 90.6777C590.648 90.4635 591.689 89.9559 596.695 88.4619C597.021 88.3647 590.901 90.4322 599.661 87.5928C603.06 86.4886 607.618 85.0133 612.674 83.3564C620.631 80.7522 629.663 77.7033 637.024 75.0859C639.926 74.0591 647.312 71.3158 653.229 69.2881C654.032 69.0136 653.179 69.3725 654.332 68.9844C658.04 67.7321 659.957 66.8522 664.334 65.3936C668.706 63.9923 677.643 60.5356 689.799 56.2803C689.969 56.226 690.723 55.9448 691.853 55.5938C693.131 55.1984 694.939 54.7264 697.055 54.3594C703.437 53.181 712.685 52.9462 719.428 53.4717C722.657 53.7196 720.598 53.4784 721.159 53.5205C722.358 53.6206 723.536 53.7395 724.696 53.875C729.389 54.2477 730.137 59.6561 729.965 63.1357C729.86 67.4595 728.491 71.5091 726.67 75.2559C722.205 84.3372 715.85 92.5037 707.147 101.326C704.858 103.736 698.911 109.333 693.309 114.104C705.245 108.689 717.315 103.451 729.655 97.748C730.871 97.1977 734.618 95.3575 737.473 94.0791C741.683 92.1946 744.066 91.1997 747.048 89.8662C757.979 84.9793 768.102 80.3801 778.514 75.6582C780.15 74.9165 781.761 74.1908 783.366 73.4746C788.005 71.4161 786.413 72.1829 791.949 69.7861C797.534 67.5013 801.074 65.486 809.007 63.4072C810.222 63.1823 811.558 62.9646 812.705 63.543C814.361 64.363 814.24 66.5591 813.706 68.1826C813.16 69.898 812.224 71.5379 811.101 73.1738C810.063 74.6784 808.921 76.2265 807.65 77.835C807.572 78.1529 804.296 82.8045 796.928 89.5957C795.505 90.8902 797.081 89.5595 796.41 90.1729C793.668 92.669 790.964 94.7875 788.174 96.9297C787.493 97.4502 787.497 97.5249 786.939 97.9482C785.965 98.7074 784.828 99.5214 783.627 100.345C785.603 99.3415 788.295 98.0003 792.383 96.0498C793.402 95.5645 794.773 95.1311 790.907 97.0371C788.61 98.1695 785.615 99.6074 782.446 101.143C778.117 104.03 773.357 106.818 772.276 107.387C766.642 110.514 763.98 111.965 759.546 114.146C755.089 116.29 761.709 113.005 756.514 115.507C751.566 117.867 745.884 120.372 740.13 122.818C738.597 123.454 737.195 124.097 735.838 124.553C735.683 124.647 735.527 124.741 735.373 124.838C735.324 124.872 735.283 124.902 735.251 124.927C735.235 124.939 735.22 124.95 735.209 124.96C735.198 124.943 735.155 125.106 735.212 124.857C735.209 124.817 735.196 124.785 735.18 124.758C735.122 124.775 735.064 124.795 735.006 124.811C735.056 124.782 735.107 124.753 735.158 124.725C735.1 124.656 735.018 124.637 735.017 124.642C735.014 124.641 735.011 124.641 735.01 124.641C735.013 124.64 735.024 124.639 735.04 124.637C735.073 124.631 735.126 124.618 735.193 124.6C735.253 124.583 735.369 124.547 735.416 124.531C735.459 124.517 735.505 124.501 735.554 124.484C735.587 124.473 735.622 124.459 735.658 124.446C736.921 123.738 738.372 122.933 739.78 122.204C742.99 120.526 746.118 118.948 749.049 117.476C753.435 115.278 750.406 116.701 751.034 116.384C759.986 111.883 769.114 107.518 774.037 104.922C775.885 104.16 777.119 103.611 778.246 103.071C786.703 97.9284 791.85 94.0442 800.574 85.4639C802.841 82.873 800.755 85.5741 808.585 76.0674C808.762 75.8344 809.681 74.6606 810.833 72.9941C811.719 71.7064 812.709 70.0791 813.289 68.3115C813.901 66.5983 813.836 64.4784 812.497 63.958C812.363 63.8941 812.227 63.8432 812.087 63.8047C811.533 63.6868 811.546 63.7429 810.746 63.7627C805.179 64.6292 801.454 66.4823 795.553 68.8604C790.465 71.0149 784.611 73.6506 778.795 76.2783C777.813 76.7219 776.837 77.1614 775.872 77.5947C771.855 79.398 766.589 81.6398 764.669 82.4727C759.148 84.8674 753.384 87.61 749.943 89.042C746.485 90.481 753.083 87.3477 744.125 91.2949C743.86 91.5982 743.164 92.0986 742.7 92.4922C725.623 100.159 708.724 107.632 691.714 115.448C690.66 116.325 689.634 117.16 688.662 117.92C682.574 122.72 686.81 118.961 678.048 125.814C676.543 126.985 674.587 128.391 671.959 129.952C667.239 132.779 661.336 135.553 653.722 138.322C652.634 138.724 651.494 139.084 650.296 139.354C649.698 139.486 649.082 139.598 648.452 139.642C648.139 139.661 647.814 139.668 647.502 139.608C647.346 139.576 647.186 139.527 647.069 139.418C646.946 139.308 646.936 139.122 646.993 138.973C648.018 137.072 650.101 135.977 652.063 134.71C664.99 127.364 677.895 121.137 690.951 115.176C692.662 113.753 694.316 112.353 695.842 111.021C698.718 108.502 698.554 108.704 700.573 106.882C708.072 99.8885 704.436 103.04 706.429 101.062C714.575 92.2384 715.937 91.9226 723.578 79.9658C723.773 79.6359 725.044 77.3633 726.123 74.9912C727.173 72.7478 727.924 70.3934 728.086 69.8096C729.136 65.9981 728.952 65.6363 729.028 65.6914C729.031 65.7363 729.11 66.1547 729.3 63.6963C729.31 63.5028 729.318 63.3103 729.324 63.1191C729.534 59.1082 728.49 54.733 724.627 54.4648C720.471 53.9733 716.099 53.6515 710.574 53.7402C707.434 53.7691 699.887 54.2685 693.959 55.6035C693.184 55.7747 693.59 55.6071 692.968 55.7588C692.628 55.8434 692.288 55.9317 691.971 56.0186C681.815 59.1965 681.438 59.8354 675.358 62.1064C669.116 64.5165 659.305 67.9731 657.306 68.6465C652.053 70.4394 661.29 67.1485 661.534 67.041C664.812 65.6991 657.686 68.3499 652.257 70.2891C651.385 70.3867 643.792 73.1058 646.601 72.3027C646.925 72.2107 651.161 70.6757 652.257 70.2891C647.557 72.201 639.162 75.218 629.82 78.2129C625.455 79.6003 629.544 78.137 616.306 82.6104C614.606 83.1815 613.557 83.5438 612.823 83.8076C611.003 84.4616 611.118 84.511 607.352 85.7783C595.222 89.8619 579.39 94.812 566.818 98.7305C562.238 100.157 566.712 98.8545 563.605 99.8232C555.356 102.389 547.953 104.563 539.635 107.006C538.867 107.231 540.76 106.771 538.135 107.529C531.853 109.338 525.804 111.017 519.786 112.544C516.758 113.309 513.774 114.03 510.727 114.666C509.23 114.976 507.693 115.274 506.128 115.5C505.324 115.613 504.581 115.705 503.733 115.742C503.636 115.746 503.541 115.749 503.45 115.75C503.347 115.752 503.216 115.752 503.107 115.749C502.876 115.743 502.703 115.733 502.468 115.7C502.33 115.68 502.201 115.654 502.077 115.618C501.942 115.574 501.873 115.563 501.655 115.432C501.475 115.317 501.292 115.123 501.221 114.858C501.148 114.593 501.204 114.339 501.293 114.143C505.432 107.813 511.303 103.523 516.603 97.8193C517.46 96.9392 518.39 95.9688 519.367 94.9229C526.619 87.1369 537.363 75.9595 543.841 69.0928C556.498 55.6213 572.434 38.7041 578.588 24.0586C582.115 14.4635 580.893 16.4135 581.432 12.1543C581.466 11.3296 581.465 10.4167 581.409 9.48535C581.312 6.37597 579.318 2.81692 576.117 1.64746C573.587 0.792059 571.038 0.751097 568.957 0.945312C570.001 0.79464 570.327 0.735432 568.43 0.925781C566.505 1.11493 565.363 1.41286 564.826 1.57227C565.169 1.50386 565.719 1.41666 566.331 1.3252C565.417 1.49989 564.757 1.66033 564.458 1.68164L564.289 1.7168C562.005 1.67497 546.559 8.39938 543.438 9.77441C541.69 10.5445 542.681 10.1989 541.776 10.5967C536.081 13.1022 530.456 15.6061 524.724 18.1602C508.666 25.3217 492.479 32.561 476.185 39.8057C475.797 39.9772 476.345 39.6372 475.432 40.042C462.647 45.7082 454.528 49.4507 444.015 54.2041C433.519 58.95 425.112 62.6596 418.847 65.2646C415.605 66.7061 411.786 68.3838 407.978 70.0352C402.359 72.4564 396.782 74.9147 392.738 76.4209C392.475 76.5122 392.333 76.5622 392.059 76.6387C391.999 76.6547 391.96 76.6645 391.889 76.6797C391.802 76.6978 391.726 76.7112 391.627 76.7129C391.634 76.6916 391.352 76.8055 391.08 76.4199C390.966 76.1975 391.009 76.075 391.026 75.9873C391.051 75.8997 391.083 75.8469 391.11 75.8037C391.169 75.7156 391.209 75.6792 391.228 75.6582C391.253 75.6333 391.278 75.6099 391.304 75.5869C391.676 75.2704 392.018 75.0629 392.299 74.875C392.909 74.4786 393.453 74.1421 393.923 73.8477C394.875 73.2535 395.557 72.824 396.083 72.4844C397.115 71.8173 397.432 71.5746 397.711 71.4043C399.579 70.2608 401.368 69.1566 403.071 68.0811C416.615 59.4734 426.047 53.767 441.007 43.5127C442.428 42.5189 444.079 41.351 445.857 40.0098C446.722 39.3557 447.666 38.6242 448.559 37.8623C448.783 37.6706 448.991 37.4865 449.221 37.2764C438.31 49.0171 417.49 59.5089 403.553 68.8496C400.849 70.5361 398.279 72.0742 395.942 73.4795C394.77 74.187 393.679 74.8378 392.639 75.5098C392.522 75.5864 392.386 75.6758 392.263 75.7598C392.216 75.7925 392.163 75.8318 392.109 75.8701C392.581 75.7193 393.069 75.5308 393.48 75.3711C399.478 72.9393 403.885 70.9487 407.663 69.3135C414.018 66.5328 418.281 64.6447 424.208 62.0342C441.133 54.5647 434.901 57.1985 445.365 52.4795C455.88 47.7321 450.873 50.2867 452.413 49.6699C453.92 49.0675 455.525 48.28 457.381 47.4902C459.237 46.7001 455.263 48.5202 459.606 46.5967C463.943 44.6762 475.741 39.2845 477.252 38.5371C480.441 36.9586 475.041 39.2083 486.529 34.1357C487.188 33.8449 485.086 34.869 487.607 33.752C499.708 28.3899 512.096 22.8759 524.402 17.4355C532.537 13.8443 540.657 10.2604 548.638 6.86426C551.433 5.68222 548.961 6.82729 550.597 6.13867C559.802 2.2516 562.298 1.60261 564.161 1.1377C565.714 0.808081 566.785 0.254645 571.362 0ZM689.252 116.582C687.569 117.358 685.885 118.137 684.2 118.921C681.785 120.049 684.276 118.985 681.722 120.184C670.862 125.41 661.041 129.6 650.602 136.321C649.48 137.124 648.178 138.079 647.674 138.993C647.852 139.02 648.089 139.025 648.322 139.012C648.875 138.979 649.456 138.877 650.038 138.751C651.2 138.496 652.363 138.139 653.507 137.722C659.279 135.628 665.112 133.356 670.382 130.406C672.257 129.441 674.996 127.858 677.891 125.615C681.377 122.924 685.405 119.741 689.252 116.582ZM280.061 133.318C274.832 137.119 295.461 122.883 290.833 125.892C290.569 126.041 280.379 133.058 280.061 133.318ZM389.867 71.083C388.673 71.7892 387.368 72.5632 385.923 73.4229C383.766 74.7063 377.566 78.6546 373.576 81.0127C368.442 84.0467 370.313 82.8389 364.93 86.0225C364.47 86.2943 364.571 86.303 361.263 88.2402C345.745 97.3547 328.845 107.125 312.981 117.013C310.834 118.363 313.655 116.693 310.533 118.671C305.915 121.743 300.424 124.843 296.591 128.634C297.094 128.467 297.599 128.275 298.102 128.066C299.406 127.525 300.688 126.891 301.934 126.2C309.153 122.166 316.579 117.675 323.324 113.589C326.794 111.479 324.659 112.863 325.424 112.417C330.259 109.595 336.757 105.345 337.855 104.652C356.909 92.6065 372.706 82.6117 389.867 71.083ZM47.2137 125.336C47.1509 125.412 47.1965 125.479 47.1893 125.228C47.1856 125.181 47.1453 125.034 47.0408 124.938C46.9397 124.842 46.8317 124.816 46.7781 124.809C46.6621 124.801 46.7116 124.809 46.7166 124.804C46.7649 124.795 46.9708 124.71 47.1238 124.632C47.25 124.569 47.3978 124.49 47.5652 124.396C47.6489 124.35 47.7376 124.299 47.8309 124.245C47.8987 124.206 47.9679 124.165 48.0398 124.122C48.1002 124.086 48.1631 124.045 48.2303 124.004C47.8913 124.448 47.5519 124.892 47.2137 125.336ZM179.255 86.5664C170.932 93.2085 162.83 99.8208 154.803 106.678C154.317 107.178 153.833 107.674 153.354 108.17C150.374 111.259 153.76 107.884 151.139 110.604C148.171 113.695 145.222 116.798 142.308 119.947C140.866 121.507 139.384 123.13 137.984 124.717C137.845 124.875 137.713 125.027 137.584 125.175C147.568 117.99 156.988 109.062 166.165 101.13C169.253 98.3927 167.361 100.17 168.015 99.6084C169.381 98.4362 170.899 97.0875 172.4 95.7363C174.692 92.7847 176.938 89.7917 179.129 86.7471C179.174 86.683 179.215 86.6218 179.255 86.5664ZM775.704 104.445C774.392 105.096 767.177 108.846 766.193 109.346C758.398 113.283 757.175 113.556 756.737 113.751C751.961 115.905 743.158 120.57 740.837 121.811C739.397 122.579 738.014 123.283 736.645 124.073C736.843 123.995 737.034 123.918 737.27 123.822C737.5 123.729 737.801 123.604 738.013 123.517C738.212 123.434 738.421 123.347 738.638 123.255C739.074 123.071 739.548 122.87 740.058 122.651C746.489 119.901 752.475 117.253 758.243 114.392C764.105 111.446 764.572 110.946 769.079 108.479C772.145 106.697 774.8 105.146 777.188 103.71C776.69 103.956 776.195 104.201 775.704 104.445ZM48.2303 124.004C48.2751 123.945 48.3202 123.887 48.365 123.828C48.4805 123.788 48.5958 123.749 48.7107 123.708C48.5493 123.809 48.3831 123.911 48.2303 124.004ZM696.138 113.342C701.785 110.874 706.254 108.608 703.816 109.668C695.838 113.141 690.526 115.802 696.138 113.342ZM45.8367 107.702C46.7297 104.982 43.033 115.075 43.908 112.955C43.9565 112.866 45.8029 107.838 45.8367 107.702ZM516.795 98.8008C512.801 103.056 507.692 107.792 504.496 111.141C508.411 106.907 512.74 102.978 516.795 98.8008ZM780.258 102.205C780.057 102.303 779.856 102.4 779.655 102.498C776.406 104.565 771.281 107.669 774.172 106.019C775.641 105.221 778.43 103.42 780.258 102.205ZM781.124 101.625C782.148 100.932 782.461 100.691 781.2 101.499C781.014 101.624 780.799 101.759 780.567 101.91C780.747 101.818 780.932 101.724 781.124 101.625ZM187.543 74.0127C186.37 75.1555 185.179 76.3186 183.961 77.5156C181.697 79.7423 183.359 78.2229 182.913 78.6699C178.319 83.2785 181.693 79.765 178.742 82.6494C173.468 87.8111 167.863 93.3898 162.389 98.9307C168.575 93.8071 174.95 88.6049 181.348 83.4404C183.359 80.5563 185.484 77.3398 187.543 74.0127ZM202.407 68.3125C195.724 73.5541 189.243 78.6358 182.895 83.6729C181.226 86.0757 179.478 88.5011 177.681 90.916C178.991 89.7077 180.01 88.7639 180.498 88.3154C187.297 82.0703 189.965 79.7196 195.961 74.2295C198.076 72.2915 200.226 70.3156 202.407 68.3125ZM843.176 71.6475C844.906 70.8494 833.661 76.4064 832.289 77.0664C812.006 86.7166 799.581 92.3243 821.658 81.7764C825.655 79.8711 813.091 86.0022 818.194 83.5938C827.526 79.19 833.633 76.0352 843.176 71.6475ZM785.288 73.1611C785.837 72.9116 786.554 72.3501 785.993 72.5918C781.924 74.3479 779.452 75.5333 778.655 75.9688C778.322 76.1524 778.327 76.1856 778.692 76.0518C779.443 75.7756 781.561 74.8548 785.288 73.1611ZM399.042 65.7285C398.608 66.0387 398.457 66.1642 398.95 65.8574C398.979 65.84 399.257 65.6469 399.641 65.3848C399.442 65.4987 399.243 65.6134 399.042 65.7285ZM417.797 59.1865C423.441 55.6734 424.113 54.8838 418.085 58.8291C417.797 59.0176 417.508 59.366 417.797 59.1865ZM409.806 58.7236C409.733 58.7533 409.683 58.7677 409.657 58.7715C409.545 58.8484 409.433 58.9261 409.32 59.0029C409.473 58.9147 409.636 58.8225 409.806 58.7236ZM425.924 54.3936C428.3 52.7471 419.265 58.5681 421.217 57.4248C421.344 57.3509 425.795 54.4855 425.924 54.3936ZM252.344 24.3916C251.806 24.8635 251.155 25.4416 250.572 25.9609C250.06 26.417 249.516 26.9039 248.941 27.4209C247.73 28.5095 246.651 29.4857 245.511 30.5215C243.566 32.2887 245.933 30.2645 243.511 32.4697C238.768 36.8062 234.032 41.1524 229.298 45.501C233.321 42.3457 237.217 39.2513 240.95 36.1553C245.39 31.6721 248.895 28.154 253.052 23.7715C252.826 23.9674 252.591 24.1745 252.344 24.3916ZM449.534 36.9824C449.436 37.0768 449.334 37.1735 449.224 37.2744C449.223 37.2753 449.221 37.2755 449.221 37.2764C449.394 37.09 449.565 36.9038 449.733 36.7168C449.771 36.7006 449.809 36.6841 449.847 36.668C449.753 36.7667 449.648 36.8718 449.534 36.9824ZM568.957 0.945312C568.254 1.04665 567.227 1.19115 566.331 1.3252C567.062 1.18557 567.955 1.0388 568.957 0.945312Z" fill="#FFC294"/>
</svg>