<svg xmlns="http://www.w3.org/2000/svg" width="844" height="163" fill="none"><path fill="#0052AF" d="M98.27 30.42c2.68-.93 4.85-1.92 7.87-1.12 1.58.49 2.31 2.33 2.31 3.55a8.35 8.35 0 0 1-.13 2.03c-.1.64-.29 1.4-.44 1.95-1.48 4.97-4 9.49-6.53 13.93-5.2 8.9-10.96 17.24-16.91 25.57-11.51 16.12-24 31.7-36.07 47.5-.78.27-1.58.52-2.38.74 12.46-16.4 25.2-32.18 37.07-48.8C89 67.47 94.8 59.1 99.97 50.25c2.53-4.4 5.04-8.94 6.47-13.68.67-2.29 1.06-5.26-.75-5.88-2.04-.64-4.35.15-6.9 1.09l-.69.46-.91.66c-.59.42-1.08.8-1.75 1.3-1.96 1.49 1.45-1-2.28 1.87C71.54 53.08 51.5 70.8 32.4 91.39c-1.86 2.06-1.11.85-6.44 7.07-1.02 1.09-8.67 10.67-10.44 13.42-.23.35 1.1-1.42-1.15 1.8-4.95 7.26-9.72 15.26-11.83 23.94-2.45 8.61.62 18.37 8.8 22.6 1.77.78 4.66-1.48 6.42-3.38 1.67-1.8 3.27-3.7 4.79-5.64 2.27-2.93-.07.26 1.54-1.84a132.8 132.8 0 0 0 17.02-30.38A378.87 378.87 0 0 0 48.75 98c3.75-11.46 2.5-7.18 4.53-13.27.28-.87 2.44-8 2.66-8.36.5-.89-.36 2.65.3 1.29.01-.38 3.47-9.53 1.47-4.12-.18.35-2.29 7.3-2.76 9.02-.33 1.2.4-.92-.3 1.52s-1.58 5.11-2.8 9.13c-1.26 4.04-.55 2.32-3.23 10.3a332.75 332.75 0 0 1-5.95 16.1c-5.58 14.07-14.26 28.26-23.6 38.43-.6.65-1.24 1.25-1.91 1.8-2.3 1.84-3.43 2-4 2.17-.32.06-.53.09-.89.1-.34 0-.9.06-1.78-.42l-.91-.56c-7.5-4.38-10.84-13.36-9.15-21.56.52-2.75-.06.62.53-2.15 4.08-15.32 13.58-27.32 23.5-39.35 22.02-25.4 46.96-47.6 73.8-67.64Zm168.4-28.53c2.07-.64 5.1-.13 6.08 2.3.42.98.44 1.47.49 1.65.03.18.03.08.03-.02-.05-.21.1-.45.14 1.56 0 .45-.05.88-.1 1.32-2.6 19.62-13.21 37.7-24.74 52.8-2.66 3.44-.28.22-1.56 1.85-5.72 7.14-6.95 8.76-12.84 15.26-1.27 1.36-.6.54-.84.79-3.67 3.81-6.72 7.18-7.69 8.18-6.96 7.35-13.2 12.56-18.1 18.99-.99 1.3.97 1.67 2.27 1.55 1.42-.08 2.87-.4 4.31-.77a65.81 65.81 0 0 0 9.21-3.32c.47-.2.17-.1-.02-.03-.1.04-.18.06 0-.03a769.98 769.98 0 0 0 102.47-53.9c4.83-3.01 1.42-.8 1.73-.99 5.01-3 8.15-5.18 9.72-6.18 4.25-2.63 8.35-5.42 12.65-7.3 3.46-1.28 7.59-2.73 10.67-.37 3.25 3.33 2.56 7.99 1.87 11.34l-.3 1.17c-12.13 31.22-39.76 51.14-63.8 72.97l4.32-2.9c.65-.42-.46.42.83-.44 15.69-10.46 12.63-8.56 22.92-15.6a639.96 639.96 0 0 1 11.37-7.33c2.62-1.67 0 .21.88-.35 7.17-4.63 5.77-4.22 15.41-10.54.3-.2-.91.7-.1.17 2.49-1.6 5.02-3.3 7.46-4.85 5.71-3.64 7.77-4.75 16.36-10.43 1.1-.73-.71.15 7.96-5.4 3.46-2.23 18.71-11.91 23.11-14.61 4.26-2.64 1.38-.76 1.7-.95 11.7-7.11 7.32-4.36 13.26-7.77 5.95-3.34 4.18-2.7 6.6-4.07a27.23 27.23 0 0 1 1.16-.6 25.8 25.8 0 0 1 4.04-1.1 9.01 9.01 0 0 1 1.42-.1c.24.01.44.04.62.09.17.05.32.12.45.22a.8.8 0 0 1 .29.53c.02.52-.11.68-.26 1-1.42 2.29-3.34 3.73-4.12 4.5-1.78 1.54.41-.47-1.2.94-11.38 9.17-4.84 4.13-8.64 7.2A297 297 0 0 1 410.79 58c1.58-.97 4.69-2.81 8.83-5.3l.3-.17c2.93-1.76 1.19-.8 1.48-.98 4.83-2.99 8.35-4.9 9.23-5.38 3.31-1.84 6.8-3.98 9.07-5.2 2.26-1.2-2.84 1.77 3.83-1.96 1.86-1.08-3.2 1.5 1.89-1.3 1.63-.79 3.14-1.97 5.42-2.27l-.41.48v.03c-.02.05.05.25.14.32.05.04.08.06.1.06-.28.1-.55.22-.82.34a7.08 7.08 0 0 0 .51-.62l.06-.12-.69.79c-7.38 3.14-16.16 8.86-21.67 11.98l-7.7 4.57-10.38 6.16c-.89.53.05.06-.22.23-7.3 4.43-3.88 2.18-5.41 3.05-1.08.6-2.07 1.18-3.05 1.73l-2.03 1.38c-2.33 1.57-.4.33-2.44 1.73-8.17 5.55-13.16 8.77-22.51 14.98-1.53 1.02-9.07 6.1-14.06 9.17-.71.43 1.25-.9-2.31 1.36-5.28 3.37-14.87 9.41-20.6 13.01-4.2 2.64.74-.31-4.67 3-2.38 1.46 1.97-1.3-2.47 1.42-4.48 2.76-15.8 9.64-20.2 12.2-4.44 2.6-1.97 1.25-2.33 1.47a211.14 211.14 0 0 1-5.2 3.01 30.75 30.75 0 0 1-6.41 2.81c-.3.08-.6.15-.92.18-.17 0-.32.02-.54-.04-.1-.03-.28-.13-.32-.32-.04-.2.02-.3.06-.4 33.67-25.71 69.13-42.76 104.26-64.25 3.57-2.44 7.22-4.96 11-7.6 1.48-1.03 12.05-8.78 16.74-12.3.2-.18 5.12-3.66 8.63-7.25.1-.11-.48.43-.55.47-.04.02.07-.1.45-.47l.73-.76c.39-.42.83-.91 1.19-1.4a4 4 0 0 0 .51-.9 1.4 1.4 0 0 0-.36-.05l-.35.01a19.9 19.9 0 0 0-4.19.96c-4.44 2.13-9.74 5.51-14.48 8.3-2.3 1.38-8.03 4.72-14.83 9.16-.46.29-11.04 7.33-14.91 9.58-.66.38-.09-.25-8.28 5.15-1.56 1.03 1.33-.77-2.82 1.93-6.32 4.14-14.73 9.53-22.45 14.7-1.33.89-7.02 4.78-11.7 7.74-.73.46.6-.5-1.83 1.1-11.65 7.63-23.67 15.69-35.43 23.52-4.15 2.77-2.08 1.24-6.43 4.12l-1.57 1.05-3.63 2.43a270.6 270.6 0 0 0-3.66 3.5c-7.4 6.5-14.9 13.18-24.23 16.93l-.13.13a2.3 2.3 0 0 0-.19.21l.04-.07.04-.18-.69.27.63-.69a.84.84 0 0 0-.65-.51c-.13-.02-.18 0-.2 0 .75-.3 1.5-.6 2.24-.94 7.13-7.2 16.1-12.53 24.68-18.22 14.58-13.23 29.42-26.14 43.24-40.15 3.65-3.79.63-.65 5.88-6.31 7.07-7.96 16.5-18.68 20.15-32.35.87-3.47.97-7.9-1.4-10.13-2.37-1.9-6.33-.64-9.49.56-13.56 7.2-25.98 15.98-34.99 21.13-17.07 10.09 4.32-2.76-8.73 4.94-6.3 3.7-13.16 7.79-14.66 8.63a694.52 694.52 0 0 1-39.8 20.66c-2.9 1.4-.03.12-2.48 1.3a753.97 753.97 0 0 1-25.87 11.73c-3.39 1.43-2.78 1.27-6.2 2.48a38.45 38.45 0 0 1-6.04 1.58c-1.03.15-2.06.28-3.22.14-.56-.1-1.27-.17-1.92-.96-.3-.41-.38-1-.3-1.39.08-.42.23-.7.4-.98 2.61-3.79 5.83-6.61 9.01-9.85.56-.55-3.1 3.24 1.5-1.38 7.48-7.45 16.66-16.72 24.36-26.07 2.26-2.79 2.3-2.93 7.06-9 .95-1.3 0 .55 5-6.9.94-1.2 8.8-14.05 11.7-20.84.84-1.75 2.9-6.29 4.13-10.4.17-.56-.58 1.65.44-1.76a76.15 76.15 0 0 0 2.36-11.21c.22-1.68.1-3.5-.84-4.63-.9-1.15-2.64-1.32-4.25-.88-4.8 1.52-8.93 5.53-13.03 8.9-2.6 2.24 1.33-1.06-2.55 2.32a946.53 946.53 0 0 0-16.36 14.82c-6.09 5.6-12.14 11.24-17.4 16.17-3.74 3.51-1.2 1.03-1.48 1.28-4.41 4-6.91 6.6-8.31 7.95-6.05 5.81-11.14 10.67-16.3 15.67l-2.9 4.8a170.6 170.6 0 0 1-3.51 5.46c9.7-7.8 19.37-15.46 28.43-22.58l1.83-1.45 17.65-16.22c6.38-5.84 12.96-11.92 19.31-17.5a108.89 108.89 0 0 1 2.63-2.18l.3-.21.08-.05c.04-.02-.03 0 .27-.14.07-.03.15-.06.3-.08a.92.92 0 0 1 1.02 1.03c-.02.16-.06.24-.08.3-.04.08-.06.13-.1.18v.02l-.03.03a6.93 6.93 0 0 1-.86 1.07l-.21.24a57.37 57.37 0 0 1-1.7 1.83 207.95 207.95 0 0 1-2.13 2.23l-.63.66-.5.52a912.65 912.65 0 0 1-8.83 8.97c-6.63 5.58-13.09 10.42-19.2 15.25l-5.92 4.7a4416.2 4416.2 0 0 1-43.16 39.26c-2.6 3.35-5.24 6.64-7.85 9.78-1.73 2.08.64-.62-2.13 2.7a566.07 566.07 0 0 1-12.94 14.78c-2.59 2.84-1.55 1.6-2.02 2.1a435.2 435.2 0 0 0-5.07 5.49 78.15 78.15 0 0 1-9.63 8.9c-2.94 2.2-5.92 4.26-9.31 5.6a39.4 39.4 0 0 1-4.9 1.5c-.95.2-1.54.3-2.47.34a4.34 4.34 0 0 1-1.65-.28 1.95 1.95 0 0 1-.38-.22 1.66 1.66 0 0 1-.52-.68c-.2-3.89 2.91-6.21 4.68-8.57 4.25-4.8 8.82-9.1 13.49-13.4a662.5 662.5 0 0 1 19.52-17.05c8.22-8.47 17.27-17.5 24.35-24.41 5.73-5.58.23-.06 7.21-6.95 1.57-1.54-.54.4 1.82-1.92l4.25-4.14c2.11-3.63 4.07-7.27 5.65-10.66 1.83-3.95-.51 1.4 1.29-2.6a76.24 76.24 0 0 0 4.72-14.02c.81-3.95 1.55-8.7-.62-11.63a4.82 4.82 0 0 0-3.14-1.51c-4.16-.13 2.16-.1-3.32.14-1.24.16-2.5.44-3.74.77-12.12 3.68-22.62 11.88-33.38 18.84A3382.37 3382.37 0 0 0 94.65 92.9c-2.28 1.62-4.36 2.88-9.08 6.3-.34.31-.28.34-.41.5-12.28 7.88-22.64 19.13-36.45 24l.28-.16.9-.59c1.23-.8 2.43-1.61 3.7-2.49 21.1-14.82 46.45-33.24 68.31-48.52 2.57-1.8 1-.8 1.48-1.14 7.55-5.39 5.09-3.49 10.1-6.94 7.5-5.16 15.33-10.52 23.24-15.85 11.02-7.13 21.67-15.38 33.8-19.03 2.33-.6 4.7-1.1 7.11-.9 3.26.3 4.17 1.73 4.48 1.98.35.4.1.04.33.33.15.29 1.2 1.31 1.4 4.86.03.7-.17-1.85-.06.92.01 1.88-.27 4.23-.82 6.68a82.03 82.03 0 0 1-5.12 15.06 165.86 165.86 0 0 1-4.12 8.37c7.68-7.42 15.63-15 23.06-22.03 2.04-1.93 1.43-1.45 2-2 4.82-4.68 13.03-12.07 14.85-13.73l.49-.44c11.87-10.25 19.69-19.95 32.56-26.19Zm-98.71 99.3c-9.26 7.97-21.64 19.69-33.16 27.36l-.29.43c-.05.07-.1.21-.06.08.01-.05.04-.13 0-.28l-.55.36.37-.78a.84.84 0 0 0-.52-.31c-.4-.05-.38.04-.36.01.55-.36 1.1-.72 1.63-1.1 2.76-4.78 6.8-8.49 9.58-11.39a554.68 554.68 0 0 0-23.82 22.5c-1.92 2.2.03.07-1.51 1.9-.44.53-.98 1.21-1.37 1.76a19.9 19.9 0 0 0-1.16 1.75 6.1 6.1 0 0 0-.75 1.75c-.06.28-.04.44 0 .54.02.08.07.14.26.22.14.06.39.1.73.12a5.52 5.52 0 0 0 .98-.04c.58-.06 1.28-.2 2.1-.4 1.25-.32 2.53-.72 4.13-1.3 6.98-3.05 13.19-8.39 18.49-14.08 8.8-9.6 17.5-19.3 25.7-29.48l-.42.38Zm119.17 28.16c-2.03 1.4-3.91 2.71-5.35 3.74-4.4 3.16.52-.11-6.09 4.62-1.77 1.28-3.57 2.6-5.3 3.91l-.45.35c6.1-3.25 11.81-7.92 17.2-12.62ZM571.37 0c-1.45.33.37-.38 4.98 1.07 2.41.88 5.43 3.77 5.65 8.38.02.4.03.82.03 1.24-.55 8.27-.7 6.85-2.27 12-.48 1.54-3.16 6.8-3.7 7.73-1.76 3.04 1.7-1.31-6.53 10.4-.38.5.74-1.15-.55.59-8.6 11.1-9.73 12.34-19.94 23.55-7.23 7.83-19.9 20.77-29.05 30.53a210.4 210.4 0 0 1-3.03 3.16c.1-.3-9.1 8.58-12.47 12.51-.9 1.02-1.86 2.1-2.44 3.32 6.1.99 14.67-2.23 21.35-3.73 2.86-.75 1-.18 1.37-.27 5.51-1.36 9.05-2.54 10.93-3.08A1593.73 1593.73 0 0 0 590 90.68c.66-.22 1.7-.72 6.7-2.22.33-.1-5.79 1.97 2.97-.87l13.01-4.23c7.96-2.6 17-5.66 24.35-8.27 2.9-1.03 10.3-3.77 16.2-5.8.81-.28-.04.08 1.11-.3 3.71-1.26 5.63-2.14 10-3.6 4.38-1.4 13.31-4.85 25.47-9.11.17-.05.92-.34 2.05-.69a42.7 42.7 0 0 1 5.2-1.23c6.39-1.18 15.63-1.41 22.38-.89 3.23.25 1.17 0 1.73.05 1.2.1 2.38.22 3.54.35 4.69.38 5.44 5.79 5.26 9.27-.1 4.32-1.47 8.37-3.29 12.12-4.46 9.08-10.82 17.24-19.52 26.07-2.3 2.4-8.24 8-13.84 12.77 11.94-5.41 24-10.65 36.35-16.35 1.21-.55 4.96-2.4 7.81-3.67 4.21-1.89 6.6-2.88 9.58-4.21 10.93-4.9 21.05-9.49 31.46-14.21l4.86-2.19c4.63-2.05 3.04-1.29 8.58-3.68 5.58-2.29 9.12-4.3 17.06-6.38 1.21-.23 2.55-.45 3.7.13 1.65.82 1.53 3.02 1 4.64a19.36 19.36 0 0 1-2.6 5 89.33 89.33 0 0 1-3.46 4.65c-.08.32-3.35 4.97-10.72 11.77-1.42 1.29.15-.04-.52.57-2.74 2.5-5.45 4.62-8.24 6.76-.68.52-.67.6-1.23 1.02-.98.76-2.11 1.57-3.31 2.4 1.97-1 4.66-2.35 8.75-4.3 1.02-.49 2.4-.92-1.47.99-2.3 1.13-5.3 2.57-8.46 4.1a161.3 161.3 0 0 1-10.17 6.25c-5.64 3.12-8.3 4.58-12.73 6.76-4.46 2.14 2.16-1.15-3.04 1.36a428.94 428.94 0 0 1-16.38 7.3c-1.53.64-2.93 1.29-4.3 1.74l-.46.29-.12.09-.04.03c-.01-.02-.06.15 0-.1a.22.22 0 0 0-.03-.1l-.17.05.15-.09c-.06-.06-.14-.08-.14-.08H735h.03a2.18 2.18 0 0 0 .38-.1l.13-.06c.04 0 .07-.02.1-.03 1.27-.71 2.72-1.52 4.13-2.25 3.21-1.67 6.34-3.25 9.27-4.72 4.38-2.2 1.36-.78 1.98-1.1 8.96-4.5 18.08-8.86 23-11.46a79.78 79.78 0 0 0 4.22-1.85c8.45-5.14 13.6-9.03 22.32-17.6 2.27-2.6.18.1 8.01-9.4.18-.24 1.1-1.4 2.25-3.08a18.93 18.93 0 0 0 2.46-4.68c.61-1.71.55-3.83-.8-4.35a2.47 2.47 0 0 0-.4-.16c-.56-.11-.54-.06-1.34-.04-5.57.87-9.3 2.72-15.2 5.1a810.08 810.08 0 0 0-19.68 8.73c-4.01 1.8-9.28 4.05-11.2 4.88-5.52 2.4-11.29 5.14-14.73 6.57-3.46 1.44 3.14-1.7-5.82 2.25-.26.3-.96.8-1.42 1.2-17.08 7.67-33.98 15.14-50.99 22.96-1.05.88-2.08 1.71-3.05 2.47-6.09 4.8-1.85 1.04-10.61 7.9a57.8 57.8 0 0 1-6.1 4.13c-4.71 2.83-10.61 5.6-18.23 8.37-1.09.4-2.23.76-3.42 1.03-.6.14-1.22.25-1.85.3-.31.01-.64.02-.95-.04a.88.88 0 0 1-.43-.2c-.12-.1-.13-.29-.08-.44 1.03-1.9 3.11-3 5.07-4.26 12.93-7.35 25.84-13.57 38.9-19.53 1.7-1.43 3.36-2.83 4.88-4.16 2.88-2.52 2.71-2.32 4.73-4.14 7.5-7 3.87-3.84 5.86-5.82 8.15-8.82 9.5-9.14 17.15-21.1.2-.32 1.46-2.6 2.54-4.97 1.05-2.24 1.8-4.6 1.97-5.18 1.05-3.81.86-4.17.94-4.12 0 .05.08.46.27-2l.02-.57c.21-4.01-.83-8.39-4.7-8.66-4.15-.49-8.52-.8-14.05-.72-3.14.03-10.68.53-16.61 1.86-.78.17-.37 0-1 .16l-.99.26c-10.15 3.18-10.53 3.82-16.61 6.09a634.21 634.21 0 0 1-18.05 6.54c-5.26 1.79 3.98-1.5 4.22-1.6 3.28-1.35-3.84 1.3-9.27 3.24-.88.1-8.47 2.82-5.66 2.01.32-.09 4.56-1.62 5.66-2.01-4.7 1.91-13.1 4.93-22.44 7.92-4.37 1.39-.28-.07-13.51 4.4-1.7.57-2.75.93-3.49 1.2-1.82.65-1.7.7-5.47 1.97a2068.46 2068.46 0 0 1-40.53 12.95c-4.58 1.43-.1.12-3.22 1.1-8.24 2.56-15.65 4.73-23.97 7.18-.76.22 1.13-.24-1.5.52a595.78 595.78 0 0 1-18.34 5.01 222.1 222.1 0 0 1-9.06 2.13c-1.5.3-3.04.6-4.6.83a24.14 24.14 0 0 1-3.02.25 5.15 5.15 0 0 1-1.03-.13c-.14-.05-.2-.06-.43-.19a1 1 0 0 1-.43-.57c-.07-.27-.02-.52.07-.72 4.14-6.33 10.01-10.62 15.31-16.32.86-.88 1.79-1.85 2.77-2.9 7.25-7.78 18-18.96 24.47-25.83 12.66-13.47 28.6-30.39 34.75-45.03 3.52-9.6 2.3-7.65 2.84-11.9.04-.83.04-1.74-.02-2.67-.1-3.11-2.1-6.67-5.3-7.84-2.52-.86-5.07-.9-7.15-.7 1.04-.16 1.37-.21-.53-.02a18.4 18.4 0 0 0-3.6.64c.34-.07.89-.15 1.5-.24-.91.17-1.57.33-1.87.35l-.17.04c-2.28-.05-17.73 6.68-20.85 8.05-1.75.77-.76.43-1.66.83-5.7 2.5-11.32 5-17.06 7.56-16.05 7.16-32.24 14.4-48.54 21.65-.38.17.17-.17-.75.23-12.78 5.67-20.9 9.41-31.42 14.16a961.21 961.21 0 0 1-25.16 11.06 1414.2 1414.2 0 0 1-10.87 4.78c-5.62 2.42-11.2 4.87-15.24 6.38-.26.1-.4.14-.68.22a3.03 3.03 0 0 1-.43.07c0-.02-.28.1-.55-.29-.11-.22-.07-.34-.05-.43a.66.66 0 0 1 .08-.19l.12-.14.07-.07c.38-.32.72-.53 1-.72.6-.4 1.15-.73 1.62-1.02l2.16-1.37c1.04-.66 1.35-.9 1.63-1.08a454.6 454.6 0 0 0 5.36-3.32c13.55-8.6 22.98-14.31 37.94-24.57 1.42-1 3.07-2.16 4.85-3.5a59.28 59.28 0 0 0 3.36-2.73c-10.91 11.74-31.73 22.23-45.67 31.57-2.7 1.69-5.27 3.22-7.6 4.63-1.18.7-2.27 1.36-3.31 2.03l-.38.25-.15.11c.47-.15.96-.34 1.37-.5 6-2.43 10.4-4.42 14.18-6.06 6.36-2.78 10.62-4.67 16.55-7.28 16.92-7.47 10.7-4.83 21.16-9.55 10.51-4.75 5.5-2.2 7.04-2.81 1.51-.6 3.11-1.39 4.97-2.18 1.86-.79-2.12 1.03 2.23-.9 4.33-1.91 16.13-7.3 17.64-8.05 3.2-1.58-2.2.67 9.28-4.4.66-.3-1.44.73 1.08-.39 12.1-5.36 24.49-10.87 36.8-16.31a1988 1988 0 0 1 24.23-10.58c2.8-1.18.32-.03 1.96-.72 9.2-3.89 11.7-4.54 13.56-5 1.55-.33 2.63-.89 7.2-1.14Zm117.9 116.58-5.06 2.34c-2.42 1.13.08.06-2.48 1.26-10.86 5.23-20.68 9.42-31.12 16.14-1.12.8-2.42 1.76-2.93 2.67.18.03.42.03.65.02a10.7 10.7 0 0 0 1.72-.26c1.16-.25 2.32-.61 3.47-1.03 5.77-2.1 11.6-4.36 16.87-7.31a49.27 49.27 0 0 0 7.51-4.8c3.49-2.69 7.51-5.87 11.36-9.03Zm-409.2 16.74c-5.23 3.8 15.4-10.44 10.77-7.43-.26.15-10.45 7.17-10.77 7.43Zm109.8-62.24-3.94 2.34c-2.15 1.29-8.35 5.23-12.34 7.6-5.14 3.03-3.27 1.82-8.65 5-.46.27-.36.28-3.67 2.22-15.51 9.11-32.41 18.89-48.28 28.77-2.15 1.35.67-.32-2.45 1.66-4.61 3.07-10.1 6.17-13.94 9.96.5-.16 1-.35 1.51-.56 1.3-.54 2.59-1.18 3.83-1.87a719.76 719.76 0 0 0 21.4-12.61c3.46-2.11 1.33-.73 2.1-1.17 4.83-2.83 11.33-7.08 12.43-7.77 19.05-12.04 34.85-22.04 52-33.57ZM47.22 125.34c-.06.07-.01.14-.02-.11 0-.05-.04-.2-.15-.3a.48.48 0 0 0-.26-.12h-.06c.04-.02.25-.1.4-.18a10.5 10.5 0 0 0 .92-.5l.19-.13-1.02 1.34Zm132.04-38.77a943.5 943.5 0 0 0-24.45 20.1l-1.45 1.5c-2.98 3.09.41-.29-2.21 2.43-2.97 3.1-5.92 6.2-8.83 9.35a280.54 280.54 0 0 0-4.33 4.77l-.4.45c9.99-7.18 19.4-16.1 28.58-24.04 3.1-2.74 1.2-.96 1.85-1.52 1.37-1.17 2.89-2.52 4.39-3.87a296.5 296.5 0 0 0 6.73-9l.13-.17Zm596.45 17.88c-1.3.65-8.52 4.4-9.5 4.9-7.8 3.93-9.03 4.2-9.46 4.4a354.02 354.02 0 0 0-15.9 8.06c-1.44.77-2.83 1.47-4.2 2.26l.63-.25.74-.3.63-.27 1.42-.6a352.2 352.2 0 0 0 18.18-8.26c5.87-2.94 6.33-3.44 10.84-5.91 3.06-1.78 5.72-3.33 8.1-4.77-.49.25-.98.5-1.48.73ZM48.23 124l.14-.17.34-.12-.48.3Zm647.9-10.66c5.65-2.47 10.12-4.73 7.69-3.67-7.98 3.47-13.3 6.13-7.68 3.67Zm-650.3-5.64c.9-2.72-2.8 7.38-1.92 5.25.05-.08 1.9-5.11 1.93-5.25Zm470.96-8.9c-3.99 4.26-9.1 9-12.3 12.34 3.92-4.23 8.25-8.16 12.3-12.34Zm263.47 3.4-.6.3c-3.25 2.06-8.38 5.17-5.49 3.52 1.47-.8 4.26-2.6 6.09-3.81Zm.86-.58c1.03-.69 1.34-.93.08-.12l-.63.41.55-.28Zm-593.58-27.6-3.58 3.5c-2.26 2.22-.6.7-1.05 1.15-4.6 4.6-1.22 1.1-4.17 3.98a1390.7 1390.7 0 0 0-16.35 16.28c6.19-5.12 12.56-10.33 18.96-15.49a208.7 208.7 0 0 0 6.2-9.43Zm14.87-5.7a3467.37 3467.37 0 0 0-19.51 15.35c-1.67 2.4-3.42 4.83-5.22 7.25l2.82-2.6c6.8-6.25 9.47-8.6 15.46-14.09l6.45-5.92Zm640.77 3.33c1.73-.8-9.52 4.76-10.9 5.42-20.27 9.65-32.7 15.25-10.62 4.7 4-1.9-8.57 4.23-3.47 1.82 9.34-4.4 15.44-7.55 24.99-11.94Zm-57.9 1.51c.56-.25 1.27-.81.71-.57a115.48 115.48 0 0 0-7.34 3.38c-.33.18-.32.22.04.08.75-.27 2.87-1.2 6.6-2.89Zm-386.24-7.43c-.43.3-.58.43-.09.13l.7-.48-.6.35Zm18.76-6.54c5.64-3.52 6.31-4.3.28-.36-.28.19-.57.54-.28.36Zm-8-.47a.75.75 0 0 1-.14.05l-.34.23.49-.28Zm16.12-4.33c2.38-1.64-6.66 4.18-4.7 3.03.12-.07 4.57-2.93 4.7-3.03Zm-173.58-30a330.38 330.38 0 0 0-3.4 3.03 843.85 843.85 0 0 0-3.43 3.1c-1.94 1.77.42-.26-2 1.95L229.3 45.5c4.02-3.15 7.92-6.25 11.65-9.34 4.44-4.49 7.95-8 12.1-12.39l-.7.62ZM449.54 37l-.32.28.51-.55.12-.05-.32.31ZM568.95.94l-2.63.38c.73-.14 1.63-.3 2.63-.38Z"/></svg>