<svg width="1280" height="937" viewBox="0 0 1280 937" fill="none" xmlns="http://www.w3.org/2000/svg"><path d="M-35.9524 859.698C-36.0316 859.948 -36.1109 860.198 -35.3117 861.244C-34.5125 862.289 -32.8326 864.123 -30.7071 864.755C-28.5817 865.388 -26.0617 864.762 -23.4164 863.252C-17.627 859.948 -12.1151 852.772 -5.39448 843.311C2.62088 832.027 20.6182 796.542 45.1624 750.023C58.302 725.12 70.074 710.601 85.9258 691.94C106.166 668.113 130.403 647.415 148.884 632.246C161.567 621.835 172.29 615.612 181.353 610.588C187.999 606.902 195.716 604.859 206.134 602.977C218.852 600.678 228.922 601.879 235.127 602.807C243.583 604.073 258.871 613.141 292.454 634.356C315.454 648.886 349.129 672.889 368.505 686.062C391.352 701.595 398.406 704.758 404.458 707.174C410.289 709.501 416.305 710.785 423.417 711.805C433.091 713.193 441.918 712.267 447.765 711.42C453.321 710.614 458.395 707.249 465.417 702.756C476.062 695.945 491.256 681.376 514.247 657.891C527.804 644.043 544.64 625.821 563.004 608.198C599.597 573.082 624.982 553.603 633.72 547.468C648.347 537.199 663.394 531.078 677.35 526.011C690.397 521.274 716.065 521.262 736.537 523.526C762.969 526.45 784.135 545.022 816.335 568.366C838.878 584.709 871.992 612.445 891.409 627.861C914.757 646.398 923.633 651.407 932.391 655.965C941.15 660.524 951.049 663.499 962.496 665.824C968.91 667.126 976.906 666.919 982.914 666.506C988.921 666.092 992.789 665.029 996.627 663.513C1012.7 657.165 1023.27 645.808 1033.17 635.11C1039.24 628.548 1046.25 618.807 1091.82 543.37C1137.38 467.933 1220.99 326.872 1264.86 253.172C1308.72 179.472 1310.33 177.409 1315 172" stroke="white" stroke-width="343" stroke-linecap="round" stroke-linejoin="round"/></svg>