<svg width="266" height="150" viewBox="0 0 266 150" fill="none" xmlns="http://www.w3.org/2000/svg">
<path d="M9.76772 11.4793C15.0294 8.03575 20.9384 7.882 22.4169 7.75548C25.8906 7.45822 31.9807 7.0975 42.901 6.53777C47.2433 6.31521 52.3543 6.06408 58.0293 5.79161C58.0342 5.73769 58.0388 5.68648 58.0433 5.63807C58.1767 4.19704 59.0809 0.375753 59.0809 0.375753L225.998 0.375753C225.998 0.375753 229.93 0.785959 231.424 1.02749C231.83 1.09318 232.453 1.20105 233.153 1.36162C233.341 1.40464 235.471 1.84666 237.804 3.03296C238.193 3.23099 243.241 5.56402 246.211 11.4668C248.155 15.329 249 20.3705 247.414 25.5693C246.735 27.7943 245.74 29.61 244.709 31.0549C244.816 31.0792 244.922 31.1029 245.025 31.1274C245.789 31.3077 247.442 31.7053 249.159 32.3866C249.936 32.6947 251.847 33.4869 253.895 35.0131C255.512 36.2183 260.928 40.6312 261.617 48.8608C261.799 51.033 261.787 55.4318 259.092 60.0593C256.614 64.3139 253.193 66.4664 251.34 67.4246C250.997 67.602 250.656 67.7623 250.321 67.9107C251.853 68.5646 253.084 69.1828 254.147 69.7509C255.938 70.7083 258.136 72.1784 260.164 74.3687C261.943 76.2891 265.372 80.712 265.662 87.3681C265.98 94.6373 262.339 99.5502 260.84 101.336C259.048 103.472 257.156 104.886 255.978 105.682C251.698 108.57 247.42 109.356 244.682 109.876C240.577 110.656 234.806 111.435 212.463 112.467C214.199 113.29 215.932 114.32 217.593 115.611C218.492 116.31 221.075 118.363 223.093 121.833C225.563 126.079 226.873 131.973 224.86 138.195C223.338 142.9 220.439 145.893 219.499 146.845C218.135 148.226 215.754 149.939 215.754 149.939L69.8198 149.939C69.8198 149.939 72.8294 145.937 74.5811 144.484L75.1429 144.031C77.9819 141.804 81.2011 140.188 83.2594 139.302C86.4205 137.942 90.2948 136.721 99.1636 134.907C91.2428 134.203 83.9657 133.555 78.1746 133.02C60.7043 131.408 56.405 130.896 52.485 129.896C50.5549 129.403 48.594 128.889 46.8652 128.359C45.3551 127.896 42.8393 127.077 40.3702 125.705C38.8169 124.842 35.7215 122.969 33.013 119.7C31.4159 117.773 23.883 107.597 30.9118 95.8461C33.2977 91.857 36.4789 89.6322 37.9724 88.681C39.7903 87.5232 41.5805 86.7216 43.0695 86.1734C46.7929 84.8029 51.9221 83.4735 61.4244 82.094C64.1534 81.6978 67.3466 81.2731 71.9486 80.8204C69.4258 80.4812 67.4803 80.2018 65.9693 79.9639C63.3555 79.5525 58.0806 78.9061 53.3472 75.5453C51.0386 73.906 48.8466 71.7168 47.1471 68.9626C45.6309 66.5052 43.5518 62.0024 44.0852 56.1963L44.1486 55.6049C44.2985 54.3658 44.554 53.2034 44.8887 52.1172C44.2763 52.0927 43.6807 52.0679 43.1023 52.0446C26.4597 51.3744 23.2985 51.2246 20.271 50.5895C19.3378 50.3938 15.8803 49.7117 12.4583 47.9735C9.61974 46.5318 2.89992 42.3692 0.834365 33.6001L0.728837 33.1321C-1.35454 23.3497 3.91939 15.5711 9.26027 11.8231L9.76772 11.4793Z" fill="#1E1E1E"/>
</svg>
