<svg width="669" height="356" viewBox="0 0 669 356" fill="none" xmlns="http://www.w3.org/2000/svg">
<path d="M664.995 158.83C666.547 164.864 672.415 187.678 662.245 213.396C649.887 244.646 621.416 262.179 589.65 266.71C582.193 267.774 574.179 268.307 566.631 268.649C558.704 269.009 549.319 269.232 540.405 269.267C527.664 269.317 521.104 285.191 530.471 293.827C549.241 311.133 571.798 319.135 590.555 335.234C593.614 338.001 600.682 345.683 604.447 350.759C605.201 352.039 606.831 355.36 606.831 355.36L61.3305 355.361C61.3305 355.361 55.7345 351.747 53.4165 350.074C51.0606 348.373 46.044 344.655 40.8444 339.286C38.2783 336.637 33.5398 331.431 29.0973 323.913C25.1514 317.236 16.9821 301.312 18.0245 279.381C19.2779 253.015 32.9822 232.272 49.2248 219.849C62.5952 209.623 75.6929 206.32 81.1205 205.156C82.7026 204.816 82.8508 202.368 81.2927 201.931C76.9934 200.726 73.0226 199.599 69.3952 198.521C64.4879 197.062 59.1187 195.355 54.1014 193.385C51.6994 192.441 47.6893 190.785 43.2009 188.358C41.5739 187.478 27.8712 180.529 16.6545 165.682C10.2283 157.175 -0.676954 139.005 0.61031 113.553C1.99358 86.2031 16.4533 67.4664 27.7639 57.5786C50.4857 37.7155 78.2295 35.6229 106.427 38.9386C119.761 40.5065 135.855 42.7544 186.256 52.86C188.389 53.2878 190.354 51.563 190.306 49.3876C189.9 30.9201 206.113 0.0688085 206.113 0.0688085L436.831 0.070185C436.831 0.070185 516.052 28.8982 547.806 43.194C586.524 60.625 612.086 76.9471 632.094 99.3317C650.006 119.372 660.361 140.818 664.995 158.83Z" fill="black"/>
</svg>
