<?xml version="1.0" encoding="UTF-8"?>
<svg width="229px" height="199px" viewBox="0 0 229 199" version="1.1" xmlns="http://www.w3.org/2000/svg" xmlns:xlink="http://www.w3.org/1999/xlink">
    <title>mask2</title>
    <g id="Page-1" stroke="none" stroke-width="1" fill="none" fill-rule="evenodd">
        <g id="mask2" transform="translate(0.1504, 0.24)" fill="#000000" fill-rule="nonzero">
            <path d="M163.342609,0 C199.296609,21.496202 225.233609,59.879002 228.516609,102.011002 C229.515609,114.830002 227.336609,126.913002 222.374609,138.689002 C222.294609,138.880002 222.209609,139.068002 222.126609,139.256002 C225.798609,144.894002 229.886609,156.030002 220.505609,158.569002 C216.746609,159.586002 212.888609,157.747002 211.236609,154.375002 C211.221609,154.388002 211.206609,154.402002 211.191609,154.414002 C214.761609,169.944002 215.892609,182.141002 215.815609,189.396002 C215.774609,193.226002 214.363609,198.760002 214.363609,198.760002 L82.3769092,198.760002 C80.7627092,193.098002 78.4617092,187.344002 78.0195092,181.426002 C65.9234092,181.357002 55.5206092,176.953002 50.6074092,165.228002 C50.5797092,165.162002 50.5541092,165.095002 50.5273092,165.029002 C43.4498092,163.490002 37.3046092,157.415002 35.3164092,150.519002 C23.6322092,144.511002 12.4239092,137.343002 3.96581917,127.120002 C-1.56385083,120.436002 -1.83755083,109.461002 6.52148917,104.821002 L7.00292917,104.565002 C9.04212917,103.529002 11.2434092,102.983002 12.9053092,102.687002 C7.01727917,94.038002 2.47708917,84.237502 9.57226917,74.782602 L9.92870917,74.325602 C16.3850092,66.383202 30.2727092,67.042702 39.3350092,68.128302 C42.9316092,62.982502 50.2241092,62.206702 56.0117092,62.265102 C52.4965092,56.356302 46.1059092,47.421502 46.9434092,39.838302 C47.4225092,35.500302 51.0214092,31.984402 55.4502092,31.970102 C55.5261092,31.969902 55.6012092,31.972302 55.6758092,31.974102 C54.5156092,27.540102 53.4463092,22.642002 55.9844092,18.454502 L56.2558092,18.028702 C60.1461092,12.233202 68.0589092,12.608602 73.3916092,16.050202 C73.4214092,15.979702 73.4519092,15.910002 73.4814092,15.840302 C73.3714092,8.258362 73.4101092,0 73.4101092,0 L163.342609,0 Z M17.4766092,118.295002 C20.5511092,121.744002 26.1280092,127.053002 35.4336092,132.440002 C35.6975092,131.414002 36.0227092,130.222002 36.4238092,128.813002 C34.7217092,127.176002 33.0896092,125.586002 31.5762092,124.096002 C27.5178092,122.118002 22.5180092,118.882002 17.9199092,118.336002 C17.7653092,118.318002 17.6204092,118.304002 17.4766092,118.295002 Z M185.634609,36.936902 C186.182609,38.289202 186.736609,39.673702 187.300609,41.092202 C188.470609,44.035302 189.536609,46.945902 190.509609,49.798302 C196.011609,60.018102 199.795609,69.259602 202.125609,75.780702 C206.659609,88.470702 209.436609,102.215002 209.646609,115.721002 C209.693609,115.833002 209.742609,115.944002 209.789609,116.055002 C210.518609,117.777002 211.090609,119.584002 211.539609,121.432002 C211.655609,120.863002 211.753609,120.292002 211.827609,119.714002 C213.849609,90.722102 204.470609,59.394502 186.185609,37.587302 C186.002609,37.368802 185.817609,37.152902 185.634609,36.936902 Z M25.2598092,84.065802 C23.6401092,84.285302 22.7372092,84.518502 22.1641092,84.737702 C21.8892092,85.262502 22.2077092,87.028102 21.9385092,86.500402 C24.2682092,91.053502 27.5768092,97.431002 41.0039092,110.908002 C41.2450092,111.029002 41.4897092,111.151002 41.7363092,111.277002 C41.9684092,110.532002 42.2070092,109.769002 42.4512092,108.988002 C36.5761092,103.554002 31.6874092,97.716802 27.5059092,90.876402 C26.1143092,88.600002 25.4387092,86.404902 25.2598092,84.065802 Z" id="Shape"></path>
        </g>
    </g>
</svg>