<svg width="957" height="902" viewBox="0 0 957 902" fill="none" xmlns="http://www.w3.org/2000/svg">
<path d="M947.323 352.601C911.038 444.357 799.162 434.896 719.216 431.215C805 487.5 898.5 578 872.5 654.5C835.043 764.709 730.943 719.714 647.992 697.222C660.007 778.342 592.581 901.597 500 901.129C420.508 900.727 347.116 809.676 400.592 726.496C292.809 656.454 111.052 628.504 41.4499 510.723C0.592364 441.584 47.1975 348.53 126.404 339.07C62.6595 321.264 -3.20878 286.882 0.692028 209.751C7.87609 67.708 180.76 105.671 272.403 124.141C253.727 -122.019 691.479 67.6157 783.591 109.085C871.125 148.494 991.131 241.822 947.323 352.601Z" fill="black" style="mix-blend-mode:screen"/>
</svg>
