<svg width="236" height="205" viewBox="0 0 236 205" fill="none" xmlns="http://www.w3.org/2000/svg">
<path d="M182.615 0.505859C212.738 24.9199 232.599 60.6049 235.362 99.647C236.817 119.871 231.679 142.497 217.067 157.318C216.012 158.365 214.97 159.302 213.951 160.148C215.587 169.303 216.555 178.159 216.384 187.821C216.345 189.069 216.257 190.452 215.958 192.101C215.696 193.69 214.976 195.815 214.57 196.721C213.241 200.016 209.391 204.227 209.391 204.227H147.189C147.189 204.227 138.753 200.385 135.562 198.398C133.389 200.76 128.573 204.227 128.573 204.227H83.9801C83.9801 204.227 77.0953 198.795 74.6051 195.931C70.5321 191.048 70.2025 188.496 69.4439 186.114C67.4176 185.905 65.3192 185.598 63.1051 185.19C54.3331 183.1 46.5951 176.599 42.7525 168.493C38.3705 166.77 35.8888 164.206 34.8853 163.565C30.6481 160.255 27.6637 155.355 26.2818 150.189C25.3187 146.29 25.1401 143.389 25.1295 140.944C17.3043 136.253 9.95858 130.523 3.89803 123.235C2.66582 121.751 1.79488 120.004 1.25936 118.359C0.671195 116.498 0.325079 114.46 0.93612 111.986C1.53019 109.452 3.62973 107.293 5.45272 106.358C7.73767 105.153 9.57907 104.814 11.4879 104.507C13.0456 104.266 14.9475 104.221 16.5621 104.435C16.8607 104.499 17.1551 104.565 17.4449 104.632C13.932 100.248 10.7666 95.5714 8.25057 90.4517C7.39809 88.8277 7.04591 86.9915 6.87362 85.7837C6.59939 84.3084 6.73718 82.1679 7.19686 80.728C10.7664 69.1398 24.3684 69.0872 34.5719 70.0708C35.0185 69.913 35.4547 69.7731 35.8844 69.646C36.3498 69.5303 36.8128 69.4216 37.273 69.3179C37.3429 69.1477 37.4178 68.9819 37.5015 68.8237C39.0045 65.9758 40.9262 65.1095 42.2721 64.4517C43.6754 63.8355 44.8598 63.5587 45.9752 63.3491C46.3089 63.2871 46.6432 63.2317 46.9771 63.1802C47.4209 61.8026 47.8644 60.4235 48.3101 59.0435C44.1456 51.2831 36.277 38.2664 44.7808 30.356C46.3686 28.4608 51.5197 26.8117 53.6851 27.3062C54.7198 27.4202 55.4797 27.5868 56.0748 27.7632C56.0123 27.5169 55.9497 27.271 55.8883 27.0249C55.6558 26.0505 55.4395 25.0449 55.3316 23.8208C55.2847 22.6116 55.0442 21.0375 56.3082 18.7466C57.7494 16.3745 60.4662 15.35 63.1461 15.5112C63.2166 15.3365 63.2878 15.1618 63.359 14.9868C63.3338 13.4229 63.3106 11.8427 63.2906 10.2427C63.254 7.17801 63.2398 0.505859 63.2398 0.505859H182.615ZM168.015 175.208C166.318 175.282 164.656 175.343 163.02 175.406C168.998 181.757 175.493 188.123 179.105 189.19C180.784 189.793 182.633 190.166 184.288 190.28C185.594 189.553 186.414 188.9 186.515 188.709C188.175 186.862 188.13 186.511 188.055 186.688C188.07 186.567 188.083 186.446 188.097 186.324C187.346 186.214 186.622 186.084 185.932 185.939C176.007 182.956 173.634 179.483 169.258 176.26C168.839 175.91 168.425 175.558 168.015 175.208ZM16.1812 117.385C19.4135 120.726 23.1607 123.758 27.2193 126.48C27.5591 125.262 27.8989 124.085 28.2457 122.898C28.2818 122.775 28.3179 122.651 28.3541 122.528C26.1252 121.473 23.9127 120.452 21.7437 119.514C20.3576 118.916 18.9862 118.353 17.7242 117.895C17.2028 117.699 16.6487 117.522 16.1812 117.385ZM24.9791 80.6489C22.2532 80.8952 19.6578 81.3227 18.4937 81.9155C18.4556 81.9334 18.4228 81.9501 18.3941 81.9644C17.6274 83.0836 17.2958 84.248 17.9537 85.4868C21.7291 93.0344 27.3105 99.6108 33.4303 105.904C34.1017 103.748 34.776 101.591 35.4527 99.4312C31.9935 95.7055 29.0802 91.5518 26.9371 87.8911C25.5397 85.8078 24.85 83.1514 24.9889 80.6479C24.9856 80.6483 24.9823 80.6486 24.9791 80.6489ZM36.8678 81.0591C36.531 81.2182 36.2388 81.3701 36.0123 81.5063C35.9758 81.5271 35.9422 81.5503 35.9098 81.5708C35.9199 81.6451 35.9293 81.6772 35.9439 81.7271C35.9688 81.8041 36.0373 81.9675 36.1978 82.23C37.216 84.0008 38.2383 85.6352 39.3121 87.1763C39.8773 85.3909 40.4446 83.6039 41.0133 81.8149C40.7349 81.7495 40.4588 81.689 40.1851 81.6343C39.0835 81.4123 37.9757 81.2211 36.8678 81.0591Z" fill="#1E1E1E"/>
</svg>
