<svg width="229" height="199" viewBox="0 0 229 199" fill="none" xmlns="http://www.w3.org/2000/svg">
<path d="M163.493 0.239998C199.447 21.7362 225.384 60.119 228.667 102.251C229.666 115.07 227.487 127.153 222.525 138.929C222.445 139.12 222.36 139.308 222.277 139.496C225.949 145.134 230.037 156.27 220.656 158.809C216.897 159.826 213.039 157.987 211.387 154.615C211.372 154.628 211.357 154.642 211.342 154.654C214.912 170.184 216.043 182.381 215.966 189.636C215.925 193.466 214.514 199 214.514 199H82.5273C80.9131 193.338 78.6121 187.584 78.1699 181.666C66.0738 181.597 55.671 177.193 50.7578 165.468C50.7301 165.402 50.7045 165.335 50.6777 165.269C43.6002 163.73 37.455 157.655 35.4668 150.759C23.7826 144.751 12.5743 137.583 4.11621 127.36C-1.41346 120.676 -1.68716 109.701 6.67188 105.061L7.15332 104.805C9.19252 103.769 11.3938 103.223 13.0557 102.927C7.16767 94.278 2.62748 84.4775 9.72266 75.0226L10.0791 74.5656C16.5354 66.6232 30.4231 67.2827 39.4854 68.3683C43.082 63.2225 50.3745 62.4467 56.1621 62.5051C52.6469 56.5963 46.2563 47.6615 47.0938 40.0783C47.5729 35.7403 51.1718 32.2244 55.6006 32.2101C55.6765 32.2099 55.7516 32.2123 55.8262 32.2141C54.666 27.7801 53.5967 22.882 56.1348 18.6945L56.4062 18.2687C60.2965 12.4732 68.2093 12.8486 73.542 16.2902C73.5718 16.2197 73.6023 16.15 73.6318 16.0803C73.5218 8.49836 73.5605 0.239998 73.5605 0.239998H163.493ZM167.438 169.828C167.216 170.517 166.943 171.177 166.628 171.801C165.333 174.359 163.271 176.465 160.615 177.907C160.428 178.009 160.237 178.105 160.047 178.198C160.319 178.503 160.596 178.809 160.879 179.112C165.088 183.631 168.617 187.373 171.957 190.324C174.839 192.871 177.235 194.508 179.349 195.454C179.477 195.441 179.605 195.428 179.732 195.412C184.103 194.884 186.023 194.37 187.109 193.828C191.285 191.746 192.616 189.719 192.978 185.402C192.98 185.372 192.982 185.343 192.984 185.314C182.684 184.366 174.653 176.539 167.438 169.828ZM108.159 189.899C107.853 190.151 107.551 190.394 107.254 190.63C108.825 190.793 110.486 190.53 112.018 190.197C110.729 190.176 109.433 190.097 108.159 189.899ZM191.431 165.01C190.182 165.37 188.9 165.698 187.582 165.994C188.792 166.893 189.865 167.616 190.791 168.161C191.408 168.524 191.899 168.773 192.271 168.935C192.511 169.039 192.663 169.089 192.733 169.111C192.43 167.977 192.011 166.607 191.431 165.01ZM17.627 118.535C20.7015 121.984 26.2784 127.293 35.584 132.68C35.8479 131.654 36.1731 130.462 36.5742 129.053C34.8721 127.416 33.24 125.826 31.7266 124.336C27.6682 122.358 22.6684 119.122 18.0703 118.576C17.9157 118.558 17.7708 118.544 17.627 118.535ZM185.785 37.1769C186.333 38.5292 186.887 39.9137 187.451 41.3322C188.621 44.2753 189.687 47.1859 190.66 50.0383C196.162 60.2581 199.946 69.4996 202.276 76.0207C206.81 88.7107 209.587 102.455 209.797 115.961C209.844 116.073 209.893 116.184 209.94 116.295C210.669 118.017 211.241 119.824 211.69 121.672C211.806 121.103 211.904 120.532 211.978 119.954C214 90.9621 204.621 59.6345 186.336 37.8273C186.153 37.6088 185.968 37.3929 185.785 37.1769ZM25.4102 84.3058C23.7905 84.5253 22.8876 84.7585 22.3145 84.9777C22.0396 85.5025 22.3581 87.2681 22.0889 86.7404C24.4186 91.2935 27.7272 97.671 41.1543 111.148C41.3954 111.269 41.6401 111.391 41.8867 111.517C42.1188 110.772 42.3574 110.009 42.6016 109.228C36.7265 103.794 31.8378 97.9568 27.6563 91.1164C26.2647 88.84 25.5891 86.6449 25.4102 84.3058ZM177.059 107.207C177.082 108.297 177.096 109.365 177.105 110.409C177.581 110.652 178.053 110.892 178.521 111.131C178.026 109.775 177.538 108.464 177.059 107.207ZM42.7158 85.1027C43.9536 87.1179 45.554 89.5235 47.9805 92.1838C48.1402 91.681 48.2998 91.1758 48.4609 90.6691C46.2194 88.6972 44.4091 86.8552 42.8096 85.1223L42.8047 85.1213C42.7751 85.115 42.7455 85.109 42.7158 85.1027ZM155.617 73.718C154.158 76.2009 153.427 78.9064 153.034 81.7326C155.706 85.0662 158.095 88.1592 160.203 90.9621C159.778 85.5735 159.26 80.4314 158.562 75.5734C157.505 74.89 156.53 74.2699 155.617 73.718ZM168.103 43.466C170.12 50.9307 171.745 58.5296 173.202 66.1232C175.789 67.9972 178.188 70.0125 180.418 72.0734C179.243 67.2477 177.777 61.9707 175.941 56.4611C173.508 52.0216 170.851 47.7158 168.103 43.466ZM139.13 26.1144C139.088 26.1272 139.044 26.1424 138.997 26.1584C139.31 29.245 139.61 32.6665 139.89 36.4201C141.624 42.1882 143.351 47.9695 144.688 53.8449C144.856 53.8612 145.024 53.8791 145.191 53.8967C145.56 53.7837 145.933 53.6821 146.311 53.593C148.95 52.9699 151.581 52.9948 154.123 53.4719C152.416 46.2129 150.674 38.3682 146.494 32.0978C145.118 30.0331 142.519 25.0835 139.13 26.1144Z" fill="black"/>
</svg>
