<?xml version="1.0" encoding="UTF-8"?>
<svg width="236px" height="205px" viewBox="0 0 236 205" version="1.1" xmlns="http://www.w3.org/2000/svg" xmlns:xlink="http://www.w3.org/1999/xlink">
    <title>Path</title>
    <g id="Page-1" stroke="none" stroke-width="1" fill="none" fill-rule="evenodd">
        <g id="mask-story" transform="translate(0.6147, 0.5059)" fill="#1E1E1E" fill-rule="nonzero">
            <path d="M182.000254,0 C212.123254,24.414041 231.984254,60.099041 234.747254,99.141141 C236.202254,119.365141 231.064254,141.991141 216.452254,156.812141 C215.397254,157.859141 214.355254,158.796141 213.336254,159.642141 C214.972254,168.797141 215.940254,177.653141 215.769254,187.315141 C215.730254,188.563141 215.642254,189.946141 215.343254,191.595141 C215.081254,193.184141 214.361254,195.309141 213.955254,196.215141 C212.626254,199.510141 208.776254,203.721141 208.776254,203.721141 L146.574254,203.721141 C146.574254,203.721141 138.138254,199.879141 134.947254,197.892141 C132.774254,200.254141 127.958254,203.721141 127.958254,203.721141 L83.3653539,203.721141 C83.3653539,203.721141 76.4805539,198.289141 73.9903539,195.425141 C69.9173539,190.542141 69.5877539,187.990141 68.8291539,185.608141 C66.8028539,185.399141 64.7044539,185.092141 62.4903539,184.684141 C53.7183539,182.594141 45.9803539,176.093141 42.1377539,167.987141 C37.7557539,166.264141 35.2740539,163.700141 34.2705539,163.059141 C30.0333539,159.749141 27.0489539,154.849141 25.6670539,149.683141 C24.7039539,145.784141 24.5253539,142.883141 24.5147539,140.438141 C16.6895539,135.747141 9.34383394,130.017141 3.28328394,122.729141 C2.05107394,121.245141 1.18013394,119.498141 0.644613944,117.853141 C0.0564489436,115.992141 -0.289667056,113.954141 0.321373944,111.480141 C0.915443944,108.946141 3.01498394,106.787141 4.83797394,105.852141 C7.12292394,104.647141 8.96432394,104.308141 10.8731539,104.001141 C12.4308539,103.760141 14.3327539,103.715141 15.9473539,103.929141 C16.2459539,103.993141 16.5403539,104.059141 16.8301539,104.126141 C13.3172539,99.742141 10.1518539,95.065541 7.63582394,89.945841 C6.78334394,88.321841 6.43116394,86.485641 6.25887394,85.277841 C5.98464394,83.802541 6.12243394,81.662041 6.58211394,80.222141 C10.1516539,68.633941 23.7536539,68.581341 33.9571539,69.564941 C34.4037539,69.407141 34.8399539,69.267241 35.2696539,69.140141 C35.7350539,69.024441 36.1980539,68.915741 36.6582539,68.812041 C36.7281539,68.641841 36.8030539,68.476041 36.8867539,68.317841 C38.3897539,65.469941 40.3114539,64.603641 41.6573539,63.945841 C43.0606539,63.329641 44.2450539,63.052841 45.3604539,62.843241 C45.6941539,62.781241 46.0284539,62.725841 46.3623539,62.674341 C46.8061539,61.296741 47.2496539,59.917641 47.6953539,58.537641 C43.5308539,50.777241 35.6622539,37.760541 44.1660539,29.850141 C45.7538539,27.954941 50.9049539,26.305841 53.0703539,26.800341 C54.1050539,26.914341 54.8649539,27.080941 55.4600539,27.257341 C55.3975539,27.011041 55.3349539,26.765141 55.2735539,26.519041 C55.0410539,25.544641 54.8247539,24.539041 54.7168539,23.314941 C54.6699539,22.105741 54.4294539,20.531641 55.6934539,18.240741 C57.1346539,15.868641 59.8514539,14.844141 62.5313539,15.005341 C62.6018539,14.830641 62.6730539,14.655941 62.7442539,14.480941 C62.7190539,12.917041 62.6958539,11.336841 62.6758539,9.736841 C62.6392539,6.672151 62.6250539,0 62.6250539,0 L182.000254,0 Z M15.5664539,116.879141 C18.7987539,120.220141 22.5459539,123.252141 26.6045539,125.974141 C26.9443539,124.756141 27.2841539,123.579141 27.6309539,122.392141 C27.6670539,122.269141 27.7031539,122.145141 27.7393539,122.022141 C25.5104539,120.967141 23.2979539,119.946141 21.1289539,119.008141 C19.7428539,118.410141 18.3714539,117.847141 17.1094539,117.389141 C16.5880539,117.193141 16.0339539,117.016141 15.5664539,116.879141 Z M24.3643539,80.143041 C21.6384539,80.389341 19.0430539,80.816841 17.8789539,81.409641 C17.8408539,81.427541 17.8080539,81.444241 17.7793539,81.458541 C17.0126539,82.577741 16.6810539,83.742141 17.3389539,84.980941 C21.1143539,92.528541 26.6957539,99.104941 32.8155539,105.398141 C33.4869539,103.242141 34.1612539,101.085141 34.8379539,98.925341 C31.3787539,95.199641 28.4654539,91.045941 26.3223539,87.385241 C24.9249539,85.301941 24.2352539,82.645541 24.3741539,80.142041 C24.3708539,80.142441 24.3675539,80.142741 24.3643539,80.143041 Z M36.2530539,80.553241 C35.9162539,80.712341 35.6240539,80.864241 35.3975539,81.000441 C35.3610539,81.021241 35.3274539,81.044441 35.2950539,81.064941 C35.3051539,81.139241 35.3145539,81.171341 35.3291539,81.221241 C35.3540539,81.298241 35.4225539,81.461641 35.5830539,81.724141 C36.6012539,83.494941 37.6235539,85.129341 38.6973539,86.670441 C39.2625539,84.885041 39.8298539,83.098041 40.3985539,81.309041 C40.1201539,81.243641 39.8440539,81.183141 39.5703539,81.128441 C38.4687539,80.906441 37.3609539,80.715241 36.2530539,80.553241 Z" id="Shape"></path>
        </g>
    </g>
</svg>