<svg width="730" height="597" viewBox="0 0 730 597" fill="none" xmlns="http://www.w3.org/2000/svg">
<path d="M680.138 101.523C682.618 101.608 685.204 101.92 687.867 102.534C702.352 106.114 708.484 113.795 711.627 117.456C714.766 121.441 716.089 124.143 717.097 126.201L717.167 126.344C751.923 205.078 703.397 411.103 703.016 414.052C702.635 417 717.762 406.5 717.762 406.5V545.38C714.387 554.398 710.932 563.486 707.144 572.795C705.207 577.525 700.848 596.367 700.848 596.367H622.082C622.082 596.367 620.183 584.977 619.578 582.542C618.414 577.744 617.757 573.608 617.266 569.498C616.322 561.356 616.163 553.575 616.663 545.634C617.308 535.058 618.05 524.619 618.838 514.27C617.808 516.856 616.691 519.582 615.463 522.481C611.088 532 604.989 539.395 596.042 545.573C570.125 561.178 541.57 546.259 531 520.097C528.367 508.934 529.481 510.599 529.159 508.458C529.049 505.316 529.176 502.152 529.495 499.025L529.496 499.018L529.515 498.834C529.974 494.322 530.831 488.664 531.424 485.341C531.618 484.199 531.809 483.105 531.996 482.045C531.269 484.264 530.406 486.429 529.459 488.562C528.834 489.845 528.232 491.343 525.878 495.093C524.576 497.034 523.063 499.559 518.669 504.074C514.002 507.763 506.893 518.359 480.911 520.052C473.157 520.35 464.541 518.227 457.123 514.808C456.86 515.476 456.527 516.312 456.075 517.417C446.171 541.18 424.444 557.335 399.3 562.3C385.634 565.004 361.502 561.019 346.732 549.62C338.309 543.458 332.811 537.182 329.011 531.578C328.96 531.634 328.911 531.692 328.859 531.748C325.624 535.24 324.035 537.341 321.593 541.482C321.34 541.91 321.077 542.349 320.806 542.799C320.67 543.024 320.532 543.252 320.391 543.483L320.348 543.552L320.339 543.568C320.288 543.652 320.24 543.73 320.163 543.86C320.055 544.042 319.945 544.226 319.833 544.412C318.935 545.907 317.92 547.539 316.649 549.435C309.604 559.899 300.767 568.842 290.028 575.605C281.495 580.798 267.239 587.918 246.189 587.665C225.128 588.217 199.274 574.503 188.91 561.796C187.531 560.128 186.253 558.51 185.067 556.945C183.295 557.501 181.431 558.021 179.494 558.497C178.408 567.311 176.579 596.367 176.579 596.367H22.0942C22.0942 596.367 24.5717 545.859 25.8901 526.579C25.8708 526.64 25.8543 526.703 25.8341 526.765C25.7304 527.073 25.6809 527.25 25.4154 527.913C25.2941 528.209 25.1518 528.543 24.9352 528.974C24.8808 529.082 24.8213 529.198 24.7547 529.321C24.7262 529.373 24.6956 529.428 24.6641 529.484L24.6482 529.512L24.6286 529.547C24.5972 529.602 24.557 529.674 24.4569 529.84C23.996 530.538 23.5219 531.489 21.6484 533.08C20.0754 534.458 14.68 537.647 8.30256 534.453C4.15424 531.972 1.70637 527.795 1.60537 522.969L1.60436 522.921C-0.500004 502.5 2.47451 483.29 7.17463 463.598L7.66902 461.527C9.66455 443.667 11.7006 425.798 13.8366 407.631C19.8709 355.609 26.3302 303.609 33.6785 251.756C35.2145 240.935 36.8025 230.077 38.5067 219.227C39.3841 213.683 40.2345 208.411 41.243 202.738C41.7369 199.962 42.2606 197.128 42.8639 194.188C42.99 193.558 43.1896 192.634 43.3584 191.871C43.6454 190.59 43.944 189.314 44.2826 188.047L44.3115 187.939C46.2185 180.849 50.4652 174.452 57.123 171.035C61.816 168.38 68.6379 167.742 73.8171 169.493C83.9639 172.879 86.2151 178.384 87.6593 180.48C89.1306 183.175 89.4974 184.613 89.8595 185.787C90.2567 187.171 90.46 188.285 90.5648 188.859L90.5779 188.931C90.8035 190.229 90.8957 190.999 90.9908 191.794L90.9985 191.858C91.1684 193.315 91.2701 194.496 91.3631 195.657C91.5421 197.937 91.6595 199.926 91.7656 201.962C91.9723 205.979 92.1111 209.881 92.2258 213.737C92.4516 221.415 92.5727 229.095 92.6518 236.636C92.7375 245.297 92.7567 253.916 92.7366 262.526C94.3768 247.542 96.0262 232.566 97.7346 217.377C98.9548 206.489 100.207 195.454 101.539 184.116C102.083 179.325 102.933 172.426 103.536 167.454C104.131 162.77 104.715 158.084 105.418 153.414C105.481 152.998 105.545 152.585 105.61 152.171C105.642 151.964 105.675 151.756 105.709 151.547C105.721 151.469 105.733 151.399 105.746 151.319L105.747 151.315L105.763 151.22C105.809 150.959 105.855 150.694 105.904 150.422L105.924 150.314C106.122 149.238 106.322 148.149 106.756 146.266L106.791 146.117C108.4 139.336 111.111 133.172 114.596 127.116C117.631 123.3 122.257 113.728 135.263 106.195C135.313 105.897 135.362 105.589 135.415 105.271C135.945 102.193 136.514 99.1184 137.276 96.0876L137.301 95.9881C137.859 93.762 138.531 91.5645 139.281 89.3961C141.913 82.3158 145.205 75.5291 149.678 69.4138C154.183 46.5191 159.212 23.6935 162.893 0.648438H660.969C684.782 27.6974 680.29 67.7529 680.138 101.523Z" fill="black"/>
</svg>
