<svg width="1280" height="426" viewBox="0 0 1280 426" fill="none" xmlns="http://www.w3.org/2000/svg"><path d="M-73 246.874C-73 246.159 -71.2441 242.811 -67.6147 237.248C-64.3162 232.192 -56.7043 225.924 -45.8186 216.941C-34.2419 207.388 -17.6467 198.791 43.3985 177.599C94.4452 159.879 187.946 133.143 261.098 114.936C334.251 96.7293 384.657 89.173 433.815 84.1838C482.972 79.1947 529.353 77.0017 555.441 76.2772C581.53 75.5527 585.919 76.3631 589.497 77.3885C593.076 78.4138 595.709 79.6295 597.721 81.6145C599.732 83.5995 601.04 86.3169 601.756 89.9575C602.471 93.598 602.554 98.0794 601.901 102.366C600.622 110.763 595.69 119.24 590.497 127.461C582.797 139.651 565.015 153.4 544.914 168.084C538.661 172.652 529.32 178.136 481.542 203.55C433.763 228.965 347.61 273.826 300.064 298.951C245.906 327.57 235.994 335.258 229.238 340.988C226.101 343.649 223.79 346.075 223.663 348.34C223.536 350.605 225.723 352.702 249.775 343.819C273.827 334.936 319.678 315.008 395.767 292.013C471.856 269.018 576.794 243.56 761.564 214.689C946.335 185.818 1207.76 154.306 1347.3 137.071C1486.85 119.836 1496.59 117.834 1505.55 115.61C1522.53 111.402 1534.26 107.141 1538.27 105.499C1538.64 105.348 1535.43 106.24 1449.68 140.759C1363.92 175.278 1195.68 243.309 1106.1 279.893C1016.53 316.476 1010.73 319.551 1004.54 323.328C991.723 331.148 982.867 338.204 980.709 342.098C979.871 343.612 984.183 344.944 1081.36 324.283C1178.53 303.622 1369.62 261.12 1502.44 235.412C1635.27 209.703 1704.03 202.075 1766.93 198.146C1829.83 194.216 1884.79 194.216 1935.2 196.934C1985.6 199.651 2029.78 205.086 2075.29 210.686" stroke="white" stroke-width="150" stroke-linecap="round" stroke-linejoin="round"/></svg>